G04 #@! TF.GenerationSoftware,KiCad,Pcbnew,10.0.6*
G04 #@! TF.CreationDate,2026-09-17T21:11:25-05:00*
G04 #@! TF.ProjectId,picoco.4zKLaxnCug,7069636f-636f-42e3-947a-4b4c61786e43,rev?*
G04 #@! TF.SameCoordinates,Original*
G04 #@! TF.FileFunction,Paste,Top*
G04 #@! TF.FilePolarity,Positive*
%FSLAX46Y46*%
G04 Gerber Fmt 4.6, Leading zero omitted, Abs format (unit mm)*
G04 Created by KiCad (PCBNEW 10.0.6) date 2026-09-17 21:11:25*
%MOMM*%
%LPD*%
G01*
G04 APERTURE LIST*
G04 Aperture macros list*
%AMRoundRect*
0 Rectangle with rounded corners*
0 $1 Rounding radius*
0 $2 $3 $4 $5 $6 $7 $8 $9 X,Y pos of 4 corners*
0 Add a 4 corners polygon primitive as box body*
4,1,4,$2,$3,$4,$5,$6,$7,$8,$9,$2,$3,0*
0 Add four circle primitives for the rounded corners*
1,1,$1+$1,$2,$3*
1,1,$1+$1,$4,$5*
1,1,$1+$1,$6,$7*
1,1,$1+$1,$8,$9*
0 Add four rect primitives between the rounded corners*
20,1,$1+$1,$2,$3,$4,$5,0*
20,1,$1+$1,$4,$5,$6,$7,0*
20,1,$1+$1,$6,$7,$8,$9,0*
20,1,$1+$1,$8,$9,$2,$3,0*%
G04 Aperture macros list end*
%ADD10RoundRect,0.250000X-0.262500X-0.450000X0.262500X-0.450000X0.262500X0.450000X-0.262500X0.450000X0*%
%ADD11RoundRect,0.250000X0.475000X-0.250000X0.475000X0.250000X-0.475000X0.250000X-0.475000X-0.250000X0*%
%ADD12RoundRect,0.250000X0.450000X-0.262500X0.450000X0.262500X-0.450000X0.262500X-0.450000X-0.262500X0*%
%ADD13RoundRect,0.250000X-1.500000X-1.000000X1.500000X-1.000000X1.500000X1.000000X-1.500000X1.000000X0*%
%ADD14RoundRect,0.250000X-1.000000X-0.650000X1.000000X-0.650000X1.000000X0.650000X-1.000000X0.650000X0*%
%ADD15RoundRect,0.150000X-0.875000X-0.150000X0.875000X-0.150000X0.875000X0.150000X-0.875000X0.150000X0*%
%ADD16RoundRect,0.150000X-0.587500X-0.150000X0.587500X-0.150000X0.587500X0.150000X-0.587500X0.150000X0*%
%ADD17RoundRect,0.150000X-0.825000X-0.150000X0.825000X-0.150000X0.825000X0.150000X-0.825000X0.150000X0*%
%ADD18RoundRect,0.250000X-0.250000X-0.475000X0.250000X-0.475000X0.250000X0.475000X-0.250000X0.475000X0*%
%ADD19RoundRect,0.375000X-0.625000X-0.375000X0.625000X-0.375000X0.625000X0.375000X-0.625000X0.375000X0*%
%ADD20RoundRect,0.500000X-0.500000X-1.400000X0.500000X-1.400000X0.500000X1.400000X-0.500000X1.400000X0*%
%ADD21R,1.700000X3.500000*%
%ADD22R,1.800000X1.800000*%
%ADD23R,1.400000X1.400000*%
G04 APERTURE END LIST*
D10*
G04 #@! TO.C,R12*
X162087500Y-84000000D03*
X163912500Y-84000000D03*
G04 #@! TD*
D11*
G04 #@! TO.C,C6*
X154000000Y-83950000D03*
X154000000Y-82050000D03*
G04 #@! TD*
D12*
G04 #@! TO.C,R21*
X189500000Y-88412500D03*
X189500000Y-86587500D03*
G04 #@! TD*
D10*
G04 #@! TO.C,R2*
X131087500Y-86000000D03*
X132912500Y-86000000D03*
G04 #@! TD*
G04 #@! TO.C,R1*
X123087500Y-86000000D03*
X124912500Y-86000000D03*
G04 #@! TD*
D11*
G04 #@! TO.C,C3*
X113000000Y-84950000D03*
X113000000Y-83050000D03*
G04 #@! TD*
G04 #@! TO.C,C14*
X196100000Y-92450000D03*
X196100000Y-90550000D03*
G04 #@! TD*
D13*
G04 #@! TO.C,C12*
X102750000Y-74000000D03*
X109250000Y-74000000D03*
G04 #@! TD*
D10*
G04 #@! TO.C,R18*
X131087500Y-70000000D03*
X132912500Y-70000000D03*
G04 #@! TD*
D12*
G04 #@! TO.C,R20*
X193900000Y-92412500D03*
X193900000Y-90587500D03*
G04 #@! TD*
D14*
G04 #@! TO.C,D2*
X113000000Y-96000000D03*
X117000000Y-96000000D03*
G04 #@! TD*
D11*
G04 #@! TO.C,C9*
X181000000Y-77950000D03*
X181000000Y-76050000D03*
G04 #@! TD*
G04 #@! TO.C,C8*
X182000000Y-83950000D03*
X182000000Y-82050000D03*
G04 #@! TD*
D15*
G04 #@! TO.C,U13*
X177350000Y-86285000D03*
X177350000Y-87555000D03*
X177350000Y-88825000D03*
X177350000Y-90095000D03*
X177350000Y-91365000D03*
X177350000Y-92635000D03*
X177350000Y-93905000D03*
X177350000Y-95175000D03*
X177350000Y-96445000D03*
X177350000Y-97715000D03*
X186650000Y-97715000D03*
X186650000Y-96445000D03*
X186650000Y-95175000D03*
X186650000Y-93905000D03*
X186650000Y-92635000D03*
X186650000Y-91365000D03*
X186650000Y-90095000D03*
X186650000Y-88825000D03*
X186650000Y-87555000D03*
X186650000Y-86285000D03*
G04 #@! TD*
D12*
G04 #@! TO.C,R19*
X189500000Y-92412500D03*
X189500000Y-90587500D03*
G04 #@! TD*
D11*
G04 #@! TO.C,C13*
X191700000Y-92450000D03*
X191700000Y-90550000D03*
G04 #@! TD*
G04 #@! TO.C,C10*
X160000000Y-66950000D03*
X160000000Y-65050000D03*
G04 #@! TD*
D10*
G04 #@! TO.C,R11*
X174087500Y-71000000D03*
X175912500Y-71000000D03*
G04 #@! TD*
D16*
G04 #@! TO.C,Q2*
X127062500Y-84050000D03*
X127062500Y-85950000D03*
X128937500Y-85000000D03*
G04 #@! TD*
D11*
G04 #@! TO.C,C2*
X105000000Y-84950000D03*
X105000000Y-83050000D03*
G04 #@! TD*
D16*
G04 #@! TO.C,Q4*
X127062500Y-73050000D03*
X127062500Y-74950000D03*
X128937500Y-74000000D03*
G04 #@! TD*
D10*
G04 #@! TO.C,R9*
X189087500Y-84000000D03*
X190912500Y-84000000D03*
G04 #@! TD*
D16*
G04 #@! TO.C,Q3*
X131062500Y-79050000D03*
X131062500Y-80950000D03*
X132937500Y-80000000D03*
G04 #@! TD*
D11*
G04 #@! TO.C,C4*
X140000000Y-83950000D03*
X140000000Y-82050000D03*
G04 #@! TD*
D17*
G04 #@! TO.C,U15*
X172525000Y-73190000D03*
X172525000Y-74460000D03*
X172525000Y-75730000D03*
X172525000Y-77000000D03*
X172525000Y-78270000D03*
X172525000Y-79540000D03*
X172525000Y-80810000D03*
X177475000Y-80810000D03*
X177475000Y-79540000D03*
X177475000Y-78270000D03*
X177475000Y-77000000D03*
X177475000Y-75730000D03*
X177475000Y-74460000D03*
X177475000Y-73190000D03*
G04 #@! TD*
D11*
G04 #@! TO.C,C7*
X168000000Y-83950000D03*
X168000000Y-82050000D03*
G04 #@! TD*
D18*
G04 #@! TO.C,C1*
X123050000Y-97500000D03*
X124950000Y-97500000D03*
G04 #@! TD*
D10*
G04 #@! TO.C,R4*
X117087500Y-70000000D03*
X118912500Y-70000000D03*
G04 #@! TD*
D19*
G04 #@! TO.C,U14*
X101850000Y-89700000D03*
X101850000Y-92000000D03*
D20*
X108150000Y-92000000D03*
D19*
X101850000Y-94300000D03*
G04 #@! TD*
D15*
G04 #@! TO.C,U10*
X135350000Y-86285000D03*
X135350000Y-87555000D03*
X135350000Y-88825000D03*
X135350000Y-90095000D03*
X135350000Y-91365000D03*
X135350000Y-92635000D03*
X135350000Y-93905000D03*
X135350000Y-95175000D03*
X135350000Y-96445000D03*
X135350000Y-97715000D03*
X144650000Y-97715000D03*
X144650000Y-96445000D03*
X144650000Y-95175000D03*
X144650000Y-93905000D03*
X144650000Y-92635000D03*
X144650000Y-91365000D03*
X144650000Y-90095000D03*
X144650000Y-88825000D03*
X144650000Y-87555000D03*
X144650000Y-86285000D03*
G04 #@! TD*
D10*
G04 #@! TO.C,R7*
X123087500Y-80000000D03*
X124912500Y-80000000D03*
G04 #@! TD*
G04 #@! TO.C,R3*
X139087500Y-70000000D03*
X140912500Y-70000000D03*
G04 #@! TD*
D12*
G04 #@! TO.C,R10*
X194000000Y-84912500D03*
X194000000Y-83087500D03*
G04 #@! TD*
D10*
G04 #@! TO.C,R8*
X127087500Y-80000000D03*
X128912500Y-80000000D03*
G04 #@! TD*
D11*
G04 #@! TO.C,C15*
X193900000Y-88450000D03*
X193900000Y-86550000D03*
G04 #@! TD*
D10*
G04 #@! TO.C,R15*
X135087500Y-80000000D03*
X136912500Y-80000000D03*
G04 #@! TD*
D15*
G04 #@! TO.C,U12*
X163350000Y-86285000D03*
X163350000Y-87555000D03*
X163350000Y-88825000D03*
X163350000Y-90095000D03*
X163350000Y-91365000D03*
X163350000Y-92635000D03*
X163350000Y-93905000D03*
X163350000Y-95175000D03*
X163350000Y-96445000D03*
X163350000Y-97715000D03*
X172650000Y-97715000D03*
X172650000Y-96445000D03*
X172650000Y-95175000D03*
X172650000Y-93905000D03*
X172650000Y-92635000D03*
X172650000Y-91365000D03*
X172650000Y-90095000D03*
X172650000Y-88825000D03*
X172650000Y-87555000D03*
X172650000Y-86285000D03*
G04 #@! TD*
D10*
G04 #@! TO.C,R17*
X135087500Y-76000000D03*
X136912500Y-76000000D03*
G04 #@! TD*
G04 #@! TO.C,R16*
X131087500Y-74000000D03*
X132912500Y-74000000D03*
G04 #@! TD*
D21*
G04 #@! TO.C,U1*
X100970000Y-65990000D03*
X103510000Y-65990000D03*
X106050000Y-65990000D03*
X108590000Y-65990000D03*
X111130000Y-65990000D03*
X113670000Y-65990000D03*
X116210000Y-65990000D03*
X118750000Y-65990000D03*
X121290000Y-65990000D03*
X123830000Y-65990000D03*
X126370000Y-65990000D03*
X128910000Y-65990000D03*
X131450000Y-65990000D03*
X133990000Y-65990000D03*
X136530000Y-65990000D03*
X139070000Y-65990000D03*
X141610000Y-65990000D03*
X144150000Y-65990000D03*
X146690000Y-65990000D03*
X149230000Y-65990000D03*
X149230000Y-46410000D03*
X146690000Y-46410000D03*
X144150000Y-46410000D03*
X141610000Y-46410000D03*
X139070000Y-46410000D03*
X136530000Y-46410000D03*
X133990000Y-46410000D03*
X131450000Y-46410000D03*
X128910000Y-46410000D03*
X126370000Y-46410000D03*
X123830000Y-46410000D03*
X121290000Y-46410000D03*
X118750000Y-46410000D03*
X116210000Y-46410000D03*
X113670000Y-46410000D03*
X111130000Y-46410000D03*
X108590000Y-46410000D03*
X106050000Y-46410000D03*
X103510000Y-46410000D03*
X100970000Y-46410000D03*
D22*
X142420000Y-61280000D03*
X144960000Y-61280000D03*
X147500000Y-61280000D03*
X142420000Y-58740000D03*
X144960000Y-58740000D03*
D23*
X147500000Y-58740000D03*
D22*
X142420000Y-56200000D03*
X144960000Y-56200000D03*
D23*
X147500000Y-56200000D03*
D22*
X142420000Y-53660000D03*
X144960000Y-53660000D03*
D23*
X147500000Y-53660000D03*
D22*
X142420000Y-51120000D03*
X144960000Y-51120000D03*
X147500000Y-51120000D03*
G04 #@! TD*
D15*
G04 #@! TO.C,U11*
X149350000Y-86285000D03*
X149350000Y-87555000D03*
X149350000Y-88825000D03*
X149350000Y-90095000D03*
X149350000Y-91365000D03*
X149350000Y-92635000D03*
X149350000Y-93905000D03*
X149350000Y-95175000D03*
X149350000Y-96445000D03*
X149350000Y-97715000D03*
X158650000Y-97715000D03*
X158650000Y-96445000D03*
X158650000Y-95175000D03*
X158650000Y-93905000D03*
X158650000Y-92635000D03*
X158650000Y-91365000D03*
X158650000Y-90095000D03*
X158650000Y-88825000D03*
X158650000Y-87555000D03*
X158650000Y-86285000D03*
G04 #@! TD*
D12*
G04 #@! TO.C,R22*
X191700000Y-88412500D03*
X191700000Y-86587500D03*
G04 #@! TD*
M02*
