G04 #@! TF.GenerationSoftware,KiCad,Pcbnew,10.0.6*
G04 #@! TF.CreationDate,2026-09-18T16:41:44-05:00*
G04 #@! TF.ProjectId,picoco.17wUjry6qV,7069636f-636f-42e3-9137-77556a727936,rev?*
G04 #@! TF.SameCoordinates,Original*
G04 #@! TF.FileFunction,Paste,Top*
G04 #@! TF.FilePolarity,Positive*
%FSLAX46Y46*%
G04 Gerber Fmt 4.6, Leading zero omitted, Abs format (unit mm)*
G04 Created by KiCad (PCBNEW 10.0.6) date 2026-09-18 16:41:44*
%MOMM*%
%LPD*%
G01*
G04 APERTURE LIST*
%ADD10R,1.700000X3.500000*%
%ADD11R,1.800000X1.800000*%
%ADD12R,1.400000X1.400000*%
G04 APERTURE END LIST*
D10*
G04 #@! TO.C,U1*
X100970000Y-53990000D03*
X103510000Y-53990000D03*
X106050000Y-53990000D03*
X108590000Y-53990000D03*
X111130000Y-53990000D03*
X113670000Y-53990000D03*
X116210000Y-53990000D03*
X118750000Y-53990000D03*
X121290000Y-53990000D03*
X123830000Y-53990000D03*
X126370000Y-53990000D03*
X128910000Y-53990000D03*
X131450000Y-53990000D03*
X133990000Y-53990000D03*
X136530000Y-53990000D03*
X139070000Y-53990000D03*
X141610000Y-53990000D03*
X144150000Y-53990000D03*
X146690000Y-53990000D03*
X149230000Y-53990000D03*
X149230000Y-34410000D03*
X146690000Y-34410000D03*
X144150000Y-34410000D03*
X141610000Y-34410000D03*
X139070000Y-34410000D03*
X136530000Y-34410000D03*
X133990000Y-34410000D03*
X131450000Y-34410000D03*
X128910000Y-34410000D03*
X126370000Y-34410000D03*
X123830000Y-34410000D03*
X121290000Y-34410000D03*
X118750000Y-34410000D03*
X116210000Y-34410000D03*
X113670000Y-34410000D03*
X111130000Y-34410000D03*
X108590000Y-34410000D03*
X106050000Y-34410000D03*
X103510000Y-34410000D03*
X100970000Y-34410000D03*
D11*
X142420000Y-49280000D03*
X144960000Y-49280000D03*
X147500000Y-49280000D03*
X142420000Y-46740000D03*
X144960000Y-46740000D03*
D12*
X147500000Y-46740000D03*
D11*
X142420000Y-44200000D03*
X144960000Y-44200000D03*
D12*
X147500000Y-44200000D03*
D11*
X142420000Y-41660000D03*
X144960000Y-41660000D03*
D12*
X147500000Y-41660000D03*
D11*
X142420000Y-39120000D03*
X144960000Y-39120000D03*
X147500000Y-39120000D03*
G04 #@! TD*
M02*
