G04 #@! TF.GenerationSoftware,KiCad,Pcbnew,10.0.6*
G04 #@! TF.CreationDate,2026-09-05T12:50:39-05:00*
G04 #@! TF.ProjectId,PiCoCo-Breakout,5069436f-436f-42d4-9272-65616b6f7574,rev?*
G04 #@! TF.SameCoordinates,Original*
G04 #@! TF.FileFunction,Legend,Top*
G04 #@! TF.FilePolarity,Positive*
%FSLAX46Y46*%
G04 Gerber Fmt 4.6, Leading zero omitted, Abs format (unit mm)*
G04 Created by KiCad (PCBNEW 10.0.6) date 2026-09-05 12:50:39*
%MOMM*%
%LPD*%
G01*
G04 APERTURE LIST*
G04 Aperture macros list*
%AMRoundRect*
0 Rectangle with rounded corners*
0 $1 Rounding radius*
0 $2 $3 $4 $5 $6 $7 $8 $9 X,Y pos of 4 corners*
0 Add a 4 corners polygon primitive as box body*
4,1,4,$2,$3,$4,$5,$6,$7,$8,$9,$2,$3,0*
0 Add four circle primitives for the rounded corners*
1,1,$1+$1,$2,$3*
1,1,$1+$1,$4,$5*
1,1,$1+$1,$6,$7*
1,1,$1+$1,$8,$9*
0 Add four rect primitives between the rounded corners*
20,1,$1+$1,$2,$3,$4,$5,0*
20,1,$1+$1,$4,$5,$6,$7,0*
20,1,$1+$1,$6,$7,$8,$9,0*
20,1,$1+$1,$8,$9,$2,$3,0*%
G04 Aperture macros list end*
%ADD10C,0.150000*%
%ADD11C,0.250000*%
%ADD12C,0.130861*%
%ADD13C,0.120000*%
%ADD14C,0.000000*%
%ADD15RoundRect,0.250000X-0.312500X-1.450000X0.312500X-1.450000X0.312500X1.450000X-0.312500X1.450000X0*%
%ADD16RoundRect,0.250000X-0.450000X0.262500X-0.450000X-0.262500X0.450000X-0.262500X0.450000X0.262500X0*%
%ADD17RoundRect,0.250000X-0.475000X0.250000X-0.475000X-0.250000X0.475000X-0.250000X0.475000X0.250000X0*%
%ADD18RoundRect,0.250000X0.600000X-0.600000X0.600000X0.600000X-0.600000X0.600000X-0.600000X-0.600000X0*%
%ADD19C,1.700000*%
%ADD20RoundRect,0.076200X-0.635000X-4.585000X0.635000X-4.585000X0.635000X4.585000X-0.635000X4.585000X0*%
%ADD21RoundRect,0.076200X-0.635000X-3.492500X0.635000X-3.492500X0.635000X3.492500X-0.635000X3.492500X0*%
%ADD22RoundRect,0.243750X0.456250X-0.243750X0.456250X0.243750X-0.456250X0.243750X-0.456250X-0.243750X0*%
G04 APERTURE END LIST*
D10*
X101543160Y-52762295D02*
X101543160Y-51962295D01*
X101543160Y-51962295D02*
X101847922Y-51962295D01*
X101847922Y-51962295D02*
X101924112Y-52000390D01*
X101924112Y-52000390D02*
X101962207Y-52038485D01*
X101962207Y-52038485D02*
X102000303Y-52114676D01*
X102000303Y-52114676D02*
X102000303Y-52228961D01*
X102000303Y-52228961D02*
X101962207Y-52305152D01*
X101962207Y-52305152D02*
X101924112Y-52343247D01*
X101924112Y-52343247D02*
X101847922Y-52381342D01*
X101847922Y-52381342D02*
X101543160Y-52381342D01*
X102343160Y-52762295D02*
X102343160Y-51962295D01*
X102724112Y-52762295D02*
X102724112Y-51962295D01*
X102724112Y-51962295D02*
X103181255Y-52762295D01*
X103181255Y-52762295D02*
X103181255Y-51962295D01*
X104590778Y-52762295D02*
X104133635Y-52762295D01*
X104362207Y-52762295D02*
X104362207Y-51962295D01*
X104362207Y-51962295D02*
X104286016Y-52076580D01*
X104286016Y-52076580D02*
X104209826Y-52152771D01*
X104209826Y-52152771D02*
X104133635Y-52190866D01*
X105543160Y-52343247D02*
X106152684Y-52343247D01*
X106152684Y-52571819D02*
X105543160Y-52571819D01*
X107600303Y-52762295D02*
X107333636Y-52381342D01*
X107143160Y-52762295D02*
X107143160Y-51962295D01*
X107143160Y-51962295D02*
X107447922Y-51962295D01*
X107447922Y-51962295D02*
X107524112Y-52000390D01*
X107524112Y-52000390D02*
X107562207Y-52038485D01*
X107562207Y-52038485D02*
X107600303Y-52114676D01*
X107600303Y-52114676D02*
X107600303Y-52228961D01*
X107600303Y-52228961D02*
X107562207Y-52305152D01*
X107562207Y-52305152D02*
X107524112Y-52343247D01*
X107524112Y-52343247D02*
X107447922Y-52381342D01*
X107447922Y-52381342D02*
X107143160Y-52381342D01*
X107943160Y-52343247D02*
X108209826Y-52343247D01*
X108324112Y-52762295D02*
X107943160Y-52762295D01*
X107943160Y-52762295D02*
X107943160Y-51962295D01*
X107943160Y-51962295D02*
X108324112Y-51962295D01*
X108666970Y-52762295D02*
X108666970Y-51962295D01*
X108666970Y-51962295D02*
X108857446Y-51962295D01*
X108857446Y-51962295D02*
X108971732Y-52000390D01*
X108971732Y-52000390D02*
X109047922Y-52076580D01*
X109047922Y-52076580D02*
X109086017Y-52152771D01*
X109086017Y-52152771D02*
X109124113Y-52305152D01*
X109124113Y-52305152D02*
X109124113Y-52419438D01*
X109124113Y-52419438D02*
X109086017Y-52571819D01*
X109086017Y-52571819D02*
X109047922Y-52648009D01*
X109047922Y-52648009D02*
X108971732Y-52724200D01*
X108971732Y-52724200D02*
X108857446Y-52762295D01*
X108857446Y-52762295D02*
X108666970Y-52762295D01*
X110038398Y-52724200D02*
X110152684Y-52762295D01*
X110152684Y-52762295D02*
X110343160Y-52762295D01*
X110343160Y-52762295D02*
X110419351Y-52724200D01*
X110419351Y-52724200D02*
X110457446Y-52686104D01*
X110457446Y-52686104D02*
X110495541Y-52609914D01*
X110495541Y-52609914D02*
X110495541Y-52533723D01*
X110495541Y-52533723D02*
X110457446Y-52457533D01*
X110457446Y-52457533D02*
X110419351Y-52419438D01*
X110419351Y-52419438D02*
X110343160Y-52381342D01*
X110343160Y-52381342D02*
X110190779Y-52343247D01*
X110190779Y-52343247D02*
X110114589Y-52305152D01*
X110114589Y-52305152D02*
X110076494Y-52267057D01*
X110076494Y-52267057D02*
X110038398Y-52190866D01*
X110038398Y-52190866D02*
X110038398Y-52114676D01*
X110038398Y-52114676D02*
X110076494Y-52038485D01*
X110076494Y-52038485D02*
X110114589Y-52000390D01*
X110114589Y-52000390D02*
X110190779Y-51962295D01*
X110190779Y-51962295D02*
X110381256Y-51962295D01*
X110381256Y-51962295D02*
X110495541Y-52000390D01*
X110724113Y-51962295D02*
X111181256Y-51962295D01*
X110952684Y-52762295D02*
X110952684Y-51962295D01*
X111905066Y-52762295D02*
X111638399Y-52381342D01*
X111447923Y-52762295D02*
X111447923Y-51962295D01*
X111447923Y-51962295D02*
X111752685Y-51962295D01*
X111752685Y-51962295D02*
X111828875Y-52000390D01*
X111828875Y-52000390D02*
X111866970Y-52038485D01*
X111866970Y-52038485D02*
X111905066Y-52114676D01*
X111905066Y-52114676D02*
X111905066Y-52228961D01*
X111905066Y-52228961D02*
X111866970Y-52305152D01*
X111866970Y-52305152D02*
X111828875Y-52343247D01*
X111828875Y-52343247D02*
X111752685Y-52381342D01*
X111752685Y-52381342D02*
X111447923Y-52381342D01*
X112247923Y-52762295D02*
X112247923Y-51962295D01*
X112628875Y-52762295D02*
X112628875Y-51962295D01*
X112628875Y-51962295D02*
X112933637Y-51962295D01*
X112933637Y-51962295D02*
X113009827Y-52000390D01*
X113009827Y-52000390D02*
X113047922Y-52038485D01*
X113047922Y-52038485D02*
X113086018Y-52114676D01*
X113086018Y-52114676D02*
X113086018Y-52228961D01*
X113086018Y-52228961D02*
X113047922Y-52305152D01*
X113047922Y-52305152D02*
X113009827Y-52343247D01*
X113009827Y-52343247D02*
X112933637Y-52381342D01*
X112933637Y-52381342D02*
X112628875Y-52381342D01*
X113428875Y-52343247D02*
X113695541Y-52343247D01*
X113809827Y-52762295D02*
X113428875Y-52762295D01*
X113428875Y-52762295D02*
X113428875Y-51962295D01*
X113428875Y-51962295D02*
X113809827Y-51962295D01*
X108403331Y-94257533D02*
X109012855Y-94257533D01*
X110003331Y-94257533D02*
X110612855Y-94257533D01*
X111603331Y-94257533D02*
X112212855Y-94257533D01*
X113546188Y-94562295D02*
X113546188Y-94143247D01*
X113546188Y-94143247D02*
X113508093Y-94067057D01*
X113508093Y-94067057D02*
X113431902Y-94028961D01*
X113431902Y-94028961D02*
X113279521Y-94028961D01*
X113279521Y-94028961D02*
X113203331Y-94067057D01*
X113546188Y-94524200D02*
X113469997Y-94562295D01*
X113469997Y-94562295D02*
X113279521Y-94562295D01*
X113279521Y-94562295D02*
X113203331Y-94524200D01*
X113203331Y-94524200D02*
X113165235Y-94448009D01*
X113165235Y-94448009D02*
X113165235Y-94371819D01*
X113165235Y-94371819D02*
X113203331Y-94295628D01*
X113203331Y-94295628D02*
X113279521Y-94257533D01*
X113279521Y-94257533D02*
X113469997Y-94257533D01*
X113469997Y-94257533D02*
X113546188Y-94219438D01*
X113927141Y-94028961D02*
X113927141Y-94828961D01*
X113927141Y-94067057D02*
X114003331Y-94028961D01*
X114003331Y-94028961D02*
X114155712Y-94028961D01*
X114155712Y-94028961D02*
X114231903Y-94067057D01*
X114231903Y-94067057D02*
X114269998Y-94105152D01*
X114269998Y-94105152D02*
X114308093Y-94181342D01*
X114308093Y-94181342D02*
X114308093Y-94409914D01*
X114308093Y-94409914D02*
X114269998Y-94486104D01*
X114269998Y-94486104D02*
X114231903Y-94524200D01*
X114231903Y-94524200D02*
X114155712Y-94562295D01*
X114155712Y-94562295D02*
X114003331Y-94562295D01*
X114003331Y-94562295D02*
X113927141Y-94524200D01*
X114650951Y-94028961D02*
X114650951Y-94828961D01*
X114650951Y-94067057D02*
X114727141Y-94028961D01*
X114727141Y-94028961D02*
X114879522Y-94028961D01*
X114879522Y-94028961D02*
X114955713Y-94067057D01*
X114955713Y-94067057D02*
X114993808Y-94105152D01*
X114993808Y-94105152D02*
X115031903Y-94181342D01*
X115031903Y-94181342D02*
X115031903Y-94409914D01*
X115031903Y-94409914D02*
X114993808Y-94486104D01*
X114993808Y-94486104D02*
X114955713Y-94524200D01*
X114955713Y-94524200D02*
X114879522Y-94562295D01*
X114879522Y-94562295D02*
X114727141Y-94562295D01*
X114727141Y-94562295D02*
X114650951Y-94524200D01*
X115374761Y-94562295D02*
X115374761Y-94028961D01*
X115374761Y-94181342D02*
X115412856Y-94105152D01*
X115412856Y-94105152D02*
X115450951Y-94067057D01*
X115450951Y-94067057D02*
X115527142Y-94028961D01*
X115527142Y-94028961D02*
X115603332Y-94028961D01*
X115984284Y-94562295D02*
X115908094Y-94524200D01*
X115908094Y-94524200D02*
X115869999Y-94486104D01*
X115869999Y-94486104D02*
X115831903Y-94409914D01*
X115831903Y-94409914D02*
X115831903Y-94181342D01*
X115831903Y-94181342D02*
X115869999Y-94105152D01*
X115869999Y-94105152D02*
X115908094Y-94067057D01*
X115908094Y-94067057D02*
X115984284Y-94028961D01*
X115984284Y-94028961D02*
X116098570Y-94028961D01*
X116098570Y-94028961D02*
X116174761Y-94067057D01*
X116174761Y-94067057D02*
X116212856Y-94105152D01*
X116212856Y-94105152D02*
X116250951Y-94181342D01*
X116250951Y-94181342D02*
X116250951Y-94409914D01*
X116250951Y-94409914D02*
X116212856Y-94486104D01*
X116212856Y-94486104D02*
X116174761Y-94524200D01*
X116174761Y-94524200D02*
X116098570Y-94562295D01*
X116098570Y-94562295D02*
X115984284Y-94562295D01*
X116517618Y-94562295D02*
X116936666Y-94028961D01*
X116517618Y-94028961D02*
X116936666Y-94562295D01*
X117241428Y-94486104D02*
X117279523Y-94524200D01*
X117279523Y-94524200D02*
X117241428Y-94562295D01*
X117241428Y-94562295D02*
X117203332Y-94524200D01*
X117203332Y-94524200D02*
X117241428Y-94486104D01*
X117241428Y-94486104D02*
X117241428Y-94562295D01*
X118574761Y-94524200D02*
X118498570Y-94562295D01*
X118498570Y-94562295D02*
X118346189Y-94562295D01*
X118346189Y-94562295D02*
X118269999Y-94524200D01*
X118269999Y-94524200D02*
X118231904Y-94486104D01*
X118231904Y-94486104D02*
X118193808Y-94409914D01*
X118193808Y-94409914D02*
X118193808Y-94181342D01*
X118193808Y-94181342D02*
X118231904Y-94105152D01*
X118231904Y-94105152D02*
X118269999Y-94067057D01*
X118269999Y-94067057D02*
X118346189Y-94028961D01*
X118346189Y-94028961D02*
X118498570Y-94028961D01*
X118498570Y-94028961D02*
X118574761Y-94067057D01*
X119260475Y-94562295D02*
X119260475Y-94143247D01*
X119260475Y-94143247D02*
X119222380Y-94067057D01*
X119222380Y-94067057D02*
X119146189Y-94028961D01*
X119146189Y-94028961D02*
X118993808Y-94028961D01*
X118993808Y-94028961D02*
X118917618Y-94067057D01*
X119260475Y-94524200D02*
X119184284Y-94562295D01*
X119184284Y-94562295D02*
X118993808Y-94562295D01*
X118993808Y-94562295D02*
X118917618Y-94524200D01*
X118917618Y-94524200D02*
X118879522Y-94448009D01*
X118879522Y-94448009D02*
X118879522Y-94371819D01*
X118879522Y-94371819D02*
X118917618Y-94295628D01*
X118917618Y-94295628D02*
X118993808Y-94257533D01*
X118993808Y-94257533D02*
X119184284Y-94257533D01*
X119184284Y-94257533D02*
X119260475Y-94219438D01*
X119603332Y-94524200D02*
X119679523Y-94562295D01*
X119679523Y-94562295D02*
X119831904Y-94562295D01*
X119831904Y-94562295D02*
X119908094Y-94524200D01*
X119908094Y-94524200D02*
X119946190Y-94448009D01*
X119946190Y-94448009D02*
X119946190Y-94409914D01*
X119946190Y-94409914D02*
X119908094Y-94333723D01*
X119908094Y-94333723D02*
X119831904Y-94295628D01*
X119831904Y-94295628D02*
X119717618Y-94295628D01*
X119717618Y-94295628D02*
X119641428Y-94257533D01*
X119641428Y-94257533D02*
X119603332Y-94181342D01*
X119603332Y-94181342D02*
X119603332Y-94143247D01*
X119603332Y-94143247D02*
X119641428Y-94067057D01*
X119641428Y-94067057D02*
X119717618Y-94028961D01*
X119717618Y-94028961D02*
X119831904Y-94028961D01*
X119831904Y-94028961D02*
X119908094Y-94067057D01*
X120593809Y-94524200D02*
X120517618Y-94562295D01*
X120517618Y-94562295D02*
X120365237Y-94562295D01*
X120365237Y-94562295D02*
X120289047Y-94524200D01*
X120289047Y-94524200D02*
X120250951Y-94448009D01*
X120250951Y-94448009D02*
X120250951Y-94143247D01*
X120250951Y-94143247D02*
X120289047Y-94067057D01*
X120289047Y-94067057D02*
X120365237Y-94028961D01*
X120365237Y-94028961D02*
X120517618Y-94028961D01*
X120517618Y-94028961D02*
X120593809Y-94067057D01*
X120593809Y-94067057D02*
X120631904Y-94143247D01*
X120631904Y-94143247D02*
X120631904Y-94219438D01*
X120631904Y-94219438D02*
X120250951Y-94295628D01*
X121546189Y-94524200D02*
X121622380Y-94562295D01*
X121622380Y-94562295D02*
X121774761Y-94562295D01*
X121774761Y-94562295D02*
X121850951Y-94524200D01*
X121850951Y-94524200D02*
X121889047Y-94448009D01*
X121889047Y-94448009D02*
X121889047Y-94409914D01*
X121889047Y-94409914D02*
X121850951Y-94333723D01*
X121850951Y-94333723D02*
X121774761Y-94295628D01*
X121774761Y-94295628D02*
X121660475Y-94295628D01*
X121660475Y-94295628D02*
X121584285Y-94257533D01*
X121584285Y-94257533D02*
X121546189Y-94181342D01*
X121546189Y-94181342D02*
X121546189Y-94143247D01*
X121546189Y-94143247D02*
X121584285Y-94067057D01*
X121584285Y-94067057D02*
X121660475Y-94028961D01*
X121660475Y-94028961D02*
X121774761Y-94028961D01*
X121774761Y-94028961D02*
X121850951Y-94067057D01*
X122574761Y-94028961D02*
X122574761Y-94562295D01*
X122231904Y-94028961D02*
X122231904Y-94448009D01*
X122231904Y-94448009D02*
X122269999Y-94524200D01*
X122269999Y-94524200D02*
X122346189Y-94562295D01*
X122346189Y-94562295D02*
X122460475Y-94562295D01*
X122460475Y-94562295D02*
X122536666Y-94524200D01*
X122536666Y-94524200D02*
X122574761Y-94486104D01*
X122955714Y-94562295D02*
X122955714Y-94028961D01*
X122955714Y-94181342D02*
X122993809Y-94105152D01*
X122993809Y-94105152D02*
X123031904Y-94067057D01*
X123031904Y-94067057D02*
X123108095Y-94028961D01*
X123108095Y-94028961D02*
X123184285Y-94028961D01*
X123336666Y-94028961D02*
X123641428Y-94028961D01*
X123450952Y-94562295D02*
X123450952Y-93876580D01*
X123450952Y-93876580D02*
X123489047Y-93800390D01*
X123489047Y-93800390D02*
X123565237Y-93762295D01*
X123565237Y-93762295D02*
X123641428Y-93762295D01*
X124250952Y-94562295D02*
X124250952Y-94143247D01*
X124250952Y-94143247D02*
X124212857Y-94067057D01*
X124212857Y-94067057D02*
X124136666Y-94028961D01*
X124136666Y-94028961D02*
X123984285Y-94028961D01*
X123984285Y-94028961D02*
X123908095Y-94067057D01*
X124250952Y-94524200D02*
X124174761Y-94562295D01*
X124174761Y-94562295D02*
X123984285Y-94562295D01*
X123984285Y-94562295D02*
X123908095Y-94524200D01*
X123908095Y-94524200D02*
X123869999Y-94448009D01*
X123869999Y-94448009D02*
X123869999Y-94371819D01*
X123869999Y-94371819D02*
X123908095Y-94295628D01*
X123908095Y-94295628D02*
X123984285Y-94257533D01*
X123984285Y-94257533D02*
X124174761Y-94257533D01*
X124174761Y-94257533D02*
X124250952Y-94219438D01*
X124974762Y-94524200D02*
X124898571Y-94562295D01*
X124898571Y-94562295D02*
X124746190Y-94562295D01*
X124746190Y-94562295D02*
X124670000Y-94524200D01*
X124670000Y-94524200D02*
X124631905Y-94486104D01*
X124631905Y-94486104D02*
X124593809Y-94409914D01*
X124593809Y-94409914D02*
X124593809Y-94181342D01*
X124593809Y-94181342D02*
X124631905Y-94105152D01*
X124631905Y-94105152D02*
X124670000Y-94067057D01*
X124670000Y-94067057D02*
X124746190Y-94028961D01*
X124746190Y-94028961D02*
X124898571Y-94028961D01*
X124898571Y-94028961D02*
X124974762Y-94067057D01*
X125622381Y-94524200D02*
X125546190Y-94562295D01*
X125546190Y-94562295D02*
X125393809Y-94562295D01*
X125393809Y-94562295D02*
X125317619Y-94524200D01*
X125317619Y-94524200D02*
X125279523Y-94448009D01*
X125279523Y-94448009D02*
X125279523Y-94143247D01*
X125279523Y-94143247D02*
X125317619Y-94067057D01*
X125317619Y-94067057D02*
X125393809Y-94028961D01*
X125393809Y-94028961D02*
X125546190Y-94028961D01*
X125546190Y-94028961D02*
X125622381Y-94067057D01*
X125622381Y-94067057D02*
X125660476Y-94143247D01*
X125660476Y-94143247D02*
X125660476Y-94219438D01*
X125660476Y-94219438D02*
X125279523Y-94295628D01*
X126841428Y-94867057D02*
X126803333Y-94828961D01*
X126803333Y-94828961D02*
X126727142Y-94714676D01*
X126727142Y-94714676D02*
X126689047Y-94638485D01*
X126689047Y-94638485D02*
X126650952Y-94524200D01*
X126650952Y-94524200D02*
X126612857Y-94333723D01*
X126612857Y-94333723D02*
X126612857Y-94181342D01*
X126612857Y-94181342D02*
X126650952Y-93990866D01*
X126650952Y-93990866D02*
X126689047Y-93876580D01*
X126689047Y-93876580D02*
X126727142Y-93800390D01*
X126727142Y-93800390D02*
X126803333Y-93686104D01*
X126803333Y-93686104D02*
X126841428Y-93648009D01*
X127603333Y-94486104D02*
X127565237Y-94524200D01*
X127565237Y-94524200D02*
X127450952Y-94562295D01*
X127450952Y-94562295D02*
X127374761Y-94562295D01*
X127374761Y-94562295D02*
X127260475Y-94524200D01*
X127260475Y-94524200D02*
X127184285Y-94448009D01*
X127184285Y-94448009D02*
X127146190Y-94371819D01*
X127146190Y-94371819D02*
X127108094Y-94219438D01*
X127108094Y-94219438D02*
X127108094Y-94105152D01*
X127108094Y-94105152D02*
X127146190Y-93952771D01*
X127146190Y-93952771D02*
X127184285Y-93876580D01*
X127184285Y-93876580D02*
X127260475Y-93800390D01*
X127260475Y-93800390D02*
X127374761Y-93762295D01*
X127374761Y-93762295D02*
X127450952Y-93762295D01*
X127450952Y-93762295D02*
X127565237Y-93800390D01*
X127565237Y-93800390D02*
X127603333Y-93838485D01*
X128060475Y-94562295D02*
X127984285Y-94524200D01*
X127984285Y-94524200D02*
X127946190Y-94486104D01*
X127946190Y-94486104D02*
X127908094Y-94409914D01*
X127908094Y-94409914D02*
X127908094Y-94181342D01*
X127908094Y-94181342D02*
X127946190Y-94105152D01*
X127946190Y-94105152D02*
X127984285Y-94067057D01*
X127984285Y-94067057D02*
X128060475Y-94028961D01*
X128060475Y-94028961D02*
X128174761Y-94028961D01*
X128174761Y-94028961D02*
X128250952Y-94067057D01*
X128250952Y-94067057D02*
X128289047Y-94105152D01*
X128289047Y-94105152D02*
X128327142Y-94181342D01*
X128327142Y-94181342D02*
X128327142Y-94409914D01*
X128327142Y-94409914D02*
X128289047Y-94486104D01*
X128289047Y-94486104D02*
X128250952Y-94524200D01*
X128250952Y-94524200D02*
X128174761Y-94562295D01*
X128174761Y-94562295D02*
X128060475Y-94562295D01*
X129127143Y-94486104D02*
X129089047Y-94524200D01*
X129089047Y-94524200D02*
X128974762Y-94562295D01*
X128974762Y-94562295D02*
X128898571Y-94562295D01*
X128898571Y-94562295D02*
X128784285Y-94524200D01*
X128784285Y-94524200D02*
X128708095Y-94448009D01*
X128708095Y-94448009D02*
X128670000Y-94371819D01*
X128670000Y-94371819D02*
X128631904Y-94219438D01*
X128631904Y-94219438D02*
X128631904Y-94105152D01*
X128631904Y-94105152D02*
X128670000Y-93952771D01*
X128670000Y-93952771D02*
X128708095Y-93876580D01*
X128708095Y-93876580D02*
X128784285Y-93800390D01*
X128784285Y-93800390D02*
X128898571Y-93762295D01*
X128898571Y-93762295D02*
X128974762Y-93762295D01*
X128974762Y-93762295D02*
X129089047Y-93800390D01*
X129089047Y-93800390D02*
X129127143Y-93838485D01*
X129584285Y-94562295D02*
X129508095Y-94524200D01*
X129508095Y-94524200D02*
X129470000Y-94486104D01*
X129470000Y-94486104D02*
X129431904Y-94409914D01*
X129431904Y-94409914D02*
X129431904Y-94181342D01*
X129431904Y-94181342D02*
X129470000Y-94105152D01*
X129470000Y-94105152D02*
X129508095Y-94067057D01*
X129508095Y-94067057D02*
X129584285Y-94028961D01*
X129584285Y-94028961D02*
X129698571Y-94028961D01*
X129698571Y-94028961D02*
X129774762Y-94067057D01*
X129774762Y-94067057D02*
X129812857Y-94105152D01*
X129812857Y-94105152D02*
X129850952Y-94181342D01*
X129850952Y-94181342D02*
X129850952Y-94409914D01*
X129850952Y-94409914D02*
X129812857Y-94486104D01*
X129812857Y-94486104D02*
X129774762Y-94524200D01*
X129774762Y-94524200D02*
X129698571Y-94562295D01*
X129698571Y-94562295D02*
X129584285Y-94562295D01*
X130727143Y-93762295D02*
X131222381Y-93762295D01*
X131222381Y-93762295D02*
X130955715Y-94067057D01*
X130955715Y-94067057D02*
X131070000Y-94067057D01*
X131070000Y-94067057D02*
X131146191Y-94105152D01*
X131146191Y-94105152D02*
X131184286Y-94143247D01*
X131184286Y-94143247D02*
X131222381Y-94219438D01*
X131222381Y-94219438D02*
X131222381Y-94409914D01*
X131222381Y-94409914D02*
X131184286Y-94486104D01*
X131184286Y-94486104D02*
X131146191Y-94524200D01*
X131146191Y-94524200D02*
X131070000Y-94562295D01*
X131070000Y-94562295D02*
X130841429Y-94562295D01*
X130841429Y-94562295D02*
X130765238Y-94524200D01*
X130765238Y-94524200D02*
X130727143Y-94486104D01*
X131489048Y-94867057D02*
X131527143Y-94828961D01*
X131527143Y-94828961D02*
X131603334Y-94714676D01*
X131603334Y-94714676D02*
X131641429Y-94638485D01*
X131641429Y-94638485D02*
X131679524Y-94524200D01*
X131679524Y-94524200D02*
X131717620Y-94333723D01*
X131717620Y-94333723D02*
X131717620Y-94181342D01*
X131717620Y-94181342D02*
X131679524Y-93990866D01*
X131679524Y-93990866D02*
X131641429Y-93876580D01*
X131641429Y-93876580D02*
X131603334Y-93800390D01*
X131603334Y-93800390D02*
X131527143Y-93686104D01*
X131527143Y-93686104D02*
X131489048Y-93648009D01*
X132708096Y-94257533D02*
X133317620Y-94257533D01*
X134308096Y-94257533D02*
X134917620Y-94257533D01*
X135908096Y-94257533D02*
X136517620Y-94257533D01*
X139070001Y-94028961D02*
X139070001Y-94676580D01*
X139070001Y-94676580D02*
X139031906Y-94752771D01*
X139031906Y-94752771D02*
X138993810Y-94790866D01*
X138993810Y-94790866D02*
X138917620Y-94828961D01*
X138917620Y-94828961D02*
X138803334Y-94828961D01*
X138803334Y-94828961D02*
X138727144Y-94790866D01*
X139070001Y-94524200D02*
X138993810Y-94562295D01*
X138993810Y-94562295D02*
X138841429Y-94562295D01*
X138841429Y-94562295D02*
X138765239Y-94524200D01*
X138765239Y-94524200D02*
X138727144Y-94486104D01*
X138727144Y-94486104D02*
X138689048Y-94409914D01*
X138689048Y-94409914D02*
X138689048Y-94181342D01*
X138689048Y-94181342D02*
X138727144Y-94105152D01*
X138727144Y-94105152D02*
X138765239Y-94067057D01*
X138765239Y-94067057D02*
X138841429Y-94028961D01*
X138841429Y-94028961D02*
X138993810Y-94028961D01*
X138993810Y-94028961D02*
X139070001Y-94067057D01*
X139450954Y-94562295D02*
X139450954Y-94028961D01*
X139450954Y-94181342D02*
X139489049Y-94105152D01*
X139489049Y-94105152D02*
X139527144Y-94067057D01*
X139527144Y-94067057D02*
X139603335Y-94028961D01*
X139603335Y-94028961D02*
X139679525Y-94028961D01*
X139946192Y-94562295D02*
X139946192Y-94028961D01*
X139946192Y-93762295D02*
X139908096Y-93800390D01*
X139908096Y-93800390D02*
X139946192Y-93838485D01*
X139946192Y-93838485D02*
X139984287Y-93800390D01*
X139984287Y-93800390D02*
X139946192Y-93762295D01*
X139946192Y-93762295D02*
X139946192Y-93838485D01*
X140327144Y-94028961D02*
X140327144Y-94828961D01*
X140327144Y-94067057D02*
X140403334Y-94028961D01*
X140403334Y-94028961D02*
X140555715Y-94028961D01*
X140555715Y-94028961D02*
X140631906Y-94067057D01*
X140631906Y-94067057D02*
X140670001Y-94105152D01*
X140670001Y-94105152D02*
X140708096Y-94181342D01*
X140708096Y-94181342D02*
X140708096Y-94409914D01*
X140708096Y-94409914D02*
X140670001Y-94486104D01*
X140670001Y-94486104D02*
X140631906Y-94524200D01*
X140631906Y-94524200D02*
X140555715Y-94562295D01*
X140555715Y-94562295D02*
X140403334Y-94562295D01*
X140403334Y-94562295D02*
X140327144Y-94524200D01*
X141660478Y-94562295D02*
X141660478Y-93762295D01*
X142003335Y-94562295D02*
X142003335Y-94143247D01*
X142003335Y-94143247D02*
X141965240Y-94067057D01*
X141965240Y-94067057D02*
X141889049Y-94028961D01*
X141889049Y-94028961D02*
X141774763Y-94028961D01*
X141774763Y-94028961D02*
X141698573Y-94067057D01*
X141698573Y-94067057D02*
X141660478Y-94105152D01*
X142689050Y-94524200D02*
X142612859Y-94562295D01*
X142612859Y-94562295D02*
X142460478Y-94562295D01*
X142460478Y-94562295D02*
X142384288Y-94524200D01*
X142384288Y-94524200D02*
X142346192Y-94448009D01*
X142346192Y-94448009D02*
X142346192Y-94143247D01*
X142346192Y-94143247D02*
X142384288Y-94067057D01*
X142384288Y-94067057D02*
X142460478Y-94028961D01*
X142460478Y-94028961D02*
X142612859Y-94028961D01*
X142612859Y-94028961D02*
X142689050Y-94067057D01*
X142689050Y-94067057D02*
X142727145Y-94143247D01*
X142727145Y-94143247D02*
X142727145Y-94219438D01*
X142727145Y-94219438D02*
X142346192Y-94295628D01*
X143070002Y-94562295D02*
X143070002Y-94028961D01*
X143070002Y-94181342D02*
X143108097Y-94105152D01*
X143108097Y-94105152D02*
X143146192Y-94067057D01*
X143146192Y-94067057D02*
X143222383Y-94028961D01*
X143222383Y-94028961D02*
X143298573Y-94028961D01*
X143870002Y-94524200D02*
X143793811Y-94562295D01*
X143793811Y-94562295D02*
X143641430Y-94562295D01*
X143641430Y-94562295D02*
X143565240Y-94524200D01*
X143565240Y-94524200D02*
X143527144Y-94448009D01*
X143527144Y-94448009D02*
X143527144Y-94143247D01*
X143527144Y-94143247D02*
X143565240Y-94067057D01*
X143565240Y-94067057D02*
X143641430Y-94028961D01*
X143641430Y-94028961D02*
X143793811Y-94028961D01*
X143793811Y-94028961D02*
X143870002Y-94067057D01*
X143870002Y-94067057D02*
X143908097Y-94143247D01*
X143908097Y-94143247D02*
X143908097Y-94219438D01*
X143908097Y-94219438D02*
X143527144Y-94295628D01*
X144746192Y-93838485D02*
X144898573Y-93724200D01*
X144898573Y-93724200D02*
X145050954Y-93838485D01*
X104250949Y-131362295D02*
X104250949Y-130562295D01*
X104593806Y-131362295D02*
X104593806Y-130943247D01*
X104593806Y-130943247D02*
X104555711Y-130867057D01*
X104555711Y-130867057D02*
X104479520Y-130828961D01*
X104479520Y-130828961D02*
X104365234Y-130828961D01*
X104365234Y-130828961D02*
X104289044Y-130867057D01*
X104289044Y-130867057D02*
X104250949Y-130905152D01*
X105279521Y-131324200D02*
X105203330Y-131362295D01*
X105203330Y-131362295D02*
X105050949Y-131362295D01*
X105050949Y-131362295D02*
X104974759Y-131324200D01*
X104974759Y-131324200D02*
X104936663Y-131248009D01*
X104936663Y-131248009D02*
X104936663Y-130943247D01*
X104936663Y-130943247D02*
X104974759Y-130867057D01*
X104974759Y-130867057D02*
X105050949Y-130828961D01*
X105050949Y-130828961D02*
X105203330Y-130828961D01*
X105203330Y-130828961D02*
X105279521Y-130867057D01*
X105279521Y-130867057D02*
X105317616Y-130943247D01*
X105317616Y-130943247D02*
X105317616Y-131019438D01*
X105317616Y-131019438D02*
X104936663Y-131095628D01*
X106003330Y-131362295D02*
X106003330Y-130943247D01*
X106003330Y-130943247D02*
X105965235Y-130867057D01*
X105965235Y-130867057D02*
X105889044Y-130828961D01*
X105889044Y-130828961D02*
X105736663Y-130828961D01*
X105736663Y-130828961D02*
X105660473Y-130867057D01*
X106003330Y-131324200D02*
X105927139Y-131362295D01*
X105927139Y-131362295D02*
X105736663Y-131362295D01*
X105736663Y-131362295D02*
X105660473Y-131324200D01*
X105660473Y-131324200D02*
X105622377Y-131248009D01*
X105622377Y-131248009D02*
X105622377Y-131171819D01*
X105622377Y-131171819D02*
X105660473Y-131095628D01*
X105660473Y-131095628D02*
X105736663Y-131057533D01*
X105736663Y-131057533D02*
X105927139Y-131057533D01*
X105927139Y-131057533D02*
X106003330Y-131019438D01*
X106727140Y-131362295D02*
X106727140Y-130562295D01*
X106727140Y-131324200D02*
X106650949Y-131362295D01*
X106650949Y-131362295D02*
X106498568Y-131362295D01*
X106498568Y-131362295D02*
X106422378Y-131324200D01*
X106422378Y-131324200D02*
X106384283Y-131286104D01*
X106384283Y-131286104D02*
X106346187Y-131209914D01*
X106346187Y-131209914D02*
X106346187Y-130981342D01*
X106346187Y-130981342D02*
X106384283Y-130905152D01*
X106384283Y-130905152D02*
X106422378Y-130867057D01*
X106422378Y-130867057D02*
X106498568Y-130828961D01*
X106498568Y-130828961D02*
X106650949Y-130828961D01*
X106650949Y-130828961D02*
X106727140Y-130867057D01*
X107412855Y-131324200D02*
X107336664Y-131362295D01*
X107336664Y-131362295D02*
X107184283Y-131362295D01*
X107184283Y-131362295D02*
X107108093Y-131324200D01*
X107108093Y-131324200D02*
X107069997Y-131248009D01*
X107069997Y-131248009D02*
X107069997Y-130943247D01*
X107069997Y-130943247D02*
X107108093Y-130867057D01*
X107108093Y-130867057D02*
X107184283Y-130828961D01*
X107184283Y-130828961D02*
X107336664Y-130828961D01*
X107336664Y-130828961D02*
X107412855Y-130867057D01*
X107412855Y-130867057D02*
X107450950Y-130943247D01*
X107450950Y-130943247D02*
X107450950Y-131019438D01*
X107450950Y-131019438D02*
X107069997Y-131095628D01*
X107793807Y-131362295D02*
X107793807Y-130828961D01*
X107793807Y-130981342D02*
X107831902Y-130905152D01*
X107831902Y-130905152D02*
X107869997Y-130867057D01*
X107869997Y-130867057D02*
X107946188Y-130828961D01*
X107946188Y-130828961D02*
X108022378Y-130828961D01*
X108898569Y-130828961D02*
X108898569Y-131628961D01*
X108898569Y-130867057D02*
X108974759Y-130828961D01*
X108974759Y-130828961D02*
X109127140Y-130828961D01*
X109127140Y-130828961D02*
X109203331Y-130867057D01*
X109203331Y-130867057D02*
X109241426Y-130905152D01*
X109241426Y-130905152D02*
X109279521Y-130981342D01*
X109279521Y-130981342D02*
X109279521Y-131209914D01*
X109279521Y-131209914D02*
X109241426Y-131286104D01*
X109241426Y-131286104D02*
X109203331Y-131324200D01*
X109203331Y-131324200D02*
X109127140Y-131362295D01*
X109127140Y-131362295D02*
X108974759Y-131362295D01*
X108974759Y-131362295D02*
X108898569Y-131324200D01*
X109622379Y-131362295D02*
X109622379Y-130828961D01*
X109622379Y-130562295D02*
X109584283Y-130600390D01*
X109584283Y-130600390D02*
X109622379Y-130638485D01*
X109622379Y-130638485D02*
X109660474Y-130600390D01*
X109660474Y-130600390D02*
X109622379Y-130562295D01*
X109622379Y-130562295D02*
X109622379Y-130638485D01*
X110003331Y-130828961D02*
X110003331Y-131362295D01*
X110003331Y-130905152D02*
X110041426Y-130867057D01*
X110041426Y-130867057D02*
X110117616Y-130828961D01*
X110117616Y-130828961D02*
X110231902Y-130828961D01*
X110231902Y-130828961D02*
X110308093Y-130867057D01*
X110308093Y-130867057D02*
X110346188Y-130943247D01*
X110346188Y-130943247D02*
X110346188Y-131362295D01*
X111336665Y-130828961D02*
X111336665Y-131362295D01*
X111336665Y-130905152D02*
X111374760Y-130867057D01*
X111374760Y-130867057D02*
X111450950Y-130828961D01*
X111450950Y-130828961D02*
X111565236Y-130828961D01*
X111565236Y-130828961D02*
X111641427Y-130867057D01*
X111641427Y-130867057D02*
X111679522Y-130943247D01*
X111679522Y-130943247D02*
X111679522Y-131362295D01*
X112669999Y-130943247D02*
X113279523Y-130943247D01*
X113279523Y-131171819D02*
X112669999Y-131171819D01*
X114612856Y-131324200D02*
X114536665Y-131362295D01*
X114536665Y-131362295D02*
X114384284Y-131362295D01*
X114384284Y-131362295D02*
X114308094Y-131324200D01*
X114308094Y-131324200D02*
X114269999Y-131286104D01*
X114269999Y-131286104D02*
X114231903Y-131209914D01*
X114231903Y-131209914D02*
X114231903Y-130981342D01*
X114231903Y-130981342D02*
X114269999Y-130905152D01*
X114269999Y-130905152D02*
X114308094Y-130867057D01*
X114308094Y-130867057D02*
X114384284Y-130828961D01*
X114384284Y-130828961D02*
X114536665Y-130828961D01*
X114536665Y-130828961D02*
X114612856Y-130867057D01*
X115298570Y-131362295D02*
X115298570Y-130943247D01*
X115298570Y-130943247D02*
X115260475Y-130867057D01*
X115260475Y-130867057D02*
X115184284Y-130828961D01*
X115184284Y-130828961D02*
X115031903Y-130828961D01*
X115031903Y-130828961D02*
X114955713Y-130867057D01*
X115298570Y-131324200D02*
X115222379Y-131362295D01*
X115222379Y-131362295D02*
X115031903Y-131362295D01*
X115031903Y-131362295D02*
X114955713Y-131324200D01*
X114955713Y-131324200D02*
X114917617Y-131248009D01*
X114917617Y-131248009D02*
X114917617Y-131171819D01*
X114917617Y-131171819D02*
X114955713Y-131095628D01*
X114955713Y-131095628D02*
X115031903Y-131057533D01*
X115031903Y-131057533D02*
X115222379Y-131057533D01*
X115222379Y-131057533D02*
X115298570Y-131019438D01*
X115679523Y-131362295D02*
X115679523Y-130828961D01*
X115679523Y-130981342D02*
X115717618Y-130905152D01*
X115717618Y-130905152D02*
X115755713Y-130867057D01*
X115755713Y-130867057D02*
X115831904Y-130828961D01*
X115831904Y-130828961D02*
X115908094Y-130828961D01*
X116060475Y-130828961D02*
X116365237Y-130828961D01*
X116174761Y-130562295D02*
X116174761Y-131248009D01*
X116174761Y-131248009D02*
X116212856Y-131324200D01*
X116212856Y-131324200D02*
X116289046Y-131362295D01*
X116289046Y-131362295D02*
X116365237Y-131362295D01*
X117241428Y-130828961D02*
X117241428Y-131628961D01*
X117241428Y-130867057D02*
X117317618Y-130828961D01*
X117317618Y-130828961D02*
X117469999Y-130828961D01*
X117469999Y-130828961D02*
X117546190Y-130867057D01*
X117546190Y-130867057D02*
X117584285Y-130905152D01*
X117584285Y-130905152D02*
X117622380Y-130981342D01*
X117622380Y-130981342D02*
X117622380Y-131209914D01*
X117622380Y-131209914D02*
X117584285Y-131286104D01*
X117584285Y-131286104D02*
X117546190Y-131324200D01*
X117546190Y-131324200D02*
X117469999Y-131362295D01*
X117469999Y-131362295D02*
X117317618Y-131362295D01*
X117317618Y-131362295D02*
X117241428Y-131324200D01*
X117965238Y-131362295D02*
X117965238Y-130828961D01*
X117965238Y-130562295D02*
X117927142Y-130600390D01*
X117927142Y-130600390D02*
X117965238Y-130638485D01*
X117965238Y-130638485D02*
X118003333Y-130600390D01*
X118003333Y-130600390D02*
X117965238Y-130562295D01*
X117965238Y-130562295D02*
X117965238Y-130638485D01*
X118346190Y-130828961D02*
X118346190Y-131362295D01*
X118346190Y-130905152D02*
X118384285Y-130867057D01*
X118384285Y-130867057D02*
X118460475Y-130828961D01*
X118460475Y-130828961D02*
X118574761Y-130828961D01*
X118574761Y-130828961D02*
X118650952Y-130867057D01*
X118650952Y-130867057D02*
X118689047Y-130943247D01*
X118689047Y-130943247D02*
X118689047Y-131362295D01*
X119679524Y-130828961D02*
X119679524Y-131362295D01*
X119679524Y-130905152D02*
X119717619Y-130867057D01*
X119717619Y-130867057D02*
X119793809Y-130828961D01*
X119793809Y-130828961D02*
X119908095Y-130828961D01*
X119908095Y-130828961D02*
X119984286Y-130867057D01*
X119984286Y-130867057D02*
X120022381Y-130943247D01*
X120022381Y-130943247D02*
X120022381Y-131362295D01*
X122574763Y-131324200D02*
X122498572Y-131362295D01*
X122498572Y-131362295D02*
X122346191Y-131362295D01*
X122346191Y-131362295D02*
X122270001Y-131324200D01*
X122270001Y-131324200D02*
X122231906Y-131286104D01*
X122231906Y-131286104D02*
X122193810Y-131209914D01*
X122193810Y-131209914D02*
X122193810Y-130981342D01*
X122193810Y-130981342D02*
X122231906Y-130905152D01*
X122231906Y-130905152D02*
X122270001Y-130867057D01*
X122270001Y-130867057D02*
X122346191Y-130828961D01*
X122346191Y-130828961D02*
X122498572Y-130828961D01*
X122498572Y-130828961D02*
X122574763Y-130867057D01*
X123260477Y-131362295D02*
X123260477Y-130943247D01*
X123260477Y-130943247D02*
X123222382Y-130867057D01*
X123222382Y-130867057D02*
X123146191Y-130828961D01*
X123146191Y-130828961D02*
X122993810Y-130828961D01*
X122993810Y-130828961D02*
X122917620Y-130867057D01*
X123260477Y-131324200D02*
X123184286Y-131362295D01*
X123184286Y-131362295D02*
X122993810Y-131362295D01*
X122993810Y-131362295D02*
X122917620Y-131324200D01*
X122917620Y-131324200D02*
X122879524Y-131248009D01*
X122879524Y-131248009D02*
X122879524Y-131171819D01*
X122879524Y-131171819D02*
X122917620Y-131095628D01*
X122917620Y-131095628D02*
X122993810Y-131057533D01*
X122993810Y-131057533D02*
X123184286Y-131057533D01*
X123184286Y-131057533D02*
X123260477Y-131019438D01*
X123641430Y-131362295D02*
X123641430Y-130828961D01*
X123641430Y-130981342D02*
X123679525Y-130905152D01*
X123679525Y-130905152D02*
X123717620Y-130867057D01*
X123717620Y-130867057D02*
X123793811Y-130828961D01*
X123793811Y-130828961D02*
X123870001Y-130828961D01*
X124022382Y-130828961D02*
X124327144Y-130828961D01*
X124136668Y-130562295D02*
X124136668Y-131248009D01*
X124136668Y-131248009D02*
X124174763Y-131324200D01*
X124174763Y-131324200D02*
X124250953Y-131362295D01*
X124250953Y-131362295D02*
X124327144Y-131362295D01*
X125622382Y-131362295D02*
X125165239Y-131362295D01*
X125393811Y-131362295D02*
X125393811Y-130562295D01*
X125393811Y-130562295D02*
X125317620Y-130676580D01*
X125317620Y-130676580D02*
X125241430Y-130752771D01*
X125241430Y-130752771D02*
X125165239Y-130790866D01*
X126003335Y-131324200D02*
X126003335Y-131362295D01*
X126003335Y-131362295D02*
X125965240Y-131438485D01*
X125965240Y-131438485D02*
X125927144Y-131476580D01*
X126308096Y-130638485D02*
X126346192Y-130600390D01*
X126346192Y-130600390D02*
X126422382Y-130562295D01*
X126422382Y-130562295D02*
X126612858Y-130562295D01*
X126612858Y-130562295D02*
X126689049Y-130600390D01*
X126689049Y-130600390D02*
X126727144Y-130638485D01*
X126727144Y-130638485D02*
X126765239Y-130714676D01*
X126765239Y-130714676D02*
X126765239Y-130790866D01*
X126765239Y-130790866D02*
X126727144Y-130905152D01*
X126727144Y-130905152D02*
X126270001Y-131362295D01*
X126270001Y-131362295D02*
X126765239Y-131362295D01*
X127946192Y-131667057D02*
X127908097Y-131628961D01*
X127908097Y-131628961D02*
X127831906Y-131514676D01*
X127831906Y-131514676D02*
X127793811Y-131438485D01*
X127793811Y-131438485D02*
X127755716Y-131324200D01*
X127755716Y-131324200D02*
X127717621Y-131133723D01*
X127717621Y-131133723D02*
X127717621Y-130981342D01*
X127717621Y-130981342D02*
X127755716Y-130790866D01*
X127755716Y-130790866D02*
X127793811Y-130676580D01*
X127793811Y-130676580D02*
X127831906Y-130600390D01*
X127831906Y-130600390D02*
X127908097Y-130486104D01*
X127908097Y-130486104D02*
X127946192Y-130448009D01*
X128250954Y-131057533D02*
X128860478Y-131057533D01*
X128555716Y-131362295D02*
X128555716Y-130752771D01*
X129812858Y-130524200D02*
X129127144Y-131552771D01*
X130079525Y-131057533D02*
X130689049Y-131057533D01*
X131489048Y-131362295D02*
X131031905Y-131362295D01*
X131260477Y-131362295D02*
X131260477Y-130562295D01*
X131260477Y-130562295D02*
X131184286Y-130676580D01*
X131184286Y-130676580D02*
X131108096Y-130752771D01*
X131108096Y-130752771D02*
X131031905Y-130790866D01*
X131793810Y-130638485D02*
X131831906Y-130600390D01*
X131831906Y-130600390D02*
X131908096Y-130562295D01*
X131908096Y-130562295D02*
X132098572Y-130562295D01*
X132098572Y-130562295D02*
X132174763Y-130600390D01*
X132174763Y-130600390D02*
X132212858Y-130638485D01*
X132212858Y-130638485D02*
X132250953Y-130714676D01*
X132250953Y-130714676D02*
X132250953Y-130790866D01*
X132250953Y-130790866D02*
X132212858Y-130905152D01*
X132212858Y-130905152D02*
X131755715Y-131362295D01*
X131755715Y-131362295D02*
X132250953Y-131362295D01*
X132479525Y-130562295D02*
X132746192Y-131362295D01*
X132746192Y-131362295D02*
X133012858Y-130562295D01*
X133203334Y-131667057D02*
X133241429Y-131628961D01*
X133241429Y-131628961D02*
X133317620Y-131514676D01*
X133317620Y-131514676D02*
X133355715Y-131438485D01*
X133355715Y-131438485D02*
X133393810Y-131324200D01*
X133393810Y-131324200D02*
X133431906Y-131133723D01*
X133431906Y-131133723D02*
X133431906Y-130981342D01*
X133431906Y-130981342D02*
X133393810Y-130790866D01*
X133393810Y-130790866D02*
X133355715Y-130676580D01*
X133355715Y-130676580D02*
X133317620Y-130600390D01*
X133317620Y-130600390D02*
X133241429Y-130486104D01*
X133241429Y-130486104D02*
X133203334Y-130448009D01*
X134536667Y-131362295D02*
X134460477Y-131324200D01*
X134460477Y-131324200D02*
X134422382Y-131286104D01*
X134422382Y-131286104D02*
X134384286Y-131209914D01*
X134384286Y-131209914D02*
X134384286Y-130981342D01*
X134384286Y-130981342D02*
X134422382Y-130905152D01*
X134422382Y-130905152D02*
X134460477Y-130867057D01*
X134460477Y-130867057D02*
X134536667Y-130828961D01*
X134536667Y-130828961D02*
X134650953Y-130828961D01*
X134650953Y-130828961D02*
X134727144Y-130867057D01*
X134727144Y-130867057D02*
X134765239Y-130905152D01*
X134765239Y-130905152D02*
X134803334Y-130981342D01*
X134803334Y-130981342D02*
X134803334Y-131209914D01*
X134803334Y-131209914D02*
X134765239Y-131286104D01*
X134765239Y-131286104D02*
X134727144Y-131324200D01*
X134727144Y-131324200D02*
X134650953Y-131362295D01*
X134650953Y-131362295D02*
X134536667Y-131362295D01*
X135146192Y-130828961D02*
X135146192Y-131628961D01*
X135146192Y-130867057D02*
X135222382Y-130828961D01*
X135222382Y-130828961D02*
X135374763Y-130828961D01*
X135374763Y-130828961D02*
X135450954Y-130867057D01*
X135450954Y-130867057D02*
X135489049Y-130905152D01*
X135489049Y-130905152D02*
X135527144Y-130981342D01*
X135527144Y-130981342D02*
X135527144Y-131209914D01*
X135527144Y-131209914D02*
X135489049Y-131286104D01*
X135489049Y-131286104D02*
X135450954Y-131324200D01*
X135450954Y-131324200D02*
X135374763Y-131362295D01*
X135374763Y-131362295D02*
X135222382Y-131362295D01*
X135222382Y-131362295D02*
X135146192Y-131324200D01*
X136174764Y-131324200D02*
X136098573Y-131362295D01*
X136098573Y-131362295D02*
X135946192Y-131362295D01*
X135946192Y-131362295D02*
X135870002Y-131324200D01*
X135870002Y-131324200D02*
X135831906Y-131248009D01*
X135831906Y-131248009D02*
X135831906Y-130943247D01*
X135831906Y-130943247D02*
X135870002Y-130867057D01*
X135870002Y-130867057D02*
X135946192Y-130828961D01*
X135946192Y-130828961D02*
X136098573Y-130828961D01*
X136098573Y-130828961D02*
X136174764Y-130867057D01*
X136174764Y-130867057D02*
X136212859Y-130943247D01*
X136212859Y-130943247D02*
X136212859Y-131019438D01*
X136212859Y-131019438D02*
X135831906Y-131095628D01*
X136555716Y-130828961D02*
X136555716Y-131362295D01*
X136555716Y-130905152D02*
X136593811Y-130867057D01*
X136593811Y-130867057D02*
X136670001Y-130828961D01*
X136670001Y-130828961D02*
X136784287Y-130828961D01*
X136784287Y-130828961D02*
X136860478Y-130867057D01*
X136860478Y-130867057D02*
X136898573Y-130943247D01*
X136898573Y-130943247D02*
X136898573Y-131362295D01*
X137317621Y-131324200D02*
X137317621Y-131362295D01*
X137317621Y-131362295D02*
X137279526Y-131438485D01*
X137279526Y-131438485D02*
X137241430Y-131476580D01*
X138270002Y-131362295D02*
X138270002Y-130562295D01*
X138612859Y-131362295D02*
X138612859Y-130943247D01*
X138612859Y-130943247D02*
X138574764Y-130867057D01*
X138574764Y-130867057D02*
X138498573Y-130828961D01*
X138498573Y-130828961D02*
X138384287Y-130828961D01*
X138384287Y-130828961D02*
X138308097Y-130867057D01*
X138308097Y-130867057D02*
X138270002Y-130905152D01*
X139298574Y-131324200D02*
X139222383Y-131362295D01*
X139222383Y-131362295D02*
X139070002Y-131362295D01*
X139070002Y-131362295D02*
X138993812Y-131324200D01*
X138993812Y-131324200D02*
X138955716Y-131248009D01*
X138955716Y-131248009D02*
X138955716Y-130943247D01*
X138955716Y-130943247D02*
X138993812Y-130867057D01*
X138993812Y-130867057D02*
X139070002Y-130828961D01*
X139070002Y-130828961D02*
X139222383Y-130828961D01*
X139222383Y-130828961D02*
X139298574Y-130867057D01*
X139298574Y-130867057D02*
X139336669Y-130943247D01*
X139336669Y-130943247D02*
X139336669Y-131019438D01*
X139336669Y-131019438D02*
X138955716Y-131095628D01*
X140022383Y-131362295D02*
X140022383Y-130943247D01*
X140022383Y-130943247D02*
X139984288Y-130867057D01*
X139984288Y-130867057D02*
X139908097Y-130828961D01*
X139908097Y-130828961D02*
X139755716Y-130828961D01*
X139755716Y-130828961D02*
X139679526Y-130867057D01*
X140022383Y-131324200D02*
X139946192Y-131362295D01*
X139946192Y-131362295D02*
X139755716Y-131362295D01*
X139755716Y-131362295D02*
X139679526Y-131324200D01*
X139679526Y-131324200D02*
X139641430Y-131248009D01*
X139641430Y-131248009D02*
X139641430Y-131171819D01*
X139641430Y-131171819D02*
X139679526Y-131095628D01*
X139679526Y-131095628D02*
X139755716Y-131057533D01*
X139755716Y-131057533D02*
X139946192Y-131057533D01*
X139946192Y-131057533D02*
X140022383Y-131019438D01*
X140746193Y-131362295D02*
X140746193Y-130562295D01*
X140746193Y-131324200D02*
X140670002Y-131362295D01*
X140670002Y-131362295D02*
X140517621Y-131362295D01*
X140517621Y-131362295D02*
X140441431Y-131324200D01*
X140441431Y-131324200D02*
X140403336Y-131286104D01*
X140403336Y-131286104D02*
X140365240Y-131209914D01*
X140365240Y-131209914D02*
X140365240Y-130981342D01*
X140365240Y-130981342D02*
X140403336Y-130905152D01*
X140403336Y-130905152D02*
X140441431Y-130867057D01*
X140441431Y-130867057D02*
X140517621Y-130828961D01*
X140517621Y-130828961D02*
X140670002Y-130828961D01*
X140670002Y-130828961D02*
X140746193Y-130867057D01*
X141431908Y-131324200D02*
X141355717Y-131362295D01*
X141355717Y-131362295D02*
X141203336Y-131362295D01*
X141203336Y-131362295D02*
X141127146Y-131324200D01*
X141127146Y-131324200D02*
X141089050Y-131248009D01*
X141089050Y-131248009D02*
X141089050Y-130943247D01*
X141089050Y-130943247D02*
X141127146Y-130867057D01*
X141127146Y-130867057D02*
X141203336Y-130828961D01*
X141203336Y-130828961D02*
X141355717Y-130828961D01*
X141355717Y-130828961D02*
X141431908Y-130867057D01*
X141431908Y-130867057D02*
X141470003Y-130943247D01*
X141470003Y-130943247D02*
X141470003Y-131019438D01*
X141470003Y-131019438D02*
X141089050Y-131095628D01*
X141812860Y-131362295D02*
X141812860Y-130828961D01*
X141812860Y-130981342D02*
X141850955Y-130905152D01*
X141850955Y-130905152D02*
X141889050Y-130867057D01*
X141889050Y-130867057D02*
X141965241Y-130828961D01*
X141965241Y-130828961D02*
X142041431Y-130828961D01*
X143336669Y-131362295D02*
X142879526Y-131362295D01*
X143108098Y-131362295D02*
X143108098Y-130562295D01*
X143108098Y-130562295D02*
X143031907Y-130676580D01*
X143031907Y-130676580D02*
X142955717Y-130752771D01*
X142955717Y-130752771D02*
X142879526Y-130790866D01*
X143717622Y-131324200D02*
X143717622Y-131362295D01*
X143717622Y-131362295D02*
X143679527Y-131438485D01*
X143679527Y-131438485D02*
X143641431Y-131476580D01*
X144022383Y-130638485D02*
X144060479Y-130600390D01*
X144060479Y-130600390D02*
X144136669Y-130562295D01*
X144136669Y-130562295D02*
X144327145Y-130562295D01*
X144327145Y-130562295D02*
X144403336Y-130600390D01*
X144403336Y-130600390D02*
X144441431Y-130638485D01*
X144441431Y-130638485D02*
X144479526Y-130714676D01*
X144479526Y-130714676D02*
X144479526Y-130790866D01*
X144479526Y-130790866D02*
X144441431Y-130905152D01*
X144441431Y-130905152D02*
X143984288Y-131362295D01*
X143984288Y-131362295D02*
X144479526Y-131362295D01*
X145431908Y-130943247D02*
X146041432Y-130943247D01*
X146041432Y-131171819D02*
X145431908Y-131171819D01*
X147450955Y-130600390D02*
X147374765Y-130562295D01*
X147374765Y-130562295D02*
X147260479Y-130562295D01*
X147260479Y-130562295D02*
X147146193Y-130600390D01*
X147146193Y-130600390D02*
X147070003Y-130676580D01*
X147070003Y-130676580D02*
X147031908Y-130752771D01*
X147031908Y-130752771D02*
X146993812Y-130905152D01*
X146993812Y-130905152D02*
X146993812Y-131019438D01*
X146993812Y-131019438D02*
X147031908Y-131171819D01*
X147031908Y-131171819D02*
X147070003Y-131248009D01*
X147070003Y-131248009D02*
X147146193Y-131324200D01*
X147146193Y-131324200D02*
X147260479Y-131362295D01*
X147260479Y-131362295D02*
X147336670Y-131362295D01*
X147336670Y-131362295D02*
X147450955Y-131324200D01*
X147450955Y-131324200D02*
X147489051Y-131286104D01*
X147489051Y-131286104D02*
X147489051Y-131019438D01*
X147489051Y-131019438D02*
X147336670Y-131019438D01*
X147831908Y-131362295D02*
X147831908Y-130562295D01*
X147831908Y-130562295D02*
X148289051Y-131362295D01*
X148289051Y-131362295D02*
X148289051Y-130562295D01*
X148670003Y-131362295D02*
X148670003Y-130562295D01*
X148670003Y-130562295D02*
X148860479Y-130562295D01*
X148860479Y-130562295D02*
X148974765Y-130600390D01*
X148974765Y-130600390D02*
X149050955Y-130676580D01*
X149050955Y-130676580D02*
X149089050Y-130752771D01*
X149089050Y-130752771D02*
X149127146Y-130905152D01*
X149127146Y-130905152D02*
X149127146Y-131019438D01*
X149127146Y-131019438D02*
X149089050Y-131171819D01*
X149089050Y-131171819D02*
X149050955Y-131248009D01*
X149050955Y-131248009D02*
X148974765Y-131324200D01*
X148974765Y-131324200D02*
X148860479Y-131362295D01*
X148860479Y-131362295D02*
X148670003Y-131362295D01*
X102178485Y-64708934D02*
X102140390Y-64670838D01*
X102140390Y-64670838D02*
X102102295Y-64594648D01*
X102102295Y-64594648D02*
X102102295Y-64404172D01*
X102102295Y-64404172D02*
X102140390Y-64327981D01*
X102140390Y-64327981D02*
X102178485Y-64289886D01*
X102178485Y-64289886D02*
X102254676Y-64251791D01*
X102254676Y-64251791D02*
X102330866Y-64251791D01*
X102330866Y-64251791D02*
X102445152Y-64289886D01*
X102445152Y-64289886D02*
X102902295Y-64747029D01*
X102902295Y-64747029D02*
X102902295Y-64251791D01*
X102826104Y-63908933D02*
X102864200Y-63870838D01*
X102864200Y-63870838D02*
X102902295Y-63908933D01*
X102902295Y-63908933D02*
X102864200Y-63947029D01*
X102864200Y-63947029D02*
X102826104Y-63908933D01*
X102826104Y-63908933D02*
X102902295Y-63908933D01*
X102407057Y-63908933D02*
X102445152Y-63870838D01*
X102445152Y-63870838D02*
X102483247Y-63908933D01*
X102483247Y-63908933D02*
X102445152Y-63947029D01*
X102445152Y-63947029D02*
X102407057Y-63908933D01*
X102407057Y-63908933D02*
X102483247Y-63908933D01*
X102140390Y-63108934D02*
X102102295Y-63185124D01*
X102102295Y-63185124D02*
X102102295Y-63299410D01*
X102102295Y-63299410D02*
X102140390Y-63413696D01*
X102140390Y-63413696D02*
X102216580Y-63489886D01*
X102216580Y-63489886D02*
X102292771Y-63527981D01*
X102292771Y-63527981D02*
X102445152Y-63566077D01*
X102445152Y-63566077D02*
X102559438Y-63566077D01*
X102559438Y-63566077D02*
X102711819Y-63527981D01*
X102711819Y-63527981D02*
X102788009Y-63489886D01*
X102788009Y-63489886D02*
X102864200Y-63413696D01*
X102864200Y-63413696D02*
X102902295Y-63299410D01*
X102902295Y-63299410D02*
X102902295Y-63223219D01*
X102902295Y-63223219D02*
X102864200Y-63108934D01*
X102864200Y-63108934D02*
X102826104Y-63070838D01*
X102826104Y-63070838D02*
X102559438Y-63070838D01*
X102559438Y-63070838D02*
X102559438Y-63223219D01*
X102902295Y-62727981D02*
X102102295Y-62727981D01*
X102102295Y-62727981D02*
X102902295Y-62270838D01*
X102902295Y-62270838D02*
X102102295Y-62270838D01*
X102902295Y-61889886D02*
X102102295Y-61889886D01*
X102102295Y-61889886D02*
X102102295Y-61699410D01*
X102102295Y-61699410D02*
X102140390Y-61585124D01*
X102140390Y-61585124D02*
X102216580Y-61508934D01*
X102216580Y-61508934D02*
X102292771Y-61470839D01*
X102292771Y-61470839D02*
X102445152Y-61432743D01*
X102445152Y-61432743D02*
X102559438Y-61432743D01*
X102559438Y-61432743D02*
X102711819Y-61470839D01*
X102711819Y-61470839D02*
X102788009Y-61508934D01*
X102788009Y-61508934D02*
X102864200Y-61585124D01*
X102864200Y-61585124D02*
X102902295Y-61699410D01*
X102902295Y-61699410D02*
X102902295Y-61889886D01*
X102902295Y-81791792D02*
X102902295Y-82248935D01*
X102902295Y-82020363D02*
X102102295Y-82020363D01*
X102102295Y-82020363D02*
X102216580Y-82096554D01*
X102216580Y-82096554D02*
X102292771Y-82172744D01*
X102292771Y-82172744D02*
X102330866Y-82248935D01*
X102826104Y-81448934D02*
X102864200Y-81410839D01*
X102864200Y-81410839D02*
X102902295Y-81448934D01*
X102902295Y-81448934D02*
X102864200Y-81487030D01*
X102864200Y-81487030D02*
X102826104Y-81448934D01*
X102826104Y-81448934D02*
X102902295Y-81448934D01*
X102407057Y-81448934D02*
X102445152Y-81410839D01*
X102445152Y-81410839D02*
X102483247Y-81448934D01*
X102483247Y-81448934D02*
X102445152Y-81487030D01*
X102445152Y-81487030D02*
X102407057Y-81448934D01*
X102407057Y-81448934D02*
X102483247Y-81448934D01*
X102140390Y-80648935D02*
X102102295Y-80725125D01*
X102102295Y-80725125D02*
X102102295Y-80839411D01*
X102102295Y-80839411D02*
X102140390Y-80953697D01*
X102140390Y-80953697D02*
X102216580Y-81029887D01*
X102216580Y-81029887D02*
X102292771Y-81067982D01*
X102292771Y-81067982D02*
X102445152Y-81106078D01*
X102445152Y-81106078D02*
X102559438Y-81106078D01*
X102559438Y-81106078D02*
X102711819Y-81067982D01*
X102711819Y-81067982D02*
X102788009Y-81029887D01*
X102788009Y-81029887D02*
X102864200Y-80953697D01*
X102864200Y-80953697D02*
X102902295Y-80839411D01*
X102902295Y-80839411D02*
X102902295Y-80763220D01*
X102902295Y-80763220D02*
X102864200Y-80648935D01*
X102864200Y-80648935D02*
X102826104Y-80610839D01*
X102826104Y-80610839D02*
X102559438Y-80610839D01*
X102559438Y-80610839D02*
X102559438Y-80763220D01*
X102902295Y-80267982D02*
X102102295Y-80267982D01*
X102102295Y-80267982D02*
X102902295Y-79810839D01*
X102902295Y-79810839D02*
X102102295Y-79810839D01*
X102902295Y-79429887D02*
X102102295Y-79429887D01*
X102102295Y-79429887D02*
X102102295Y-79239411D01*
X102102295Y-79239411D02*
X102140390Y-79125125D01*
X102140390Y-79125125D02*
X102216580Y-79048935D01*
X102216580Y-79048935D02*
X102292771Y-79010840D01*
X102292771Y-79010840D02*
X102445152Y-78972744D01*
X102445152Y-78972744D02*
X102559438Y-78972744D01*
X102559438Y-78972744D02*
X102711819Y-79010840D01*
X102711819Y-79010840D02*
X102788009Y-79048935D01*
X102788009Y-79048935D02*
X102864200Y-79125125D01*
X102864200Y-79125125D02*
X102902295Y-79239411D01*
X102902295Y-79239411D02*
X102902295Y-79429887D01*
X104604200Y-64099410D02*
X105632771Y-64785124D01*
X105442295Y-63832743D02*
X104642295Y-63832743D01*
X104642295Y-63832743D02*
X105442295Y-63375600D01*
X105442295Y-63375600D02*
X104642295Y-63375600D01*
X105442295Y-62994648D02*
X104642295Y-62994648D01*
X104642295Y-62994648D02*
X105213723Y-62727982D01*
X105213723Y-62727982D02*
X104642295Y-62461315D01*
X104642295Y-62461315D02*
X105442295Y-62461315D01*
X105442295Y-62080362D02*
X104642295Y-62080362D01*
X104604200Y-81639411D02*
X105632771Y-82325125D01*
X105442295Y-81372744D02*
X104642295Y-81372744D01*
X105023247Y-81372744D02*
X105023247Y-80915601D01*
X105442295Y-80915601D02*
X104642295Y-80915601D01*
X105213723Y-80572745D02*
X105213723Y-80191792D01*
X105442295Y-80648935D02*
X104642295Y-80382268D01*
X104642295Y-80382268D02*
X105442295Y-80115602D01*
X105442295Y-79467983D02*
X105442295Y-79848935D01*
X105442295Y-79848935D02*
X104642295Y-79848935D01*
X104642295Y-79315602D02*
X104642295Y-78858459D01*
X105442295Y-79087031D02*
X104642295Y-79087031D01*
X107563247Y-64670838D02*
X107563247Y-64404172D01*
X107982295Y-64289886D02*
X107982295Y-64670838D01*
X107982295Y-64670838D02*
X107182295Y-64670838D01*
X107182295Y-64670838D02*
X107182295Y-64289886D01*
X107144200Y-81639411D02*
X108172771Y-82325125D01*
X107982295Y-80915601D02*
X107601342Y-81182268D01*
X107982295Y-81372744D02*
X107182295Y-81372744D01*
X107182295Y-81372744D02*
X107182295Y-81067982D01*
X107182295Y-81067982D02*
X107220390Y-80991792D01*
X107220390Y-80991792D02*
X107258485Y-80953697D01*
X107258485Y-80953697D02*
X107334676Y-80915601D01*
X107334676Y-80915601D02*
X107448961Y-80915601D01*
X107448961Y-80915601D02*
X107525152Y-80953697D01*
X107525152Y-80953697D02*
X107563247Y-80991792D01*
X107563247Y-80991792D02*
X107601342Y-81067982D01*
X107601342Y-81067982D02*
X107601342Y-81372744D01*
X107563247Y-80572744D02*
X107563247Y-80306078D01*
X107982295Y-80191792D02*
X107982295Y-80572744D01*
X107982295Y-80572744D02*
X107182295Y-80572744D01*
X107182295Y-80572744D02*
X107182295Y-80191792D01*
X107944200Y-79887030D02*
X107982295Y-79772744D01*
X107982295Y-79772744D02*
X107982295Y-79582268D01*
X107982295Y-79582268D02*
X107944200Y-79506077D01*
X107944200Y-79506077D02*
X107906104Y-79467982D01*
X107906104Y-79467982D02*
X107829914Y-79429887D01*
X107829914Y-79429887D02*
X107753723Y-79429887D01*
X107753723Y-79429887D02*
X107677533Y-79467982D01*
X107677533Y-79467982D02*
X107639438Y-79506077D01*
X107639438Y-79506077D02*
X107601342Y-79582268D01*
X107601342Y-79582268D02*
X107563247Y-79734649D01*
X107563247Y-79734649D02*
X107525152Y-79810839D01*
X107525152Y-79810839D02*
X107487057Y-79848934D01*
X107487057Y-79848934D02*
X107410866Y-79887030D01*
X107410866Y-79887030D02*
X107334676Y-79887030D01*
X107334676Y-79887030D02*
X107258485Y-79848934D01*
X107258485Y-79848934D02*
X107220390Y-79810839D01*
X107220390Y-79810839D02*
X107182295Y-79734649D01*
X107182295Y-79734649D02*
X107182295Y-79544172D01*
X107182295Y-79544172D02*
X107220390Y-79429887D01*
X107563247Y-79087029D02*
X107563247Y-78820363D01*
X107982295Y-78706077D02*
X107982295Y-79087029D01*
X107982295Y-79087029D02*
X107182295Y-79087029D01*
X107182295Y-79087029D02*
X107182295Y-78706077D01*
X107182295Y-78477505D02*
X107182295Y-78020362D01*
X107982295Y-78248934D02*
X107182295Y-78248934D01*
X109684200Y-64099410D02*
X110712771Y-64785124D01*
X110446104Y-63375600D02*
X110484200Y-63413696D01*
X110484200Y-63413696D02*
X110522295Y-63527981D01*
X110522295Y-63527981D02*
X110522295Y-63604172D01*
X110522295Y-63604172D02*
X110484200Y-63718458D01*
X110484200Y-63718458D02*
X110408009Y-63794648D01*
X110408009Y-63794648D02*
X110331819Y-63832743D01*
X110331819Y-63832743D02*
X110179438Y-63870839D01*
X110179438Y-63870839D02*
X110065152Y-63870839D01*
X110065152Y-63870839D02*
X109912771Y-63832743D01*
X109912771Y-63832743D02*
X109836580Y-63794648D01*
X109836580Y-63794648D02*
X109760390Y-63718458D01*
X109760390Y-63718458D02*
X109722295Y-63604172D01*
X109722295Y-63604172D02*
X109722295Y-63527981D01*
X109722295Y-63527981D02*
X109760390Y-63413696D01*
X109760390Y-63413696D02*
X109798485Y-63375600D01*
X110293723Y-63070839D02*
X110293723Y-62689886D01*
X110522295Y-63147029D02*
X109722295Y-62880362D01*
X109722295Y-62880362D02*
X110522295Y-62613696D01*
X110522295Y-61889886D02*
X110141342Y-62156553D01*
X110522295Y-62347029D02*
X109722295Y-62347029D01*
X109722295Y-62347029D02*
X109722295Y-62042267D01*
X109722295Y-62042267D02*
X109760390Y-61966077D01*
X109760390Y-61966077D02*
X109798485Y-61927982D01*
X109798485Y-61927982D02*
X109874676Y-61889886D01*
X109874676Y-61889886D02*
X109988961Y-61889886D01*
X109988961Y-61889886D02*
X110065152Y-61927982D01*
X110065152Y-61927982D02*
X110103247Y-61966077D01*
X110103247Y-61966077D02*
X110141342Y-62042267D01*
X110141342Y-62042267D02*
X110141342Y-62347029D01*
X109722295Y-61661315D02*
X109722295Y-61204172D01*
X110522295Y-61432744D02*
X109722295Y-61432744D01*
X110598485Y-81677506D02*
X110560390Y-81753696D01*
X110560390Y-81753696D02*
X110484200Y-81829887D01*
X110484200Y-81829887D02*
X110369914Y-81944173D01*
X110369914Y-81944173D02*
X110331819Y-82020363D01*
X110331819Y-82020363D02*
X110331819Y-82096554D01*
X110522295Y-82058458D02*
X110484200Y-82134649D01*
X110484200Y-82134649D02*
X110408009Y-82210839D01*
X110408009Y-82210839D02*
X110255628Y-82248935D01*
X110255628Y-82248935D02*
X109988961Y-82248935D01*
X109988961Y-82248935D02*
X109836580Y-82210839D01*
X109836580Y-82210839D02*
X109760390Y-82134649D01*
X109760390Y-82134649D02*
X109722295Y-82058458D01*
X109722295Y-82058458D02*
X109722295Y-81906077D01*
X109722295Y-81906077D02*
X109760390Y-81829887D01*
X109760390Y-81829887D02*
X109836580Y-81753696D01*
X109836580Y-81753696D02*
X109988961Y-81715601D01*
X109988961Y-81715601D02*
X110255628Y-81715601D01*
X110255628Y-81715601D02*
X110408009Y-81753696D01*
X110408009Y-81753696D02*
X110484200Y-81829887D01*
X110484200Y-81829887D02*
X110522295Y-81906077D01*
X110522295Y-81906077D02*
X110522295Y-82058458D01*
X113062295Y-64670838D02*
X112262295Y-64670838D01*
X112262295Y-64670838D02*
X112262295Y-64480362D01*
X112262295Y-64480362D02*
X112300390Y-64366076D01*
X112300390Y-64366076D02*
X112376580Y-64289886D01*
X112376580Y-64289886D02*
X112452771Y-64251791D01*
X112452771Y-64251791D02*
X112605152Y-64213695D01*
X112605152Y-64213695D02*
X112719438Y-64213695D01*
X112719438Y-64213695D02*
X112871819Y-64251791D01*
X112871819Y-64251791D02*
X112948009Y-64289886D01*
X112948009Y-64289886D02*
X113024200Y-64366076D01*
X113024200Y-64366076D02*
X113062295Y-64480362D01*
X113062295Y-64480362D02*
X113062295Y-64670838D01*
X112262295Y-63718457D02*
X112262295Y-63642267D01*
X112262295Y-63642267D02*
X112300390Y-63566076D01*
X112300390Y-63566076D02*
X112338485Y-63527981D01*
X112338485Y-63527981D02*
X112414676Y-63489886D01*
X112414676Y-63489886D02*
X112567057Y-63451791D01*
X112567057Y-63451791D02*
X112757533Y-63451791D01*
X112757533Y-63451791D02*
X112909914Y-63489886D01*
X112909914Y-63489886D02*
X112986104Y-63527981D01*
X112986104Y-63527981D02*
X113024200Y-63566076D01*
X113024200Y-63566076D02*
X113062295Y-63642267D01*
X113062295Y-63642267D02*
X113062295Y-63718457D01*
X113062295Y-63718457D02*
X113024200Y-63794648D01*
X113024200Y-63794648D02*
X112986104Y-63832743D01*
X112986104Y-63832743D02*
X112909914Y-63870838D01*
X112909914Y-63870838D02*
X112757533Y-63908934D01*
X112757533Y-63908934D02*
X112567057Y-63908934D01*
X112567057Y-63908934D02*
X112414676Y-63870838D01*
X112414676Y-63870838D02*
X112338485Y-63832743D01*
X112338485Y-63832743D02*
X112300390Y-63794648D01*
X112300390Y-63794648D02*
X112262295Y-63718457D01*
X112757533Y-82210839D02*
X112757533Y-81601316D01*
X113062295Y-81906077D02*
X112452771Y-81906077D01*
X112262295Y-80839411D02*
X112262295Y-81220363D01*
X112262295Y-81220363D02*
X112643247Y-81258459D01*
X112643247Y-81258459D02*
X112605152Y-81220363D01*
X112605152Y-81220363D02*
X112567057Y-81144173D01*
X112567057Y-81144173D02*
X112567057Y-80953697D01*
X112567057Y-80953697D02*
X112605152Y-80877506D01*
X112605152Y-80877506D02*
X112643247Y-80839411D01*
X112643247Y-80839411D02*
X112719438Y-80801316D01*
X112719438Y-80801316D02*
X112909914Y-80801316D01*
X112909914Y-80801316D02*
X112986104Y-80839411D01*
X112986104Y-80839411D02*
X113024200Y-80877506D01*
X113024200Y-80877506D02*
X113062295Y-80953697D01*
X113062295Y-80953697D02*
X113062295Y-81144173D01*
X113062295Y-81144173D02*
X113024200Y-81220363D01*
X113024200Y-81220363D02*
X112986104Y-81258459D01*
X112262295Y-80572744D02*
X113062295Y-80306077D01*
X113062295Y-80306077D02*
X112262295Y-80039411D01*
X115602295Y-64670838D02*
X114802295Y-64670838D01*
X114802295Y-64670838D02*
X114802295Y-64480362D01*
X114802295Y-64480362D02*
X114840390Y-64366076D01*
X114840390Y-64366076D02*
X114916580Y-64289886D01*
X114916580Y-64289886D02*
X114992771Y-64251791D01*
X114992771Y-64251791D02*
X115145152Y-64213695D01*
X115145152Y-64213695D02*
X115259438Y-64213695D01*
X115259438Y-64213695D02*
X115411819Y-64251791D01*
X115411819Y-64251791D02*
X115488009Y-64289886D01*
X115488009Y-64289886D02*
X115564200Y-64366076D01*
X115564200Y-64366076D02*
X115602295Y-64480362D01*
X115602295Y-64480362D02*
X115602295Y-64670838D01*
X114878485Y-63908934D02*
X114840390Y-63870838D01*
X114840390Y-63870838D02*
X114802295Y-63794648D01*
X114802295Y-63794648D02*
X114802295Y-63604172D01*
X114802295Y-63604172D02*
X114840390Y-63527981D01*
X114840390Y-63527981D02*
X114878485Y-63489886D01*
X114878485Y-63489886D02*
X114954676Y-63451791D01*
X114954676Y-63451791D02*
X115030866Y-63451791D01*
X115030866Y-63451791D02*
X115145152Y-63489886D01*
X115145152Y-63489886D02*
X115602295Y-63947029D01*
X115602295Y-63947029D02*
X115602295Y-63451791D01*
X115602295Y-82210839D02*
X114802295Y-82210839D01*
X114802295Y-82210839D02*
X114802295Y-82020363D01*
X114802295Y-82020363D02*
X114840390Y-81906077D01*
X114840390Y-81906077D02*
X114916580Y-81829887D01*
X114916580Y-81829887D02*
X114992771Y-81791792D01*
X114992771Y-81791792D02*
X115145152Y-81753696D01*
X115145152Y-81753696D02*
X115259438Y-81753696D01*
X115259438Y-81753696D02*
X115411819Y-81791792D01*
X115411819Y-81791792D02*
X115488009Y-81829887D01*
X115488009Y-81829887D02*
X115564200Y-81906077D01*
X115564200Y-81906077D02*
X115602295Y-82020363D01*
X115602295Y-82020363D02*
X115602295Y-82210839D01*
X115602295Y-80991792D02*
X115602295Y-81448935D01*
X115602295Y-81220363D02*
X114802295Y-81220363D01*
X114802295Y-81220363D02*
X114916580Y-81296554D01*
X114916580Y-81296554D02*
X114992771Y-81372744D01*
X114992771Y-81372744D02*
X115030866Y-81448935D01*
X118142295Y-64670838D02*
X117342295Y-64670838D01*
X117342295Y-64670838D02*
X117342295Y-64480362D01*
X117342295Y-64480362D02*
X117380390Y-64366076D01*
X117380390Y-64366076D02*
X117456580Y-64289886D01*
X117456580Y-64289886D02*
X117532771Y-64251791D01*
X117532771Y-64251791D02*
X117685152Y-64213695D01*
X117685152Y-64213695D02*
X117799438Y-64213695D01*
X117799438Y-64213695D02*
X117951819Y-64251791D01*
X117951819Y-64251791D02*
X118028009Y-64289886D01*
X118028009Y-64289886D02*
X118104200Y-64366076D01*
X118104200Y-64366076D02*
X118142295Y-64480362D01*
X118142295Y-64480362D02*
X118142295Y-64670838D01*
X117608961Y-63527981D02*
X118142295Y-63527981D01*
X117304200Y-63718457D02*
X117875628Y-63908934D01*
X117875628Y-63908934D02*
X117875628Y-63413695D01*
X118142295Y-82210839D02*
X117342295Y-82210839D01*
X117342295Y-82210839D02*
X117342295Y-82020363D01*
X117342295Y-82020363D02*
X117380390Y-81906077D01*
X117380390Y-81906077D02*
X117456580Y-81829887D01*
X117456580Y-81829887D02*
X117532771Y-81791792D01*
X117532771Y-81791792D02*
X117685152Y-81753696D01*
X117685152Y-81753696D02*
X117799438Y-81753696D01*
X117799438Y-81753696D02*
X117951819Y-81791792D01*
X117951819Y-81791792D02*
X118028009Y-81829887D01*
X118028009Y-81829887D02*
X118104200Y-81906077D01*
X118104200Y-81906077D02*
X118142295Y-82020363D01*
X118142295Y-82020363D02*
X118142295Y-82210839D01*
X117342295Y-81487030D02*
X117342295Y-80991792D01*
X117342295Y-80991792D02*
X117647057Y-81258458D01*
X117647057Y-81258458D02*
X117647057Y-81144173D01*
X117647057Y-81144173D02*
X117685152Y-81067982D01*
X117685152Y-81067982D02*
X117723247Y-81029887D01*
X117723247Y-81029887D02*
X117799438Y-80991792D01*
X117799438Y-80991792D02*
X117989914Y-80991792D01*
X117989914Y-80991792D02*
X118066104Y-81029887D01*
X118066104Y-81029887D02*
X118104200Y-81067982D01*
X118104200Y-81067982D02*
X118142295Y-81144173D01*
X118142295Y-81144173D02*
X118142295Y-81372744D01*
X118142295Y-81372744D02*
X118104200Y-81448935D01*
X118104200Y-81448935D02*
X118066104Y-81487030D01*
X120682295Y-64670838D02*
X119882295Y-64670838D01*
X119882295Y-64670838D02*
X119882295Y-64480362D01*
X119882295Y-64480362D02*
X119920390Y-64366076D01*
X119920390Y-64366076D02*
X119996580Y-64289886D01*
X119996580Y-64289886D02*
X120072771Y-64251791D01*
X120072771Y-64251791D02*
X120225152Y-64213695D01*
X120225152Y-64213695D02*
X120339438Y-64213695D01*
X120339438Y-64213695D02*
X120491819Y-64251791D01*
X120491819Y-64251791D02*
X120568009Y-64289886D01*
X120568009Y-64289886D02*
X120644200Y-64366076D01*
X120644200Y-64366076D02*
X120682295Y-64480362D01*
X120682295Y-64480362D02*
X120682295Y-64670838D01*
X119882295Y-63527981D02*
X119882295Y-63680362D01*
X119882295Y-63680362D02*
X119920390Y-63756553D01*
X119920390Y-63756553D02*
X119958485Y-63794648D01*
X119958485Y-63794648D02*
X120072771Y-63870838D01*
X120072771Y-63870838D02*
X120225152Y-63908934D01*
X120225152Y-63908934D02*
X120529914Y-63908934D01*
X120529914Y-63908934D02*
X120606104Y-63870838D01*
X120606104Y-63870838D02*
X120644200Y-63832743D01*
X120644200Y-63832743D02*
X120682295Y-63756553D01*
X120682295Y-63756553D02*
X120682295Y-63604172D01*
X120682295Y-63604172D02*
X120644200Y-63527981D01*
X120644200Y-63527981D02*
X120606104Y-63489886D01*
X120606104Y-63489886D02*
X120529914Y-63451791D01*
X120529914Y-63451791D02*
X120339438Y-63451791D01*
X120339438Y-63451791D02*
X120263247Y-63489886D01*
X120263247Y-63489886D02*
X120225152Y-63527981D01*
X120225152Y-63527981D02*
X120187057Y-63604172D01*
X120187057Y-63604172D02*
X120187057Y-63756553D01*
X120187057Y-63756553D02*
X120225152Y-63832743D01*
X120225152Y-63832743D02*
X120263247Y-63870838D01*
X120263247Y-63870838D02*
X120339438Y-63908934D01*
X120682295Y-82210839D02*
X119882295Y-82210839D01*
X119882295Y-82210839D02*
X119882295Y-82020363D01*
X119882295Y-82020363D02*
X119920390Y-81906077D01*
X119920390Y-81906077D02*
X119996580Y-81829887D01*
X119996580Y-81829887D02*
X120072771Y-81791792D01*
X120072771Y-81791792D02*
X120225152Y-81753696D01*
X120225152Y-81753696D02*
X120339438Y-81753696D01*
X120339438Y-81753696D02*
X120491819Y-81791792D01*
X120491819Y-81791792D02*
X120568009Y-81829887D01*
X120568009Y-81829887D02*
X120644200Y-81906077D01*
X120644200Y-81906077D02*
X120682295Y-82020363D01*
X120682295Y-82020363D02*
X120682295Y-82210839D01*
X119882295Y-81029887D02*
X119882295Y-81410839D01*
X119882295Y-81410839D02*
X120263247Y-81448935D01*
X120263247Y-81448935D02*
X120225152Y-81410839D01*
X120225152Y-81410839D02*
X120187057Y-81334649D01*
X120187057Y-81334649D02*
X120187057Y-81144173D01*
X120187057Y-81144173D02*
X120225152Y-81067982D01*
X120225152Y-81067982D02*
X120263247Y-81029887D01*
X120263247Y-81029887D02*
X120339438Y-80991792D01*
X120339438Y-80991792D02*
X120529914Y-80991792D01*
X120529914Y-80991792D02*
X120606104Y-81029887D01*
X120606104Y-81029887D02*
X120644200Y-81067982D01*
X120644200Y-81067982D02*
X120682295Y-81144173D01*
X120682295Y-81144173D02*
X120682295Y-81334649D01*
X120682295Y-81334649D02*
X120644200Y-81410839D01*
X120644200Y-81410839D02*
X120606104Y-81448935D01*
X123222295Y-64213695D02*
X122841342Y-64480362D01*
X123222295Y-64670838D02*
X122422295Y-64670838D01*
X122422295Y-64670838D02*
X122422295Y-64366076D01*
X122422295Y-64366076D02*
X122460390Y-64289886D01*
X122460390Y-64289886D02*
X122498485Y-64251791D01*
X122498485Y-64251791D02*
X122574676Y-64213695D01*
X122574676Y-64213695D02*
X122688961Y-64213695D01*
X122688961Y-64213695D02*
X122765152Y-64251791D01*
X122765152Y-64251791D02*
X122803247Y-64289886D01*
X122803247Y-64289886D02*
X122841342Y-64366076D01*
X122841342Y-64366076D02*
X122841342Y-64670838D01*
X122384200Y-63299410D02*
X123412771Y-63985124D01*
X122422295Y-63108934D02*
X123222295Y-62918458D01*
X123222295Y-62918458D02*
X122650866Y-62766077D01*
X122650866Y-62766077D02*
X123222295Y-62613696D01*
X123222295Y-62613696D02*
X122422295Y-62423220D01*
X123222295Y-82210839D02*
X122422295Y-82210839D01*
X122422295Y-82210839D02*
X122422295Y-82020363D01*
X122422295Y-82020363D02*
X122460390Y-81906077D01*
X122460390Y-81906077D02*
X122536580Y-81829887D01*
X122536580Y-81829887D02*
X122612771Y-81791792D01*
X122612771Y-81791792D02*
X122765152Y-81753696D01*
X122765152Y-81753696D02*
X122879438Y-81753696D01*
X122879438Y-81753696D02*
X123031819Y-81791792D01*
X123031819Y-81791792D02*
X123108009Y-81829887D01*
X123108009Y-81829887D02*
X123184200Y-81906077D01*
X123184200Y-81906077D02*
X123222295Y-82020363D01*
X123222295Y-82020363D02*
X123222295Y-82210839D01*
X122422295Y-81487030D02*
X122422295Y-80953696D01*
X122422295Y-80953696D02*
X123222295Y-81296554D01*
X125533723Y-64708934D02*
X125533723Y-64327981D01*
X125762295Y-64785124D02*
X124962295Y-64518457D01*
X124962295Y-64518457D02*
X125762295Y-64251791D01*
X125762295Y-63566077D02*
X125762295Y-64023220D01*
X125762295Y-63794648D02*
X124962295Y-63794648D01*
X124962295Y-63794648D02*
X125076580Y-63870839D01*
X125076580Y-63870839D02*
X125152771Y-63947029D01*
X125152771Y-63947029D02*
X125190866Y-64023220D01*
X125533723Y-82248935D02*
X125533723Y-81867982D01*
X125762295Y-82325125D02*
X124962295Y-82058458D01*
X124962295Y-82058458D02*
X125762295Y-81791792D01*
X124962295Y-81372744D02*
X124962295Y-81296554D01*
X124962295Y-81296554D02*
X125000390Y-81220363D01*
X125000390Y-81220363D02*
X125038485Y-81182268D01*
X125038485Y-81182268D02*
X125114676Y-81144173D01*
X125114676Y-81144173D02*
X125267057Y-81106078D01*
X125267057Y-81106078D02*
X125457533Y-81106078D01*
X125457533Y-81106078D02*
X125609914Y-81144173D01*
X125609914Y-81144173D02*
X125686104Y-81182268D01*
X125686104Y-81182268D02*
X125724200Y-81220363D01*
X125724200Y-81220363D02*
X125762295Y-81296554D01*
X125762295Y-81296554D02*
X125762295Y-81372744D01*
X125762295Y-81372744D02*
X125724200Y-81448935D01*
X125724200Y-81448935D02*
X125686104Y-81487030D01*
X125686104Y-81487030D02*
X125609914Y-81525125D01*
X125609914Y-81525125D02*
X125457533Y-81563221D01*
X125457533Y-81563221D02*
X125267057Y-81563221D01*
X125267057Y-81563221D02*
X125114676Y-81525125D01*
X125114676Y-81525125D02*
X125038485Y-81487030D01*
X125038485Y-81487030D02*
X125000390Y-81448935D01*
X125000390Y-81448935D02*
X124962295Y-81372744D01*
X128073723Y-64708934D02*
X128073723Y-64327981D01*
X128302295Y-64785124D02*
X127502295Y-64518457D01*
X127502295Y-64518457D02*
X128302295Y-64251791D01*
X127502295Y-64061315D02*
X127502295Y-63566077D01*
X127502295Y-63566077D02*
X127807057Y-63832743D01*
X127807057Y-63832743D02*
X127807057Y-63718458D01*
X127807057Y-63718458D02*
X127845152Y-63642267D01*
X127845152Y-63642267D02*
X127883247Y-63604172D01*
X127883247Y-63604172D02*
X127959438Y-63566077D01*
X127959438Y-63566077D02*
X128149914Y-63566077D01*
X128149914Y-63566077D02*
X128226104Y-63604172D01*
X128226104Y-63604172D02*
X128264200Y-63642267D01*
X128264200Y-63642267D02*
X128302295Y-63718458D01*
X128302295Y-63718458D02*
X128302295Y-63947029D01*
X128302295Y-63947029D02*
X128264200Y-64023220D01*
X128264200Y-64023220D02*
X128226104Y-64061315D01*
X128073723Y-82248935D02*
X128073723Y-81867982D01*
X128302295Y-82325125D02*
X127502295Y-82058458D01*
X127502295Y-82058458D02*
X128302295Y-81791792D01*
X127578485Y-81563221D02*
X127540390Y-81525125D01*
X127540390Y-81525125D02*
X127502295Y-81448935D01*
X127502295Y-81448935D02*
X127502295Y-81258459D01*
X127502295Y-81258459D02*
X127540390Y-81182268D01*
X127540390Y-81182268D02*
X127578485Y-81144173D01*
X127578485Y-81144173D02*
X127654676Y-81106078D01*
X127654676Y-81106078D02*
X127730866Y-81106078D01*
X127730866Y-81106078D02*
X127845152Y-81144173D01*
X127845152Y-81144173D02*
X128302295Y-81601316D01*
X128302295Y-81601316D02*
X128302295Y-81106078D01*
X130613722Y-64708934D02*
X130613722Y-64327981D01*
X130842294Y-64785124D02*
X130042294Y-64518457D01*
X130042294Y-64518457D02*
X130842294Y-64251791D01*
X130042294Y-63604172D02*
X130042294Y-63985124D01*
X130042294Y-63985124D02*
X130423246Y-64023220D01*
X130423246Y-64023220D02*
X130385151Y-63985124D01*
X130385151Y-63985124D02*
X130347056Y-63908934D01*
X130347056Y-63908934D02*
X130347056Y-63718458D01*
X130347056Y-63718458D02*
X130385151Y-63642267D01*
X130385151Y-63642267D02*
X130423246Y-63604172D01*
X130423246Y-63604172D02*
X130499437Y-63566077D01*
X130499437Y-63566077D02*
X130689913Y-63566077D01*
X130689913Y-63566077D02*
X130766103Y-63604172D01*
X130766103Y-63604172D02*
X130804199Y-63642267D01*
X130804199Y-63642267D02*
X130842294Y-63718458D01*
X130842294Y-63718458D02*
X130842294Y-63908934D01*
X130842294Y-63908934D02*
X130804199Y-63985124D01*
X130804199Y-63985124D02*
X130766103Y-64023220D01*
X130613722Y-82248935D02*
X130613722Y-81867982D01*
X130842294Y-82325125D02*
X130042294Y-82058458D01*
X130042294Y-82058458D02*
X130842294Y-81791792D01*
X130308960Y-81182268D02*
X130842294Y-81182268D01*
X130004199Y-81372744D02*
X130575627Y-81563221D01*
X130575627Y-81563221D02*
X130575627Y-81067982D01*
X133153723Y-64708934D02*
X133153723Y-64327981D01*
X133382295Y-64785124D02*
X132582295Y-64518457D01*
X132582295Y-64518457D02*
X133382295Y-64251791D01*
X132582295Y-64061315D02*
X132582295Y-63527981D01*
X132582295Y-63527981D02*
X133382295Y-63870839D01*
X133153723Y-82248935D02*
X133153723Y-81867982D01*
X133382295Y-82325125D02*
X132582295Y-82058458D01*
X132582295Y-82058458D02*
X133382295Y-81791792D01*
X132582295Y-81182268D02*
X132582295Y-81334649D01*
X132582295Y-81334649D02*
X132620390Y-81410840D01*
X132620390Y-81410840D02*
X132658485Y-81448935D01*
X132658485Y-81448935D02*
X132772771Y-81525125D01*
X132772771Y-81525125D02*
X132925152Y-81563221D01*
X132925152Y-81563221D02*
X133229914Y-81563221D01*
X133229914Y-81563221D02*
X133306104Y-81525125D01*
X133306104Y-81525125D02*
X133344200Y-81487030D01*
X133344200Y-81487030D02*
X133382295Y-81410840D01*
X133382295Y-81410840D02*
X133382295Y-81258459D01*
X133382295Y-81258459D02*
X133344200Y-81182268D01*
X133344200Y-81182268D02*
X133306104Y-81144173D01*
X133306104Y-81144173D02*
X133229914Y-81106078D01*
X133229914Y-81106078D02*
X133039438Y-81106078D01*
X133039438Y-81106078D02*
X132963247Y-81144173D01*
X132963247Y-81144173D02*
X132925152Y-81182268D01*
X132925152Y-81182268D02*
X132887057Y-81258459D01*
X132887057Y-81258459D02*
X132887057Y-81410840D01*
X132887057Y-81410840D02*
X132925152Y-81487030D01*
X132925152Y-81487030D02*
X132963247Y-81525125D01*
X132963247Y-81525125D02*
X133039438Y-81563221D01*
X135693723Y-64708934D02*
X135693723Y-64327981D01*
X135922295Y-64785124D02*
X135122295Y-64518457D01*
X135122295Y-64518457D02*
X135922295Y-64251791D01*
X135922295Y-63947029D02*
X135922295Y-63794648D01*
X135922295Y-63794648D02*
X135884200Y-63718458D01*
X135884200Y-63718458D02*
X135846104Y-63680362D01*
X135846104Y-63680362D02*
X135731819Y-63604172D01*
X135731819Y-63604172D02*
X135579438Y-63566077D01*
X135579438Y-63566077D02*
X135274676Y-63566077D01*
X135274676Y-63566077D02*
X135198485Y-63604172D01*
X135198485Y-63604172D02*
X135160390Y-63642267D01*
X135160390Y-63642267D02*
X135122295Y-63718458D01*
X135122295Y-63718458D02*
X135122295Y-63870839D01*
X135122295Y-63870839D02*
X135160390Y-63947029D01*
X135160390Y-63947029D02*
X135198485Y-63985124D01*
X135198485Y-63985124D02*
X135274676Y-64023220D01*
X135274676Y-64023220D02*
X135465152Y-64023220D01*
X135465152Y-64023220D02*
X135541342Y-63985124D01*
X135541342Y-63985124D02*
X135579438Y-63947029D01*
X135579438Y-63947029D02*
X135617533Y-63870839D01*
X135617533Y-63870839D02*
X135617533Y-63718458D01*
X135617533Y-63718458D02*
X135579438Y-63642267D01*
X135579438Y-63642267D02*
X135541342Y-63604172D01*
X135541342Y-63604172D02*
X135465152Y-63566077D01*
X135693723Y-82248935D02*
X135693723Y-81867982D01*
X135922295Y-82325125D02*
X135122295Y-82058458D01*
X135122295Y-82058458D02*
X135922295Y-81791792D01*
X135465152Y-81410840D02*
X135427057Y-81487030D01*
X135427057Y-81487030D02*
X135388961Y-81525125D01*
X135388961Y-81525125D02*
X135312771Y-81563221D01*
X135312771Y-81563221D02*
X135274676Y-81563221D01*
X135274676Y-81563221D02*
X135198485Y-81525125D01*
X135198485Y-81525125D02*
X135160390Y-81487030D01*
X135160390Y-81487030D02*
X135122295Y-81410840D01*
X135122295Y-81410840D02*
X135122295Y-81258459D01*
X135122295Y-81258459D02*
X135160390Y-81182268D01*
X135160390Y-81182268D02*
X135198485Y-81144173D01*
X135198485Y-81144173D02*
X135274676Y-81106078D01*
X135274676Y-81106078D02*
X135312771Y-81106078D01*
X135312771Y-81106078D02*
X135388961Y-81144173D01*
X135388961Y-81144173D02*
X135427057Y-81182268D01*
X135427057Y-81182268D02*
X135465152Y-81258459D01*
X135465152Y-81258459D02*
X135465152Y-81410840D01*
X135465152Y-81410840D02*
X135503247Y-81487030D01*
X135503247Y-81487030D02*
X135541342Y-81525125D01*
X135541342Y-81525125D02*
X135617533Y-81563221D01*
X135617533Y-81563221D02*
X135769914Y-81563221D01*
X135769914Y-81563221D02*
X135846104Y-81525125D01*
X135846104Y-81525125D02*
X135884200Y-81487030D01*
X135884200Y-81487030D02*
X135922295Y-81410840D01*
X135922295Y-81410840D02*
X135922295Y-81258459D01*
X135922295Y-81258459D02*
X135884200Y-81182268D01*
X135884200Y-81182268D02*
X135846104Y-81144173D01*
X135846104Y-81144173D02*
X135769914Y-81106078D01*
X135769914Y-81106078D02*
X135617533Y-81106078D01*
X135617533Y-81106078D02*
X135541342Y-81144173D01*
X135541342Y-81144173D02*
X135503247Y-81182268D01*
X135503247Y-81182268D02*
X135465152Y-81258459D01*
X138233723Y-64708934D02*
X138233723Y-64327981D01*
X138462295Y-64785124D02*
X137662295Y-64518457D01*
X137662295Y-64518457D02*
X138462295Y-64251791D01*
X138462295Y-63566077D02*
X138462295Y-64023220D01*
X138462295Y-63794648D02*
X137662295Y-63794648D01*
X137662295Y-63794648D02*
X137776580Y-63870839D01*
X137776580Y-63870839D02*
X137852771Y-63947029D01*
X137852771Y-63947029D02*
X137890866Y-64023220D01*
X138462295Y-62804172D02*
X138462295Y-63261315D01*
X138462295Y-63032743D02*
X137662295Y-63032743D01*
X137662295Y-63032743D02*
X137776580Y-63108934D01*
X137776580Y-63108934D02*
X137852771Y-63185124D01*
X137852771Y-63185124D02*
X137890866Y-63261315D01*
X138233723Y-82248935D02*
X138233723Y-81867982D01*
X138462295Y-82325125D02*
X137662295Y-82058458D01*
X137662295Y-82058458D02*
X138462295Y-81791792D01*
X138462295Y-81106078D02*
X138462295Y-81563221D01*
X138462295Y-81334649D02*
X137662295Y-81334649D01*
X137662295Y-81334649D02*
X137776580Y-81410840D01*
X137776580Y-81410840D02*
X137852771Y-81487030D01*
X137852771Y-81487030D02*
X137890866Y-81563221D01*
X137662295Y-80610839D02*
X137662295Y-80534649D01*
X137662295Y-80534649D02*
X137700390Y-80458458D01*
X137700390Y-80458458D02*
X137738485Y-80420363D01*
X137738485Y-80420363D02*
X137814676Y-80382268D01*
X137814676Y-80382268D02*
X137967057Y-80344173D01*
X137967057Y-80344173D02*
X138157533Y-80344173D01*
X138157533Y-80344173D02*
X138309914Y-80382268D01*
X138309914Y-80382268D02*
X138386104Y-80420363D01*
X138386104Y-80420363D02*
X138424200Y-80458458D01*
X138424200Y-80458458D02*
X138462295Y-80534649D01*
X138462295Y-80534649D02*
X138462295Y-80610839D01*
X138462295Y-80610839D02*
X138424200Y-80687030D01*
X138424200Y-80687030D02*
X138386104Y-80725125D01*
X138386104Y-80725125D02*
X138309914Y-80763220D01*
X138309914Y-80763220D02*
X138157533Y-80801316D01*
X138157533Y-80801316D02*
X137967057Y-80801316D01*
X137967057Y-80801316D02*
X137814676Y-80763220D01*
X137814676Y-80763220D02*
X137738485Y-80725125D01*
X137738485Y-80725125D02*
X137700390Y-80687030D01*
X137700390Y-80687030D02*
X137662295Y-80610839D01*
X140164200Y-64099410D02*
X141192771Y-64785124D01*
X140926104Y-63375600D02*
X140964200Y-63413696D01*
X140964200Y-63413696D02*
X141002295Y-63527981D01*
X141002295Y-63527981D02*
X141002295Y-63604172D01*
X141002295Y-63604172D02*
X140964200Y-63718458D01*
X140964200Y-63718458D02*
X140888009Y-63794648D01*
X140888009Y-63794648D02*
X140811819Y-63832743D01*
X140811819Y-63832743D02*
X140659438Y-63870839D01*
X140659438Y-63870839D02*
X140545152Y-63870839D01*
X140545152Y-63870839D02*
X140392771Y-63832743D01*
X140392771Y-63832743D02*
X140316580Y-63794648D01*
X140316580Y-63794648D02*
X140240390Y-63718458D01*
X140240390Y-63718458D02*
X140202295Y-63604172D01*
X140202295Y-63604172D02*
X140202295Y-63527981D01*
X140202295Y-63527981D02*
X140240390Y-63413696D01*
X140240390Y-63413696D02*
X140278485Y-63375600D01*
X140202295Y-63147029D02*
X140202295Y-62689886D01*
X141002295Y-62918458D02*
X140202295Y-62918458D01*
X140964200Y-62461315D02*
X141002295Y-62347029D01*
X141002295Y-62347029D02*
X141002295Y-62156553D01*
X141002295Y-62156553D02*
X140964200Y-62080362D01*
X140964200Y-62080362D02*
X140926104Y-62042267D01*
X140926104Y-62042267D02*
X140849914Y-62004172D01*
X140849914Y-62004172D02*
X140773723Y-62004172D01*
X140773723Y-62004172D02*
X140697533Y-62042267D01*
X140697533Y-62042267D02*
X140659438Y-62080362D01*
X140659438Y-62080362D02*
X140621342Y-62156553D01*
X140621342Y-62156553D02*
X140583247Y-62308934D01*
X140583247Y-62308934D02*
X140545152Y-62385124D01*
X140545152Y-62385124D02*
X140507057Y-62423219D01*
X140507057Y-62423219D02*
X140430866Y-62461315D01*
X140430866Y-62461315D02*
X140354676Y-62461315D01*
X140354676Y-62461315D02*
X140278485Y-62423219D01*
X140278485Y-62423219D02*
X140240390Y-62385124D01*
X140240390Y-62385124D02*
X140202295Y-62308934D01*
X140202295Y-62308934D02*
X140202295Y-62118457D01*
X140202295Y-62118457D02*
X140240390Y-62004172D01*
X140773723Y-82248935D02*
X140773723Y-81867982D01*
X141002295Y-82325125D02*
X140202295Y-82058458D01*
X140202295Y-82058458D02*
X141002295Y-81791792D01*
X141002295Y-81106078D02*
X141002295Y-81563221D01*
X141002295Y-81334649D02*
X140202295Y-81334649D01*
X140202295Y-81334649D02*
X140316580Y-81410840D01*
X140316580Y-81410840D02*
X140392771Y-81487030D01*
X140392771Y-81487030D02*
X140430866Y-81563221D01*
X140278485Y-80801316D02*
X140240390Y-80763220D01*
X140240390Y-80763220D02*
X140202295Y-80687030D01*
X140202295Y-80687030D02*
X140202295Y-80496554D01*
X140202295Y-80496554D02*
X140240390Y-80420363D01*
X140240390Y-80420363D02*
X140278485Y-80382268D01*
X140278485Y-80382268D02*
X140354676Y-80344173D01*
X140354676Y-80344173D02*
X140430866Y-80344173D01*
X140430866Y-80344173D02*
X140545152Y-80382268D01*
X140545152Y-80382268D02*
X141002295Y-80839411D01*
X141002295Y-80839411D02*
X141002295Y-80344173D01*
X142780390Y-64251791D02*
X142742295Y-64327981D01*
X142742295Y-64327981D02*
X142742295Y-64442267D01*
X142742295Y-64442267D02*
X142780390Y-64556553D01*
X142780390Y-64556553D02*
X142856580Y-64632743D01*
X142856580Y-64632743D02*
X142932771Y-64670838D01*
X142932771Y-64670838D02*
X143085152Y-64708934D01*
X143085152Y-64708934D02*
X143199438Y-64708934D01*
X143199438Y-64708934D02*
X143351819Y-64670838D01*
X143351819Y-64670838D02*
X143428009Y-64632743D01*
X143428009Y-64632743D02*
X143504200Y-64556553D01*
X143504200Y-64556553D02*
X143542295Y-64442267D01*
X143542295Y-64442267D02*
X143542295Y-64366076D01*
X143542295Y-64366076D02*
X143504200Y-64251791D01*
X143504200Y-64251791D02*
X143466104Y-64213695D01*
X143466104Y-64213695D02*
X143199438Y-64213695D01*
X143199438Y-64213695D02*
X143199438Y-64366076D01*
X143542295Y-63870838D02*
X142742295Y-63870838D01*
X142742295Y-63870838D02*
X143542295Y-63413695D01*
X143542295Y-63413695D02*
X142742295Y-63413695D01*
X143542295Y-63032743D02*
X142742295Y-63032743D01*
X142742295Y-63032743D02*
X142742295Y-62842267D01*
X142742295Y-62842267D02*
X142780390Y-62727981D01*
X142780390Y-62727981D02*
X142856580Y-62651791D01*
X142856580Y-62651791D02*
X142932771Y-62613696D01*
X142932771Y-62613696D02*
X143085152Y-62575600D01*
X143085152Y-62575600D02*
X143199438Y-62575600D01*
X143199438Y-62575600D02*
X143351819Y-62613696D01*
X143351819Y-62613696D02*
X143428009Y-62651791D01*
X143428009Y-62651791D02*
X143504200Y-62727981D01*
X143504200Y-62727981D02*
X143542295Y-62842267D01*
X143542295Y-62842267D02*
X143542295Y-63032743D01*
X142780390Y-81791792D02*
X142742295Y-81867982D01*
X142742295Y-81867982D02*
X142742295Y-81982268D01*
X142742295Y-81982268D02*
X142780390Y-82096554D01*
X142780390Y-82096554D02*
X142856580Y-82172744D01*
X142856580Y-82172744D02*
X142932771Y-82210839D01*
X142932771Y-82210839D02*
X143085152Y-82248935D01*
X143085152Y-82248935D02*
X143199438Y-82248935D01*
X143199438Y-82248935D02*
X143351819Y-82210839D01*
X143351819Y-82210839D02*
X143428009Y-82172744D01*
X143428009Y-82172744D02*
X143504200Y-82096554D01*
X143504200Y-82096554D02*
X143542295Y-81982268D01*
X143542295Y-81982268D02*
X143542295Y-81906077D01*
X143542295Y-81906077D02*
X143504200Y-81791792D01*
X143504200Y-81791792D02*
X143466104Y-81753696D01*
X143466104Y-81753696D02*
X143199438Y-81753696D01*
X143199438Y-81753696D02*
X143199438Y-81906077D01*
X143542295Y-81410839D02*
X142742295Y-81410839D01*
X142742295Y-81410839D02*
X143542295Y-80953696D01*
X143542295Y-80953696D02*
X142742295Y-80953696D01*
X143542295Y-80572744D02*
X142742295Y-80572744D01*
X142742295Y-80572744D02*
X142742295Y-80382268D01*
X142742295Y-80382268D02*
X142780390Y-80267982D01*
X142780390Y-80267982D02*
X142856580Y-80191792D01*
X142856580Y-80191792D02*
X142932771Y-80153697D01*
X142932771Y-80153697D02*
X143085152Y-80115601D01*
X143085152Y-80115601D02*
X143199438Y-80115601D01*
X143199438Y-80115601D02*
X143351819Y-80153697D01*
X143351819Y-80153697D02*
X143428009Y-80191792D01*
X143428009Y-80191792D02*
X143504200Y-80267982D01*
X143504200Y-80267982D02*
X143542295Y-80382268D01*
X143542295Y-80382268D02*
X143542295Y-80572744D01*
X145244200Y-64099410D02*
X146272771Y-64785124D01*
X146044200Y-63870839D02*
X146082295Y-63756553D01*
X146082295Y-63756553D02*
X146082295Y-63566077D01*
X146082295Y-63566077D02*
X146044200Y-63489886D01*
X146044200Y-63489886D02*
X146006104Y-63451791D01*
X146006104Y-63451791D02*
X145929914Y-63413696D01*
X145929914Y-63413696D02*
X145853723Y-63413696D01*
X145853723Y-63413696D02*
X145777533Y-63451791D01*
X145777533Y-63451791D02*
X145739438Y-63489886D01*
X145739438Y-63489886D02*
X145701342Y-63566077D01*
X145701342Y-63566077D02*
X145663247Y-63718458D01*
X145663247Y-63718458D02*
X145625152Y-63794648D01*
X145625152Y-63794648D02*
X145587057Y-63832743D01*
X145587057Y-63832743D02*
X145510866Y-63870839D01*
X145510866Y-63870839D02*
X145434676Y-63870839D01*
X145434676Y-63870839D02*
X145358485Y-63832743D01*
X145358485Y-63832743D02*
X145320390Y-63794648D01*
X145320390Y-63794648D02*
X145282295Y-63718458D01*
X145282295Y-63718458D02*
X145282295Y-63527981D01*
X145282295Y-63527981D02*
X145320390Y-63413696D01*
X146006104Y-62613695D02*
X146044200Y-62651791D01*
X146044200Y-62651791D02*
X146082295Y-62766076D01*
X146082295Y-62766076D02*
X146082295Y-62842267D01*
X146082295Y-62842267D02*
X146044200Y-62956553D01*
X146044200Y-62956553D02*
X145968009Y-63032743D01*
X145968009Y-63032743D02*
X145891819Y-63070838D01*
X145891819Y-63070838D02*
X145739438Y-63108934D01*
X145739438Y-63108934D02*
X145625152Y-63108934D01*
X145625152Y-63108934D02*
X145472771Y-63070838D01*
X145472771Y-63070838D02*
X145396580Y-63032743D01*
X145396580Y-63032743D02*
X145320390Y-62956553D01*
X145320390Y-62956553D02*
X145282295Y-62842267D01*
X145282295Y-62842267D02*
X145282295Y-62766076D01*
X145282295Y-62766076D02*
X145320390Y-62651791D01*
X145320390Y-62651791D02*
X145358485Y-62613695D01*
X146044200Y-62308934D02*
X146082295Y-62194648D01*
X146082295Y-62194648D02*
X146082295Y-62004172D01*
X146082295Y-62004172D02*
X146044200Y-61927981D01*
X146044200Y-61927981D02*
X146006104Y-61889886D01*
X146006104Y-61889886D02*
X145929914Y-61851791D01*
X145929914Y-61851791D02*
X145853723Y-61851791D01*
X145853723Y-61851791D02*
X145777533Y-61889886D01*
X145777533Y-61889886D02*
X145739438Y-61927981D01*
X145739438Y-61927981D02*
X145701342Y-62004172D01*
X145701342Y-62004172D02*
X145663247Y-62156553D01*
X145663247Y-62156553D02*
X145625152Y-62232743D01*
X145625152Y-62232743D02*
X145587057Y-62270838D01*
X145587057Y-62270838D02*
X145510866Y-62308934D01*
X145510866Y-62308934D02*
X145434676Y-62308934D01*
X145434676Y-62308934D02*
X145358485Y-62270838D01*
X145358485Y-62270838D02*
X145320390Y-62232743D01*
X145320390Y-62232743D02*
X145282295Y-62156553D01*
X145282295Y-62156553D02*
X145282295Y-61966076D01*
X145282295Y-61966076D02*
X145320390Y-61851791D01*
X146044200Y-82248935D02*
X146082295Y-82134649D01*
X146082295Y-82134649D02*
X146082295Y-81944173D01*
X146082295Y-81944173D02*
X146044200Y-81867982D01*
X146044200Y-81867982D02*
X146006104Y-81829887D01*
X146006104Y-81829887D02*
X145929914Y-81791792D01*
X145929914Y-81791792D02*
X145853723Y-81791792D01*
X145853723Y-81791792D02*
X145777533Y-81829887D01*
X145777533Y-81829887D02*
X145739438Y-81867982D01*
X145739438Y-81867982D02*
X145701342Y-81944173D01*
X145701342Y-81944173D02*
X145663247Y-82096554D01*
X145663247Y-82096554D02*
X145625152Y-82172744D01*
X145625152Y-82172744D02*
X145587057Y-82210839D01*
X145587057Y-82210839D02*
X145510866Y-82248935D01*
X145510866Y-82248935D02*
X145434676Y-82248935D01*
X145434676Y-82248935D02*
X145358485Y-82210839D01*
X145358485Y-82210839D02*
X145320390Y-82172744D01*
X145320390Y-82172744D02*
X145282295Y-82096554D01*
X145282295Y-82096554D02*
X145282295Y-81906077D01*
X145282295Y-81906077D02*
X145320390Y-81791792D01*
X146082295Y-81448934D02*
X145282295Y-81448934D01*
X145282295Y-81448934D02*
X146082295Y-80991791D01*
X146082295Y-80991791D02*
X145282295Y-80991791D01*
X146082295Y-80610839D02*
X145282295Y-80610839D01*
X145282295Y-80610839D02*
X145282295Y-80420363D01*
X145282295Y-80420363D02*
X145320390Y-80306077D01*
X145320390Y-80306077D02*
X145396580Y-80229887D01*
X145396580Y-80229887D02*
X145472771Y-80191792D01*
X145472771Y-80191792D02*
X145625152Y-80153696D01*
X145625152Y-80153696D02*
X145739438Y-80153696D01*
X145739438Y-80153696D02*
X145891819Y-80191792D01*
X145891819Y-80191792D02*
X145968009Y-80229887D01*
X145968009Y-80229887D02*
X146044200Y-80306077D01*
X146044200Y-80306077D02*
X146082295Y-80420363D01*
X146082295Y-80420363D02*
X146082295Y-80610839D01*
X148393723Y-64708934D02*
X148393723Y-64327981D01*
X148622295Y-64785124D02*
X147822295Y-64518457D01*
X147822295Y-64518457D02*
X148622295Y-64251791D01*
X148622295Y-63566077D02*
X148622295Y-64023220D01*
X148622295Y-63794648D02*
X147822295Y-63794648D01*
X147822295Y-63794648D02*
X147936580Y-63870839D01*
X147936580Y-63870839D02*
X148012771Y-63947029D01*
X148012771Y-63947029D02*
X148050866Y-64023220D01*
X148088961Y-62880362D02*
X148622295Y-62880362D01*
X147784200Y-63070838D02*
X148355628Y-63261315D01*
X148355628Y-63261315D02*
X148355628Y-62766076D01*
X148393723Y-82248935D02*
X148393723Y-81867982D01*
X148622295Y-82325125D02*
X147822295Y-82058458D01*
X147822295Y-82058458D02*
X148622295Y-81791792D01*
X148622295Y-81106078D02*
X148622295Y-81563221D01*
X148622295Y-81334649D02*
X147822295Y-81334649D01*
X147822295Y-81334649D02*
X147936580Y-81410840D01*
X147936580Y-81410840D02*
X148012771Y-81487030D01*
X148012771Y-81487030D02*
X148050866Y-81563221D01*
X147822295Y-80839411D02*
X147822295Y-80344173D01*
X147822295Y-80344173D02*
X148127057Y-80610839D01*
X148127057Y-80610839D02*
X148127057Y-80496554D01*
X148127057Y-80496554D02*
X148165152Y-80420363D01*
X148165152Y-80420363D02*
X148203247Y-80382268D01*
X148203247Y-80382268D02*
X148279438Y-80344173D01*
X148279438Y-80344173D02*
X148469914Y-80344173D01*
X148469914Y-80344173D02*
X148546104Y-80382268D01*
X148546104Y-80382268D02*
X148584200Y-80420363D01*
X148584200Y-80420363D02*
X148622295Y-80496554D01*
X148622295Y-80496554D02*
X148622295Y-80725125D01*
X148622295Y-80725125D02*
X148584200Y-80801316D01*
X148584200Y-80801316D02*
X148546104Y-80839411D01*
X150324200Y-64099410D02*
X151352771Y-64785124D01*
X151124200Y-63870839D02*
X151162295Y-63756553D01*
X151162295Y-63756553D02*
X151162295Y-63566077D01*
X151162295Y-63566077D02*
X151124200Y-63489886D01*
X151124200Y-63489886D02*
X151086104Y-63451791D01*
X151086104Y-63451791D02*
X151009914Y-63413696D01*
X151009914Y-63413696D02*
X150933723Y-63413696D01*
X150933723Y-63413696D02*
X150857533Y-63451791D01*
X150857533Y-63451791D02*
X150819438Y-63489886D01*
X150819438Y-63489886D02*
X150781342Y-63566077D01*
X150781342Y-63566077D02*
X150743247Y-63718458D01*
X150743247Y-63718458D02*
X150705152Y-63794648D01*
X150705152Y-63794648D02*
X150667057Y-63832743D01*
X150667057Y-63832743D02*
X150590866Y-63870839D01*
X150590866Y-63870839D02*
X150514676Y-63870839D01*
X150514676Y-63870839D02*
X150438485Y-63832743D01*
X150438485Y-63832743D02*
X150400390Y-63794648D01*
X150400390Y-63794648D02*
X150362295Y-63718458D01*
X150362295Y-63718458D02*
X150362295Y-63527981D01*
X150362295Y-63527981D02*
X150400390Y-63413696D01*
X151162295Y-62689886D02*
X151162295Y-63070838D01*
X151162295Y-63070838D02*
X150362295Y-63070838D01*
X150743247Y-62423219D02*
X150743247Y-62156553D01*
X151162295Y-62042267D02*
X151162295Y-62423219D01*
X151162295Y-62423219D02*
X150362295Y-62423219D01*
X150362295Y-62423219D02*
X150362295Y-62042267D01*
X151162295Y-61699409D02*
X150362295Y-61699409D01*
X150362295Y-61699409D02*
X151162295Y-61242266D01*
X151162295Y-61242266D02*
X150362295Y-61242266D01*
X150743247Y-60594648D02*
X150781342Y-60480362D01*
X150781342Y-60480362D02*
X150819438Y-60442267D01*
X150819438Y-60442267D02*
X150895628Y-60404171D01*
X150895628Y-60404171D02*
X151009914Y-60404171D01*
X151009914Y-60404171D02*
X151086104Y-60442267D01*
X151086104Y-60442267D02*
X151124200Y-60480362D01*
X151124200Y-60480362D02*
X151162295Y-60556552D01*
X151162295Y-60556552D02*
X151162295Y-60861314D01*
X151162295Y-60861314D02*
X150362295Y-60861314D01*
X150362295Y-60861314D02*
X150362295Y-60594648D01*
X150362295Y-60594648D02*
X150400390Y-60518457D01*
X150400390Y-60518457D02*
X150438485Y-60480362D01*
X150438485Y-60480362D02*
X150514676Y-60442267D01*
X150514676Y-60442267D02*
X150590866Y-60442267D01*
X150590866Y-60442267D02*
X150667057Y-60480362D01*
X150667057Y-60480362D02*
X150705152Y-60518457D01*
X150705152Y-60518457D02*
X150743247Y-60594648D01*
X150743247Y-60594648D02*
X150743247Y-60861314D01*
X150933723Y-82248935D02*
X150933723Y-81867982D01*
X151162295Y-82325125D02*
X150362295Y-82058458D01*
X150362295Y-82058458D02*
X151162295Y-81791792D01*
X151162295Y-81106078D02*
X151162295Y-81563221D01*
X151162295Y-81334649D02*
X150362295Y-81334649D01*
X150362295Y-81334649D02*
X150476580Y-81410840D01*
X150476580Y-81410840D02*
X150552771Y-81487030D01*
X150552771Y-81487030D02*
X150590866Y-81563221D01*
X150362295Y-80382268D02*
X150362295Y-80763220D01*
X150362295Y-80763220D02*
X150743247Y-80801316D01*
X150743247Y-80801316D02*
X150705152Y-80763220D01*
X150705152Y-80763220D02*
X150667057Y-80687030D01*
X150667057Y-80687030D02*
X150667057Y-80496554D01*
X150667057Y-80496554D02*
X150705152Y-80420363D01*
X150705152Y-80420363D02*
X150743247Y-80382268D01*
X150743247Y-80382268D02*
X150819438Y-80344173D01*
X150819438Y-80344173D02*
X151009914Y-80344173D01*
X151009914Y-80344173D02*
X151086104Y-80382268D01*
X151086104Y-80382268D02*
X151124200Y-80420363D01*
X151124200Y-80420363D02*
X151162295Y-80496554D01*
X151162295Y-80496554D02*
X151162295Y-80687030D01*
X151162295Y-80687030D02*
X151124200Y-80763220D01*
X151124200Y-80763220D02*
X151086104Y-80801316D01*
D11*
X110562857Y-128680928D02*
X110562857Y-127180928D01*
X110562857Y-127180928D02*
X111134286Y-127180928D01*
X111134286Y-127180928D02*
X111277143Y-127252357D01*
X111277143Y-127252357D02*
X111348572Y-127323785D01*
X111348572Y-127323785D02*
X111420000Y-127466642D01*
X111420000Y-127466642D02*
X111420000Y-127680928D01*
X111420000Y-127680928D02*
X111348572Y-127823785D01*
X111348572Y-127823785D02*
X111277143Y-127895214D01*
X111277143Y-127895214D02*
X111134286Y-127966642D01*
X111134286Y-127966642D02*
X110562857Y-127966642D01*
X112062857Y-128680928D02*
X112062857Y-127680928D01*
X112062857Y-127180928D02*
X111991429Y-127252357D01*
X111991429Y-127252357D02*
X112062857Y-127323785D01*
X112062857Y-127323785D02*
X112134286Y-127252357D01*
X112134286Y-127252357D02*
X112062857Y-127180928D01*
X112062857Y-127180928D02*
X112062857Y-127323785D01*
X113634286Y-128538071D02*
X113562858Y-128609500D01*
X113562858Y-128609500D02*
X113348572Y-128680928D01*
X113348572Y-128680928D02*
X113205715Y-128680928D01*
X113205715Y-128680928D02*
X112991429Y-128609500D01*
X112991429Y-128609500D02*
X112848572Y-128466642D01*
X112848572Y-128466642D02*
X112777143Y-128323785D01*
X112777143Y-128323785D02*
X112705715Y-128038071D01*
X112705715Y-128038071D02*
X112705715Y-127823785D01*
X112705715Y-127823785D02*
X112777143Y-127538071D01*
X112777143Y-127538071D02*
X112848572Y-127395214D01*
X112848572Y-127395214D02*
X112991429Y-127252357D01*
X112991429Y-127252357D02*
X113205715Y-127180928D01*
X113205715Y-127180928D02*
X113348572Y-127180928D01*
X113348572Y-127180928D02*
X113562858Y-127252357D01*
X113562858Y-127252357D02*
X113634286Y-127323785D01*
X114491429Y-128680928D02*
X114348572Y-128609500D01*
X114348572Y-128609500D02*
X114277143Y-128538071D01*
X114277143Y-128538071D02*
X114205715Y-128395214D01*
X114205715Y-128395214D02*
X114205715Y-127966642D01*
X114205715Y-127966642D02*
X114277143Y-127823785D01*
X114277143Y-127823785D02*
X114348572Y-127752357D01*
X114348572Y-127752357D02*
X114491429Y-127680928D01*
X114491429Y-127680928D02*
X114705715Y-127680928D01*
X114705715Y-127680928D02*
X114848572Y-127752357D01*
X114848572Y-127752357D02*
X114920001Y-127823785D01*
X114920001Y-127823785D02*
X114991429Y-127966642D01*
X114991429Y-127966642D02*
X114991429Y-128395214D01*
X114991429Y-128395214D02*
X114920001Y-128538071D01*
X114920001Y-128538071D02*
X114848572Y-128609500D01*
X114848572Y-128609500D02*
X114705715Y-128680928D01*
X114705715Y-128680928D02*
X114491429Y-128680928D01*
X116491429Y-128538071D02*
X116420001Y-128609500D01*
X116420001Y-128609500D02*
X116205715Y-128680928D01*
X116205715Y-128680928D02*
X116062858Y-128680928D01*
X116062858Y-128680928D02*
X115848572Y-128609500D01*
X115848572Y-128609500D02*
X115705715Y-128466642D01*
X115705715Y-128466642D02*
X115634286Y-128323785D01*
X115634286Y-128323785D02*
X115562858Y-128038071D01*
X115562858Y-128038071D02*
X115562858Y-127823785D01*
X115562858Y-127823785D02*
X115634286Y-127538071D01*
X115634286Y-127538071D02*
X115705715Y-127395214D01*
X115705715Y-127395214D02*
X115848572Y-127252357D01*
X115848572Y-127252357D02*
X116062858Y-127180928D01*
X116062858Y-127180928D02*
X116205715Y-127180928D01*
X116205715Y-127180928D02*
X116420001Y-127252357D01*
X116420001Y-127252357D02*
X116491429Y-127323785D01*
X117348572Y-128680928D02*
X117205715Y-128609500D01*
X117205715Y-128609500D02*
X117134286Y-128538071D01*
X117134286Y-128538071D02*
X117062858Y-128395214D01*
X117062858Y-128395214D02*
X117062858Y-127966642D01*
X117062858Y-127966642D02*
X117134286Y-127823785D01*
X117134286Y-127823785D02*
X117205715Y-127752357D01*
X117205715Y-127752357D02*
X117348572Y-127680928D01*
X117348572Y-127680928D02*
X117562858Y-127680928D01*
X117562858Y-127680928D02*
X117705715Y-127752357D01*
X117705715Y-127752357D02*
X117777144Y-127823785D01*
X117777144Y-127823785D02*
X117848572Y-127966642D01*
X117848572Y-127966642D02*
X117848572Y-128395214D01*
X117848572Y-128395214D02*
X117777144Y-128538071D01*
X117777144Y-128538071D02*
X117705715Y-128609500D01*
X117705715Y-128609500D02*
X117562858Y-128680928D01*
X117562858Y-128680928D02*
X117348572Y-128680928D01*
X120491429Y-128538071D02*
X120420001Y-128609500D01*
X120420001Y-128609500D02*
X120205715Y-128680928D01*
X120205715Y-128680928D02*
X120062858Y-128680928D01*
X120062858Y-128680928D02*
X119848572Y-128609500D01*
X119848572Y-128609500D02*
X119705715Y-128466642D01*
X119705715Y-128466642D02*
X119634286Y-128323785D01*
X119634286Y-128323785D02*
X119562858Y-128038071D01*
X119562858Y-128038071D02*
X119562858Y-127823785D01*
X119562858Y-127823785D02*
X119634286Y-127538071D01*
X119634286Y-127538071D02*
X119705715Y-127395214D01*
X119705715Y-127395214D02*
X119848572Y-127252357D01*
X119848572Y-127252357D02*
X120062858Y-127180928D01*
X120062858Y-127180928D02*
X120205715Y-127180928D01*
X120205715Y-127180928D02*
X120420001Y-127252357D01*
X120420001Y-127252357D02*
X120491429Y-127323785D01*
X121062858Y-128252357D02*
X121777144Y-128252357D01*
X120920001Y-128680928D02*
X121420001Y-127180928D01*
X121420001Y-127180928D02*
X121920001Y-128680928D01*
X123277143Y-128680928D02*
X122777143Y-127966642D01*
X122420000Y-128680928D02*
X122420000Y-127180928D01*
X122420000Y-127180928D02*
X122991429Y-127180928D01*
X122991429Y-127180928D02*
X123134286Y-127252357D01*
X123134286Y-127252357D02*
X123205715Y-127323785D01*
X123205715Y-127323785D02*
X123277143Y-127466642D01*
X123277143Y-127466642D02*
X123277143Y-127680928D01*
X123277143Y-127680928D02*
X123205715Y-127823785D01*
X123205715Y-127823785D02*
X123134286Y-127895214D01*
X123134286Y-127895214D02*
X122991429Y-127966642D01*
X122991429Y-127966642D02*
X122420000Y-127966642D01*
X123705715Y-127180928D02*
X124562858Y-127180928D01*
X124134286Y-128680928D02*
X124134286Y-127180928D01*
X126705714Y-127895214D02*
X126920000Y-127966642D01*
X126920000Y-127966642D02*
X126991429Y-128038071D01*
X126991429Y-128038071D02*
X127062857Y-128180928D01*
X127062857Y-128180928D02*
X127062857Y-128395214D01*
X127062857Y-128395214D02*
X126991429Y-128538071D01*
X126991429Y-128538071D02*
X126920000Y-128609500D01*
X126920000Y-128609500D02*
X126777143Y-128680928D01*
X126777143Y-128680928D02*
X126205714Y-128680928D01*
X126205714Y-128680928D02*
X126205714Y-127180928D01*
X126205714Y-127180928D02*
X126705714Y-127180928D01*
X126705714Y-127180928D02*
X126848572Y-127252357D01*
X126848572Y-127252357D02*
X126920000Y-127323785D01*
X126920000Y-127323785D02*
X126991429Y-127466642D01*
X126991429Y-127466642D02*
X126991429Y-127609500D01*
X126991429Y-127609500D02*
X126920000Y-127752357D01*
X126920000Y-127752357D02*
X126848572Y-127823785D01*
X126848572Y-127823785D02*
X126705714Y-127895214D01*
X126705714Y-127895214D02*
X126205714Y-127895214D01*
X128562857Y-128680928D02*
X128062857Y-127966642D01*
X127705714Y-128680928D02*
X127705714Y-127180928D01*
X127705714Y-127180928D02*
X128277143Y-127180928D01*
X128277143Y-127180928D02*
X128420000Y-127252357D01*
X128420000Y-127252357D02*
X128491429Y-127323785D01*
X128491429Y-127323785D02*
X128562857Y-127466642D01*
X128562857Y-127466642D02*
X128562857Y-127680928D01*
X128562857Y-127680928D02*
X128491429Y-127823785D01*
X128491429Y-127823785D02*
X128420000Y-127895214D01*
X128420000Y-127895214D02*
X128277143Y-127966642D01*
X128277143Y-127966642D02*
X127705714Y-127966642D01*
X129205714Y-127895214D02*
X129705714Y-127895214D01*
X129920000Y-128680928D02*
X129205714Y-128680928D01*
X129205714Y-128680928D02*
X129205714Y-127180928D01*
X129205714Y-127180928D02*
X129920000Y-127180928D01*
X130491429Y-128252357D02*
X131205715Y-128252357D01*
X130348572Y-128680928D02*
X130848572Y-127180928D01*
X130848572Y-127180928D02*
X131348572Y-128680928D01*
X131848571Y-128680928D02*
X131848571Y-127180928D01*
X132705714Y-128680928D02*
X132062857Y-127823785D01*
X132705714Y-127180928D02*
X131848571Y-128038071D01*
X133634286Y-127180928D02*
X133920000Y-127180928D01*
X133920000Y-127180928D02*
X134062857Y-127252357D01*
X134062857Y-127252357D02*
X134205714Y-127395214D01*
X134205714Y-127395214D02*
X134277143Y-127680928D01*
X134277143Y-127680928D02*
X134277143Y-128180928D01*
X134277143Y-128180928D02*
X134205714Y-128466642D01*
X134205714Y-128466642D02*
X134062857Y-128609500D01*
X134062857Y-128609500D02*
X133920000Y-128680928D01*
X133920000Y-128680928D02*
X133634286Y-128680928D01*
X133634286Y-128680928D02*
X133491429Y-128609500D01*
X133491429Y-128609500D02*
X133348571Y-128466642D01*
X133348571Y-128466642D02*
X133277143Y-128180928D01*
X133277143Y-128180928D02*
X133277143Y-127680928D01*
X133277143Y-127680928D02*
X133348571Y-127395214D01*
X133348571Y-127395214D02*
X133491429Y-127252357D01*
X133491429Y-127252357D02*
X133634286Y-127180928D01*
X134920000Y-127180928D02*
X134920000Y-128395214D01*
X134920000Y-128395214D02*
X134991429Y-128538071D01*
X134991429Y-128538071D02*
X135062858Y-128609500D01*
X135062858Y-128609500D02*
X135205715Y-128680928D01*
X135205715Y-128680928D02*
X135491429Y-128680928D01*
X135491429Y-128680928D02*
X135634286Y-128609500D01*
X135634286Y-128609500D02*
X135705715Y-128538071D01*
X135705715Y-128538071D02*
X135777143Y-128395214D01*
X135777143Y-128395214D02*
X135777143Y-127180928D01*
X136277144Y-127180928D02*
X137134287Y-127180928D01*
X136705715Y-128680928D02*
X136705715Y-127180928D01*
X138634286Y-127680928D02*
X138991429Y-128680928D01*
X138991429Y-128680928D02*
X139348572Y-127680928D01*
X140705715Y-128680928D02*
X139848572Y-128680928D01*
X140277143Y-128680928D02*
X140277143Y-127180928D01*
X140277143Y-127180928D02*
X140134286Y-127395214D01*
X140134286Y-127395214D02*
X139991429Y-127538071D01*
X139991429Y-127538071D02*
X139848572Y-127609500D01*
X141348571Y-128538071D02*
X141420000Y-128609500D01*
X141420000Y-128609500D02*
X141348571Y-128680928D01*
X141348571Y-128680928D02*
X141277143Y-128609500D01*
X141277143Y-128609500D02*
X141348571Y-128538071D01*
X141348571Y-128538071D02*
X141348571Y-128680928D01*
X142348572Y-127180928D02*
X142491429Y-127180928D01*
X142491429Y-127180928D02*
X142634286Y-127252357D01*
X142634286Y-127252357D02*
X142705715Y-127323785D01*
X142705715Y-127323785D02*
X142777143Y-127466642D01*
X142777143Y-127466642D02*
X142848572Y-127752357D01*
X142848572Y-127752357D02*
X142848572Y-128109500D01*
X142848572Y-128109500D02*
X142777143Y-128395214D01*
X142777143Y-128395214D02*
X142705715Y-128538071D01*
X142705715Y-128538071D02*
X142634286Y-128609500D01*
X142634286Y-128609500D02*
X142491429Y-128680928D01*
X142491429Y-128680928D02*
X142348572Y-128680928D01*
X142348572Y-128680928D02*
X142205715Y-128609500D01*
X142205715Y-128609500D02*
X142134286Y-128538071D01*
X142134286Y-128538071D02*
X142062857Y-128395214D01*
X142062857Y-128395214D02*
X141991429Y-128109500D01*
X141991429Y-128109500D02*
X141991429Y-127752357D01*
X141991429Y-127752357D02*
X142062857Y-127466642D01*
X142062857Y-127466642D02*
X142134286Y-127323785D01*
X142134286Y-127323785D02*
X142205715Y-127252357D01*
X142205715Y-127252357D02*
X142348572Y-127180928D01*
D10*
X113300833Y-58343247D02*
X113034167Y-58343247D01*
X113034167Y-58762295D02*
X113034167Y-57962295D01*
X113034167Y-57962295D02*
X113415119Y-57962295D01*
X114138928Y-58762295D02*
X113681785Y-58762295D01*
X113910357Y-58762295D02*
X113910357Y-57962295D01*
X113910357Y-57962295D02*
X113834166Y-58076580D01*
X113834166Y-58076580D02*
X113757976Y-58152771D01*
X113757976Y-58152771D02*
X113681785Y-58190866D01*
X129316303Y-55862295D02*
X129049636Y-55481342D01*
X128859160Y-55862295D02*
X128859160Y-55062295D01*
X128859160Y-55062295D02*
X129163922Y-55062295D01*
X129163922Y-55062295D02*
X129240112Y-55100390D01*
X129240112Y-55100390D02*
X129278207Y-55138485D01*
X129278207Y-55138485D02*
X129316303Y-55214676D01*
X129316303Y-55214676D02*
X129316303Y-55328961D01*
X129316303Y-55328961D02*
X129278207Y-55405152D01*
X129278207Y-55405152D02*
X129240112Y-55443247D01*
X129240112Y-55443247D02*
X129163922Y-55481342D01*
X129163922Y-55481342D02*
X128859160Y-55481342D01*
X130078207Y-55862295D02*
X129621064Y-55862295D01*
X129849636Y-55862295D02*
X129849636Y-55062295D01*
X129849636Y-55062295D02*
X129773445Y-55176580D01*
X129773445Y-55176580D02*
X129697255Y-55252771D01*
X129697255Y-55252771D02*
X129621064Y-55290866D01*
X121456667Y-60986104D02*
X121418571Y-61024200D01*
X121418571Y-61024200D02*
X121304286Y-61062295D01*
X121304286Y-61062295D02*
X121228095Y-61062295D01*
X121228095Y-61062295D02*
X121113809Y-61024200D01*
X121113809Y-61024200D02*
X121037619Y-60948009D01*
X121037619Y-60948009D02*
X120999524Y-60871819D01*
X120999524Y-60871819D02*
X120961428Y-60719438D01*
X120961428Y-60719438D02*
X120961428Y-60605152D01*
X120961428Y-60605152D02*
X120999524Y-60452771D01*
X120999524Y-60452771D02*
X121037619Y-60376580D01*
X121037619Y-60376580D02*
X121113809Y-60300390D01*
X121113809Y-60300390D02*
X121228095Y-60262295D01*
X121228095Y-60262295D02*
X121304286Y-60262295D01*
X121304286Y-60262295D02*
X121418571Y-60300390D01*
X121418571Y-60300390D02*
X121456667Y-60338485D01*
X121761428Y-60338485D02*
X121799524Y-60300390D01*
X121799524Y-60300390D02*
X121875714Y-60262295D01*
X121875714Y-60262295D02*
X122066190Y-60262295D01*
X122066190Y-60262295D02*
X122142381Y-60300390D01*
X122142381Y-60300390D02*
X122180476Y-60338485D01*
X122180476Y-60338485D02*
X122218571Y-60414676D01*
X122218571Y-60414676D02*
X122218571Y-60490866D01*
X122218571Y-60490866D02*
X122180476Y-60605152D01*
X122180476Y-60605152D02*
X121723333Y-61062295D01*
X121723333Y-61062295D02*
X122218571Y-61062295D01*
X118916667Y-60986104D02*
X118878571Y-61024200D01*
X118878571Y-61024200D02*
X118764286Y-61062295D01*
X118764286Y-61062295D02*
X118688095Y-61062295D01*
X118688095Y-61062295D02*
X118573809Y-61024200D01*
X118573809Y-61024200D02*
X118497619Y-60948009D01*
X118497619Y-60948009D02*
X118459524Y-60871819D01*
X118459524Y-60871819D02*
X118421428Y-60719438D01*
X118421428Y-60719438D02*
X118421428Y-60605152D01*
X118421428Y-60605152D02*
X118459524Y-60452771D01*
X118459524Y-60452771D02*
X118497619Y-60376580D01*
X118497619Y-60376580D02*
X118573809Y-60300390D01*
X118573809Y-60300390D02*
X118688095Y-60262295D01*
X118688095Y-60262295D02*
X118764286Y-60262295D01*
X118764286Y-60262295D02*
X118878571Y-60300390D01*
X118878571Y-60300390D02*
X118916667Y-60338485D01*
X119678571Y-61062295D02*
X119221428Y-61062295D01*
X119450000Y-61062295D02*
X119450000Y-60262295D01*
X119450000Y-60262295D02*
X119373809Y-60376580D01*
X119373809Y-60376580D02*
X119297619Y-60452771D01*
X119297619Y-60452771D02*
X119221428Y-60490866D01*
D12*
X100992315Y-137280786D02*
X100992315Y-136141647D01*
X100992315Y-136141647D02*
X101426273Y-136141647D01*
X101426273Y-136141647D02*
X101534762Y-136195892D01*
X101534762Y-136195892D02*
X101589007Y-136250137D01*
X101589007Y-136250137D02*
X101643252Y-136358626D01*
X101643252Y-136358626D02*
X101643252Y-136521360D01*
X101643252Y-136521360D02*
X101589007Y-136629850D01*
X101589007Y-136629850D02*
X101534762Y-136684094D01*
X101534762Y-136684094D02*
X101426273Y-136738339D01*
X101426273Y-136738339D02*
X100992315Y-136738339D01*
X102728146Y-137280786D02*
X102077209Y-137280786D01*
X102402678Y-137280786D02*
X102402678Y-136141647D01*
X102402678Y-136141647D02*
X102294188Y-136304381D01*
X102294188Y-136304381D02*
X102185699Y-136412871D01*
X102185699Y-136412871D02*
X102077209Y-136467116D01*
D10*
X102873828Y-139054210D02*
X102206171Y-139054210D01*
X102539999Y-139054210D02*
X102539999Y-137885810D01*
X102539999Y-137885810D02*
X102428723Y-138052724D01*
X102428723Y-138052724D02*
X102317447Y-138164000D01*
X102317447Y-138164000D02*
X102206171Y-138219638D01*
X149854152Y-137885810D02*
X150577447Y-137885810D01*
X150577447Y-137885810D02*
X150187980Y-138330914D01*
X150187980Y-138330914D02*
X150354895Y-138330914D01*
X150354895Y-138330914D02*
X150466171Y-138386552D01*
X150466171Y-138386552D02*
X150521809Y-138442191D01*
X150521809Y-138442191D02*
X150577447Y-138553467D01*
X150577447Y-138553467D02*
X150577447Y-138831657D01*
X150577447Y-138831657D02*
X150521809Y-138942933D01*
X150521809Y-138942933D02*
X150466171Y-138998572D01*
X150466171Y-138998572D02*
X150354895Y-139054210D01*
X150354895Y-139054210D02*
X150021066Y-139054210D01*
X150021066Y-139054210D02*
X149909790Y-138998572D01*
X149909790Y-138998572D02*
X149854152Y-138942933D01*
X151133828Y-139054210D02*
X151356380Y-139054210D01*
X151356380Y-139054210D02*
X151467657Y-138998572D01*
X151467657Y-138998572D02*
X151523295Y-138942933D01*
X151523295Y-138942933D02*
X151634571Y-138776019D01*
X151634571Y-138776019D02*
X151690209Y-138553467D01*
X151690209Y-138553467D02*
X151690209Y-138108362D01*
X151690209Y-138108362D02*
X151634571Y-137997086D01*
X151634571Y-137997086D02*
X151578933Y-137941448D01*
X151578933Y-137941448D02*
X151467657Y-137885810D01*
X151467657Y-137885810D02*
X151245104Y-137885810D01*
X151245104Y-137885810D02*
X151133828Y-137941448D01*
X151133828Y-137941448D02*
X151078190Y-137997086D01*
X151078190Y-137997086D02*
X151022552Y-138108362D01*
X151022552Y-138108362D02*
X151022552Y-138386552D01*
X151022552Y-138386552D02*
X151078190Y-138497829D01*
X151078190Y-138497829D02*
X151133828Y-138553467D01*
X151133828Y-138553467D02*
X151245104Y-138609105D01*
X151245104Y-138609105D02*
X151467657Y-138609105D01*
X151467657Y-138609105D02*
X151578933Y-138553467D01*
X151578933Y-138553467D02*
X151634571Y-138497829D01*
X151634571Y-138497829D02*
X151690209Y-138386552D01*
X128859160Y-59362295D02*
X128859160Y-58562295D01*
X128859160Y-58562295D02*
X129049636Y-58562295D01*
X129049636Y-58562295D02*
X129163922Y-58600390D01*
X129163922Y-58600390D02*
X129240112Y-58676580D01*
X129240112Y-58676580D02*
X129278207Y-58752771D01*
X129278207Y-58752771D02*
X129316303Y-58905152D01*
X129316303Y-58905152D02*
X129316303Y-59019438D01*
X129316303Y-59019438D02*
X129278207Y-59171819D01*
X129278207Y-59171819D02*
X129240112Y-59248009D01*
X129240112Y-59248009D02*
X129163922Y-59324200D01*
X129163922Y-59324200D02*
X129049636Y-59362295D01*
X129049636Y-59362295D02*
X128859160Y-59362295D01*
X130078207Y-59362295D02*
X129621064Y-59362295D01*
X129849636Y-59362295D02*
X129849636Y-58562295D01*
X129849636Y-58562295D02*
X129773445Y-58676580D01*
X129773445Y-58676580D02*
X129697255Y-58752771D01*
X129697255Y-58752771D02*
X129621064Y-58790866D01*
G04 #@! TO.C,F1*
D13*
X112181248Y-54290000D02*
X114953752Y-54290000D01*
X112181248Y-57710000D02*
X114953752Y-57710000D01*
G04 #@! TO.C,R1*
X125935000Y-55272936D02*
X125935000Y-55727064D01*
X127405000Y-55272936D02*
X127405000Y-55727064D01*
G04 #@! TO.C,C2*
X120855000Y-55238748D02*
X120855000Y-55761252D01*
X122325000Y-55238748D02*
X122325000Y-55761252D01*
G04 #@! TO.C,C1*
X118315000Y-55238748D02*
X118315000Y-55761252D01*
X119785000Y-55238748D02*
X119785000Y-55761252D01*
G04 #@! TO.C,D1*
X125710000Y-58000000D02*
X125710000Y-60685000D01*
X125710000Y-60685000D02*
X127630000Y-60685000D01*
X127630000Y-60685000D02*
X127630000Y-58000000D01*
G04 #@! TD*
%LPC*%
D14*
G04 #@! TO.C,P1*
G36*
X153340000Y-150000000D02*
G01*
X100000000Y-150000000D01*
X100000000Y-139840000D01*
X153340000Y-139840000D01*
X153340000Y-150000000D01*
G37*
G04 #@! TD*
D15*
G04 #@! TO.C,F1*
X111430000Y-56000000D03*
X115705000Y-56000000D03*
G04 #@! TD*
D16*
G04 #@! TO.C,R1*
X126670000Y-54587500D03*
X126670000Y-56412500D03*
G04 #@! TD*
D17*
G04 #@! TO.C,C2*
X121590000Y-54550000D03*
X121590000Y-56450000D03*
G04 #@! TD*
G04 #@! TO.C,C1*
X119050000Y-54550000D03*
X119050000Y-56450000D03*
G04 #@! TD*
D18*
G04 #@! TO.C,J1*
X102540000Y-73000000D03*
D19*
X102540000Y-70460000D03*
X105080000Y-73000000D03*
X105080000Y-70460000D03*
X107620000Y-73000000D03*
X107620000Y-70460000D03*
X110160000Y-73000000D03*
X110160000Y-70460000D03*
X112700000Y-73000000D03*
X112700000Y-70460000D03*
X115240000Y-73000000D03*
X115240000Y-70460000D03*
X117780000Y-73000000D03*
X117780000Y-70460000D03*
X120320000Y-73000000D03*
X120320000Y-70460000D03*
X122860000Y-73000000D03*
X122860000Y-70460000D03*
X125400000Y-73000000D03*
X125400000Y-70460000D03*
X127940000Y-73000000D03*
X127940000Y-70460000D03*
X130480000Y-73000000D03*
X130480000Y-70460000D03*
X133020000Y-73000000D03*
X133020000Y-70460000D03*
X135560000Y-73000000D03*
X135560000Y-70460000D03*
X138100000Y-73000000D03*
X138100000Y-70460000D03*
X140640000Y-73000000D03*
X140640000Y-70460000D03*
X143180000Y-73000000D03*
X143180000Y-70460000D03*
X145720000Y-73000000D03*
X145720000Y-70460000D03*
X148260000Y-73000000D03*
X148260000Y-70460000D03*
X150800000Y-73000000D03*
X150800000Y-70460000D03*
G04 #@! TD*
D20*
G04 #@! TO.C,P1*
X102540000Y-144615000D03*
X105080000Y-144615000D03*
X107620000Y-144615000D03*
X110160000Y-144615000D03*
D21*
X112700000Y-143650000D03*
D20*
X115240000Y-144615000D03*
X117780000Y-144615000D03*
X120320000Y-144615000D03*
X122860000Y-144615000D03*
X125400000Y-144615000D03*
X127940000Y-144615000D03*
X130480000Y-144615000D03*
X133020000Y-144615000D03*
X135560000Y-144615000D03*
X138100000Y-144615000D03*
X140640000Y-144615000D03*
X143180000Y-144615000D03*
X145720000Y-144615000D03*
X148260000Y-144615000D03*
X150800000Y-144615000D03*
G04 #@! TD*
D22*
G04 #@! TO.C,D1*
X126670000Y-59937500D03*
X126670000Y-58062500D03*
G04 #@! TD*
%LPD*%
M02*
