%TF.GenerationSoftware,KiCad,Pcbnew,10.0.6*%
%TF.CreationDate,2026-09-05T12:50:40-05:00*%
%TF.ProjectId,PiCoCo-Breakout,5069436f-436f-42d4-9272-65616b6f7574,rev?*%
%TF.SameCoordinates,Original*%
%TF.FileFunction,Drillmap*%
%TF.FilePolarity,Positive*%
%FSLAX45Y45*%
G04 Gerber Fmt 4.5, Leading zero omitted, Abs format (unit mm)*
G04 Created by KiCad (PCBNEW 10.0.6) date 2026-09-05 12:50:40*
%MOMM*%
%LPD*%
G01*
G04 APERTURE LIST*
%ADD10C,0.100000*%
%ADD11C,0.200000*%
G04 APERTURE END LIST*
D10*
X10025400Y-5227000D02*
X10025400Y-14873000D01*
X10025400Y-5227000D02*
G75*
G02*
X10152400Y-5100000I127000J0D01*
G01*
X10152400Y-15000000D02*
G75*
G02*
X10025400Y-14873000I0J127000D01*
G01*
X10152400Y-15000000D02*
X15181600Y-15000000D01*
X15181600Y-5100000D02*
X10152400Y-5100000D01*
X15181600Y-5100000D02*
G75*
G02*
X15308600Y-5227000I0J-127000D01*
G01*
X15308600Y-14873000D02*
G75*
G02*
X15181600Y-15000000I-127000J0D01*
G01*
X15308600Y-14873000D02*
X15308600Y-5227000D01*
D11*
D10*
X10204000Y-6996000D02*
X10304000Y-7096000D01*
X10304000Y-6996000D02*
X10204000Y-7096000D01*
X10204000Y-7250000D02*
X10304000Y-7350000D01*
X10304000Y-7250000D02*
X10204000Y-7350000D01*
X10458000Y-6996000D02*
X10558000Y-7096000D01*
X10558000Y-6996000D02*
X10458000Y-7096000D01*
X10458000Y-7250000D02*
X10558000Y-7350000D01*
X10558000Y-7250000D02*
X10458000Y-7350000D01*
X10712000Y-6996000D02*
X10812000Y-7096000D01*
X10812000Y-6996000D02*
X10712000Y-7096000D01*
X10712000Y-7250000D02*
X10812000Y-7350000D01*
X10812000Y-7250000D02*
X10712000Y-7350000D01*
X10966000Y-6996000D02*
X11066000Y-7096000D01*
X11066000Y-6996000D02*
X10966000Y-7096000D01*
X10966000Y-7250000D02*
X11066000Y-7350000D01*
X11066000Y-7250000D02*
X10966000Y-7350000D01*
X11220000Y-6996000D02*
X11320000Y-7096000D01*
X11320000Y-6996000D02*
X11220000Y-7096000D01*
X11220000Y-7250000D02*
X11320000Y-7350000D01*
X11320000Y-7250000D02*
X11220000Y-7350000D01*
X11474000Y-6996000D02*
X11574000Y-7096000D01*
X11574000Y-6996000D02*
X11474000Y-7096000D01*
X11474000Y-7250000D02*
X11574000Y-7350000D01*
X11574000Y-7250000D02*
X11474000Y-7350000D01*
X11728000Y-6996000D02*
X11828000Y-7096000D01*
X11828000Y-6996000D02*
X11728000Y-7096000D01*
X11728000Y-7250000D02*
X11828000Y-7350000D01*
X11828000Y-7250000D02*
X11728000Y-7350000D01*
X11982000Y-6996000D02*
X12082000Y-7096000D01*
X12082000Y-6996000D02*
X11982000Y-7096000D01*
X11982000Y-7250000D02*
X12082000Y-7350000D01*
X12082000Y-7250000D02*
X11982000Y-7350000D01*
X12236000Y-6996000D02*
X12336000Y-7096000D01*
X12336000Y-6996000D02*
X12236000Y-7096000D01*
X12236000Y-7250000D02*
X12336000Y-7350000D01*
X12336000Y-7250000D02*
X12236000Y-7350000D01*
X12490000Y-6996000D02*
X12590000Y-7096000D01*
X12590000Y-6996000D02*
X12490000Y-7096000D01*
X12490000Y-7250000D02*
X12590000Y-7350000D01*
X12590000Y-7250000D02*
X12490000Y-7350000D01*
X12744000Y-6996000D02*
X12844000Y-7096000D01*
X12844000Y-6996000D02*
X12744000Y-7096000D01*
X12744000Y-7250000D02*
X12844000Y-7350000D01*
X12844000Y-7250000D02*
X12744000Y-7350000D01*
X12998000Y-6996000D02*
X13098000Y-7096000D01*
X13098000Y-6996000D02*
X12998000Y-7096000D01*
X12998000Y-7250000D02*
X13098000Y-7350000D01*
X13098000Y-7250000D02*
X12998000Y-7350000D01*
X13252000Y-6996000D02*
X13352000Y-7096000D01*
X13352000Y-6996000D02*
X13252000Y-7096000D01*
X13252000Y-7250000D02*
X13352000Y-7350000D01*
X13352000Y-7250000D02*
X13252000Y-7350000D01*
X13506000Y-6996000D02*
X13606000Y-7096000D01*
X13606000Y-6996000D02*
X13506000Y-7096000D01*
X13506000Y-7250000D02*
X13606000Y-7350000D01*
X13606000Y-7250000D02*
X13506000Y-7350000D01*
X13760000Y-6996000D02*
X13860000Y-7096000D01*
X13860000Y-6996000D02*
X13760000Y-7096000D01*
X13760000Y-7250000D02*
X13860000Y-7350000D01*
X13860000Y-7250000D02*
X13760000Y-7350000D01*
X14014000Y-6996000D02*
X14114000Y-7096000D01*
X14114000Y-6996000D02*
X14014000Y-7096000D01*
X14014000Y-7250000D02*
X14114000Y-7350000D01*
X14114000Y-7250000D02*
X14014000Y-7350000D01*
X14268000Y-6996000D02*
X14368000Y-7096000D01*
X14368000Y-6996000D02*
X14268000Y-7096000D01*
X14268000Y-7250000D02*
X14368000Y-7350000D01*
X14368000Y-7250000D02*
X14268000Y-7350000D01*
X14522000Y-6996000D02*
X14622000Y-7096000D01*
X14622000Y-6996000D02*
X14522000Y-7096000D01*
X14522000Y-7250000D02*
X14622000Y-7350000D01*
X14622000Y-7250000D02*
X14522000Y-7350000D01*
X14776000Y-6996000D02*
X14876000Y-7096000D01*
X14876000Y-6996000D02*
X14776000Y-7096000D01*
X14776000Y-7250000D02*
X14876000Y-7350000D01*
X14876000Y-7250000D02*
X14776000Y-7350000D01*
X15030000Y-6996000D02*
X15130000Y-7096000D01*
X15130000Y-6996000D02*
X15030000Y-7096000D01*
X15030000Y-7250000D02*
X15130000Y-7350000D01*
X15130000Y-7250000D02*
X15030000Y-7350000D01*
D11*
X10281177Y-15316484D02*
X10281177Y-15116484D01*
X10281177Y-15116484D02*
X10328796Y-15116484D01*
X10328796Y-15116484D02*
X10357367Y-15126008D01*
X10357367Y-15126008D02*
X10376415Y-15145055D01*
X10376415Y-15145055D02*
X10385939Y-15164103D01*
X10385939Y-15164103D02*
X10395463Y-15202198D01*
X10395463Y-15202198D02*
X10395463Y-15230769D01*
X10395463Y-15230769D02*
X10385939Y-15268865D01*
X10385939Y-15268865D02*
X10376415Y-15287912D01*
X10376415Y-15287912D02*
X10357367Y-15306960D01*
X10357367Y-15306960D02*
X10328796Y-15316484D01*
X10328796Y-15316484D02*
X10281177Y-15316484D01*
X10481177Y-15316484D02*
X10481177Y-15183150D01*
X10481177Y-15221246D02*
X10490701Y-15202198D01*
X10490701Y-15202198D02*
X10500224Y-15192674D01*
X10500224Y-15192674D02*
X10519272Y-15183150D01*
X10519272Y-15183150D02*
X10538320Y-15183150D01*
X10604986Y-15316484D02*
X10604986Y-15183150D01*
X10604986Y-15116484D02*
X10595463Y-15126008D01*
X10595463Y-15126008D02*
X10604986Y-15135531D01*
X10604986Y-15135531D02*
X10614510Y-15126008D01*
X10614510Y-15126008D02*
X10604986Y-15116484D01*
X10604986Y-15116484D02*
X10604986Y-15135531D01*
X10728796Y-15316484D02*
X10709748Y-15306960D01*
X10709748Y-15306960D02*
X10700224Y-15287912D01*
X10700224Y-15287912D02*
X10700224Y-15116484D01*
X10833558Y-15316484D02*
X10814510Y-15306960D01*
X10814510Y-15306960D02*
X10804986Y-15287912D01*
X10804986Y-15287912D02*
X10804986Y-15116484D01*
X11062129Y-15316484D02*
X11062129Y-15116484D01*
X11062129Y-15116484D02*
X11128796Y-15259341D01*
X11128796Y-15259341D02*
X11195462Y-15116484D01*
X11195462Y-15116484D02*
X11195462Y-15316484D01*
X11376415Y-15316484D02*
X11376415Y-15211722D01*
X11376415Y-15211722D02*
X11366891Y-15192674D01*
X11366891Y-15192674D02*
X11347843Y-15183150D01*
X11347843Y-15183150D02*
X11309748Y-15183150D01*
X11309748Y-15183150D02*
X11290701Y-15192674D01*
X11376415Y-15306960D02*
X11357367Y-15316484D01*
X11357367Y-15316484D02*
X11309748Y-15316484D01*
X11309748Y-15316484D02*
X11290701Y-15306960D01*
X11290701Y-15306960D02*
X11281177Y-15287912D01*
X11281177Y-15287912D02*
X11281177Y-15268865D01*
X11281177Y-15268865D02*
X11290701Y-15249817D01*
X11290701Y-15249817D02*
X11309748Y-15240293D01*
X11309748Y-15240293D02*
X11357367Y-15240293D01*
X11357367Y-15240293D02*
X11376415Y-15230769D01*
X11471653Y-15183150D02*
X11471653Y-15383150D01*
X11471653Y-15192674D02*
X11490701Y-15183150D01*
X11490701Y-15183150D02*
X11528796Y-15183150D01*
X11528796Y-15183150D02*
X11547843Y-15192674D01*
X11547843Y-15192674D02*
X11557367Y-15202198D01*
X11557367Y-15202198D02*
X11566891Y-15221246D01*
X11566891Y-15221246D02*
X11566891Y-15278388D01*
X11566891Y-15278388D02*
X11557367Y-15297436D01*
X11557367Y-15297436D02*
X11547843Y-15306960D01*
X11547843Y-15306960D02*
X11528796Y-15316484D01*
X11528796Y-15316484D02*
X11490701Y-15316484D01*
X11490701Y-15316484D02*
X11471653Y-15306960D01*
X11652605Y-15297436D02*
X11662129Y-15306960D01*
X11662129Y-15306960D02*
X11652605Y-15316484D01*
X11652605Y-15316484D02*
X11643082Y-15306960D01*
X11643082Y-15306960D02*
X11652605Y-15297436D01*
X11652605Y-15297436D02*
X11652605Y-15316484D01*
X11652605Y-15192674D02*
X11662129Y-15202198D01*
X11662129Y-15202198D02*
X11652605Y-15211722D01*
X11652605Y-15211722D02*
X11643082Y-15202198D01*
X11643082Y-15202198D02*
X11652605Y-15192674D01*
X11652605Y-15192674D02*
X11652605Y-15211722D01*
D10*
X9920400Y-15595000D02*
X10020400Y-15695000D01*
X10020400Y-15595000D02*
X9920400Y-15695000D01*
D11*
X10385939Y-15736484D02*
X10271653Y-15736484D01*
X10328796Y-15736484D02*
X10328796Y-15536484D01*
X10328796Y-15536484D02*
X10309748Y-15565055D01*
X10309748Y-15565055D02*
X10290701Y-15584103D01*
X10290701Y-15584103D02*
X10271653Y-15593627D01*
X10471653Y-15717436D02*
X10481177Y-15726960D01*
X10481177Y-15726960D02*
X10471653Y-15736484D01*
X10471653Y-15736484D02*
X10462129Y-15726960D01*
X10462129Y-15726960D02*
X10471653Y-15717436D01*
X10471653Y-15717436D02*
X10471653Y-15736484D01*
X10604986Y-15536484D02*
X10624034Y-15536484D01*
X10624034Y-15536484D02*
X10643082Y-15546008D01*
X10643082Y-15546008D02*
X10652605Y-15555531D01*
X10652605Y-15555531D02*
X10662129Y-15574579D01*
X10662129Y-15574579D02*
X10671653Y-15612674D01*
X10671653Y-15612674D02*
X10671653Y-15660293D01*
X10671653Y-15660293D02*
X10662129Y-15698388D01*
X10662129Y-15698388D02*
X10652605Y-15717436D01*
X10652605Y-15717436D02*
X10643082Y-15726960D01*
X10643082Y-15726960D02*
X10624034Y-15736484D01*
X10624034Y-15736484D02*
X10604986Y-15736484D01*
X10604986Y-15736484D02*
X10585939Y-15726960D01*
X10585939Y-15726960D02*
X10576415Y-15717436D01*
X10576415Y-15717436D02*
X10566891Y-15698388D01*
X10566891Y-15698388D02*
X10557367Y-15660293D01*
X10557367Y-15660293D02*
X10557367Y-15612674D01*
X10557367Y-15612674D02*
X10566891Y-15574579D01*
X10566891Y-15574579D02*
X10576415Y-15555531D01*
X10576415Y-15555531D02*
X10585939Y-15546008D01*
X10585939Y-15546008D02*
X10604986Y-15536484D01*
X10795463Y-15536484D02*
X10814510Y-15536484D01*
X10814510Y-15536484D02*
X10833558Y-15546008D01*
X10833558Y-15546008D02*
X10843082Y-15555531D01*
X10843082Y-15555531D02*
X10852605Y-15574579D01*
X10852605Y-15574579D02*
X10862129Y-15612674D01*
X10862129Y-15612674D02*
X10862129Y-15660293D01*
X10862129Y-15660293D02*
X10852605Y-15698388D01*
X10852605Y-15698388D02*
X10843082Y-15717436D01*
X10843082Y-15717436D02*
X10833558Y-15726960D01*
X10833558Y-15726960D02*
X10814510Y-15736484D01*
X10814510Y-15736484D02*
X10795463Y-15736484D01*
X10795463Y-15736484D02*
X10776415Y-15726960D01*
X10776415Y-15726960D02*
X10766891Y-15717436D01*
X10766891Y-15717436D02*
X10757367Y-15698388D01*
X10757367Y-15698388D02*
X10747844Y-15660293D01*
X10747844Y-15660293D02*
X10747844Y-15612674D01*
X10747844Y-15612674D02*
X10757367Y-15574579D01*
X10757367Y-15574579D02*
X10766891Y-15555531D01*
X10766891Y-15555531D02*
X10776415Y-15546008D01*
X10776415Y-15546008D02*
X10795463Y-15536484D01*
X10985939Y-15536484D02*
X11004986Y-15536484D01*
X11004986Y-15536484D02*
X11024034Y-15546008D01*
X11024034Y-15546008D02*
X11033558Y-15555531D01*
X11033558Y-15555531D02*
X11043082Y-15574579D01*
X11043082Y-15574579D02*
X11052605Y-15612674D01*
X11052605Y-15612674D02*
X11052605Y-15660293D01*
X11052605Y-15660293D02*
X11043082Y-15698388D01*
X11043082Y-15698388D02*
X11033558Y-15717436D01*
X11033558Y-15717436D02*
X11024034Y-15726960D01*
X11024034Y-15726960D02*
X11004986Y-15736484D01*
X11004986Y-15736484D02*
X10985939Y-15736484D01*
X10985939Y-15736484D02*
X10966891Y-15726960D01*
X10966891Y-15726960D02*
X10957367Y-15717436D01*
X10957367Y-15717436D02*
X10947844Y-15698388D01*
X10947844Y-15698388D02*
X10938320Y-15660293D01*
X10938320Y-15660293D02*
X10938320Y-15612674D01*
X10938320Y-15612674D02*
X10947844Y-15574579D01*
X10947844Y-15574579D02*
X10957367Y-15555531D01*
X10957367Y-15555531D02*
X10966891Y-15546008D01*
X10966891Y-15546008D02*
X10985939Y-15536484D01*
X11138320Y-15736484D02*
X11138320Y-15603150D01*
X11138320Y-15622198D02*
X11147844Y-15612674D01*
X11147844Y-15612674D02*
X11166891Y-15603150D01*
X11166891Y-15603150D02*
X11195463Y-15603150D01*
X11195463Y-15603150D02*
X11214510Y-15612674D01*
X11214510Y-15612674D02*
X11224034Y-15631722D01*
X11224034Y-15631722D02*
X11224034Y-15736484D01*
X11224034Y-15631722D02*
X11233558Y-15612674D01*
X11233558Y-15612674D02*
X11252605Y-15603150D01*
X11252605Y-15603150D02*
X11281177Y-15603150D01*
X11281177Y-15603150D02*
X11300224Y-15612674D01*
X11300224Y-15612674D02*
X11309748Y-15631722D01*
X11309748Y-15631722D02*
X11309748Y-15736484D01*
X11404986Y-15736484D02*
X11404986Y-15603150D01*
X11404986Y-15622198D02*
X11414510Y-15612674D01*
X11414510Y-15612674D02*
X11433558Y-15603150D01*
X11433558Y-15603150D02*
X11462129Y-15603150D01*
X11462129Y-15603150D02*
X11481177Y-15612674D01*
X11481177Y-15612674D02*
X11490701Y-15631722D01*
X11490701Y-15631722D02*
X11490701Y-15736484D01*
X11490701Y-15631722D02*
X11500224Y-15612674D01*
X11500224Y-15612674D02*
X11519272Y-15603150D01*
X11519272Y-15603150D02*
X11547843Y-15603150D01*
X11547843Y-15603150D02*
X11566891Y-15612674D01*
X11566891Y-15612674D02*
X11576415Y-15631722D01*
X11576415Y-15631722D02*
X11576415Y-15736484D01*
X11966891Y-15526960D02*
X11795463Y-15784103D01*
X12224034Y-15536484D02*
X12243082Y-15536484D01*
X12243082Y-15536484D02*
X12262129Y-15546008D01*
X12262129Y-15546008D02*
X12271653Y-15555531D01*
X12271653Y-15555531D02*
X12281177Y-15574579D01*
X12281177Y-15574579D02*
X12290701Y-15612674D01*
X12290701Y-15612674D02*
X12290701Y-15660293D01*
X12290701Y-15660293D02*
X12281177Y-15698388D01*
X12281177Y-15698388D02*
X12271653Y-15717436D01*
X12271653Y-15717436D02*
X12262129Y-15726960D01*
X12262129Y-15726960D02*
X12243082Y-15736484D01*
X12243082Y-15736484D02*
X12224034Y-15736484D01*
X12224034Y-15736484D02*
X12204986Y-15726960D01*
X12204986Y-15726960D02*
X12195463Y-15717436D01*
X12195463Y-15717436D02*
X12185939Y-15698388D01*
X12185939Y-15698388D02*
X12176415Y-15660293D01*
X12176415Y-15660293D02*
X12176415Y-15612674D01*
X12176415Y-15612674D02*
X12185939Y-15574579D01*
X12185939Y-15574579D02*
X12195463Y-15555531D01*
X12195463Y-15555531D02*
X12204986Y-15546008D01*
X12204986Y-15546008D02*
X12224034Y-15536484D01*
X12376415Y-15717436D02*
X12385939Y-15726960D01*
X12385939Y-15726960D02*
X12376415Y-15736484D01*
X12376415Y-15736484D02*
X12366891Y-15726960D01*
X12366891Y-15726960D02*
X12376415Y-15717436D01*
X12376415Y-15717436D02*
X12376415Y-15736484D01*
X12509748Y-15536484D02*
X12528796Y-15536484D01*
X12528796Y-15536484D02*
X12547844Y-15546008D01*
X12547844Y-15546008D02*
X12557367Y-15555531D01*
X12557367Y-15555531D02*
X12566891Y-15574579D01*
X12566891Y-15574579D02*
X12576415Y-15612674D01*
X12576415Y-15612674D02*
X12576415Y-15660293D01*
X12576415Y-15660293D02*
X12566891Y-15698388D01*
X12566891Y-15698388D02*
X12557367Y-15717436D01*
X12557367Y-15717436D02*
X12547844Y-15726960D01*
X12547844Y-15726960D02*
X12528796Y-15736484D01*
X12528796Y-15736484D02*
X12509748Y-15736484D01*
X12509748Y-15736484D02*
X12490701Y-15726960D01*
X12490701Y-15726960D02*
X12481177Y-15717436D01*
X12481177Y-15717436D02*
X12471653Y-15698388D01*
X12471653Y-15698388D02*
X12462129Y-15660293D01*
X12462129Y-15660293D02*
X12462129Y-15612674D01*
X12462129Y-15612674D02*
X12471653Y-15574579D01*
X12471653Y-15574579D02*
X12481177Y-15555531D01*
X12481177Y-15555531D02*
X12490701Y-15546008D01*
X12490701Y-15546008D02*
X12509748Y-15536484D01*
X12643082Y-15536484D02*
X12766891Y-15536484D01*
X12766891Y-15536484D02*
X12700225Y-15612674D01*
X12700225Y-15612674D02*
X12728796Y-15612674D01*
X12728796Y-15612674D02*
X12747844Y-15622198D01*
X12747844Y-15622198D02*
X12757367Y-15631722D01*
X12757367Y-15631722D02*
X12766891Y-15650769D01*
X12766891Y-15650769D02*
X12766891Y-15698388D01*
X12766891Y-15698388D02*
X12757367Y-15717436D01*
X12757367Y-15717436D02*
X12747844Y-15726960D01*
X12747844Y-15726960D02*
X12728796Y-15736484D01*
X12728796Y-15736484D02*
X12671653Y-15736484D01*
X12671653Y-15736484D02*
X12652606Y-15726960D01*
X12652606Y-15726960D02*
X12643082Y-15717436D01*
X12862129Y-15736484D02*
X12900225Y-15736484D01*
X12900225Y-15736484D02*
X12919272Y-15726960D01*
X12919272Y-15726960D02*
X12928796Y-15717436D01*
X12928796Y-15717436D02*
X12947844Y-15688865D01*
X12947844Y-15688865D02*
X12957367Y-15650769D01*
X12957367Y-15650769D02*
X12957367Y-15574579D01*
X12957367Y-15574579D02*
X12947844Y-15555531D01*
X12947844Y-15555531D02*
X12938320Y-15546008D01*
X12938320Y-15546008D02*
X12919272Y-15536484D01*
X12919272Y-15536484D02*
X12881177Y-15536484D01*
X12881177Y-15536484D02*
X12862129Y-15546008D01*
X12862129Y-15546008D02*
X12852606Y-15555531D01*
X12852606Y-15555531D02*
X12843082Y-15574579D01*
X12843082Y-15574579D02*
X12843082Y-15622198D01*
X12843082Y-15622198D02*
X12852606Y-15641246D01*
X12852606Y-15641246D02*
X12862129Y-15650769D01*
X12862129Y-15650769D02*
X12881177Y-15660293D01*
X12881177Y-15660293D02*
X12919272Y-15660293D01*
X12919272Y-15660293D02*
X12938320Y-15650769D01*
X12938320Y-15650769D02*
X12947844Y-15641246D01*
X12947844Y-15641246D02*
X12957367Y-15622198D01*
X13128796Y-15603150D02*
X13128796Y-15736484D01*
X13081177Y-15526960D02*
X13033558Y-15669817D01*
X13033558Y-15669817D02*
X13157367Y-15669817D01*
X13224034Y-15536484D02*
X13224034Y-15574579D01*
X13300225Y-15536484D02*
X13300225Y-15574579D01*
X13595463Y-15812674D02*
X13585939Y-15803150D01*
X13585939Y-15803150D02*
X13566891Y-15774579D01*
X13566891Y-15774579D02*
X13557368Y-15755531D01*
X13557368Y-15755531D02*
X13547844Y-15726960D01*
X13547844Y-15726960D02*
X13538320Y-15679341D01*
X13538320Y-15679341D02*
X13538320Y-15641246D01*
X13538320Y-15641246D02*
X13547844Y-15593627D01*
X13547844Y-15593627D02*
X13557368Y-15565055D01*
X13557368Y-15565055D02*
X13566891Y-15546008D01*
X13566891Y-15546008D02*
X13585939Y-15517436D01*
X13585939Y-15517436D02*
X13595463Y-15507912D01*
X13757368Y-15603150D02*
X13757368Y-15736484D01*
X13709748Y-15526960D02*
X13662129Y-15669817D01*
X13662129Y-15669817D02*
X13785939Y-15669817D01*
X13900225Y-15536484D02*
X13919272Y-15536484D01*
X13919272Y-15536484D02*
X13938320Y-15546008D01*
X13938320Y-15546008D02*
X13947844Y-15555531D01*
X13947844Y-15555531D02*
X13957368Y-15574579D01*
X13957368Y-15574579D02*
X13966891Y-15612674D01*
X13966891Y-15612674D02*
X13966891Y-15660293D01*
X13966891Y-15660293D02*
X13957368Y-15698388D01*
X13957368Y-15698388D02*
X13947844Y-15717436D01*
X13947844Y-15717436D02*
X13938320Y-15726960D01*
X13938320Y-15726960D02*
X13919272Y-15736484D01*
X13919272Y-15736484D02*
X13900225Y-15736484D01*
X13900225Y-15736484D02*
X13881177Y-15726960D01*
X13881177Y-15726960D02*
X13871653Y-15717436D01*
X13871653Y-15717436D02*
X13862129Y-15698388D01*
X13862129Y-15698388D02*
X13852606Y-15660293D01*
X13852606Y-15660293D02*
X13852606Y-15612674D01*
X13852606Y-15612674D02*
X13862129Y-15574579D01*
X13862129Y-15574579D02*
X13871653Y-15555531D01*
X13871653Y-15555531D02*
X13881177Y-15546008D01*
X13881177Y-15546008D02*
X13900225Y-15536484D01*
X14204987Y-15736484D02*
X14204987Y-15536484D01*
X14290701Y-15736484D02*
X14290701Y-15631722D01*
X14290701Y-15631722D02*
X14281177Y-15612674D01*
X14281177Y-15612674D02*
X14262130Y-15603150D01*
X14262130Y-15603150D02*
X14233558Y-15603150D01*
X14233558Y-15603150D02*
X14214510Y-15612674D01*
X14214510Y-15612674D02*
X14204987Y-15622198D01*
X14414510Y-15736484D02*
X14395463Y-15726960D01*
X14395463Y-15726960D02*
X14385939Y-15717436D01*
X14385939Y-15717436D02*
X14376415Y-15698388D01*
X14376415Y-15698388D02*
X14376415Y-15641246D01*
X14376415Y-15641246D02*
X14385939Y-15622198D01*
X14385939Y-15622198D02*
X14395463Y-15612674D01*
X14395463Y-15612674D02*
X14414510Y-15603150D01*
X14414510Y-15603150D02*
X14443082Y-15603150D01*
X14443082Y-15603150D02*
X14462130Y-15612674D01*
X14462130Y-15612674D02*
X14471653Y-15622198D01*
X14471653Y-15622198D02*
X14481177Y-15641246D01*
X14481177Y-15641246D02*
X14481177Y-15698388D01*
X14481177Y-15698388D02*
X14471653Y-15717436D01*
X14471653Y-15717436D02*
X14462130Y-15726960D01*
X14462130Y-15726960D02*
X14443082Y-15736484D01*
X14443082Y-15736484D02*
X14414510Y-15736484D01*
X14595463Y-15736484D02*
X14576415Y-15726960D01*
X14576415Y-15726960D02*
X14566891Y-15707912D01*
X14566891Y-15707912D02*
X14566891Y-15536484D01*
X14747844Y-15726960D02*
X14728796Y-15736484D01*
X14728796Y-15736484D02*
X14690701Y-15736484D01*
X14690701Y-15736484D02*
X14671653Y-15726960D01*
X14671653Y-15726960D02*
X14662130Y-15707912D01*
X14662130Y-15707912D02*
X14662130Y-15631722D01*
X14662130Y-15631722D02*
X14671653Y-15612674D01*
X14671653Y-15612674D02*
X14690701Y-15603150D01*
X14690701Y-15603150D02*
X14728796Y-15603150D01*
X14728796Y-15603150D02*
X14747844Y-15612674D01*
X14747844Y-15612674D02*
X14757368Y-15631722D01*
X14757368Y-15631722D02*
X14757368Y-15650769D01*
X14757368Y-15650769D02*
X14662130Y-15669817D01*
X14833558Y-15726960D02*
X14852606Y-15736484D01*
X14852606Y-15736484D02*
X14890701Y-15736484D01*
X14890701Y-15736484D02*
X14909749Y-15726960D01*
X14909749Y-15726960D02*
X14919272Y-15707912D01*
X14919272Y-15707912D02*
X14919272Y-15698388D01*
X14919272Y-15698388D02*
X14909749Y-15679341D01*
X14909749Y-15679341D02*
X14890701Y-15669817D01*
X14890701Y-15669817D02*
X14862130Y-15669817D01*
X14862130Y-15669817D02*
X14843082Y-15660293D01*
X14843082Y-15660293D02*
X14833558Y-15641246D01*
X14833558Y-15641246D02*
X14833558Y-15631722D01*
X14833558Y-15631722D02*
X14843082Y-15612674D01*
X14843082Y-15612674D02*
X14862130Y-15603150D01*
X14862130Y-15603150D02*
X14890701Y-15603150D01*
X14890701Y-15603150D02*
X14909749Y-15612674D01*
X14985939Y-15812674D02*
X14995463Y-15803150D01*
X14995463Y-15803150D02*
X15014511Y-15774579D01*
X15014511Y-15774579D02*
X15024034Y-15755531D01*
X15024034Y-15755531D02*
X15033558Y-15726960D01*
X15033558Y-15726960D02*
X15043082Y-15679341D01*
X15043082Y-15679341D02*
X15043082Y-15641246D01*
X15043082Y-15641246D02*
X15033558Y-15593627D01*
X15033558Y-15593627D02*
X15024034Y-15565055D01*
X15024034Y-15565055D02*
X15014511Y-15546008D01*
X15014511Y-15546008D02*
X14995463Y-15517436D01*
X14995463Y-15517436D02*
X14985939Y-15507912D01*
M02*
