M48
; DRILL file KiCad 10.0.6 date 2026-09-05T12:50:40
; FORMAT={-:-/ absolute / metric / decimal}
; #@! TF.CreationDate,2026-09-05T12:50:40-05:00
; #@! TF.GenerationSoftware,Kicad,Pcbnew,10.0.6
; #@! TF.FileFunction,MixedPlating,1,2
FMAT,2
METRIC
; #@! TA.AperFunction,Plated,PTH,ComponentDrill
T1C1.000
%
G90
G05
T1
X102.54Y-70.46
X102.54Y-73.0
X105.08Y-70.46
X105.08Y-73.0
X107.62Y-70.46
X107.62Y-73.0
X110.16Y-70.46
X110.16Y-73.0
X112.7Y-70.46
X112.7Y-73.0
X115.24Y-70.46
X115.24Y-73.0
X117.78Y-70.46
X117.78Y-73.0
X120.32Y-70.46
X120.32Y-73.0
X122.86Y-70.46
X122.86Y-73.0
X125.4Y-70.46
X125.4Y-73.0
X127.94Y-70.46
X127.94Y-73.0
X130.48Y-70.46
X130.48Y-73.0
X133.02Y-70.46
X133.02Y-73.0
X135.56Y-70.46
X135.56Y-73.0
X138.1Y-70.46
X138.1Y-73.0
X140.64Y-70.46
X140.64Y-73.0
X143.18Y-70.46
X143.18Y-73.0
X145.72Y-70.46
X145.72Y-73.0
X148.26Y-70.46
X148.26Y-73.0
X150.8Y-70.46
X150.8Y-73.0
M30
