G04 #@! TF.GenerationSoftware,KiCad,Pcbnew,10.0.6*
G04 #@! TF.CreationDate,2026-09-05T17:26:05-05:00*
G04 #@! TF.ProjectId,PiCoCo-Breakout,5069436f-436f-42d4-9272-65616b6f7574,rev?*
G04 #@! TF.SameCoordinates,Original*
G04 #@! TF.FileFunction,Legend,Bot*
G04 #@! TF.FilePolarity,Positive*
%FSLAX46Y46*%
G04 Gerber Fmt 4.6, Leading zero omitted, Abs format (unit mm)*
G04 Created by KiCad (PCBNEW 10.0.6) date 2026-09-05 17:26:05*
%MOMM*%
%LPD*%
G01*
G04 APERTURE LIST*
G04 Aperture macros list*
%AMRoundRect*
0 Rectangle with rounded corners*
0 $1 Rounding radius*
0 $2 $3 $4 $5 $6 $7 $8 $9 X,Y pos of 4 corners*
0 Add a 4 corners polygon primitive as box body*
4,1,4,$2,$3,$4,$5,$6,$7,$8,$9,$2,$3,0*
0 Add four circle primitives for the rounded corners*
1,1,$1+$1,$2,$3*
1,1,$1+$1,$4,$5*
1,1,$1+$1,$6,$7*
1,1,$1+$1,$8,$9*
0 Add four rect primitives between the rounded corners*
20,1,$1+$1,$2,$3,$4,$5,0*
20,1,$1+$1,$4,$5,$6,$7,0*
20,1,$1+$1,$6,$7,$8,$9,0*
20,1,$1+$1,$8,$9,$2,$3,0*%
G04 Aperture macros list end*
%ADD10C,0.150000*%
%ADD11C,0.300000*%
%ADD12C,0.000000*%
%ADD13RoundRect,0.076200X-0.635000X-4.335000X0.635000X-4.335000X0.635000X4.335000X-0.635000X4.335000X0*%
%ADD14RoundRect,0.250000X0.600000X-0.600000X0.600000X0.600000X-0.600000X0.600000X-0.600000X-0.600000X0*%
%ADD15C,1.700000*%
G04 APERTURE END LIST*
D10*
X147598574Y-122954819D02*
X147027146Y-122954819D01*
X147312860Y-123954819D02*
X147312860Y-122954819D01*
X146265241Y-123954819D02*
X146265241Y-123431009D01*
X146265241Y-123431009D02*
X146312860Y-123335771D01*
X146312860Y-123335771D02*
X146408098Y-123288152D01*
X146408098Y-123288152D02*
X146598574Y-123288152D01*
X146598574Y-123288152D02*
X146693812Y-123335771D01*
X146265241Y-123907200D02*
X146360479Y-123954819D01*
X146360479Y-123954819D02*
X146598574Y-123954819D01*
X146598574Y-123954819D02*
X146693812Y-123907200D01*
X146693812Y-123907200D02*
X146741431Y-123811961D01*
X146741431Y-123811961D02*
X146741431Y-123716723D01*
X146741431Y-123716723D02*
X146693812Y-123621485D01*
X146693812Y-123621485D02*
X146598574Y-123573866D01*
X146598574Y-123573866D02*
X146360479Y-123573866D01*
X146360479Y-123573866D02*
X146265241Y-123526247D01*
X145789050Y-123288152D02*
X145789050Y-123954819D01*
X145789050Y-123383390D02*
X145741431Y-123335771D01*
X145741431Y-123335771D02*
X145646193Y-123288152D01*
X145646193Y-123288152D02*
X145503336Y-123288152D01*
X145503336Y-123288152D02*
X145408098Y-123335771D01*
X145408098Y-123335771D02*
X145360479Y-123431009D01*
X145360479Y-123431009D02*
X145360479Y-123954819D01*
X144455717Y-123954819D02*
X144455717Y-122954819D01*
X144455717Y-123907200D02*
X144550955Y-123954819D01*
X144550955Y-123954819D02*
X144741431Y-123954819D01*
X144741431Y-123954819D02*
X144836669Y-123907200D01*
X144836669Y-123907200D02*
X144884288Y-123859580D01*
X144884288Y-123859580D02*
X144931907Y-123764342D01*
X144931907Y-123764342D02*
X144931907Y-123478628D01*
X144931907Y-123478628D02*
X144884288Y-123383390D01*
X144884288Y-123383390D02*
X144836669Y-123335771D01*
X144836669Y-123335771D02*
X144741431Y-123288152D01*
X144741431Y-123288152D02*
X144550955Y-123288152D01*
X144550955Y-123288152D02*
X144455717Y-123335771D01*
X144074764Y-123288152D02*
X143836669Y-123954819D01*
X143598574Y-123288152D02*
X143836669Y-123954819D01*
X143836669Y-123954819D02*
X143931907Y-124192914D01*
X143931907Y-124192914D02*
X143979526Y-124240533D01*
X143979526Y-124240533D02*
X144074764Y-124288152D01*
X141884288Y-123859580D02*
X141931907Y-123907200D01*
X141931907Y-123907200D02*
X142074764Y-123954819D01*
X142074764Y-123954819D02*
X142170002Y-123954819D01*
X142170002Y-123954819D02*
X142312859Y-123907200D01*
X142312859Y-123907200D02*
X142408097Y-123811961D01*
X142408097Y-123811961D02*
X142455716Y-123716723D01*
X142455716Y-123716723D02*
X142503335Y-123526247D01*
X142503335Y-123526247D02*
X142503335Y-123383390D01*
X142503335Y-123383390D02*
X142455716Y-123192914D01*
X142455716Y-123192914D02*
X142408097Y-123097676D01*
X142408097Y-123097676D02*
X142312859Y-123002438D01*
X142312859Y-123002438D02*
X142170002Y-122954819D01*
X142170002Y-122954819D02*
X142074764Y-122954819D01*
X142074764Y-122954819D02*
X141931907Y-123002438D01*
X141931907Y-123002438D02*
X141884288Y-123050057D01*
X141312859Y-123954819D02*
X141408097Y-123907200D01*
X141408097Y-123907200D02*
X141455716Y-123859580D01*
X141455716Y-123859580D02*
X141503335Y-123764342D01*
X141503335Y-123764342D02*
X141503335Y-123478628D01*
X141503335Y-123478628D02*
X141455716Y-123383390D01*
X141455716Y-123383390D02*
X141408097Y-123335771D01*
X141408097Y-123335771D02*
X141312859Y-123288152D01*
X141312859Y-123288152D02*
X141170002Y-123288152D01*
X141170002Y-123288152D02*
X141074764Y-123335771D01*
X141074764Y-123335771D02*
X141027145Y-123383390D01*
X141027145Y-123383390D02*
X140979526Y-123478628D01*
X140979526Y-123478628D02*
X140979526Y-123764342D01*
X140979526Y-123764342D02*
X141027145Y-123859580D01*
X141027145Y-123859580D02*
X141074764Y-123907200D01*
X141074764Y-123907200D02*
X141170002Y-123954819D01*
X141170002Y-123954819D02*
X141312859Y-123954819D01*
X140408097Y-123954819D02*
X140503335Y-123907200D01*
X140503335Y-123907200D02*
X140550954Y-123811961D01*
X140550954Y-123811961D02*
X140550954Y-122954819D01*
X139884287Y-123954819D02*
X139979525Y-123907200D01*
X139979525Y-123907200D02*
X140027144Y-123859580D01*
X140027144Y-123859580D02*
X140074763Y-123764342D01*
X140074763Y-123764342D02*
X140074763Y-123478628D01*
X140074763Y-123478628D02*
X140027144Y-123383390D01*
X140027144Y-123383390D02*
X139979525Y-123335771D01*
X139979525Y-123335771D02*
X139884287Y-123288152D01*
X139884287Y-123288152D02*
X139741430Y-123288152D01*
X139741430Y-123288152D02*
X139646192Y-123335771D01*
X139646192Y-123335771D02*
X139598573Y-123383390D01*
X139598573Y-123383390D02*
X139550954Y-123478628D01*
X139550954Y-123478628D02*
X139550954Y-123764342D01*
X139550954Y-123764342D02*
X139598573Y-123859580D01*
X139598573Y-123859580D02*
X139646192Y-123907200D01*
X139646192Y-123907200D02*
X139741430Y-123954819D01*
X139741430Y-123954819D02*
X139884287Y-123954819D01*
X139122382Y-123954819D02*
X139122382Y-123288152D01*
X139122382Y-123478628D02*
X139074763Y-123383390D01*
X139074763Y-123383390D02*
X139027144Y-123335771D01*
X139027144Y-123335771D02*
X138931906Y-123288152D01*
X138931906Y-123288152D02*
X138836668Y-123288152D01*
X137170001Y-123859580D02*
X137217620Y-123907200D01*
X137217620Y-123907200D02*
X137360477Y-123954819D01*
X137360477Y-123954819D02*
X137455715Y-123954819D01*
X137455715Y-123954819D02*
X137598572Y-123907200D01*
X137598572Y-123907200D02*
X137693810Y-123811961D01*
X137693810Y-123811961D02*
X137741429Y-123716723D01*
X137741429Y-123716723D02*
X137789048Y-123526247D01*
X137789048Y-123526247D02*
X137789048Y-123383390D01*
X137789048Y-123383390D02*
X137741429Y-123192914D01*
X137741429Y-123192914D02*
X137693810Y-123097676D01*
X137693810Y-123097676D02*
X137598572Y-123002438D01*
X137598572Y-123002438D02*
X137455715Y-122954819D01*
X137455715Y-122954819D02*
X137360477Y-122954819D01*
X137360477Y-122954819D02*
X137217620Y-123002438D01*
X137217620Y-123002438D02*
X137170001Y-123050057D01*
X136598572Y-123954819D02*
X136693810Y-123907200D01*
X136693810Y-123907200D02*
X136741429Y-123859580D01*
X136741429Y-123859580D02*
X136789048Y-123764342D01*
X136789048Y-123764342D02*
X136789048Y-123478628D01*
X136789048Y-123478628D02*
X136741429Y-123383390D01*
X136741429Y-123383390D02*
X136693810Y-123335771D01*
X136693810Y-123335771D02*
X136598572Y-123288152D01*
X136598572Y-123288152D02*
X136455715Y-123288152D01*
X136455715Y-123288152D02*
X136360477Y-123335771D01*
X136360477Y-123335771D02*
X136312858Y-123383390D01*
X136312858Y-123383390D02*
X136265239Y-123478628D01*
X136265239Y-123478628D02*
X136265239Y-123764342D01*
X136265239Y-123764342D02*
X136312858Y-123859580D01*
X136312858Y-123859580D02*
X136360477Y-123907200D01*
X136360477Y-123907200D02*
X136455715Y-123954819D01*
X136455715Y-123954819D02*
X136598572Y-123954819D01*
X135836667Y-123954819D02*
X135836667Y-123288152D01*
X135836667Y-123383390D02*
X135789048Y-123335771D01*
X135789048Y-123335771D02*
X135693810Y-123288152D01*
X135693810Y-123288152D02*
X135550953Y-123288152D01*
X135550953Y-123288152D02*
X135455715Y-123335771D01*
X135455715Y-123335771D02*
X135408096Y-123431009D01*
X135408096Y-123431009D02*
X135408096Y-123954819D01*
X135408096Y-123431009D02*
X135360477Y-123335771D01*
X135360477Y-123335771D02*
X135265239Y-123288152D01*
X135265239Y-123288152D02*
X135122382Y-123288152D01*
X135122382Y-123288152D02*
X135027143Y-123335771D01*
X135027143Y-123335771D02*
X134979524Y-123431009D01*
X134979524Y-123431009D02*
X134979524Y-123954819D01*
X134503334Y-123288152D02*
X134503334Y-124288152D01*
X134503334Y-123335771D02*
X134408096Y-123288152D01*
X134408096Y-123288152D02*
X134217620Y-123288152D01*
X134217620Y-123288152D02*
X134122382Y-123335771D01*
X134122382Y-123335771D02*
X134074763Y-123383390D01*
X134074763Y-123383390D02*
X134027144Y-123478628D01*
X134027144Y-123478628D02*
X134027144Y-123764342D01*
X134027144Y-123764342D02*
X134074763Y-123859580D01*
X134074763Y-123859580D02*
X134122382Y-123907200D01*
X134122382Y-123907200D02*
X134217620Y-123954819D01*
X134217620Y-123954819D02*
X134408096Y-123954819D01*
X134408096Y-123954819D02*
X134503334Y-123907200D01*
X133170001Y-123288152D02*
X133170001Y-123954819D01*
X133598572Y-123288152D02*
X133598572Y-123811961D01*
X133598572Y-123811961D02*
X133550953Y-123907200D01*
X133550953Y-123907200D02*
X133455715Y-123954819D01*
X133455715Y-123954819D02*
X133312858Y-123954819D01*
X133312858Y-123954819D02*
X133217620Y-123907200D01*
X133217620Y-123907200D02*
X133170001Y-123859580D01*
X132836667Y-123288152D02*
X132455715Y-123288152D01*
X132693810Y-122954819D02*
X132693810Y-123811961D01*
X132693810Y-123811961D02*
X132646191Y-123907200D01*
X132646191Y-123907200D02*
X132550953Y-123954819D01*
X132550953Y-123954819D02*
X132455715Y-123954819D01*
X131741429Y-123907200D02*
X131836667Y-123954819D01*
X131836667Y-123954819D02*
X132027143Y-123954819D01*
X132027143Y-123954819D02*
X132122381Y-123907200D01*
X132122381Y-123907200D02*
X132170000Y-123811961D01*
X132170000Y-123811961D02*
X132170000Y-123431009D01*
X132170000Y-123431009D02*
X132122381Y-123335771D01*
X132122381Y-123335771D02*
X132027143Y-123288152D01*
X132027143Y-123288152D02*
X131836667Y-123288152D01*
X131836667Y-123288152D02*
X131741429Y-123335771D01*
X131741429Y-123335771D02*
X131693810Y-123431009D01*
X131693810Y-123431009D02*
X131693810Y-123526247D01*
X131693810Y-123526247D02*
X132170000Y-123621485D01*
X131265238Y-123954819D02*
X131265238Y-123288152D01*
X131265238Y-123478628D02*
X131217619Y-123383390D01*
X131217619Y-123383390D02*
X131170000Y-123335771D01*
X131170000Y-123335771D02*
X131074762Y-123288152D01*
X131074762Y-123288152D02*
X130979524Y-123288152D01*
X129455714Y-123907200D02*
X129550952Y-123954819D01*
X129550952Y-123954819D02*
X129741428Y-123954819D01*
X129741428Y-123954819D02*
X129836666Y-123907200D01*
X129836666Y-123907200D02*
X129884285Y-123859580D01*
X129884285Y-123859580D02*
X129931904Y-123764342D01*
X129931904Y-123764342D02*
X129931904Y-123478628D01*
X129931904Y-123478628D02*
X129884285Y-123383390D01*
X129884285Y-123383390D02*
X129836666Y-123335771D01*
X129836666Y-123335771D02*
X129741428Y-123288152D01*
X129741428Y-123288152D02*
X129550952Y-123288152D01*
X129550952Y-123288152D02*
X129455714Y-123335771D01*
X128598571Y-123954819D02*
X128598571Y-123431009D01*
X128598571Y-123431009D02*
X128646190Y-123335771D01*
X128646190Y-123335771D02*
X128741428Y-123288152D01*
X128741428Y-123288152D02*
X128931904Y-123288152D01*
X128931904Y-123288152D02*
X129027142Y-123335771D01*
X128598571Y-123907200D02*
X128693809Y-123954819D01*
X128693809Y-123954819D02*
X128931904Y-123954819D01*
X128931904Y-123954819D02*
X129027142Y-123907200D01*
X129027142Y-123907200D02*
X129074761Y-123811961D01*
X129074761Y-123811961D02*
X129074761Y-123716723D01*
X129074761Y-123716723D02*
X129027142Y-123621485D01*
X129027142Y-123621485D02*
X128931904Y-123573866D01*
X128931904Y-123573866D02*
X128693809Y-123573866D01*
X128693809Y-123573866D02*
X128598571Y-123526247D01*
X128122380Y-123954819D02*
X128122380Y-123288152D01*
X128122380Y-123478628D02*
X128074761Y-123383390D01*
X128074761Y-123383390D02*
X128027142Y-123335771D01*
X128027142Y-123335771D02*
X127931904Y-123288152D01*
X127931904Y-123288152D02*
X127836666Y-123288152D01*
X127646189Y-123288152D02*
X127265237Y-123288152D01*
X127503332Y-122954819D02*
X127503332Y-123811961D01*
X127503332Y-123811961D02*
X127455713Y-123907200D01*
X127455713Y-123907200D02*
X127360475Y-123954819D01*
X127360475Y-123954819D02*
X127265237Y-123954819D01*
X126931903Y-123954819D02*
X126931903Y-123288152D01*
X126931903Y-123478628D02*
X126884284Y-123383390D01*
X126884284Y-123383390D02*
X126836665Y-123335771D01*
X126836665Y-123335771D02*
X126741427Y-123288152D01*
X126741427Y-123288152D02*
X126646189Y-123288152D01*
X126312855Y-123954819D02*
X126312855Y-123288152D01*
X126312855Y-122954819D02*
X126360474Y-123002438D01*
X126360474Y-123002438D02*
X126312855Y-123050057D01*
X126312855Y-123050057D02*
X126265236Y-123002438D01*
X126265236Y-123002438D02*
X126312855Y-122954819D01*
X126312855Y-122954819D02*
X126312855Y-123050057D01*
X125408094Y-123954819D02*
X125408094Y-122954819D01*
X125408094Y-123907200D02*
X125503332Y-123954819D01*
X125503332Y-123954819D02*
X125693808Y-123954819D01*
X125693808Y-123954819D02*
X125789046Y-123907200D01*
X125789046Y-123907200D02*
X125836665Y-123859580D01*
X125836665Y-123859580D02*
X125884284Y-123764342D01*
X125884284Y-123764342D02*
X125884284Y-123478628D01*
X125884284Y-123478628D02*
X125836665Y-123383390D01*
X125836665Y-123383390D02*
X125789046Y-123335771D01*
X125789046Y-123335771D02*
X125693808Y-123288152D01*
X125693808Y-123288152D02*
X125503332Y-123288152D01*
X125503332Y-123288152D02*
X125408094Y-123335771D01*
X124503332Y-123288152D02*
X124503332Y-124097676D01*
X124503332Y-124097676D02*
X124550951Y-124192914D01*
X124550951Y-124192914D02*
X124598570Y-124240533D01*
X124598570Y-124240533D02*
X124693808Y-124288152D01*
X124693808Y-124288152D02*
X124836665Y-124288152D01*
X124836665Y-124288152D02*
X124931903Y-124240533D01*
X124503332Y-123907200D02*
X124598570Y-123954819D01*
X124598570Y-123954819D02*
X124789046Y-123954819D01*
X124789046Y-123954819D02*
X124884284Y-123907200D01*
X124884284Y-123907200D02*
X124931903Y-123859580D01*
X124931903Y-123859580D02*
X124979522Y-123764342D01*
X124979522Y-123764342D02*
X124979522Y-123478628D01*
X124979522Y-123478628D02*
X124931903Y-123383390D01*
X124931903Y-123383390D02*
X124884284Y-123335771D01*
X124884284Y-123335771D02*
X124789046Y-123288152D01*
X124789046Y-123288152D02*
X124598570Y-123288152D01*
X124598570Y-123288152D02*
X124503332Y-123335771D01*
X123646189Y-123907200D02*
X123741427Y-123954819D01*
X123741427Y-123954819D02*
X123931903Y-123954819D01*
X123931903Y-123954819D02*
X124027141Y-123907200D01*
X124027141Y-123907200D02*
X124074760Y-123811961D01*
X124074760Y-123811961D02*
X124074760Y-123431009D01*
X124074760Y-123431009D02*
X124027141Y-123335771D01*
X124027141Y-123335771D02*
X123931903Y-123288152D01*
X123931903Y-123288152D02*
X123741427Y-123288152D01*
X123741427Y-123288152D02*
X123646189Y-123335771D01*
X123646189Y-123335771D02*
X123598570Y-123431009D01*
X123598570Y-123431009D02*
X123598570Y-123526247D01*
X123598570Y-123526247D02*
X124074760Y-123621485D01*
X122027141Y-123907200D02*
X122122379Y-123954819D01*
X122122379Y-123954819D02*
X122312855Y-123954819D01*
X122312855Y-123954819D02*
X122408093Y-123907200D01*
X122408093Y-123907200D02*
X122455712Y-123811961D01*
X122455712Y-123811961D02*
X122455712Y-123431009D01*
X122455712Y-123431009D02*
X122408093Y-123335771D01*
X122408093Y-123335771D02*
X122312855Y-123288152D01*
X122312855Y-123288152D02*
X122122379Y-123288152D01*
X122122379Y-123288152D02*
X122027141Y-123335771D01*
X122027141Y-123335771D02*
X121979522Y-123431009D01*
X121979522Y-123431009D02*
X121979522Y-123526247D01*
X121979522Y-123526247D02*
X122455712Y-123621485D01*
X121122379Y-123954819D02*
X121122379Y-122954819D01*
X121122379Y-123907200D02*
X121217617Y-123954819D01*
X121217617Y-123954819D02*
X121408093Y-123954819D01*
X121408093Y-123954819D02*
X121503331Y-123907200D01*
X121503331Y-123907200D02*
X121550950Y-123859580D01*
X121550950Y-123859580D02*
X121598569Y-123764342D01*
X121598569Y-123764342D02*
X121598569Y-123478628D01*
X121598569Y-123478628D02*
X121550950Y-123383390D01*
X121550950Y-123383390D02*
X121503331Y-123335771D01*
X121503331Y-123335771D02*
X121408093Y-123288152D01*
X121408093Y-123288152D02*
X121217617Y-123288152D01*
X121217617Y-123288152D02*
X121122379Y-123335771D01*
X120217617Y-123288152D02*
X120217617Y-124097676D01*
X120217617Y-124097676D02*
X120265236Y-124192914D01*
X120265236Y-124192914D02*
X120312855Y-124240533D01*
X120312855Y-124240533D02*
X120408093Y-124288152D01*
X120408093Y-124288152D02*
X120550950Y-124288152D01*
X120550950Y-124288152D02*
X120646188Y-124240533D01*
X120217617Y-123907200D02*
X120312855Y-123954819D01*
X120312855Y-123954819D02*
X120503331Y-123954819D01*
X120503331Y-123954819D02*
X120598569Y-123907200D01*
X120598569Y-123907200D02*
X120646188Y-123859580D01*
X120646188Y-123859580D02*
X120693807Y-123764342D01*
X120693807Y-123764342D02*
X120693807Y-123478628D01*
X120693807Y-123478628D02*
X120646188Y-123383390D01*
X120646188Y-123383390D02*
X120598569Y-123335771D01*
X120598569Y-123335771D02*
X120503331Y-123288152D01*
X120503331Y-123288152D02*
X120312855Y-123288152D01*
X120312855Y-123288152D02*
X120217617Y-123335771D01*
X119360474Y-123907200D02*
X119455712Y-123954819D01*
X119455712Y-123954819D02*
X119646188Y-123954819D01*
X119646188Y-123954819D02*
X119741426Y-123907200D01*
X119741426Y-123907200D02*
X119789045Y-123811961D01*
X119789045Y-123811961D02*
X119789045Y-123431009D01*
X119789045Y-123431009D02*
X119741426Y-123335771D01*
X119741426Y-123335771D02*
X119646188Y-123288152D01*
X119646188Y-123288152D02*
X119455712Y-123288152D01*
X119455712Y-123288152D02*
X119360474Y-123335771D01*
X119360474Y-123335771D02*
X119312855Y-123431009D01*
X119312855Y-123431009D02*
X119312855Y-123526247D01*
X119312855Y-123526247D02*
X119789045Y-123621485D01*
X118122378Y-123573866D02*
X117360474Y-123573866D01*
X116884283Y-123288152D02*
X116122379Y-123573866D01*
X116122379Y-123573866D02*
X116884283Y-123859580D01*
X114931902Y-123050057D02*
X114884283Y-123002438D01*
X114884283Y-123002438D02*
X114789045Y-122954819D01*
X114789045Y-122954819D02*
X114550950Y-122954819D01*
X114550950Y-122954819D02*
X114455712Y-123002438D01*
X114455712Y-123002438D02*
X114408093Y-123050057D01*
X114408093Y-123050057D02*
X114360474Y-123145295D01*
X114360474Y-123145295D02*
X114360474Y-123240533D01*
X114360474Y-123240533D02*
X114408093Y-123383390D01*
X114408093Y-123383390D02*
X114979521Y-123954819D01*
X114979521Y-123954819D02*
X114360474Y-123954819D01*
X114027140Y-123954819D02*
X113503331Y-123288152D01*
X114027140Y-123288152D02*
X113503331Y-123954819D01*
X113169997Y-123050057D02*
X113122378Y-123002438D01*
X113122378Y-123002438D02*
X113027140Y-122954819D01*
X113027140Y-122954819D02*
X112789045Y-122954819D01*
X112789045Y-122954819D02*
X112693807Y-123002438D01*
X112693807Y-123002438D02*
X112646188Y-123050057D01*
X112646188Y-123050057D02*
X112598569Y-123145295D01*
X112598569Y-123145295D02*
X112598569Y-123240533D01*
X112598569Y-123240533D02*
X112646188Y-123383390D01*
X112646188Y-123383390D02*
X113217616Y-123954819D01*
X113217616Y-123954819D02*
X112598569Y-123954819D01*
X111979521Y-122954819D02*
X111884283Y-122954819D01*
X111884283Y-122954819D02*
X111789045Y-123002438D01*
X111789045Y-123002438D02*
X111741426Y-123050057D01*
X111741426Y-123050057D02*
X111693807Y-123145295D01*
X111693807Y-123145295D02*
X111646188Y-123335771D01*
X111646188Y-123335771D02*
X111646188Y-123573866D01*
X111646188Y-123573866D02*
X111693807Y-123764342D01*
X111693807Y-123764342D02*
X111741426Y-123859580D01*
X111741426Y-123859580D02*
X111789045Y-123907200D01*
X111789045Y-123907200D02*
X111884283Y-123954819D01*
X111884283Y-123954819D02*
X111979521Y-123954819D01*
X111979521Y-123954819D02*
X112074759Y-123907200D01*
X112074759Y-123907200D02*
X112122378Y-123859580D01*
X112122378Y-123859580D02*
X112169997Y-123764342D01*
X112169997Y-123764342D02*
X112217616Y-123573866D01*
X112217616Y-123573866D02*
X112217616Y-123335771D01*
X112217616Y-123335771D02*
X112169997Y-123145295D01*
X112169997Y-123145295D02*
X112122378Y-123050057D01*
X112122378Y-123050057D02*
X112074759Y-123002438D01*
X112074759Y-123002438D02*
X111979521Y-122954819D01*
X110455711Y-123954819D02*
X110455711Y-122954819D01*
X110027140Y-123954819D02*
X110027140Y-123431009D01*
X110027140Y-123431009D02*
X110074759Y-123335771D01*
X110074759Y-123335771D02*
X110169997Y-123288152D01*
X110169997Y-123288152D02*
X110312854Y-123288152D01*
X110312854Y-123288152D02*
X110408092Y-123335771D01*
X110408092Y-123335771D02*
X110455711Y-123383390D01*
X109169997Y-123907200D02*
X109265235Y-123954819D01*
X109265235Y-123954819D02*
X109455711Y-123954819D01*
X109455711Y-123954819D02*
X109550949Y-123907200D01*
X109550949Y-123907200D02*
X109598568Y-123811961D01*
X109598568Y-123811961D02*
X109598568Y-123431009D01*
X109598568Y-123431009D02*
X109550949Y-123335771D01*
X109550949Y-123335771D02*
X109455711Y-123288152D01*
X109455711Y-123288152D02*
X109265235Y-123288152D01*
X109265235Y-123288152D02*
X109169997Y-123335771D01*
X109169997Y-123335771D02*
X109122378Y-123431009D01*
X109122378Y-123431009D02*
X109122378Y-123526247D01*
X109122378Y-123526247D02*
X109598568Y-123621485D01*
X108265235Y-123954819D02*
X108265235Y-123431009D01*
X108265235Y-123431009D02*
X108312854Y-123335771D01*
X108312854Y-123335771D02*
X108408092Y-123288152D01*
X108408092Y-123288152D02*
X108598568Y-123288152D01*
X108598568Y-123288152D02*
X108693806Y-123335771D01*
X108265235Y-123907200D02*
X108360473Y-123954819D01*
X108360473Y-123954819D02*
X108598568Y-123954819D01*
X108598568Y-123954819D02*
X108693806Y-123907200D01*
X108693806Y-123907200D02*
X108741425Y-123811961D01*
X108741425Y-123811961D02*
X108741425Y-123716723D01*
X108741425Y-123716723D02*
X108693806Y-123621485D01*
X108693806Y-123621485D02*
X108598568Y-123573866D01*
X108598568Y-123573866D02*
X108360473Y-123573866D01*
X108360473Y-123573866D02*
X108265235Y-123526247D01*
X107360473Y-123954819D02*
X107360473Y-122954819D01*
X107360473Y-123907200D02*
X107455711Y-123954819D01*
X107455711Y-123954819D02*
X107646187Y-123954819D01*
X107646187Y-123954819D02*
X107741425Y-123907200D01*
X107741425Y-123907200D02*
X107789044Y-123859580D01*
X107789044Y-123859580D02*
X107836663Y-123764342D01*
X107836663Y-123764342D02*
X107836663Y-123478628D01*
X107836663Y-123478628D02*
X107789044Y-123383390D01*
X107789044Y-123383390D02*
X107741425Y-123335771D01*
X107741425Y-123335771D02*
X107646187Y-123288152D01*
X107646187Y-123288152D02*
X107455711Y-123288152D01*
X107455711Y-123288152D02*
X107360473Y-123335771D01*
X106503330Y-123907200D02*
X106598568Y-123954819D01*
X106598568Y-123954819D02*
X106789044Y-123954819D01*
X106789044Y-123954819D02*
X106884282Y-123907200D01*
X106884282Y-123907200D02*
X106931901Y-123811961D01*
X106931901Y-123811961D02*
X106931901Y-123431009D01*
X106931901Y-123431009D02*
X106884282Y-123335771D01*
X106884282Y-123335771D02*
X106789044Y-123288152D01*
X106789044Y-123288152D02*
X106598568Y-123288152D01*
X106598568Y-123288152D02*
X106503330Y-123335771D01*
X106503330Y-123335771D02*
X106455711Y-123431009D01*
X106455711Y-123431009D02*
X106455711Y-123526247D01*
X106455711Y-123526247D02*
X106931901Y-123621485D01*
X106027139Y-123954819D02*
X106027139Y-123288152D01*
X106027139Y-123478628D02*
X105979520Y-123383390D01*
X105979520Y-123383390D02*
X105931901Y-123335771D01*
X105931901Y-123335771D02*
X105836663Y-123288152D01*
X105836663Y-123288152D02*
X105741425Y-123288152D01*
X146789051Y-126931009D02*
X147122384Y-126931009D01*
X147122384Y-127454819D02*
X147122384Y-126454819D01*
X147122384Y-126454819D02*
X146646194Y-126454819D01*
X145741432Y-127454819D02*
X146312860Y-127454819D01*
X146027146Y-127454819D02*
X146027146Y-126454819D01*
X146027146Y-126454819D02*
X146122384Y-126597676D01*
X146122384Y-126597676D02*
X146217622Y-126692914D01*
X146217622Y-126692914D02*
X146312860Y-126740533D01*
X144360479Y-126454819D02*
X144265241Y-126454819D01*
X144265241Y-126454819D02*
X144170003Y-126502438D01*
X144170003Y-126502438D02*
X144122384Y-126550057D01*
X144122384Y-126550057D02*
X144074765Y-126645295D01*
X144074765Y-126645295D02*
X144027146Y-126835771D01*
X144027146Y-126835771D02*
X144027146Y-127073866D01*
X144027146Y-127073866D02*
X144074765Y-127264342D01*
X144074765Y-127264342D02*
X144122384Y-127359580D01*
X144122384Y-127359580D02*
X144170003Y-127407200D01*
X144170003Y-127407200D02*
X144265241Y-127454819D01*
X144265241Y-127454819D02*
X144360479Y-127454819D01*
X144360479Y-127454819D02*
X144455717Y-127407200D01*
X144455717Y-127407200D02*
X144503336Y-127359580D01*
X144503336Y-127359580D02*
X144550955Y-127264342D01*
X144550955Y-127264342D02*
X144598574Y-127073866D01*
X144598574Y-127073866D02*
X144598574Y-126835771D01*
X144598574Y-126835771D02*
X144550955Y-126645295D01*
X144550955Y-126645295D02*
X144503336Y-126550057D01*
X144503336Y-126550057D02*
X144455717Y-126502438D01*
X144455717Y-126502438D02*
X144360479Y-126454819D01*
X143598574Y-127359580D02*
X143550955Y-127407200D01*
X143550955Y-127407200D02*
X143598574Y-127454819D01*
X143598574Y-127454819D02*
X143646193Y-127407200D01*
X143646193Y-127407200D02*
X143598574Y-127359580D01*
X143598574Y-127359580D02*
X143598574Y-127454819D01*
X142646194Y-126454819D02*
X143122384Y-126454819D01*
X143122384Y-126454819D02*
X143170003Y-126931009D01*
X143170003Y-126931009D02*
X143122384Y-126883390D01*
X143122384Y-126883390D02*
X143027146Y-126835771D01*
X143027146Y-126835771D02*
X142789051Y-126835771D01*
X142789051Y-126835771D02*
X142693813Y-126883390D01*
X142693813Y-126883390D02*
X142646194Y-126931009D01*
X142646194Y-126931009D02*
X142598575Y-127026247D01*
X142598575Y-127026247D02*
X142598575Y-127264342D01*
X142598575Y-127264342D02*
X142646194Y-127359580D01*
X142646194Y-127359580D02*
X142693813Y-127407200D01*
X142693813Y-127407200D02*
X142789051Y-127454819D01*
X142789051Y-127454819D02*
X143027146Y-127454819D01*
X143027146Y-127454819D02*
X143122384Y-127407200D01*
X143122384Y-127407200D02*
X143170003Y-127359580D01*
X142217622Y-127169104D02*
X141741432Y-127169104D01*
X142312860Y-127454819D02*
X141979527Y-126454819D01*
X141979527Y-126454819D02*
X141646194Y-127454819D01*
X140550955Y-126788152D02*
X140550955Y-127788152D01*
X140550955Y-126835771D02*
X140455717Y-126788152D01*
X140455717Y-126788152D02*
X140265241Y-126788152D01*
X140265241Y-126788152D02*
X140170003Y-126835771D01*
X140170003Y-126835771D02*
X140122384Y-126883390D01*
X140122384Y-126883390D02*
X140074765Y-126978628D01*
X140074765Y-126978628D02*
X140074765Y-127264342D01*
X140074765Y-127264342D02*
X140122384Y-127359580D01*
X140122384Y-127359580D02*
X140170003Y-127407200D01*
X140170003Y-127407200D02*
X140265241Y-127454819D01*
X140265241Y-127454819D02*
X140455717Y-127454819D01*
X140455717Y-127454819D02*
X140550955Y-127407200D01*
X139503336Y-127454819D02*
X139598574Y-127407200D01*
X139598574Y-127407200D02*
X139646193Y-127359580D01*
X139646193Y-127359580D02*
X139693812Y-127264342D01*
X139693812Y-127264342D02*
X139693812Y-126978628D01*
X139693812Y-126978628D02*
X139646193Y-126883390D01*
X139646193Y-126883390D02*
X139598574Y-126835771D01*
X139598574Y-126835771D02*
X139503336Y-126788152D01*
X139503336Y-126788152D02*
X139360479Y-126788152D01*
X139360479Y-126788152D02*
X139265241Y-126835771D01*
X139265241Y-126835771D02*
X139217622Y-126883390D01*
X139217622Y-126883390D02*
X139170003Y-126978628D01*
X139170003Y-126978628D02*
X139170003Y-127264342D01*
X139170003Y-127264342D02*
X139217622Y-127359580D01*
X139217622Y-127359580D02*
X139265241Y-127407200D01*
X139265241Y-127407200D02*
X139360479Y-127454819D01*
X139360479Y-127454819D02*
X139503336Y-127454819D01*
X138598574Y-127454819D02*
X138693812Y-127407200D01*
X138693812Y-127407200D02*
X138741431Y-127311961D01*
X138741431Y-127311961D02*
X138741431Y-126454819D01*
X138312859Y-126788152D02*
X138074764Y-127454819D01*
X137836669Y-126788152D02*
X138074764Y-127454819D01*
X138074764Y-127454819D02*
X138170002Y-127692914D01*
X138170002Y-127692914D02*
X138217621Y-127740533D01*
X138217621Y-127740533D02*
X138312859Y-127788152D01*
X137598573Y-126788152D02*
X137217621Y-126788152D01*
X137455716Y-127454819D02*
X137455716Y-126597676D01*
X137455716Y-126597676D02*
X137408097Y-126502438D01*
X137408097Y-126502438D02*
X137312859Y-126454819D01*
X137312859Y-126454819D02*
X137217621Y-126454819D01*
X136455716Y-126788152D02*
X136455716Y-127454819D01*
X136884287Y-126788152D02*
X136884287Y-127311961D01*
X136884287Y-127311961D02*
X136836668Y-127407200D01*
X136836668Y-127407200D02*
X136741430Y-127454819D01*
X136741430Y-127454819D02*
X136598573Y-127454819D01*
X136598573Y-127454819D02*
X136503335Y-127407200D01*
X136503335Y-127407200D02*
X136455716Y-127359580D01*
X136027144Y-127407200D02*
X135931906Y-127454819D01*
X135931906Y-127454819D02*
X135741430Y-127454819D01*
X135741430Y-127454819D02*
X135646192Y-127407200D01*
X135646192Y-127407200D02*
X135598573Y-127311961D01*
X135598573Y-127311961D02*
X135598573Y-127264342D01*
X135598573Y-127264342D02*
X135646192Y-127169104D01*
X135646192Y-127169104D02*
X135741430Y-127121485D01*
X135741430Y-127121485D02*
X135884287Y-127121485D01*
X135884287Y-127121485D02*
X135979525Y-127073866D01*
X135979525Y-127073866D02*
X136027144Y-126978628D01*
X136027144Y-126978628D02*
X136027144Y-126931009D01*
X136027144Y-126931009D02*
X135979525Y-126835771D01*
X135979525Y-126835771D02*
X135884287Y-126788152D01*
X135884287Y-126788152D02*
X135741430Y-126788152D01*
X135741430Y-126788152D02*
X135646192Y-126835771D01*
X134789049Y-127407200D02*
X134884287Y-127454819D01*
X134884287Y-127454819D02*
X135074763Y-127454819D01*
X135074763Y-127454819D02*
X135170001Y-127407200D01*
X135170001Y-127407200D02*
X135217620Y-127311961D01*
X135217620Y-127311961D02*
X135217620Y-126931009D01*
X135217620Y-126931009D02*
X135170001Y-126835771D01*
X135170001Y-126835771D02*
X135074763Y-126788152D01*
X135074763Y-126788152D02*
X134884287Y-126788152D01*
X134884287Y-126788152D02*
X134789049Y-126835771D01*
X134789049Y-126835771D02*
X134741430Y-126931009D01*
X134741430Y-126931009D02*
X134741430Y-127026247D01*
X134741430Y-127026247D02*
X135217620Y-127121485D01*
X133408096Y-127454819D02*
X133503334Y-127407200D01*
X133503334Y-127407200D02*
X133550953Y-127359580D01*
X133550953Y-127359580D02*
X133598572Y-127264342D01*
X133598572Y-127264342D02*
X133598572Y-126978628D01*
X133598572Y-126978628D02*
X133550953Y-126883390D01*
X133550953Y-126883390D02*
X133503334Y-126835771D01*
X133503334Y-126835771D02*
X133408096Y-126788152D01*
X133408096Y-126788152D02*
X133265239Y-126788152D01*
X133265239Y-126788152D02*
X133170001Y-126835771D01*
X133170001Y-126835771D02*
X133122382Y-126883390D01*
X133122382Y-126883390D02*
X133074763Y-126978628D01*
X133074763Y-126978628D02*
X133074763Y-127264342D01*
X133074763Y-127264342D02*
X133122382Y-127359580D01*
X133122382Y-127359580D02*
X133170001Y-127407200D01*
X133170001Y-127407200D02*
X133265239Y-127454819D01*
X133265239Y-127454819D02*
X133408096Y-127454819D01*
X132646191Y-126788152D02*
X132646191Y-127454819D01*
X132646191Y-126883390D02*
X132598572Y-126835771D01*
X132598572Y-126835771D02*
X132503334Y-126788152D01*
X132503334Y-126788152D02*
X132360477Y-126788152D01*
X132360477Y-126788152D02*
X132265239Y-126835771D01*
X132265239Y-126835771D02*
X132217620Y-126931009D01*
X132217620Y-126931009D02*
X132217620Y-127454819D01*
X130979524Y-127073866D02*
X130217620Y-127073866D01*
X130598572Y-127454819D02*
X130598572Y-126692914D01*
X129265239Y-126454819D02*
X129741429Y-126454819D01*
X129741429Y-126454819D02*
X129789048Y-126931009D01*
X129789048Y-126931009D02*
X129741429Y-126883390D01*
X129741429Y-126883390D02*
X129646191Y-126835771D01*
X129646191Y-126835771D02*
X129408096Y-126835771D01*
X129408096Y-126835771D02*
X129312858Y-126883390D01*
X129312858Y-126883390D02*
X129265239Y-126931009D01*
X129265239Y-126931009D02*
X129217620Y-127026247D01*
X129217620Y-127026247D02*
X129217620Y-127264342D01*
X129217620Y-127264342D02*
X129265239Y-127359580D01*
X129265239Y-127359580D02*
X129312858Y-127407200D01*
X129312858Y-127407200D02*
X129408096Y-127454819D01*
X129408096Y-127454819D02*
X129646191Y-127454819D01*
X129646191Y-127454819D02*
X129741429Y-127407200D01*
X129741429Y-127407200D02*
X129789048Y-127359580D01*
X128931905Y-126454819D02*
X128598572Y-127454819D01*
X128598572Y-127454819D02*
X128265239Y-126454819D01*
X125646190Y-126788152D02*
X125646190Y-127788152D01*
X125646190Y-126835771D02*
X125550952Y-126788152D01*
X125550952Y-126788152D02*
X125360476Y-126788152D01*
X125360476Y-126788152D02*
X125265238Y-126835771D01*
X125265238Y-126835771D02*
X125217619Y-126883390D01*
X125217619Y-126883390D02*
X125170000Y-126978628D01*
X125170000Y-126978628D02*
X125170000Y-127264342D01*
X125170000Y-127264342D02*
X125217619Y-127359580D01*
X125217619Y-127359580D02*
X125265238Y-127407200D01*
X125265238Y-127407200D02*
X125360476Y-127454819D01*
X125360476Y-127454819D02*
X125550952Y-127454819D01*
X125550952Y-127454819D02*
X125646190Y-127407200D01*
X124598571Y-127454819D02*
X124693809Y-127407200D01*
X124693809Y-127407200D02*
X124741428Y-127359580D01*
X124741428Y-127359580D02*
X124789047Y-127264342D01*
X124789047Y-127264342D02*
X124789047Y-126978628D01*
X124789047Y-126978628D02*
X124741428Y-126883390D01*
X124741428Y-126883390D02*
X124693809Y-126835771D01*
X124693809Y-126835771D02*
X124598571Y-126788152D01*
X124598571Y-126788152D02*
X124455714Y-126788152D01*
X124455714Y-126788152D02*
X124360476Y-126835771D01*
X124360476Y-126835771D02*
X124312857Y-126883390D01*
X124312857Y-126883390D02*
X124265238Y-126978628D01*
X124265238Y-126978628D02*
X124265238Y-127264342D01*
X124265238Y-127264342D02*
X124312857Y-127359580D01*
X124312857Y-127359580D02*
X124360476Y-127407200D01*
X124360476Y-127407200D02*
X124455714Y-127454819D01*
X124455714Y-127454819D02*
X124598571Y-127454819D01*
X123931904Y-126788152D02*
X123741428Y-127454819D01*
X123741428Y-127454819D02*
X123550952Y-126978628D01*
X123550952Y-126978628D02*
X123360476Y-127454819D01*
X123360476Y-127454819D02*
X123170000Y-126788152D01*
X122408095Y-127407200D02*
X122503333Y-127454819D01*
X122503333Y-127454819D02*
X122693809Y-127454819D01*
X122693809Y-127454819D02*
X122789047Y-127407200D01*
X122789047Y-127407200D02*
X122836666Y-127311961D01*
X122836666Y-127311961D02*
X122836666Y-126931009D01*
X122836666Y-126931009D02*
X122789047Y-126835771D01*
X122789047Y-126835771D02*
X122693809Y-126788152D01*
X122693809Y-126788152D02*
X122503333Y-126788152D01*
X122503333Y-126788152D02*
X122408095Y-126835771D01*
X122408095Y-126835771D02*
X122360476Y-126931009D01*
X122360476Y-126931009D02*
X122360476Y-127026247D01*
X122360476Y-127026247D02*
X122836666Y-127121485D01*
X121931904Y-127454819D02*
X121931904Y-126788152D01*
X121931904Y-126978628D02*
X121884285Y-126883390D01*
X121884285Y-126883390D02*
X121836666Y-126835771D01*
X121836666Y-126835771D02*
X121741428Y-126788152D01*
X121741428Y-126788152D02*
X121646190Y-126788152D01*
X120408094Y-127454819D02*
X120503332Y-127407200D01*
X120503332Y-127407200D02*
X120550951Y-127359580D01*
X120550951Y-127359580D02*
X120598570Y-127264342D01*
X120598570Y-127264342D02*
X120598570Y-126978628D01*
X120598570Y-126978628D02*
X120550951Y-126883390D01*
X120550951Y-126883390D02*
X120503332Y-126835771D01*
X120503332Y-126835771D02*
X120408094Y-126788152D01*
X120408094Y-126788152D02*
X120265237Y-126788152D01*
X120265237Y-126788152D02*
X120169999Y-126835771D01*
X120169999Y-126835771D02*
X120122380Y-126883390D01*
X120122380Y-126883390D02*
X120074761Y-126978628D01*
X120074761Y-126978628D02*
X120074761Y-127264342D01*
X120074761Y-127264342D02*
X120122380Y-127359580D01*
X120122380Y-127359580D02*
X120169999Y-127407200D01*
X120169999Y-127407200D02*
X120265237Y-127454819D01*
X120265237Y-127454819D02*
X120408094Y-127454819D01*
X119789046Y-126788152D02*
X119408094Y-126788152D01*
X119646189Y-127454819D02*
X119646189Y-126597676D01*
X119646189Y-126597676D02*
X119598570Y-126502438D01*
X119598570Y-126502438D02*
X119503332Y-126454819D01*
X119503332Y-126454819D02*
X119408094Y-126454819D01*
X119217617Y-126788152D02*
X118836665Y-126788152D01*
X119074760Y-127454819D02*
X119074760Y-126597676D01*
X119074760Y-126597676D02*
X119027141Y-126502438D01*
X119027141Y-126502438D02*
X118931903Y-126454819D01*
X118931903Y-126454819D02*
X118836665Y-126454819D01*
X117741426Y-127454819D02*
X117741426Y-126454819D01*
X117741426Y-126835771D02*
X117646188Y-126788152D01*
X117646188Y-126788152D02*
X117455712Y-126788152D01*
X117455712Y-126788152D02*
X117360474Y-126835771D01*
X117360474Y-126835771D02*
X117312855Y-126883390D01*
X117312855Y-126883390D02*
X117265236Y-126978628D01*
X117265236Y-126978628D02*
X117265236Y-127264342D01*
X117265236Y-127264342D02*
X117312855Y-127359580D01*
X117312855Y-127359580D02*
X117360474Y-127407200D01*
X117360474Y-127407200D02*
X117455712Y-127454819D01*
X117455712Y-127454819D02*
X117646188Y-127454819D01*
X117646188Y-127454819D02*
X117741426Y-127407200D01*
X116455712Y-127407200D02*
X116550950Y-127454819D01*
X116550950Y-127454819D02*
X116741426Y-127454819D01*
X116741426Y-127454819D02*
X116836664Y-127407200D01*
X116836664Y-127407200D02*
X116884283Y-127311961D01*
X116884283Y-127311961D02*
X116884283Y-126931009D01*
X116884283Y-126931009D02*
X116836664Y-126835771D01*
X116836664Y-126835771D02*
X116741426Y-126788152D01*
X116741426Y-126788152D02*
X116550950Y-126788152D01*
X116550950Y-126788152D02*
X116455712Y-126835771D01*
X116455712Y-126835771D02*
X116408093Y-126931009D01*
X116408093Y-126931009D02*
X116408093Y-127026247D01*
X116408093Y-127026247D02*
X116884283Y-127121485D01*
X116122378Y-126788152D02*
X115741426Y-126788152D01*
X115979521Y-127454819D02*
X115979521Y-126597676D01*
X115979521Y-126597676D02*
X115931902Y-126502438D01*
X115931902Y-126502438D02*
X115836664Y-126454819D01*
X115836664Y-126454819D02*
X115741426Y-126454819D01*
X115265235Y-127454819D02*
X115360473Y-127407200D01*
X115360473Y-127407200D02*
X115408092Y-127359580D01*
X115408092Y-127359580D02*
X115455711Y-127264342D01*
X115455711Y-127264342D02*
X115455711Y-126978628D01*
X115455711Y-126978628D02*
X115408092Y-126883390D01*
X115408092Y-126883390D02*
X115360473Y-126835771D01*
X115360473Y-126835771D02*
X115265235Y-126788152D01*
X115265235Y-126788152D02*
X115122378Y-126788152D01*
X115122378Y-126788152D02*
X115027140Y-126835771D01*
X115027140Y-126835771D02*
X114979521Y-126883390D01*
X114979521Y-126883390D02*
X114931902Y-126978628D01*
X114931902Y-126978628D02*
X114931902Y-127264342D01*
X114931902Y-127264342D02*
X114979521Y-127359580D01*
X114979521Y-127359580D02*
X115027140Y-127407200D01*
X115027140Y-127407200D02*
X115122378Y-127454819D01*
X115122378Y-127454819D02*
X115265235Y-127454819D01*
X114503330Y-127454819D02*
X114503330Y-126788152D01*
X114503330Y-126978628D02*
X114455711Y-126883390D01*
X114455711Y-126883390D02*
X114408092Y-126835771D01*
X114408092Y-126835771D02*
X114312854Y-126788152D01*
X114312854Y-126788152D02*
X114217616Y-126788152D01*
X113503330Y-127407200D02*
X113598568Y-127454819D01*
X113598568Y-127454819D02*
X113789044Y-127454819D01*
X113789044Y-127454819D02*
X113884282Y-127407200D01*
X113884282Y-127407200D02*
X113931901Y-127311961D01*
X113931901Y-127311961D02*
X113931901Y-126931009D01*
X113931901Y-126931009D02*
X113884282Y-126835771D01*
X113884282Y-126835771D02*
X113789044Y-126788152D01*
X113789044Y-126788152D02*
X113598568Y-126788152D01*
X113598568Y-126788152D02*
X113503330Y-126835771D01*
X113503330Y-126835771D02*
X113455711Y-126931009D01*
X113455711Y-126931009D02*
X113455711Y-127026247D01*
X113455711Y-127026247D02*
X113931901Y-127121485D01*
X112265234Y-127454819D02*
X112265234Y-126788152D01*
X112265234Y-126454819D02*
X112312853Y-126502438D01*
X112312853Y-126502438D02*
X112265234Y-126550057D01*
X112265234Y-126550057D02*
X112217615Y-126502438D01*
X112217615Y-126502438D02*
X112265234Y-126454819D01*
X112265234Y-126454819D02*
X112265234Y-126550057D01*
X111789044Y-126788152D02*
X111789044Y-127454819D01*
X111789044Y-126883390D02*
X111741425Y-126835771D01*
X111741425Y-126835771D02*
X111646187Y-126788152D01*
X111646187Y-126788152D02*
X111503330Y-126788152D01*
X111503330Y-126788152D02*
X111408092Y-126835771D01*
X111408092Y-126835771D02*
X111360473Y-126931009D01*
X111360473Y-126931009D02*
X111360473Y-127454819D01*
X110931901Y-127407200D02*
X110836663Y-127454819D01*
X110836663Y-127454819D02*
X110646187Y-127454819D01*
X110646187Y-127454819D02*
X110550949Y-127407200D01*
X110550949Y-127407200D02*
X110503330Y-127311961D01*
X110503330Y-127311961D02*
X110503330Y-127264342D01*
X110503330Y-127264342D02*
X110550949Y-127169104D01*
X110550949Y-127169104D02*
X110646187Y-127121485D01*
X110646187Y-127121485D02*
X110789044Y-127121485D01*
X110789044Y-127121485D02*
X110884282Y-127073866D01*
X110884282Y-127073866D02*
X110931901Y-126978628D01*
X110931901Y-126978628D02*
X110931901Y-126931009D01*
X110931901Y-126931009D02*
X110884282Y-126835771D01*
X110884282Y-126835771D02*
X110789044Y-126788152D01*
X110789044Y-126788152D02*
X110646187Y-126788152D01*
X110646187Y-126788152D02*
X110550949Y-126835771D01*
X109693806Y-127407200D02*
X109789044Y-127454819D01*
X109789044Y-127454819D02*
X109979520Y-127454819D01*
X109979520Y-127454819D02*
X110074758Y-127407200D01*
X110074758Y-127407200D02*
X110122377Y-127311961D01*
X110122377Y-127311961D02*
X110122377Y-126931009D01*
X110122377Y-126931009D02*
X110074758Y-126835771D01*
X110074758Y-126835771D02*
X109979520Y-126788152D01*
X109979520Y-126788152D02*
X109789044Y-126788152D01*
X109789044Y-126788152D02*
X109693806Y-126835771D01*
X109693806Y-126835771D02*
X109646187Y-126931009D01*
X109646187Y-126931009D02*
X109646187Y-127026247D01*
X109646187Y-127026247D02*
X110122377Y-127121485D01*
X109217615Y-127454819D02*
X109217615Y-126788152D01*
X109217615Y-126978628D02*
X109169996Y-126883390D01*
X109169996Y-126883390D02*
X109122377Y-126835771D01*
X109122377Y-126835771D02*
X109027139Y-126788152D01*
X109027139Y-126788152D02*
X108931901Y-126788152D01*
X108741424Y-126788152D02*
X108360472Y-126788152D01*
X108598567Y-126454819D02*
X108598567Y-127311961D01*
X108598567Y-127311961D02*
X108550948Y-127407200D01*
X108550948Y-127407200D02*
X108455710Y-127454819D01*
X108455710Y-127454819D02*
X108360472Y-127454819D01*
X108027138Y-127454819D02*
X108027138Y-126788152D01*
X108027138Y-126454819D02*
X108074757Y-126502438D01*
X108074757Y-126502438D02*
X108027138Y-126550057D01*
X108027138Y-126550057D02*
X107979519Y-126502438D01*
X107979519Y-126502438D02*
X108027138Y-126454819D01*
X108027138Y-126454819D02*
X108027138Y-126550057D01*
X107550948Y-126788152D02*
X107550948Y-127454819D01*
X107550948Y-126883390D02*
X107503329Y-126835771D01*
X107503329Y-126835771D02*
X107408091Y-126788152D01*
X107408091Y-126788152D02*
X107265234Y-126788152D01*
X107265234Y-126788152D02*
X107169996Y-126835771D01*
X107169996Y-126835771D02*
X107122377Y-126931009D01*
X107122377Y-126931009D02*
X107122377Y-127454819D01*
X106217615Y-126788152D02*
X106217615Y-127597676D01*
X106217615Y-127597676D02*
X106265234Y-127692914D01*
X106265234Y-127692914D02*
X106312853Y-127740533D01*
X106312853Y-127740533D02*
X106408091Y-127788152D01*
X106408091Y-127788152D02*
X106550948Y-127788152D01*
X106550948Y-127788152D02*
X106646186Y-127740533D01*
X106217615Y-127407200D02*
X106312853Y-127454819D01*
X106312853Y-127454819D02*
X106503329Y-127454819D01*
X106503329Y-127454819D02*
X106598567Y-127407200D01*
X106598567Y-127407200D02*
X106646186Y-127359580D01*
X106646186Y-127359580D02*
X106693805Y-127264342D01*
X106693805Y-127264342D02*
X106693805Y-126978628D01*
X106693805Y-126978628D02*
X106646186Y-126883390D01*
X106646186Y-126883390D02*
X106598567Y-126835771D01*
X106598567Y-126835771D02*
X106503329Y-126788152D01*
X106503329Y-126788152D02*
X106312853Y-126788152D01*
X106312853Y-126788152D02*
X106217615Y-126835771D01*
X141074762Y-130954819D02*
X141074762Y-129954819D01*
X141074762Y-129954819D02*
X140503334Y-130954819D01*
X140503334Y-130954819D02*
X140503334Y-129954819D01*
X139598572Y-130954819D02*
X139598572Y-130431009D01*
X139598572Y-130431009D02*
X139646191Y-130335771D01*
X139646191Y-130335771D02*
X139741429Y-130288152D01*
X139741429Y-130288152D02*
X139931905Y-130288152D01*
X139931905Y-130288152D02*
X140027143Y-130335771D01*
X139598572Y-130907200D02*
X139693810Y-130954819D01*
X139693810Y-130954819D02*
X139931905Y-130954819D01*
X139931905Y-130954819D02*
X140027143Y-130907200D01*
X140027143Y-130907200D02*
X140074762Y-130811961D01*
X140074762Y-130811961D02*
X140074762Y-130716723D01*
X140074762Y-130716723D02*
X140027143Y-130621485D01*
X140027143Y-130621485D02*
X139931905Y-130573866D01*
X139931905Y-130573866D02*
X139693810Y-130573866D01*
X139693810Y-130573866D02*
X139598572Y-130526247D01*
X139265238Y-130288152D02*
X138884286Y-130288152D01*
X139122381Y-129954819D02*
X139122381Y-130811961D01*
X139122381Y-130811961D02*
X139074762Y-130907200D01*
X139074762Y-130907200D02*
X138979524Y-130954819D01*
X138979524Y-130954819D02*
X138884286Y-130954819D01*
X138550952Y-130954819D02*
X138550952Y-129954819D01*
X138122381Y-130954819D02*
X138122381Y-130431009D01*
X138122381Y-130431009D02*
X138170000Y-130335771D01*
X138170000Y-130335771D02*
X138265238Y-130288152D01*
X138265238Y-130288152D02*
X138408095Y-130288152D01*
X138408095Y-130288152D02*
X138503333Y-130335771D01*
X138503333Y-130335771D02*
X138550952Y-130383390D01*
X137217619Y-130954819D02*
X137217619Y-130431009D01*
X137217619Y-130431009D02*
X137265238Y-130335771D01*
X137265238Y-130335771D02*
X137360476Y-130288152D01*
X137360476Y-130288152D02*
X137550952Y-130288152D01*
X137550952Y-130288152D02*
X137646190Y-130335771D01*
X137217619Y-130907200D02*
X137312857Y-130954819D01*
X137312857Y-130954819D02*
X137550952Y-130954819D01*
X137550952Y-130954819D02*
X137646190Y-130907200D01*
X137646190Y-130907200D02*
X137693809Y-130811961D01*
X137693809Y-130811961D02*
X137693809Y-130716723D01*
X137693809Y-130716723D02*
X137646190Y-130621485D01*
X137646190Y-130621485D02*
X137550952Y-130573866D01*
X137550952Y-130573866D02*
X137312857Y-130573866D01*
X137312857Y-130573866D02*
X137217619Y-130526247D01*
X136741428Y-130288152D02*
X136741428Y-130954819D01*
X136741428Y-130383390D02*
X136693809Y-130335771D01*
X136693809Y-130335771D02*
X136598571Y-130288152D01*
X136598571Y-130288152D02*
X136455714Y-130288152D01*
X136455714Y-130288152D02*
X136360476Y-130335771D01*
X136360476Y-130335771D02*
X136312857Y-130431009D01*
X136312857Y-130431009D02*
X136312857Y-130954819D01*
X134741428Y-130431009D02*
X134598571Y-130478628D01*
X134598571Y-130478628D02*
X134550952Y-130526247D01*
X134550952Y-130526247D02*
X134503333Y-130621485D01*
X134503333Y-130621485D02*
X134503333Y-130764342D01*
X134503333Y-130764342D02*
X134550952Y-130859580D01*
X134550952Y-130859580D02*
X134598571Y-130907200D01*
X134598571Y-130907200D02*
X134693809Y-130954819D01*
X134693809Y-130954819D02*
X135074761Y-130954819D01*
X135074761Y-130954819D02*
X135074761Y-129954819D01*
X135074761Y-129954819D02*
X134741428Y-129954819D01*
X134741428Y-129954819D02*
X134646190Y-130002438D01*
X134646190Y-130002438D02*
X134598571Y-130050057D01*
X134598571Y-130050057D02*
X134550952Y-130145295D01*
X134550952Y-130145295D02*
X134550952Y-130240533D01*
X134550952Y-130240533D02*
X134598571Y-130335771D01*
X134598571Y-130335771D02*
X134646190Y-130383390D01*
X134646190Y-130383390D02*
X134741428Y-130431009D01*
X134741428Y-130431009D02*
X135074761Y-130431009D01*
X134169999Y-130288152D02*
X133931904Y-130954819D01*
X133693809Y-130288152D02*
X133931904Y-130954819D01*
X133931904Y-130954819D02*
X134027142Y-131192914D01*
X134027142Y-131192914D02*
X134074761Y-131240533D01*
X134074761Y-131240533D02*
X134169999Y-131288152D01*
X133312856Y-130954819D02*
X133312856Y-130288152D01*
X133312856Y-130478628D02*
X133265237Y-130383390D01*
X133265237Y-130383390D02*
X133217618Y-130335771D01*
X133217618Y-130335771D02*
X133122380Y-130288152D01*
X133122380Y-130288152D02*
X133027142Y-130288152D01*
X132265237Y-130954819D02*
X132265237Y-129954819D01*
X132265237Y-130907200D02*
X132360475Y-130954819D01*
X132360475Y-130954819D02*
X132550951Y-130954819D01*
X132550951Y-130954819D02*
X132646189Y-130907200D01*
X132646189Y-130907200D02*
X132693808Y-130859580D01*
X132693808Y-130859580D02*
X132741427Y-130764342D01*
X132741427Y-130764342D02*
X132741427Y-130478628D01*
X132741427Y-130478628D02*
X132693808Y-130383390D01*
X132693808Y-130383390D02*
X132646189Y-130335771D01*
X132646189Y-130335771D02*
X132550951Y-130288152D01*
X132550951Y-130288152D02*
X132360475Y-130288152D01*
X132360475Y-130288152D02*
X132265237Y-130335771D01*
X131074760Y-130050057D02*
X131027141Y-130002438D01*
X131027141Y-130002438D02*
X130931903Y-129954819D01*
X130931903Y-129954819D02*
X130693808Y-129954819D01*
X130693808Y-129954819D02*
X130598570Y-130002438D01*
X130598570Y-130002438D02*
X130550951Y-130050057D01*
X130550951Y-130050057D02*
X130503332Y-130145295D01*
X130503332Y-130145295D02*
X130503332Y-130240533D01*
X130503332Y-130240533D02*
X130550951Y-130383390D01*
X130550951Y-130383390D02*
X131122379Y-130954819D01*
X131122379Y-130954819D02*
X130503332Y-130954819D01*
X129884284Y-129954819D02*
X129789046Y-129954819D01*
X129789046Y-129954819D02*
X129693808Y-130002438D01*
X129693808Y-130002438D02*
X129646189Y-130050057D01*
X129646189Y-130050057D02*
X129598570Y-130145295D01*
X129598570Y-130145295D02*
X129550951Y-130335771D01*
X129550951Y-130335771D02*
X129550951Y-130573866D01*
X129550951Y-130573866D02*
X129598570Y-130764342D01*
X129598570Y-130764342D02*
X129646189Y-130859580D01*
X129646189Y-130859580D02*
X129693808Y-130907200D01*
X129693808Y-130907200D02*
X129789046Y-130954819D01*
X129789046Y-130954819D02*
X129884284Y-130954819D01*
X129884284Y-130954819D02*
X129979522Y-130907200D01*
X129979522Y-130907200D02*
X130027141Y-130859580D01*
X130027141Y-130859580D02*
X130074760Y-130764342D01*
X130074760Y-130764342D02*
X130122379Y-130573866D01*
X130122379Y-130573866D02*
X130122379Y-130335771D01*
X130122379Y-130335771D02*
X130074760Y-130145295D01*
X130074760Y-130145295D02*
X130027141Y-130050057D01*
X130027141Y-130050057D02*
X129979522Y-130002438D01*
X129979522Y-130002438D02*
X129884284Y-129954819D01*
X129169998Y-130050057D02*
X129122379Y-130002438D01*
X129122379Y-130002438D02*
X129027141Y-129954819D01*
X129027141Y-129954819D02*
X128789046Y-129954819D01*
X128789046Y-129954819D02*
X128693808Y-130002438D01*
X128693808Y-130002438D02*
X128646189Y-130050057D01*
X128646189Y-130050057D02*
X128598570Y-130145295D01*
X128598570Y-130145295D02*
X128598570Y-130240533D01*
X128598570Y-130240533D02*
X128646189Y-130383390D01*
X128646189Y-130383390D02*
X129217617Y-130954819D01*
X129217617Y-130954819D02*
X128598570Y-130954819D01*
X127741427Y-129954819D02*
X127931903Y-129954819D01*
X127931903Y-129954819D02*
X128027141Y-130002438D01*
X128027141Y-130002438D02*
X128074760Y-130050057D01*
X128074760Y-130050057D02*
X128169998Y-130192914D01*
X128169998Y-130192914D02*
X128217617Y-130383390D01*
X128217617Y-130383390D02*
X128217617Y-130764342D01*
X128217617Y-130764342D02*
X128169998Y-130859580D01*
X128169998Y-130859580D02*
X128122379Y-130907200D01*
X128122379Y-130907200D02*
X128027141Y-130954819D01*
X128027141Y-130954819D02*
X127836665Y-130954819D01*
X127836665Y-130954819D02*
X127741427Y-130907200D01*
X127741427Y-130907200D02*
X127693808Y-130859580D01*
X127693808Y-130859580D02*
X127646189Y-130764342D01*
X127646189Y-130764342D02*
X127646189Y-130526247D01*
X127646189Y-130526247D02*
X127693808Y-130431009D01*
X127693808Y-130431009D02*
X127741427Y-130383390D01*
X127741427Y-130383390D02*
X127836665Y-130335771D01*
X127836665Y-130335771D02*
X128027141Y-130335771D01*
X128027141Y-130335771D02*
X128122379Y-130383390D01*
X128122379Y-130383390D02*
X128169998Y-130431009D01*
X128169998Y-130431009D02*
X128217617Y-130526247D01*
X125122379Y-130859580D02*
X125169998Y-130907200D01*
X125169998Y-130907200D02*
X125312855Y-130954819D01*
X125312855Y-130954819D02*
X125408093Y-130954819D01*
X125408093Y-130954819D02*
X125550950Y-130907200D01*
X125550950Y-130907200D02*
X125646188Y-130811961D01*
X125646188Y-130811961D02*
X125693807Y-130716723D01*
X125693807Y-130716723D02*
X125741426Y-130526247D01*
X125741426Y-130526247D02*
X125741426Y-130383390D01*
X125741426Y-130383390D02*
X125693807Y-130192914D01*
X125693807Y-130192914D02*
X125646188Y-130097676D01*
X125646188Y-130097676D02*
X125550950Y-130002438D01*
X125550950Y-130002438D02*
X125408093Y-129954819D01*
X125408093Y-129954819D02*
X125312855Y-129954819D01*
X125312855Y-129954819D02*
X125169998Y-130002438D01*
X125169998Y-130002438D02*
X125122379Y-130050057D01*
X124693807Y-130431009D02*
X124360474Y-130431009D01*
X124217617Y-130954819D02*
X124693807Y-130954819D01*
X124693807Y-130954819D02*
X124693807Y-129954819D01*
X124693807Y-129954819D02*
X124217617Y-129954819D01*
X123217617Y-130954819D02*
X123550950Y-130478628D01*
X123789045Y-130954819D02*
X123789045Y-129954819D01*
X123789045Y-129954819D02*
X123408093Y-129954819D01*
X123408093Y-129954819D02*
X123312855Y-130002438D01*
X123312855Y-130002438D02*
X123265236Y-130050057D01*
X123265236Y-130050057D02*
X123217617Y-130145295D01*
X123217617Y-130145295D02*
X123217617Y-130288152D01*
X123217617Y-130288152D02*
X123265236Y-130383390D01*
X123265236Y-130383390D02*
X123312855Y-130431009D01*
X123312855Y-130431009D02*
X123408093Y-130478628D01*
X123408093Y-130478628D02*
X123789045Y-130478628D01*
X122789045Y-130954819D02*
X122789045Y-129954819D01*
X122789045Y-129954819D02*
X122217617Y-130954819D01*
X122217617Y-130954819D02*
X122217617Y-129954819D01*
X121741426Y-130573866D02*
X120979522Y-130573866D01*
X120312855Y-129954819D02*
X120122379Y-129954819D01*
X120122379Y-129954819D02*
X120027141Y-130002438D01*
X120027141Y-130002438D02*
X119931903Y-130097676D01*
X119931903Y-130097676D02*
X119884284Y-130288152D01*
X119884284Y-130288152D02*
X119884284Y-130621485D01*
X119884284Y-130621485D02*
X119931903Y-130811961D01*
X119931903Y-130811961D02*
X120027141Y-130907200D01*
X120027141Y-130907200D02*
X120122379Y-130954819D01*
X120122379Y-130954819D02*
X120312855Y-130954819D01*
X120312855Y-130954819D02*
X120408093Y-130907200D01*
X120408093Y-130907200D02*
X120503331Y-130811961D01*
X120503331Y-130811961D02*
X120550950Y-130621485D01*
X120550950Y-130621485D02*
X120550950Y-130288152D01*
X120550950Y-130288152D02*
X120503331Y-130097676D01*
X120503331Y-130097676D02*
X120408093Y-130002438D01*
X120408093Y-130002438D02*
X120312855Y-129954819D01*
X119455712Y-130954819D02*
X119455712Y-129954819D01*
X119455712Y-130431009D02*
X118884284Y-130431009D01*
X118884284Y-130954819D02*
X118884284Y-129954819D01*
X117931903Y-130954819D02*
X118408093Y-130954819D01*
X118408093Y-130954819D02*
X118408093Y-129954819D01*
X117598569Y-130573866D02*
X116836665Y-130573866D01*
X116408093Y-130907200D02*
X116265236Y-130954819D01*
X116265236Y-130954819D02*
X116027141Y-130954819D01*
X116027141Y-130954819D02*
X115931903Y-130907200D01*
X115931903Y-130907200D02*
X115884284Y-130859580D01*
X115884284Y-130859580D02*
X115836665Y-130764342D01*
X115836665Y-130764342D02*
X115836665Y-130669104D01*
X115836665Y-130669104D02*
X115884284Y-130573866D01*
X115884284Y-130573866D02*
X115931903Y-130526247D01*
X115931903Y-130526247D02*
X116027141Y-130478628D01*
X116027141Y-130478628D02*
X116217617Y-130431009D01*
X116217617Y-130431009D02*
X116312855Y-130383390D01*
X116312855Y-130383390D02*
X116360474Y-130335771D01*
X116360474Y-130335771D02*
X116408093Y-130240533D01*
X116408093Y-130240533D02*
X116408093Y-130145295D01*
X116408093Y-130145295D02*
X116360474Y-130050057D01*
X116360474Y-130050057D02*
X116312855Y-130002438D01*
X116312855Y-130002438D02*
X116217617Y-129954819D01*
X116217617Y-129954819D02*
X115979522Y-129954819D01*
X115979522Y-129954819D02*
X115836665Y-130002438D01*
X115408093Y-130573866D02*
X114646189Y-130573866D01*
X114217617Y-130050057D02*
X114169998Y-130002438D01*
X114169998Y-130002438D02*
X114074760Y-129954819D01*
X114074760Y-129954819D02*
X113836665Y-129954819D01*
X113836665Y-129954819D02*
X113741427Y-130002438D01*
X113741427Y-130002438D02*
X113693808Y-130050057D01*
X113693808Y-130050057D02*
X113646189Y-130145295D01*
X113646189Y-130145295D02*
X113646189Y-130240533D01*
X113646189Y-130240533D02*
X113693808Y-130383390D01*
X113693808Y-130383390D02*
X114265236Y-130954819D01*
X114265236Y-130954819D02*
X113646189Y-130954819D01*
X113217617Y-130859580D02*
X113169998Y-130907200D01*
X113169998Y-130907200D02*
X113217617Y-130954819D01*
X113217617Y-130954819D02*
X113265236Y-130907200D01*
X113265236Y-130907200D02*
X113217617Y-130859580D01*
X113217617Y-130859580D02*
X113217617Y-130954819D01*
X112550951Y-129954819D02*
X112455713Y-129954819D01*
X112455713Y-129954819D02*
X112360475Y-130002438D01*
X112360475Y-130002438D02*
X112312856Y-130050057D01*
X112312856Y-130050057D02*
X112265237Y-130145295D01*
X112265237Y-130145295D02*
X112217618Y-130335771D01*
X112217618Y-130335771D02*
X112217618Y-130573866D01*
X112217618Y-130573866D02*
X112265237Y-130764342D01*
X112265237Y-130764342D02*
X112312856Y-130859580D01*
X112312856Y-130859580D02*
X112360475Y-130907200D01*
X112360475Y-130907200D02*
X112455713Y-130954819D01*
X112455713Y-130954819D02*
X112550951Y-130954819D01*
X112550951Y-130954819D02*
X112646189Y-130907200D01*
X112646189Y-130907200D02*
X112693808Y-130859580D01*
X112693808Y-130859580D02*
X112741427Y-130764342D01*
X112741427Y-130764342D02*
X112789046Y-130573866D01*
X112789046Y-130573866D02*
X112789046Y-130335771D01*
X112789046Y-130335771D02*
X112741427Y-130145295D01*
X112741427Y-130145295D02*
X112693808Y-130050057D01*
X112693808Y-130050057D02*
X112646189Y-130002438D01*
X112646189Y-130002438D02*
X112550951Y-129954819D01*
D11*
X148146192Y-120909638D02*
X148146192Y-118909638D01*
X148146192Y-118909638D02*
X147384287Y-118909638D01*
X147384287Y-118909638D02*
X147193811Y-119004876D01*
X147193811Y-119004876D02*
X147098573Y-119100114D01*
X147098573Y-119100114D02*
X147003335Y-119290590D01*
X147003335Y-119290590D02*
X147003335Y-119576304D01*
X147003335Y-119576304D02*
X147098573Y-119766780D01*
X147098573Y-119766780D02*
X147193811Y-119862019D01*
X147193811Y-119862019D02*
X147384287Y-119957257D01*
X147384287Y-119957257D02*
X148146192Y-119957257D01*
X146146192Y-120909638D02*
X146146192Y-119576304D01*
X146146192Y-118909638D02*
X146241430Y-119004876D01*
X146241430Y-119004876D02*
X146146192Y-119100114D01*
X146146192Y-119100114D02*
X146050954Y-119004876D01*
X146050954Y-119004876D02*
X146146192Y-118909638D01*
X146146192Y-118909638D02*
X146146192Y-119100114D01*
X144050954Y-120719161D02*
X144146192Y-120814400D01*
X144146192Y-120814400D02*
X144431906Y-120909638D01*
X144431906Y-120909638D02*
X144622382Y-120909638D01*
X144622382Y-120909638D02*
X144908097Y-120814400D01*
X144908097Y-120814400D02*
X145098573Y-120623923D01*
X145098573Y-120623923D02*
X145193811Y-120433447D01*
X145193811Y-120433447D02*
X145289049Y-120052495D01*
X145289049Y-120052495D02*
X145289049Y-119766780D01*
X145289049Y-119766780D02*
X145193811Y-119385828D01*
X145193811Y-119385828D02*
X145098573Y-119195352D01*
X145098573Y-119195352D02*
X144908097Y-119004876D01*
X144908097Y-119004876D02*
X144622382Y-118909638D01*
X144622382Y-118909638D02*
X144431906Y-118909638D01*
X144431906Y-118909638D02*
X144146192Y-119004876D01*
X144146192Y-119004876D02*
X144050954Y-119100114D01*
X142908097Y-120909638D02*
X143098573Y-120814400D01*
X143098573Y-120814400D02*
X143193811Y-120719161D01*
X143193811Y-120719161D02*
X143289049Y-120528685D01*
X143289049Y-120528685D02*
X143289049Y-119957257D01*
X143289049Y-119957257D02*
X143193811Y-119766780D01*
X143193811Y-119766780D02*
X143098573Y-119671542D01*
X143098573Y-119671542D02*
X142908097Y-119576304D01*
X142908097Y-119576304D02*
X142622382Y-119576304D01*
X142622382Y-119576304D02*
X142431906Y-119671542D01*
X142431906Y-119671542D02*
X142336668Y-119766780D01*
X142336668Y-119766780D02*
X142241430Y-119957257D01*
X142241430Y-119957257D02*
X142241430Y-120528685D01*
X142241430Y-120528685D02*
X142336668Y-120719161D01*
X142336668Y-120719161D02*
X142431906Y-120814400D01*
X142431906Y-120814400D02*
X142622382Y-120909638D01*
X142622382Y-120909638D02*
X142908097Y-120909638D01*
X140241430Y-120719161D02*
X140336668Y-120814400D01*
X140336668Y-120814400D02*
X140622382Y-120909638D01*
X140622382Y-120909638D02*
X140812858Y-120909638D01*
X140812858Y-120909638D02*
X141098573Y-120814400D01*
X141098573Y-120814400D02*
X141289049Y-120623923D01*
X141289049Y-120623923D02*
X141384287Y-120433447D01*
X141384287Y-120433447D02*
X141479525Y-120052495D01*
X141479525Y-120052495D02*
X141479525Y-119766780D01*
X141479525Y-119766780D02*
X141384287Y-119385828D01*
X141384287Y-119385828D02*
X141289049Y-119195352D01*
X141289049Y-119195352D02*
X141098573Y-119004876D01*
X141098573Y-119004876D02*
X140812858Y-118909638D01*
X140812858Y-118909638D02*
X140622382Y-118909638D01*
X140622382Y-118909638D02*
X140336668Y-119004876D01*
X140336668Y-119004876D02*
X140241430Y-119100114D01*
X139098573Y-120909638D02*
X139289049Y-120814400D01*
X139289049Y-120814400D02*
X139384287Y-120719161D01*
X139384287Y-120719161D02*
X139479525Y-120528685D01*
X139479525Y-120528685D02*
X139479525Y-119957257D01*
X139479525Y-119957257D02*
X139384287Y-119766780D01*
X139384287Y-119766780D02*
X139289049Y-119671542D01*
X139289049Y-119671542D02*
X139098573Y-119576304D01*
X139098573Y-119576304D02*
X138812858Y-119576304D01*
X138812858Y-119576304D02*
X138622382Y-119671542D01*
X138622382Y-119671542D02*
X138527144Y-119766780D01*
X138527144Y-119766780D02*
X138431906Y-119957257D01*
X138431906Y-119957257D02*
X138431906Y-120528685D01*
X138431906Y-120528685D02*
X138527144Y-120719161D01*
X138527144Y-120719161D02*
X138622382Y-120814400D01*
X138622382Y-120814400D02*
X138812858Y-120909638D01*
X138812858Y-120909638D02*
X139098573Y-120909638D01*
X134908096Y-120719161D02*
X135003334Y-120814400D01*
X135003334Y-120814400D02*
X135289048Y-120909638D01*
X135289048Y-120909638D02*
X135479524Y-120909638D01*
X135479524Y-120909638D02*
X135765239Y-120814400D01*
X135765239Y-120814400D02*
X135955715Y-120623923D01*
X135955715Y-120623923D02*
X136050953Y-120433447D01*
X136050953Y-120433447D02*
X136146191Y-120052495D01*
X136146191Y-120052495D02*
X136146191Y-119766780D01*
X136146191Y-119766780D02*
X136050953Y-119385828D01*
X136050953Y-119385828D02*
X135955715Y-119195352D01*
X135955715Y-119195352D02*
X135765239Y-119004876D01*
X135765239Y-119004876D02*
X135479524Y-118909638D01*
X135479524Y-118909638D02*
X135289048Y-118909638D01*
X135289048Y-118909638D02*
X135003334Y-119004876D01*
X135003334Y-119004876D02*
X134908096Y-119100114D01*
X134146191Y-120338209D02*
X133193810Y-120338209D01*
X134336667Y-120909638D02*
X133670001Y-118909638D01*
X133670001Y-118909638D02*
X133003334Y-120909638D01*
X131193810Y-120909638D02*
X131860477Y-119957257D01*
X132336667Y-120909638D02*
X132336667Y-118909638D01*
X132336667Y-118909638D02*
X131574762Y-118909638D01*
X131574762Y-118909638D02*
X131384286Y-119004876D01*
X131384286Y-119004876D02*
X131289048Y-119100114D01*
X131289048Y-119100114D02*
X131193810Y-119290590D01*
X131193810Y-119290590D02*
X131193810Y-119576304D01*
X131193810Y-119576304D02*
X131289048Y-119766780D01*
X131289048Y-119766780D02*
X131384286Y-119862019D01*
X131384286Y-119862019D02*
X131574762Y-119957257D01*
X131574762Y-119957257D02*
X132336667Y-119957257D01*
X130622381Y-118909638D02*
X129479524Y-118909638D01*
X130050953Y-120909638D02*
X130050953Y-118909638D01*
X126622380Y-119862019D02*
X126336666Y-119957257D01*
X126336666Y-119957257D02*
X126241428Y-120052495D01*
X126241428Y-120052495D02*
X126146190Y-120242971D01*
X126146190Y-120242971D02*
X126146190Y-120528685D01*
X126146190Y-120528685D02*
X126241428Y-120719161D01*
X126241428Y-120719161D02*
X126336666Y-120814400D01*
X126336666Y-120814400D02*
X126527142Y-120909638D01*
X126527142Y-120909638D02*
X127289047Y-120909638D01*
X127289047Y-120909638D02*
X127289047Y-118909638D01*
X127289047Y-118909638D02*
X126622380Y-118909638D01*
X126622380Y-118909638D02*
X126431904Y-119004876D01*
X126431904Y-119004876D02*
X126336666Y-119100114D01*
X126336666Y-119100114D02*
X126241428Y-119290590D01*
X126241428Y-119290590D02*
X126241428Y-119481066D01*
X126241428Y-119481066D02*
X126336666Y-119671542D01*
X126336666Y-119671542D02*
X126431904Y-119766780D01*
X126431904Y-119766780D02*
X126622380Y-119862019D01*
X126622380Y-119862019D02*
X127289047Y-119862019D01*
X124146190Y-120909638D02*
X124812857Y-119957257D01*
X125289047Y-120909638D02*
X125289047Y-118909638D01*
X125289047Y-118909638D02*
X124527142Y-118909638D01*
X124527142Y-118909638D02*
X124336666Y-119004876D01*
X124336666Y-119004876D02*
X124241428Y-119100114D01*
X124241428Y-119100114D02*
X124146190Y-119290590D01*
X124146190Y-119290590D02*
X124146190Y-119576304D01*
X124146190Y-119576304D02*
X124241428Y-119766780D01*
X124241428Y-119766780D02*
X124336666Y-119862019D01*
X124336666Y-119862019D02*
X124527142Y-119957257D01*
X124527142Y-119957257D02*
X125289047Y-119957257D01*
X123289047Y-119862019D02*
X122622380Y-119862019D01*
X122336666Y-120909638D02*
X123289047Y-120909638D01*
X123289047Y-120909638D02*
X123289047Y-118909638D01*
X123289047Y-118909638D02*
X122336666Y-118909638D01*
X121574761Y-120338209D02*
X120622380Y-120338209D01*
X121765237Y-120909638D02*
X121098571Y-118909638D01*
X121098571Y-118909638D02*
X120431904Y-120909638D01*
X119765237Y-120909638D02*
X119765237Y-118909638D01*
X118622380Y-120909638D02*
X119479523Y-119766780D01*
X118622380Y-118909638D02*
X119765237Y-120052495D01*
X117384285Y-118909638D02*
X117003332Y-118909638D01*
X117003332Y-118909638D02*
X116812856Y-119004876D01*
X116812856Y-119004876D02*
X116622380Y-119195352D01*
X116622380Y-119195352D02*
X116527142Y-119576304D01*
X116527142Y-119576304D02*
X116527142Y-120242971D01*
X116527142Y-120242971D02*
X116622380Y-120623923D01*
X116622380Y-120623923D02*
X116812856Y-120814400D01*
X116812856Y-120814400D02*
X117003332Y-120909638D01*
X117003332Y-120909638D02*
X117384285Y-120909638D01*
X117384285Y-120909638D02*
X117574761Y-120814400D01*
X117574761Y-120814400D02*
X117765237Y-120623923D01*
X117765237Y-120623923D02*
X117860475Y-120242971D01*
X117860475Y-120242971D02*
X117860475Y-119576304D01*
X117860475Y-119576304D02*
X117765237Y-119195352D01*
X117765237Y-119195352D02*
X117574761Y-119004876D01*
X117574761Y-119004876D02*
X117384285Y-118909638D01*
X115669999Y-118909638D02*
X115669999Y-120528685D01*
X115669999Y-120528685D02*
X115574761Y-120719161D01*
X115574761Y-120719161D02*
X115479523Y-120814400D01*
X115479523Y-120814400D02*
X115289047Y-120909638D01*
X115289047Y-120909638D02*
X114908094Y-120909638D01*
X114908094Y-120909638D02*
X114717618Y-120814400D01*
X114717618Y-120814400D02*
X114622380Y-120719161D01*
X114622380Y-120719161D02*
X114527142Y-120528685D01*
X114527142Y-120528685D02*
X114527142Y-118909638D01*
X113860475Y-118909638D02*
X112717618Y-118909638D01*
X113289047Y-120909638D02*
X113289047Y-118909638D01*
X110717617Y-119576304D02*
X110241427Y-120909638D01*
X110241427Y-120909638D02*
X109765236Y-119576304D01*
X107955712Y-120909638D02*
X109098569Y-120909638D01*
X108527141Y-120909638D02*
X108527141Y-118909638D01*
X108527141Y-118909638D02*
X108717617Y-119195352D01*
X108717617Y-119195352D02*
X108908093Y-119385828D01*
X108908093Y-119385828D02*
X109098569Y-119481066D01*
X107098569Y-120719161D02*
X107003331Y-120814400D01*
X107003331Y-120814400D02*
X107098569Y-120909638D01*
X107098569Y-120909638D02*
X107193807Y-120814400D01*
X107193807Y-120814400D02*
X107098569Y-120719161D01*
X107098569Y-120719161D02*
X107098569Y-120909638D01*
X105765236Y-118909638D02*
X105574759Y-118909638D01*
X105574759Y-118909638D02*
X105384283Y-119004876D01*
X105384283Y-119004876D02*
X105289045Y-119100114D01*
X105289045Y-119100114D02*
X105193807Y-119290590D01*
X105193807Y-119290590D02*
X105098569Y-119671542D01*
X105098569Y-119671542D02*
X105098569Y-120147733D01*
X105098569Y-120147733D02*
X105193807Y-120528685D01*
X105193807Y-120528685D02*
X105289045Y-120719161D01*
X105289045Y-120719161D02*
X105384283Y-120814400D01*
X105384283Y-120814400D02*
X105574759Y-120909638D01*
X105574759Y-120909638D02*
X105765236Y-120909638D01*
X105765236Y-120909638D02*
X105955712Y-120814400D01*
X105955712Y-120814400D02*
X106050950Y-120719161D01*
X106050950Y-120719161D02*
X106146188Y-120528685D01*
X106146188Y-120528685D02*
X106241426Y-120147733D01*
X106241426Y-120147733D02*
X106241426Y-119671542D01*
X106241426Y-119671542D02*
X106146188Y-119290590D01*
X106146188Y-119290590D02*
X106050950Y-119100114D01*
X106050950Y-119100114D02*
X105955712Y-119004876D01*
X105955712Y-119004876D02*
X105765236Y-118909638D01*
D10*
X102873828Y-137997086D02*
X102818190Y-137941448D01*
X102818190Y-137941448D02*
X102706914Y-137885810D01*
X102706914Y-137885810D02*
X102428723Y-137885810D01*
X102428723Y-137885810D02*
X102317447Y-137941448D01*
X102317447Y-137941448D02*
X102261809Y-137997086D01*
X102261809Y-137997086D02*
X102206171Y-138108362D01*
X102206171Y-138108362D02*
X102206171Y-138219638D01*
X102206171Y-138219638D02*
X102261809Y-138386552D01*
X102261809Y-138386552D02*
X102929466Y-139054210D01*
X102929466Y-139054210D02*
X102206171Y-139054210D01*
X151133828Y-138275276D02*
X151133828Y-139054210D01*
X151412019Y-137830172D02*
X151690209Y-138664743D01*
X151690209Y-138664743D02*
X150966914Y-138664743D01*
X150299257Y-137885810D02*
X150187980Y-137885810D01*
X150187980Y-137885810D02*
X150076704Y-137941448D01*
X150076704Y-137941448D02*
X150021066Y-137997086D01*
X150021066Y-137997086D02*
X149965428Y-138108362D01*
X149965428Y-138108362D02*
X149909790Y-138330914D01*
X149909790Y-138330914D02*
X149909790Y-138609105D01*
X149909790Y-138609105D02*
X149965428Y-138831657D01*
X149965428Y-138831657D02*
X150021066Y-138942933D01*
X150021066Y-138942933D02*
X150076704Y-138998572D01*
X150076704Y-138998572D02*
X150187980Y-139054210D01*
X150187980Y-139054210D02*
X150299257Y-139054210D01*
X150299257Y-139054210D02*
X150410533Y-138998572D01*
X150410533Y-138998572D02*
X150466171Y-138942933D01*
X150466171Y-138942933D02*
X150521809Y-138831657D01*
X150521809Y-138831657D02*
X150577447Y-138609105D01*
X150577447Y-138609105D02*
X150577447Y-138330914D01*
X150577447Y-138330914D02*
X150521809Y-138108362D01*
X150521809Y-138108362D02*
X150466171Y-137997086D01*
X150466171Y-137997086D02*
X150410533Y-137941448D01*
X150410533Y-137941448D02*
X150299257Y-137885810D01*
%LPC*%
D12*
G04 #@! TO.C,P1*
G36*
X153340000Y-150000000D02*
G01*
X100000000Y-150000000D01*
X100000000Y-139840000D01*
X153340000Y-139840000D01*
X153340000Y-150000000D01*
G37*
G04 #@! TD*
D13*
G04 #@! TO.C,P1*
X102540000Y-144365000D03*
X105080000Y-144365000D03*
X107620000Y-144365000D03*
X110160000Y-144365000D03*
X112700000Y-144365000D03*
X115240000Y-144365000D03*
X117780000Y-144365000D03*
X120320000Y-144365000D03*
X122860000Y-144365000D03*
X125400000Y-144365000D03*
X127940000Y-144365000D03*
X130480000Y-144365000D03*
X133020000Y-144365000D03*
X135560000Y-144365000D03*
X138100000Y-144365000D03*
X140640000Y-144365000D03*
X143180000Y-144365000D03*
X145720000Y-144365000D03*
X148260000Y-144365000D03*
X150800000Y-144365000D03*
G04 #@! TD*
D14*
G04 #@! TO.C,J1*
X102540000Y-73000000D03*
D15*
X102540000Y-70460000D03*
X105080000Y-73000000D03*
X105080000Y-70460000D03*
X107620000Y-73000000D03*
X107620000Y-70460000D03*
X110160000Y-73000000D03*
X110160000Y-70460000D03*
X112700000Y-73000000D03*
X112700000Y-70460000D03*
X115240000Y-73000000D03*
X115240000Y-70460000D03*
X117780000Y-73000000D03*
X117780000Y-70460000D03*
X120320000Y-73000000D03*
X120320000Y-70460000D03*
X122860000Y-73000000D03*
X122860000Y-70460000D03*
X125400000Y-73000000D03*
X125400000Y-70460000D03*
X127940000Y-73000000D03*
X127940000Y-70460000D03*
X130480000Y-73000000D03*
X130480000Y-70460000D03*
X133020000Y-73000000D03*
X133020000Y-70460000D03*
X135560000Y-73000000D03*
X135560000Y-70460000D03*
X138100000Y-73000000D03*
X138100000Y-70460000D03*
X140640000Y-73000000D03*
X140640000Y-70460000D03*
X143180000Y-73000000D03*
X143180000Y-70460000D03*
X145720000Y-73000000D03*
X145720000Y-70460000D03*
X148260000Y-73000000D03*
X148260000Y-70460000D03*
X150800000Y-73000000D03*
X150800000Y-70460000D03*
G04 #@! TD*
%LPD*%
M02*
