G04 #@! TF.GenerationSoftware,KiCad,Pcbnew,10.0.6*
G04 #@! TF.CreationDate,2026-09-05T12:50:39-05:00*
G04 #@! TF.ProjectId,PiCoCo-Breakout,5069436f-436f-42d4-9272-65616b6f7574,rev?*
G04 #@! TF.SameCoordinates,Original*
G04 #@! TF.FileFunction,Soldermask,Top*
G04 #@! TF.FilePolarity,Negative*
%FSLAX46Y46*%
G04 Gerber Fmt 4.6, Leading zero omitted, Abs format (unit mm)*
G04 Created by KiCad (PCBNEW 10.0.6) date 2026-09-05 12:50:39*
%MOMM*%
%LPD*%
G01*
G04 APERTURE LIST*
G04 Aperture macros list*
%AMRoundRect*
0 Rectangle with rounded corners*
0 $1 Rounding radius*
0 $2 $3 $4 $5 $6 $7 $8 $9 X,Y pos of 4 corners*
0 Add a 4 corners polygon primitive as box body*
4,1,4,$2,$3,$4,$5,$6,$7,$8,$9,$2,$3,0*
0 Add four circle primitives for the rounded corners*
1,1,$1+$1,$2,$3*
1,1,$1+$1,$4,$5*
1,1,$1+$1,$6,$7*
1,1,$1+$1,$8,$9*
0 Add four rect primitives between the rounded corners*
20,1,$1+$1,$2,$3,$4,$5,0*
20,1,$1+$1,$4,$5,$6,$7,0*
20,1,$1+$1,$6,$7,$8,$9,0*
20,1,$1+$1,$8,$9,$2,$3,0*%
G04 Aperture macros list end*
%ADD10C,0.000000*%
%ADD11RoundRect,0.250000X-0.312500X-1.450000X0.312500X-1.450000X0.312500X1.450000X-0.312500X1.450000X0*%
%ADD12RoundRect,0.250000X-0.450000X0.262500X-0.450000X-0.262500X0.450000X-0.262500X0.450000X0.262500X0*%
%ADD13RoundRect,0.250000X-0.475000X0.250000X-0.475000X-0.250000X0.475000X-0.250000X0.475000X0.250000X0*%
%ADD14RoundRect,0.250000X0.600000X-0.600000X0.600000X0.600000X-0.600000X0.600000X-0.600000X-0.600000X0*%
%ADD15C,1.700000*%
%ADD16RoundRect,0.076200X-0.635000X-4.585000X0.635000X-4.585000X0.635000X4.585000X-0.635000X4.585000X0*%
%ADD17RoundRect,0.076200X-0.635000X-3.492500X0.635000X-3.492500X0.635000X3.492500X-0.635000X3.492500X0*%
%ADD18RoundRect,0.243750X0.456250X-0.243750X0.456250X0.243750X-0.456250X0.243750X-0.456250X-0.243750X0*%
G04 APERTURE END LIST*
D10*
G04 #@! TO.C,P1*
G36*
X153340000Y-150000000D02*
G01*
X100000000Y-150000000D01*
X100000000Y-139840000D01*
X153340000Y-139840000D01*
X153340000Y-150000000D01*
G37*
G04 #@! TD*
D11*
G04 #@! TO.C,F1*
X111430000Y-56000000D03*
X115705000Y-56000000D03*
G04 #@! TD*
D12*
G04 #@! TO.C,R1*
X126670000Y-54587500D03*
X126670000Y-56412500D03*
G04 #@! TD*
D13*
G04 #@! TO.C,C2*
X121590000Y-54550000D03*
X121590000Y-56450000D03*
G04 #@! TD*
G04 #@! TO.C,C1*
X119050000Y-54550000D03*
X119050000Y-56450000D03*
G04 #@! TD*
D14*
G04 #@! TO.C,J1*
X102540000Y-73000000D03*
D15*
X102540000Y-70460000D03*
X105080000Y-73000000D03*
X105080000Y-70460000D03*
X107620000Y-73000000D03*
X107620000Y-70460000D03*
X110160000Y-73000000D03*
X110160000Y-70460000D03*
X112700000Y-73000000D03*
X112700000Y-70460000D03*
X115240000Y-73000000D03*
X115240000Y-70460000D03*
X117780000Y-73000000D03*
X117780000Y-70460000D03*
X120320000Y-73000000D03*
X120320000Y-70460000D03*
X122860000Y-73000000D03*
X122860000Y-70460000D03*
X125400000Y-73000000D03*
X125400000Y-70460000D03*
X127940000Y-73000000D03*
X127940000Y-70460000D03*
X130480000Y-73000000D03*
X130480000Y-70460000D03*
X133020000Y-73000000D03*
X133020000Y-70460000D03*
X135560000Y-73000000D03*
X135560000Y-70460000D03*
X138100000Y-73000000D03*
X138100000Y-70460000D03*
X140640000Y-73000000D03*
X140640000Y-70460000D03*
X143180000Y-73000000D03*
X143180000Y-70460000D03*
X145720000Y-73000000D03*
X145720000Y-70460000D03*
X148260000Y-73000000D03*
X148260000Y-70460000D03*
X150800000Y-73000000D03*
X150800000Y-70460000D03*
G04 #@! TD*
D16*
G04 #@! TO.C,P1*
X102540000Y-144615000D03*
X105080000Y-144615000D03*
X107620000Y-144615000D03*
X110160000Y-144615000D03*
D17*
X112700000Y-143650000D03*
D16*
X115240000Y-144615000D03*
X117780000Y-144615000D03*
X120320000Y-144615000D03*
X122860000Y-144615000D03*
X125400000Y-144615000D03*
X127940000Y-144615000D03*
X130480000Y-144615000D03*
X133020000Y-144615000D03*
X135560000Y-144615000D03*
X138100000Y-144615000D03*
X140640000Y-144615000D03*
X143180000Y-144615000D03*
X145720000Y-144615000D03*
X148260000Y-144615000D03*
X150800000Y-144615000D03*
G04 #@! TD*
D18*
G04 #@! TO.C,D1*
X126670000Y-59937500D03*
X126670000Y-58062500D03*
G04 #@! TD*
M02*
