%TF.GenerationSoftware,KiCad,Pcbnew,10.0.6*%
%TF.CreationDate,2026-09-05T12:50:40-05:00*%
%TF.ProjectId,PiCoCo-Cobbler,5069436f-436f-42d4-936f-62626c65722e,rev?*%
%TF.SameCoordinates,Original*%
%TF.FileFunction,Drillmap*%
%TF.FilePolarity,Positive*%
%FSLAX45Y45*%
G04 Gerber Fmt 4.5, Leading zero omitted, Abs format (unit mm)*
G04 Created by KiCad (PCBNEW 10.0.6) date 2026-09-05 12:50:40*
%MOMM*%
%LPD*%
G01*
G04 APERTURE LIST*
%ADD10C,0.100000*%
%ADD11C,0.200000*%
G04 APERTURE END LIST*
D10*
X9550000Y-13800000D02*
X9550000Y-15950000D01*
X9550000Y-13800000D02*
G75*
G02*
X9650000Y-13700000I100000J0D01*
G01*
X9650000Y-16050000D02*
G75*
G02*
X9550000Y-15950000I0J100000D01*
G01*
X9650000Y-16050000D02*
X15680000Y-16050000D01*
X15680000Y-13700000D02*
X9650000Y-13700000D01*
X15680000Y-13700000D02*
G75*
G02*
X15780000Y-13800000I0J-100000D01*
G01*
X15780000Y-15950000D02*
G75*
G02*
X15680000Y-16050000I-100000J0D01*
G01*
X15780000Y-15950000D02*
X15780000Y-13800000D01*
D11*
D10*
X10204000Y-14442000D02*
X10304000Y-14542000D01*
X10304000Y-14442000D02*
X10204000Y-14542000D01*
X10204000Y-14696000D02*
X10304000Y-14796000D01*
X10304000Y-14696000D02*
X10204000Y-14796000D01*
X10204000Y-14950000D02*
X10304000Y-15050000D01*
X10304000Y-14950000D02*
X10204000Y-15050000D01*
X10204000Y-15204000D02*
X10304000Y-15304000D01*
X10304000Y-15204000D02*
X10204000Y-15304000D01*
X10458000Y-14442000D02*
X10558000Y-14542000D01*
X10558000Y-14442000D02*
X10458000Y-14542000D01*
X10458000Y-14696000D02*
X10558000Y-14796000D01*
X10558000Y-14696000D02*
X10458000Y-14796000D01*
X10458000Y-14950000D02*
X10558000Y-15050000D01*
X10558000Y-14950000D02*
X10458000Y-15050000D01*
X10458000Y-15204000D02*
X10558000Y-15304000D01*
X10558000Y-15204000D02*
X10458000Y-15304000D01*
X10712000Y-14442000D02*
X10812000Y-14542000D01*
X10812000Y-14442000D02*
X10712000Y-14542000D01*
X10712000Y-14696000D02*
X10812000Y-14796000D01*
X10812000Y-14696000D02*
X10712000Y-14796000D01*
X10712000Y-14950000D02*
X10812000Y-15050000D01*
X10812000Y-14950000D02*
X10712000Y-15050000D01*
X10712000Y-15204000D02*
X10812000Y-15304000D01*
X10812000Y-15204000D02*
X10712000Y-15304000D01*
X10966000Y-14442000D02*
X11066000Y-14542000D01*
X11066000Y-14442000D02*
X10966000Y-14542000D01*
X10966000Y-14696000D02*
X11066000Y-14796000D01*
X11066000Y-14696000D02*
X10966000Y-14796000D01*
X10966000Y-14950000D02*
X11066000Y-15050000D01*
X11066000Y-14950000D02*
X10966000Y-15050000D01*
X10966000Y-15204000D02*
X11066000Y-15304000D01*
X11066000Y-15204000D02*
X10966000Y-15304000D01*
X11220000Y-14442000D02*
X11320000Y-14542000D01*
X11320000Y-14442000D02*
X11220000Y-14542000D01*
X11220000Y-14696000D02*
X11320000Y-14796000D01*
X11320000Y-14696000D02*
X11220000Y-14796000D01*
X11220000Y-14950000D02*
X11320000Y-15050000D01*
X11320000Y-14950000D02*
X11220000Y-15050000D01*
X11220000Y-15204000D02*
X11320000Y-15304000D01*
X11320000Y-15204000D02*
X11220000Y-15304000D01*
X11474000Y-14442000D02*
X11574000Y-14542000D01*
X11574000Y-14442000D02*
X11474000Y-14542000D01*
X11474000Y-14696000D02*
X11574000Y-14796000D01*
X11574000Y-14696000D02*
X11474000Y-14796000D01*
X11474000Y-14950000D02*
X11574000Y-15050000D01*
X11574000Y-14950000D02*
X11474000Y-15050000D01*
X11474000Y-15204000D02*
X11574000Y-15304000D01*
X11574000Y-15204000D02*
X11474000Y-15304000D01*
X11728000Y-14442000D02*
X11828000Y-14542000D01*
X11828000Y-14442000D02*
X11728000Y-14542000D01*
X11728000Y-14696000D02*
X11828000Y-14796000D01*
X11828000Y-14696000D02*
X11728000Y-14796000D01*
X11728000Y-14950000D02*
X11828000Y-15050000D01*
X11828000Y-14950000D02*
X11728000Y-15050000D01*
X11728000Y-15204000D02*
X11828000Y-15304000D01*
X11828000Y-15204000D02*
X11728000Y-15304000D01*
X11982000Y-14442000D02*
X12082000Y-14542000D01*
X12082000Y-14442000D02*
X11982000Y-14542000D01*
X11982000Y-14696000D02*
X12082000Y-14796000D01*
X12082000Y-14696000D02*
X11982000Y-14796000D01*
X11982000Y-14950000D02*
X12082000Y-15050000D01*
X12082000Y-14950000D02*
X11982000Y-15050000D01*
X11982000Y-15204000D02*
X12082000Y-15304000D01*
X12082000Y-15204000D02*
X11982000Y-15304000D01*
X12236000Y-14442000D02*
X12336000Y-14542000D01*
X12336000Y-14442000D02*
X12236000Y-14542000D01*
X12236000Y-14696000D02*
X12336000Y-14796000D01*
X12336000Y-14696000D02*
X12236000Y-14796000D01*
X12236000Y-14950000D02*
X12336000Y-15050000D01*
X12336000Y-14950000D02*
X12236000Y-15050000D01*
X12236000Y-15204000D02*
X12336000Y-15304000D01*
X12336000Y-15204000D02*
X12236000Y-15304000D01*
X12490000Y-14442000D02*
X12590000Y-14542000D01*
X12590000Y-14442000D02*
X12490000Y-14542000D01*
X12490000Y-14696000D02*
X12590000Y-14796000D01*
X12590000Y-14696000D02*
X12490000Y-14796000D01*
X12490000Y-14950000D02*
X12590000Y-15050000D01*
X12590000Y-14950000D02*
X12490000Y-15050000D01*
X12490000Y-15204000D02*
X12590000Y-15304000D01*
X12590000Y-15204000D02*
X12490000Y-15304000D01*
X12744000Y-14442000D02*
X12844000Y-14542000D01*
X12844000Y-14442000D02*
X12744000Y-14542000D01*
X12744000Y-14696000D02*
X12844000Y-14796000D01*
X12844000Y-14696000D02*
X12744000Y-14796000D01*
X12744000Y-14950000D02*
X12844000Y-15050000D01*
X12844000Y-14950000D02*
X12744000Y-15050000D01*
X12744000Y-15204000D02*
X12844000Y-15304000D01*
X12844000Y-15204000D02*
X12744000Y-15304000D01*
X12998000Y-14442000D02*
X13098000Y-14542000D01*
X13098000Y-14442000D02*
X12998000Y-14542000D01*
X12998000Y-14696000D02*
X13098000Y-14796000D01*
X13098000Y-14696000D02*
X12998000Y-14796000D01*
X12998000Y-14950000D02*
X13098000Y-15050000D01*
X13098000Y-14950000D02*
X12998000Y-15050000D01*
X12998000Y-15204000D02*
X13098000Y-15304000D01*
X13098000Y-15204000D02*
X12998000Y-15304000D01*
X13252000Y-14442000D02*
X13352000Y-14542000D01*
X13352000Y-14442000D02*
X13252000Y-14542000D01*
X13252000Y-14696000D02*
X13352000Y-14796000D01*
X13352000Y-14696000D02*
X13252000Y-14796000D01*
X13252000Y-14950000D02*
X13352000Y-15050000D01*
X13352000Y-14950000D02*
X13252000Y-15050000D01*
X13252000Y-15204000D02*
X13352000Y-15304000D01*
X13352000Y-15204000D02*
X13252000Y-15304000D01*
X13506000Y-14442000D02*
X13606000Y-14542000D01*
X13606000Y-14442000D02*
X13506000Y-14542000D01*
X13506000Y-14696000D02*
X13606000Y-14796000D01*
X13606000Y-14696000D02*
X13506000Y-14796000D01*
X13506000Y-14950000D02*
X13606000Y-15050000D01*
X13606000Y-14950000D02*
X13506000Y-15050000D01*
X13506000Y-15204000D02*
X13606000Y-15304000D01*
X13606000Y-15204000D02*
X13506000Y-15304000D01*
X13760000Y-14442000D02*
X13860000Y-14542000D01*
X13860000Y-14442000D02*
X13760000Y-14542000D01*
X13760000Y-14696000D02*
X13860000Y-14796000D01*
X13860000Y-14696000D02*
X13760000Y-14796000D01*
X13760000Y-14950000D02*
X13860000Y-15050000D01*
X13860000Y-14950000D02*
X13760000Y-15050000D01*
X13760000Y-15204000D02*
X13860000Y-15304000D01*
X13860000Y-15204000D02*
X13760000Y-15304000D01*
X14014000Y-14442000D02*
X14114000Y-14542000D01*
X14114000Y-14442000D02*
X14014000Y-14542000D01*
X14014000Y-14696000D02*
X14114000Y-14796000D01*
X14114000Y-14696000D02*
X14014000Y-14796000D01*
X14014000Y-14950000D02*
X14114000Y-15050000D01*
X14114000Y-14950000D02*
X14014000Y-15050000D01*
X14014000Y-15204000D02*
X14114000Y-15304000D01*
X14114000Y-15204000D02*
X14014000Y-15304000D01*
X14268000Y-14442000D02*
X14368000Y-14542000D01*
X14368000Y-14442000D02*
X14268000Y-14542000D01*
X14268000Y-14696000D02*
X14368000Y-14796000D01*
X14368000Y-14696000D02*
X14268000Y-14796000D01*
X14268000Y-14950000D02*
X14368000Y-15050000D01*
X14368000Y-14950000D02*
X14268000Y-15050000D01*
X14268000Y-15204000D02*
X14368000Y-15304000D01*
X14368000Y-15204000D02*
X14268000Y-15304000D01*
X14522000Y-14442000D02*
X14622000Y-14542000D01*
X14622000Y-14442000D02*
X14522000Y-14542000D01*
X14522000Y-14696000D02*
X14622000Y-14796000D01*
X14622000Y-14696000D02*
X14522000Y-14796000D01*
X14522000Y-14950000D02*
X14622000Y-15050000D01*
X14622000Y-14950000D02*
X14522000Y-15050000D01*
X14522000Y-15204000D02*
X14622000Y-15304000D01*
X14622000Y-15204000D02*
X14522000Y-15304000D01*
X14776000Y-14442000D02*
X14876000Y-14542000D01*
X14876000Y-14442000D02*
X14776000Y-14542000D01*
X14776000Y-14696000D02*
X14876000Y-14796000D01*
X14876000Y-14696000D02*
X14776000Y-14796000D01*
X14776000Y-14950000D02*
X14876000Y-15050000D01*
X14876000Y-14950000D02*
X14776000Y-15050000D01*
X14776000Y-15204000D02*
X14876000Y-15304000D01*
X14876000Y-15204000D02*
X14776000Y-15304000D01*
X15030000Y-14442000D02*
X15130000Y-14542000D01*
X15130000Y-14442000D02*
X15030000Y-14542000D01*
X15030000Y-14696000D02*
X15130000Y-14796000D01*
X15130000Y-14696000D02*
X15030000Y-14796000D01*
X15030000Y-14950000D02*
X15130000Y-15050000D01*
X15130000Y-14950000D02*
X15030000Y-15050000D01*
X15030000Y-15204000D02*
X15130000Y-15304000D01*
X15130000Y-15204000D02*
X15030000Y-15304000D01*
D11*
X9805777Y-16366484D02*
X9805777Y-16166484D01*
X9805777Y-16166484D02*
X9853396Y-16166484D01*
X9853396Y-16166484D02*
X9881967Y-16176008D01*
X9881967Y-16176008D02*
X9901015Y-16195055D01*
X9901015Y-16195055D02*
X9910539Y-16214103D01*
X9910539Y-16214103D02*
X9920063Y-16252198D01*
X9920063Y-16252198D02*
X9920063Y-16280769D01*
X9920063Y-16280769D02*
X9910539Y-16318865D01*
X9910539Y-16318865D02*
X9901015Y-16337912D01*
X9901015Y-16337912D02*
X9881967Y-16356960D01*
X9881967Y-16356960D02*
X9853396Y-16366484D01*
X9853396Y-16366484D02*
X9805777Y-16366484D01*
X10005777Y-16366484D02*
X10005777Y-16233150D01*
X10005777Y-16271246D02*
X10015301Y-16252198D01*
X10015301Y-16252198D02*
X10024824Y-16242674D01*
X10024824Y-16242674D02*
X10043872Y-16233150D01*
X10043872Y-16233150D02*
X10062920Y-16233150D01*
X10129586Y-16366484D02*
X10129586Y-16233150D01*
X10129586Y-16166484D02*
X10120063Y-16176008D01*
X10120063Y-16176008D02*
X10129586Y-16185531D01*
X10129586Y-16185531D02*
X10139110Y-16176008D01*
X10139110Y-16176008D02*
X10129586Y-16166484D01*
X10129586Y-16166484D02*
X10129586Y-16185531D01*
X10253396Y-16366484D02*
X10234348Y-16356960D01*
X10234348Y-16356960D02*
X10224824Y-16337912D01*
X10224824Y-16337912D02*
X10224824Y-16166484D01*
X10358158Y-16366484D02*
X10339110Y-16356960D01*
X10339110Y-16356960D02*
X10329586Y-16337912D01*
X10329586Y-16337912D02*
X10329586Y-16166484D01*
X10586729Y-16366484D02*
X10586729Y-16166484D01*
X10586729Y-16166484D02*
X10653396Y-16309341D01*
X10653396Y-16309341D02*
X10720063Y-16166484D01*
X10720063Y-16166484D02*
X10720063Y-16366484D01*
X10901015Y-16366484D02*
X10901015Y-16261722D01*
X10901015Y-16261722D02*
X10891491Y-16242674D01*
X10891491Y-16242674D02*
X10872444Y-16233150D01*
X10872444Y-16233150D02*
X10834348Y-16233150D01*
X10834348Y-16233150D02*
X10815301Y-16242674D01*
X10901015Y-16356960D02*
X10881967Y-16366484D01*
X10881967Y-16366484D02*
X10834348Y-16366484D01*
X10834348Y-16366484D02*
X10815301Y-16356960D01*
X10815301Y-16356960D02*
X10805777Y-16337912D01*
X10805777Y-16337912D02*
X10805777Y-16318865D01*
X10805777Y-16318865D02*
X10815301Y-16299817D01*
X10815301Y-16299817D02*
X10834348Y-16290293D01*
X10834348Y-16290293D02*
X10881967Y-16290293D01*
X10881967Y-16290293D02*
X10901015Y-16280769D01*
X10996253Y-16233150D02*
X10996253Y-16433150D01*
X10996253Y-16242674D02*
X11015301Y-16233150D01*
X11015301Y-16233150D02*
X11053396Y-16233150D01*
X11053396Y-16233150D02*
X11072444Y-16242674D01*
X11072444Y-16242674D02*
X11081967Y-16252198D01*
X11081967Y-16252198D02*
X11091491Y-16271246D01*
X11091491Y-16271246D02*
X11091491Y-16328388D01*
X11091491Y-16328388D02*
X11081967Y-16347436D01*
X11081967Y-16347436D02*
X11072444Y-16356960D01*
X11072444Y-16356960D02*
X11053396Y-16366484D01*
X11053396Y-16366484D02*
X11015301Y-16366484D01*
X11015301Y-16366484D02*
X10996253Y-16356960D01*
X11177205Y-16347436D02*
X11186729Y-16356960D01*
X11186729Y-16356960D02*
X11177205Y-16366484D01*
X11177205Y-16366484D02*
X11167682Y-16356960D01*
X11167682Y-16356960D02*
X11177205Y-16347436D01*
X11177205Y-16347436D02*
X11177205Y-16366484D01*
X11177205Y-16242674D02*
X11186729Y-16252198D01*
X11186729Y-16252198D02*
X11177205Y-16261722D01*
X11177205Y-16261722D02*
X11167682Y-16252198D01*
X11167682Y-16252198D02*
X11177205Y-16242674D01*
X11177205Y-16242674D02*
X11177205Y-16261722D01*
D10*
X9445000Y-16645000D02*
X9545000Y-16745000D01*
X9545000Y-16645000D02*
X9445000Y-16745000D01*
D11*
X9910539Y-16786484D02*
X9796253Y-16786484D01*
X9853396Y-16786484D02*
X9853396Y-16586484D01*
X9853396Y-16586484D02*
X9834348Y-16615055D01*
X9834348Y-16615055D02*
X9815301Y-16634103D01*
X9815301Y-16634103D02*
X9796253Y-16643627D01*
X9996253Y-16767436D02*
X10005777Y-16776960D01*
X10005777Y-16776960D02*
X9996253Y-16786484D01*
X9996253Y-16786484D02*
X9986729Y-16776960D01*
X9986729Y-16776960D02*
X9996253Y-16767436D01*
X9996253Y-16767436D02*
X9996253Y-16786484D01*
X10129586Y-16586484D02*
X10148634Y-16586484D01*
X10148634Y-16586484D02*
X10167682Y-16596008D01*
X10167682Y-16596008D02*
X10177205Y-16605531D01*
X10177205Y-16605531D02*
X10186729Y-16624579D01*
X10186729Y-16624579D02*
X10196253Y-16662674D01*
X10196253Y-16662674D02*
X10196253Y-16710293D01*
X10196253Y-16710293D02*
X10186729Y-16748388D01*
X10186729Y-16748388D02*
X10177205Y-16767436D01*
X10177205Y-16767436D02*
X10167682Y-16776960D01*
X10167682Y-16776960D02*
X10148634Y-16786484D01*
X10148634Y-16786484D02*
X10129586Y-16786484D01*
X10129586Y-16786484D02*
X10110539Y-16776960D01*
X10110539Y-16776960D02*
X10101015Y-16767436D01*
X10101015Y-16767436D02*
X10091491Y-16748388D01*
X10091491Y-16748388D02*
X10081967Y-16710293D01*
X10081967Y-16710293D02*
X10081967Y-16662674D01*
X10081967Y-16662674D02*
X10091491Y-16624579D01*
X10091491Y-16624579D02*
X10101015Y-16605531D01*
X10101015Y-16605531D02*
X10110539Y-16596008D01*
X10110539Y-16596008D02*
X10129586Y-16586484D01*
X10320063Y-16586484D02*
X10339110Y-16586484D01*
X10339110Y-16586484D02*
X10358158Y-16596008D01*
X10358158Y-16596008D02*
X10367682Y-16605531D01*
X10367682Y-16605531D02*
X10377205Y-16624579D01*
X10377205Y-16624579D02*
X10386729Y-16662674D01*
X10386729Y-16662674D02*
X10386729Y-16710293D01*
X10386729Y-16710293D02*
X10377205Y-16748388D01*
X10377205Y-16748388D02*
X10367682Y-16767436D01*
X10367682Y-16767436D02*
X10358158Y-16776960D01*
X10358158Y-16776960D02*
X10339110Y-16786484D01*
X10339110Y-16786484D02*
X10320063Y-16786484D01*
X10320063Y-16786484D02*
X10301015Y-16776960D01*
X10301015Y-16776960D02*
X10291491Y-16767436D01*
X10291491Y-16767436D02*
X10281967Y-16748388D01*
X10281967Y-16748388D02*
X10272444Y-16710293D01*
X10272444Y-16710293D02*
X10272444Y-16662674D01*
X10272444Y-16662674D02*
X10281967Y-16624579D01*
X10281967Y-16624579D02*
X10291491Y-16605531D01*
X10291491Y-16605531D02*
X10301015Y-16596008D01*
X10301015Y-16596008D02*
X10320063Y-16586484D01*
X10510539Y-16586484D02*
X10529586Y-16586484D01*
X10529586Y-16586484D02*
X10548634Y-16596008D01*
X10548634Y-16596008D02*
X10558158Y-16605531D01*
X10558158Y-16605531D02*
X10567682Y-16624579D01*
X10567682Y-16624579D02*
X10577205Y-16662674D01*
X10577205Y-16662674D02*
X10577205Y-16710293D01*
X10577205Y-16710293D02*
X10567682Y-16748388D01*
X10567682Y-16748388D02*
X10558158Y-16767436D01*
X10558158Y-16767436D02*
X10548634Y-16776960D01*
X10548634Y-16776960D02*
X10529586Y-16786484D01*
X10529586Y-16786484D02*
X10510539Y-16786484D01*
X10510539Y-16786484D02*
X10491491Y-16776960D01*
X10491491Y-16776960D02*
X10481967Y-16767436D01*
X10481967Y-16767436D02*
X10472444Y-16748388D01*
X10472444Y-16748388D02*
X10462920Y-16710293D01*
X10462920Y-16710293D02*
X10462920Y-16662674D01*
X10462920Y-16662674D02*
X10472444Y-16624579D01*
X10472444Y-16624579D02*
X10481967Y-16605531D01*
X10481967Y-16605531D02*
X10491491Y-16596008D01*
X10491491Y-16596008D02*
X10510539Y-16586484D01*
X10662920Y-16786484D02*
X10662920Y-16653150D01*
X10662920Y-16672198D02*
X10672444Y-16662674D01*
X10672444Y-16662674D02*
X10691491Y-16653150D01*
X10691491Y-16653150D02*
X10720063Y-16653150D01*
X10720063Y-16653150D02*
X10739110Y-16662674D01*
X10739110Y-16662674D02*
X10748634Y-16681722D01*
X10748634Y-16681722D02*
X10748634Y-16786484D01*
X10748634Y-16681722D02*
X10758158Y-16662674D01*
X10758158Y-16662674D02*
X10777205Y-16653150D01*
X10777205Y-16653150D02*
X10805777Y-16653150D01*
X10805777Y-16653150D02*
X10824825Y-16662674D01*
X10824825Y-16662674D02*
X10834348Y-16681722D01*
X10834348Y-16681722D02*
X10834348Y-16786484D01*
X10929586Y-16786484D02*
X10929586Y-16653150D01*
X10929586Y-16672198D02*
X10939110Y-16662674D01*
X10939110Y-16662674D02*
X10958158Y-16653150D01*
X10958158Y-16653150D02*
X10986729Y-16653150D01*
X10986729Y-16653150D02*
X11005777Y-16662674D01*
X11005777Y-16662674D02*
X11015301Y-16681722D01*
X11015301Y-16681722D02*
X11015301Y-16786484D01*
X11015301Y-16681722D02*
X11024825Y-16662674D01*
X11024825Y-16662674D02*
X11043872Y-16653150D01*
X11043872Y-16653150D02*
X11072444Y-16653150D01*
X11072444Y-16653150D02*
X11091491Y-16662674D01*
X11091491Y-16662674D02*
X11101015Y-16681722D01*
X11101015Y-16681722D02*
X11101015Y-16786484D01*
X11491491Y-16576960D02*
X11320063Y-16834103D01*
X11748634Y-16586484D02*
X11767682Y-16586484D01*
X11767682Y-16586484D02*
X11786729Y-16596008D01*
X11786729Y-16596008D02*
X11796253Y-16605531D01*
X11796253Y-16605531D02*
X11805777Y-16624579D01*
X11805777Y-16624579D02*
X11815301Y-16662674D01*
X11815301Y-16662674D02*
X11815301Y-16710293D01*
X11815301Y-16710293D02*
X11805777Y-16748388D01*
X11805777Y-16748388D02*
X11796253Y-16767436D01*
X11796253Y-16767436D02*
X11786729Y-16776960D01*
X11786729Y-16776960D02*
X11767682Y-16786484D01*
X11767682Y-16786484D02*
X11748634Y-16786484D01*
X11748634Y-16786484D02*
X11729586Y-16776960D01*
X11729586Y-16776960D02*
X11720063Y-16767436D01*
X11720063Y-16767436D02*
X11710539Y-16748388D01*
X11710539Y-16748388D02*
X11701015Y-16710293D01*
X11701015Y-16710293D02*
X11701015Y-16662674D01*
X11701015Y-16662674D02*
X11710539Y-16624579D01*
X11710539Y-16624579D02*
X11720063Y-16605531D01*
X11720063Y-16605531D02*
X11729586Y-16596008D01*
X11729586Y-16596008D02*
X11748634Y-16586484D01*
X11901015Y-16767436D02*
X11910539Y-16776960D01*
X11910539Y-16776960D02*
X11901015Y-16786484D01*
X11901015Y-16786484D02*
X11891491Y-16776960D01*
X11891491Y-16776960D02*
X11901015Y-16767436D01*
X11901015Y-16767436D02*
X11901015Y-16786484D01*
X12034348Y-16586484D02*
X12053396Y-16586484D01*
X12053396Y-16586484D02*
X12072444Y-16596008D01*
X12072444Y-16596008D02*
X12081967Y-16605531D01*
X12081967Y-16605531D02*
X12091491Y-16624579D01*
X12091491Y-16624579D02*
X12101015Y-16662674D01*
X12101015Y-16662674D02*
X12101015Y-16710293D01*
X12101015Y-16710293D02*
X12091491Y-16748388D01*
X12091491Y-16748388D02*
X12081967Y-16767436D01*
X12081967Y-16767436D02*
X12072444Y-16776960D01*
X12072444Y-16776960D02*
X12053396Y-16786484D01*
X12053396Y-16786484D02*
X12034348Y-16786484D01*
X12034348Y-16786484D02*
X12015301Y-16776960D01*
X12015301Y-16776960D02*
X12005777Y-16767436D01*
X12005777Y-16767436D02*
X11996253Y-16748388D01*
X11996253Y-16748388D02*
X11986729Y-16710293D01*
X11986729Y-16710293D02*
X11986729Y-16662674D01*
X11986729Y-16662674D02*
X11996253Y-16624579D01*
X11996253Y-16624579D02*
X12005777Y-16605531D01*
X12005777Y-16605531D02*
X12015301Y-16596008D01*
X12015301Y-16596008D02*
X12034348Y-16586484D01*
X12167682Y-16586484D02*
X12291491Y-16586484D01*
X12291491Y-16586484D02*
X12224825Y-16662674D01*
X12224825Y-16662674D02*
X12253396Y-16662674D01*
X12253396Y-16662674D02*
X12272444Y-16672198D01*
X12272444Y-16672198D02*
X12281967Y-16681722D01*
X12281967Y-16681722D02*
X12291491Y-16700769D01*
X12291491Y-16700769D02*
X12291491Y-16748388D01*
X12291491Y-16748388D02*
X12281967Y-16767436D01*
X12281967Y-16767436D02*
X12272444Y-16776960D01*
X12272444Y-16776960D02*
X12253396Y-16786484D01*
X12253396Y-16786484D02*
X12196253Y-16786484D01*
X12196253Y-16786484D02*
X12177206Y-16776960D01*
X12177206Y-16776960D02*
X12167682Y-16767436D01*
X12386729Y-16786484D02*
X12424825Y-16786484D01*
X12424825Y-16786484D02*
X12443872Y-16776960D01*
X12443872Y-16776960D02*
X12453396Y-16767436D01*
X12453396Y-16767436D02*
X12472444Y-16738865D01*
X12472444Y-16738865D02*
X12481967Y-16700769D01*
X12481967Y-16700769D02*
X12481967Y-16624579D01*
X12481967Y-16624579D02*
X12472444Y-16605531D01*
X12472444Y-16605531D02*
X12462920Y-16596008D01*
X12462920Y-16596008D02*
X12443872Y-16586484D01*
X12443872Y-16586484D02*
X12405777Y-16586484D01*
X12405777Y-16586484D02*
X12386729Y-16596008D01*
X12386729Y-16596008D02*
X12377206Y-16605531D01*
X12377206Y-16605531D02*
X12367682Y-16624579D01*
X12367682Y-16624579D02*
X12367682Y-16672198D01*
X12367682Y-16672198D02*
X12377206Y-16691246D01*
X12377206Y-16691246D02*
X12386729Y-16700769D01*
X12386729Y-16700769D02*
X12405777Y-16710293D01*
X12405777Y-16710293D02*
X12443872Y-16710293D01*
X12443872Y-16710293D02*
X12462920Y-16700769D01*
X12462920Y-16700769D02*
X12472444Y-16691246D01*
X12472444Y-16691246D02*
X12481967Y-16672198D01*
X12653396Y-16653150D02*
X12653396Y-16786484D01*
X12605777Y-16576960D02*
X12558158Y-16719817D01*
X12558158Y-16719817D02*
X12681967Y-16719817D01*
X12748634Y-16586484D02*
X12748634Y-16624579D01*
X12824825Y-16586484D02*
X12824825Y-16624579D01*
X13120063Y-16862674D02*
X13110539Y-16853150D01*
X13110539Y-16853150D02*
X13091491Y-16824579D01*
X13091491Y-16824579D02*
X13081968Y-16805531D01*
X13081968Y-16805531D02*
X13072444Y-16776960D01*
X13072444Y-16776960D02*
X13062920Y-16729341D01*
X13062920Y-16729341D02*
X13062920Y-16691246D01*
X13062920Y-16691246D02*
X13072444Y-16643627D01*
X13072444Y-16643627D02*
X13081968Y-16615055D01*
X13081968Y-16615055D02*
X13091491Y-16596008D01*
X13091491Y-16596008D02*
X13110539Y-16567436D01*
X13110539Y-16567436D02*
X13120063Y-16557912D01*
X13224825Y-16672198D02*
X13205777Y-16662674D01*
X13205777Y-16662674D02*
X13196253Y-16653150D01*
X13196253Y-16653150D02*
X13186729Y-16634103D01*
X13186729Y-16634103D02*
X13186729Y-16624579D01*
X13186729Y-16624579D02*
X13196253Y-16605531D01*
X13196253Y-16605531D02*
X13205777Y-16596008D01*
X13205777Y-16596008D02*
X13224825Y-16586484D01*
X13224825Y-16586484D02*
X13262920Y-16586484D01*
X13262920Y-16586484D02*
X13281968Y-16596008D01*
X13281968Y-16596008D02*
X13291491Y-16605531D01*
X13291491Y-16605531D02*
X13301015Y-16624579D01*
X13301015Y-16624579D02*
X13301015Y-16634103D01*
X13301015Y-16634103D02*
X13291491Y-16653150D01*
X13291491Y-16653150D02*
X13281968Y-16662674D01*
X13281968Y-16662674D02*
X13262920Y-16672198D01*
X13262920Y-16672198D02*
X13224825Y-16672198D01*
X13224825Y-16672198D02*
X13205777Y-16681722D01*
X13205777Y-16681722D02*
X13196253Y-16691246D01*
X13196253Y-16691246D02*
X13186729Y-16710293D01*
X13186729Y-16710293D02*
X13186729Y-16748388D01*
X13186729Y-16748388D02*
X13196253Y-16767436D01*
X13196253Y-16767436D02*
X13205777Y-16776960D01*
X13205777Y-16776960D02*
X13224825Y-16786484D01*
X13224825Y-16786484D02*
X13262920Y-16786484D01*
X13262920Y-16786484D02*
X13281968Y-16776960D01*
X13281968Y-16776960D02*
X13291491Y-16767436D01*
X13291491Y-16767436D02*
X13301015Y-16748388D01*
X13301015Y-16748388D02*
X13301015Y-16710293D01*
X13301015Y-16710293D02*
X13291491Y-16691246D01*
X13291491Y-16691246D02*
X13281968Y-16681722D01*
X13281968Y-16681722D02*
X13262920Y-16672198D01*
X13424825Y-16586484D02*
X13443872Y-16586484D01*
X13443872Y-16586484D02*
X13462920Y-16596008D01*
X13462920Y-16596008D02*
X13472444Y-16605531D01*
X13472444Y-16605531D02*
X13481968Y-16624579D01*
X13481968Y-16624579D02*
X13491491Y-16662674D01*
X13491491Y-16662674D02*
X13491491Y-16710293D01*
X13491491Y-16710293D02*
X13481968Y-16748388D01*
X13481968Y-16748388D02*
X13472444Y-16767436D01*
X13472444Y-16767436D02*
X13462920Y-16776960D01*
X13462920Y-16776960D02*
X13443872Y-16786484D01*
X13443872Y-16786484D02*
X13424825Y-16786484D01*
X13424825Y-16786484D02*
X13405777Y-16776960D01*
X13405777Y-16776960D02*
X13396253Y-16767436D01*
X13396253Y-16767436D02*
X13386729Y-16748388D01*
X13386729Y-16748388D02*
X13377206Y-16710293D01*
X13377206Y-16710293D02*
X13377206Y-16662674D01*
X13377206Y-16662674D02*
X13386729Y-16624579D01*
X13386729Y-16624579D02*
X13396253Y-16605531D01*
X13396253Y-16605531D02*
X13405777Y-16596008D01*
X13405777Y-16596008D02*
X13424825Y-16586484D01*
X13729587Y-16786484D02*
X13729587Y-16586484D01*
X13815301Y-16786484D02*
X13815301Y-16681722D01*
X13815301Y-16681722D02*
X13805777Y-16662674D01*
X13805777Y-16662674D02*
X13786730Y-16653150D01*
X13786730Y-16653150D02*
X13758158Y-16653150D01*
X13758158Y-16653150D02*
X13739110Y-16662674D01*
X13739110Y-16662674D02*
X13729587Y-16672198D01*
X13939110Y-16786484D02*
X13920063Y-16776960D01*
X13920063Y-16776960D02*
X13910539Y-16767436D01*
X13910539Y-16767436D02*
X13901015Y-16748388D01*
X13901015Y-16748388D02*
X13901015Y-16691246D01*
X13901015Y-16691246D02*
X13910539Y-16672198D01*
X13910539Y-16672198D02*
X13920063Y-16662674D01*
X13920063Y-16662674D02*
X13939110Y-16653150D01*
X13939110Y-16653150D02*
X13967682Y-16653150D01*
X13967682Y-16653150D02*
X13986730Y-16662674D01*
X13986730Y-16662674D02*
X13996253Y-16672198D01*
X13996253Y-16672198D02*
X14005777Y-16691246D01*
X14005777Y-16691246D02*
X14005777Y-16748388D01*
X14005777Y-16748388D02*
X13996253Y-16767436D01*
X13996253Y-16767436D02*
X13986730Y-16776960D01*
X13986730Y-16776960D02*
X13967682Y-16786484D01*
X13967682Y-16786484D02*
X13939110Y-16786484D01*
X14120063Y-16786484D02*
X14101015Y-16776960D01*
X14101015Y-16776960D02*
X14091491Y-16757912D01*
X14091491Y-16757912D02*
X14091491Y-16586484D01*
X14272444Y-16776960D02*
X14253396Y-16786484D01*
X14253396Y-16786484D02*
X14215301Y-16786484D01*
X14215301Y-16786484D02*
X14196253Y-16776960D01*
X14196253Y-16776960D02*
X14186730Y-16757912D01*
X14186730Y-16757912D02*
X14186730Y-16681722D01*
X14186730Y-16681722D02*
X14196253Y-16662674D01*
X14196253Y-16662674D02*
X14215301Y-16653150D01*
X14215301Y-16653150D02*
X14253396Y-16653150D01*
X14253396Y-16653150D02*
X14272444Y-16662674D01*
X14272444Y-16662674D02*
X14281968Y-16681722D01*
X14281968Y-16681722D02*
X14281968Y-16700769D01*
X14281968Y-16700769D02*
X14186730Y-16719817D01*
X14358158Y-16776960D02*
X14377206Y-16786484D01*
X14377206Y-16786484D02*
X14415301Y-16786484D01*
X14415301Y-16786484D02*
X14434349Y-16776960D01*
X14434349Y-16776960D02*
X14443872Y-16757912D01*
X14443872Y-16757912D02*
X14443872Y-16748388D01*
X14443872Y-16748388D02*
X14434349Y-16729341D01*
X14434349Y-16729341D02*
X14415301Y-16719817D01*
X14415301Y-16719817D02*
X14386730Y-16719817D01*
X14386730Y-16719817D02*
X14367682Y-16710293D01*
X14367682Y-16710293D02*
X14358158Y-16691246D01*
X14358158Y-16691246D02*
X14358158Y-16681722D01*
X14358158Y-16681722D02*
X14367682Y-16662674D01*
X14367682Y-16662674D02*
X14386730Y-16653150D01*
X14386730Y-16653150D02*
X14415301Y-16653150D01*
X14415301Y-16653150D02*
X14434349Y-16662674D01*
X14510539Y-16862674D02*
X14520063Y-16853150D01*
X14520063Y-16853150D02*
X14539111Y-16824579D01*
X14539111Y-16824579D02*
X14548634Y-16805531D01*
X14548634Y-16805531D02*
X14558158Y-16776960D01*
X14558158Y-16776960D02*
X14567682Y-16729341D01*
X14567682Y-16729341D02*
X14567682Y-16691246D01*
X14567682Y-16691246D02*
X14558158Y-16643627D01*
X14558158Y-16643627D02*
X14548634Y-16615055D01*
X14548634Y-16615055D02*
X14539111Y-16596008D01*
X14539111Y-16596008D02*
X14520063Y-16567436D01*
X14520063Y-16567436D02*
X14510539Y-16557912D01*
M02*
