M48
; DRILL file KiCad 10.0.6 date 2026-09-05T17:26:06
; FORMAT={-:-/ absolute / metric / decimal}
; #@! TF.CreationDate,2026-09-05T17:26:06-05:00
; #@! TF.GenerationSoftware,Kicad,Pcbnew,10.0.6
; #@! TF.FileFunction,MixedPlating,1,2
FMAT,2
METRIC
; #@! TA.AperFunction,Plated,PTH,ComponentDrill
T1C1.000
%
G90
G05
T1
X102.54Y-144.92
X102.54Y-147.46
X102.54Y-150.0
X102.54Y-152.54
X105.08Y-144.92
X105.08Y-147.46
X105.08Y-150.0
X105.08Y-152.54
X107.62Y-144.92
X107.62Y-147.46
X107.62Y-150.0
X107.62Y-152.54
X110.16Y-144.92
X110.16Y-147.46
X110.16Y-150.0
X110.16Y-152.54
X112.7Y-144.92
X112.7Y-147.46
X112.7Y-150.0
X112.7Y-152.54
X115.24Y-144.92
X115.24Y-147.46
X115.24Y-150.0
X115.24Y-152.54
X117.78Y-144.92
X117.78Y-147.46
X117.78Y-150.0
X117.78Y-152.54
X120.32Y-144.92
X120.32Y-147.46
X120.32Y-150.0
X120.32Y-152.54
X122.86Y-144.92
X122.86Y-147.46
X122.86Y-150.0
X122.86Y-152.54
X125.4Y-144.92
X125.4Y-147.46
X125.4Y-150.0
X125.4Y-152.54
X127.94Y-144.92
X127.94Y-147.46
X127.94Y-150.0
X127.94Y-152.54
X130.48Y-144.92
X130.48Y-147.46
X130.48Y-150.0
X130.48Y-152.54
X133.02Y-144.92
X133.02Y-147.46
X133.02Y-150.0
X133.02Y-152.54
X135.56Y-144.92
X135.56Y-147.46
X135.56Y-150.0
X135.56Y-152.54
X138.1Y-144.92
X138.1Y-147.46
X138.1Y-150.0
X138.1Y-152.54
X140.64Y-144.92
X140.64Y-147.46
X140.64Y-150.0
X140.64Y-152.54
X143.18Y-144.92
X143.18Y-147.46
X143.18Y-150.0
X143.18Y-152.54
X145.72Y-144.92
X145.72Y-147.46
X145.72Y-150.0
X145.72Y-152.54
X148.26Y-144.92
X148.26Y-147.46
X148.26Y-150.0
X148.26Y-152.54
X150.8Y-144.92
X150.8Y-147.46
X150.8Y-150.0
X150.8Y-152.54
M30
