G04 #@! TF.GenerationSoftware,KiCad,Pcbnew,10.0.6*
G04 #@! TF.CreationDate,2026-09-05T17:26:05-05:00*
G04 #@! TF.ProjectId,PiCoCo-Cobbler,5069436f-436f-42d4-936f-62626c65722e,rev?*
G04 #@! TF.SameCoordinates,Original*
G04 #@! TF.FileFunction,Soldermask,Top*
G04 #@! TF.FilePolarity,Negative*
%FSLAX46Y46*%
G04 Gerber Fmt 4.6, Leading zero omitted, Abs format (unit mm)*
G04 Created by KiCad (PCBNEW 10.0.6) date 2026-09-05 17:26:05*
%MOMM*%
%LPD*%
G01*
G04 APERTURE LIST*
G04 Aperture macros list*
%AMRoundRect*
0 Rectangle with rounded corners*
0 $1 Rounding radius*
0 $2 $3 $4 $5 $6 $7 $8 $9 X,Y pos of 4 corners*
0 Add a 4 corners polygon primitive as box body*
4,1,4,$2,$3,$4,$5,$6,$7,$8,$9,$2,$3,0*
0 Add four circle primitives for the rounded corners*
1,1,$1+$1,$2,$3*
1,1,$1+$1,$4,$5*
1,1,$1+$1,$6,$7*
1,1,$1+$1,$8,$9*
0 Add four rect primitives between the rounded corners*
20,1,$1+$1,$2,$3,$4,$5,0*
20,1,$1+$1,$4,$5,$6,$7,0*
20,1,$1+$1,$6,$7,$8,$9,0*
20,1,$1+$1,$8,$9,$2,$3,0*%
G04 Aperture macros list end*
%ADD10RoundRect,0.250000X0.600000X-0.600000X0.600000X0.600000X-0.600000X0.600000X-0.600000X-0.600000X0*%
%ADD11C,1.700000*%
%ADD12R,1.700000X1.700000*%
G04 APERTURE END LIST*
D10*
G04 #@! TO.C,J1*
X102540000Y-150000000D03*
D11*
X102540000Y-147460000D03*
X105080000Y-150000000D03*
X105080000Y-147460000D03*
X107620000Y-150000000D03*
X107620000Y-147460000D03*
X110160000Y-150000000D03*
X110160000Y-147460000D03*
X112700000Y-150000000D03*
X112700000Y-147460000D03*
X115240000Y-150000000D03*
X115240000Y-147460000D03*
X117780000Y-150000000D03*
X117780000Y-147460000D03*
X120320000Y-150000000D03*
X120320000Y-147460000D03*
X122860000Y-150000000D03*
X122860000Y-147460000D03*
X125400000Y-150000000D03*
X125400000Y-147460000D03*
X127940000Y-150000000D03*
X127940000Y-147460000D03*
X130480000Y-150000000D03*
X130480000Y-147460000D03*
X133020000Y-150000000D03*
X133020000Y-147460000D03*
X135560000Y-150000000D03*
X135560000Y-147460000D03*
X138100000Y-150000000D03*
X138100000Y-147460000D03*
X140640000Y-150000000D03*
X140640000Y-147460000D03*
X143180000Y-150000000D03*
X143180000Y-147460000D03*
X145720000Y-150000000D03*
X145720000Y-147460000D03*
X148260000Y-150000000D03*
X148260000Y-147460000D03*
X150800000Y-150000000D03*
X150800000Y-147460000D03*
G04 #@! TD*
D12*
G04 #@! TO.C,J2*
X102540000Y-152540000D03*
D11*
X105080000Y-152540000D03*
X107620000Y-152540000D03*
X110160000Y-152540000D03*
X112700000Y-152540000D03*
X115240000Y-152540000D03*
X117780000Y-152540000D03*
X120320000Y-152540000D03*
X122860000Y-152540000D03*
X125400000Y-152540000D03*
X127940000Y-152540000D03*
X130480000Y-152540000D03*
X133020000Y-152540000D03*
X135560000Y-152540000D03*
X138100000Y-152540000D03*
X140640000Y-152540000D03*
X143180000Y-152540000D03*
X145720000Y-152540000D03*
X148260000Y-152540000D03*
X150800000Y-152540000D03*
G04 #@! TD*
D12*
G04 #@! TO.C,J3*
X102540000Y-144920000D03*
D11*
X105080000Y-144920000D03*
X107620000Y-144920000D03*
X110160000Y-144920000D03*
X112700000Y-144920000D03*
X115240000Y-144920000D03*
X117780000Y-144920000D03*
X120320000Y-144920000D03*
X122860000Y-144920000D03*
X125400000Y-144920000D03*
X127940000Y-144920000D03*
X130480000Y-144920000D03*
X133020000Y-144920000D03*
X135560000Y-144920000D03*
X138100000Y-144920000D03*
X140640000Y-144920000D03*
X143180000Y-144920000D03*
X145720000Y-144920000D03*
X148260000Y-144920000D03*
X150800000Y-144920000D03*
G04 #@! TD*
M02*
