G04 #@! TF.GenerationSoftware,KiCad,Pcbnew,10.0.6*
G04 #@! TF.CreationDate,2026-09-05T17:26:05-05:00*
G04 #@! TF.ProjectId,PiCoCo-Cobbler,5069436f-436f-42d4-936f-62626c65722e,rev?*
G04 #@! TF.SameCoordinates,Original*
G04 #@! TF.FileFunction,Legend,Top*
G04 #@! TF.FilePolarity,Positive*
%FSLAX46Y46*%
G04 Gerber Fmt 4.6, Leading zero omitted, Abs format (unit mm)*
G04 Created by KiCad (PCBNEW 10.0.6) date 2026-09-05 17:26:05*
%MOMM*%
%LPD*%
G01*
G04 APERTURE LIST*
G04 Aperture macros list*
%AMRoundRect*
0 Rectangle with rounded corners*
0 $1 Rounding radius*
0 $2 $3 $4 $5 $6 $7 $8 $9 X,Y pos of 4 corners*
0 Add a 4 corners polygon primitive as box body*
4,1,4,$2,$3,$4,$5,$6,$7,$8,$9,$2,$3,0*
0 Add four circle primitives for the rounded corners*
1,1,$1+$1,$2,$3*
1,1,$1+$1,$4,$5*
1,1,$1+$1,$6,$7*
1,1,$1+$1,$8,$9*
0 Add four rect primitives between the rounded corners*
20,1,$1+$1,$2,$3,$4,$5,0*
20,1,$1+$1,$4,$5,$6,$7,0*
20,1,$1+$1,$6,$7,$8,$9,0*
20,1,$1+$1,$8,$9,$2,$3,0*%
G04 Aperture macros list end*
%ADD10C,0.150000*%
%ADD11C,0.200000*%
%ADD12RoundRect,0.250000X0.600000X-0.600000X0.600000X0.600000X-0.600000X0.600000X-0.600000X-0.600000X0*%
%ADD13C,1.700000*%
%ADD14R,1.700000X1.700000*%
G04 APERTURE END LIST*
D10*
X102178485Y-141708935D02*
X102140390Y-141670839D01*
X102140390Y-141670839D02*
X102102295Y-141594649D01*
X102102295Y-141594649D02*
X102102295Y-141404173D01*
X102102295Y-141404173D02*
X102140390Y-141327982D01*
X102140390Y-141327982D02*
X102178485Y-141289887D01*
X102178485Y-141289887D02*
X102254676Y-141251792D01*
X102254676Y-141251792D02*
X102330866Y-141251792D01*
X102330866Y-141251792D02*
X102445152Y-141289887D01*
X102445152Y-141289887D02*
X102902295Y-141747030D01*
X102902295Y-141747030D02*
X102902295Y-141251792D01*
X102826104Y-140908934D02*
X102864200Y-140870839D01*
X102864200Y-140870839D02*
X102902295Y-140908934D01*
X102902295Y-140908934D02*
X102864200Y-140947030D01*
X102864200Y-140947030D02*
X102826104Y-140908934D01*
X102826104Y-140908934D02*
X102902295Y-140908934D01*
X102407057Y-140908934D02*
X102445152Y-140870839D01*
X102445152Y-140870839D02*
X102483247Y-140908934D01*
X102483247Y-140908934D02*
X102445152Y-140947030D01*
X102445152Y-140947030D02*
X102407057Y-140908934D01*
X102407057Y-140908934D02*
X102483247Y-140908934D01*
X102140390Y-140108935D02*
X102102295Y-140185125D01*
X102102295Y-140185125D02*
X102102295Y-140299411D01*
X102102295Y-140299411D02*
X102140390Y-140413697D01*
X102140390Y-140413697D02*
X102216580Y-140489887D01*
X102216580Y-140489887D02*
X102292771Y-140527982D01*
X102292771Y-140527982D02*
X102445152Y-140566078D01*
X102445152Y-140566078D02*
X102559438Y-140566078D01*
X102559438Y-140566078D02*
X102711819Y-140527982D01*
X102711819Y-140527982D02*
X102788009Y-140489887D01*
X102788009Y-140489887D02*
X102864200Y-140413697D01*
X102864200Y-140413697D02*
X102902295Y-140299411D01*
X102902295Y-140299411D02*
X102902295Y-140223220D01*
X102902295Y-140223220D02*
X102864200Y-140108935D01*
X102864200Y-140108935D02*
X102826104Y-140070839D01*
X102826104Y-140070839D02*
X102559438Y-140070839D01*
X102559438Y-140070839D02*
X102559438Y-140223220D01*
X102902295Y-139727982D02*
X102102295Y-139727982D01*
X102102295Y-139727982D02*
X102902295Y-139270839D01*
X102902295Y-139270839D02*
X102102295Y-139270839D01*
X102902295Y-138889887D02*
X102102295Y-138889887D01*
X102102295Y-138889887D02*
X102102295Y-138699411D01*
X102102295Y-138699411D02*
X102140390Y-138585125D01*
X102140390Y-138585125D02*
X102216580Y-138508935D01*
X102216580Y-138508935D02*
X102292771Y-138470840D01*
X102292771Y-138470840D02*
X102445152Y-138432744D01*
X102445152Y-138432744D02*
X102559438Y-138432744D01*
X102559438Y-138432744D02*
X102711819Y-138470840D01*
X102711819Y-138470840D02*
X102788009Y-138508935D01*
X102788009Y-138508935D02*
X102864200Y-138585125D01*
X102864200Y-138585125D02*
X102902295Y-138699411D01*
X102902295Y-138699411D02*
X102902295Y-138889887D01*
X102902295Y-159191792D02*
X102902295Y-159648935D01*
X102902295Y-159420363D02*
X102102295Y-159420363D01*
X102102295Y-159420363D02*
X102216580Y-159496554D01*
X102216580Y-159496554D02*
X102292771Y-159572744D01*
X102292771Y-159572744D02*
X102330866Y-159648935D01*
X102826104Y-158848934D02*
X102864200Y-158810839D01*
X102864200Y-158810839D02*
X102902295Y-158848934D01*
X102902295Y-158848934D02*
X102864200Y-158887030D01*
X102864200Y-158887030D02*
X102826104Y-158848934D01*
X102826104Y-158848934D02*
X102902295Y-158848934D01*
X102407057Y-158848934D02*
X102445152Y-158810839D01*
X102445152Y-158810839D02*
X102483247Y-158848934D01*
X102483247Y-158848934D02*
X102445152Y-158887030D01*
X102445152Y-158887030D02*
X102407057Y-158848934D01*
X102407057Y-158848934D02*
X102483247Y-158848934D01*
X102140390Y-158048935D02*
X102102295Y-158125125D01*
X102102295Y-158125125D02*
X102102295Y-158239411D01*
X102102295Y-158239411D02*
X102140390Y-158353697D01*
X102140390Y-158353697D02*
X102216580Y-158429887D01*
X102216580Y-158429887D02*
X102292771Y-158467982D01*
X102292771Y-158467982D02*
X102445152Y-158506078D01*
X102445152Y-158506078D02*
X102559438Y-158506078D01*
X102559438Y-158506078D02*
X102711819Y-158467982D01*
X102711819Y-158467982D02*
X102788009Y-158429887D01*
X102788009Y-158429887D02*
X102864200Y-158353697D01*
X102864200Y-158353697D02*
X102902295Y-158239411D01*
X102902295Y-158239411D02*
X102902295Y-158163220D01*
X102902295Y-158163220D02*
X102864200Y-158048935D01*
X102864200Y-158048935D02*
X102826104Y-158010839D01*
X102826104Y-158010839D02*
X102559438Y-158010839D01*
X102559438Y-158010839D02*
X102559438Y-158163220D01*
X102902295Y-157667982D02*
X102102295Y-157667982D01*
X102102295Y-157667982D02*
X102902295Y-157210839D01*
X102902295Y-157210839D02*
X102102295Y-157210839D01*
X102902295Y-156829887D02*
X102102295Y-156829887D01*
X102102295Y-156829887D02*
X102102295Y-156639411D01*
X102102295Y-156639411D02*
X102140390Y-156525125D01*
X102140390Y-156525125D02*
X102216580Y-156448935D01*
X102216580Y-156448935D02*
X102292771Y-156410840D01*
X102292771Y-156410840D02*
X102445152Y-156372744D01*
X102445152Y-156372744D02*
X102559438Y-156372744D01*
X102559438Y-156372744D02*
X102711819Y-156410840D01*
X102711819Y-156410840D02*
X102788009Y-156448935D01*
X102788009Y-156448935D02*
X102864200Y-156525125D01*
X102864200Y-156525125D02*
X102902295Y-156639411D01*
X102902295Y-156639411D02*
X102902295Y-156829887D01*
X104604200Y-141099411D02*
X105632771Y-141785125D01*
X105442295Y-140832744D02*
X104642295Y-140832744D01*
X104642295Y-140832744D02*
X105442295Y-140375601D01*
X105442295Y-140375601D02*
X104642295Y-140375601D01*
X105442295Y-139994649D02*
X104642295Y-139994649D01*
X104642295Y-139994649D02*
X105213723Y-139727983D01*
X105213723Y-139727983D02*
X104642295Y-139461316D01*
X104642295Y-139461316D02*
X105442295Y-139461316D01*
X105442295Y-139080363D02*
X104642295Y-139080363D01*
X104604200Y-159039411D02*
X105632771Y-159725125D01*
X105442295Y-158772744D02*
X104642295Y-158772744D01*
X105023247Y-158772744D02*
X105023247Y-158315601D01*
X105442295Y-158315601D02*
X104642295Y-158315601D01*
X105213723Y-157972745D02*
X105213723Y-157591792D01*
X105442295Y-158048935D02*
X104642295Y-157782268D01*
X104642295Y-157782268D02*
X105442295Y-157515602D01*
X105442295Y-156867983D02*
X105442295Y-157248935D01*
X105442295Y-157248935D02*
X104642295Y-157248935D01*
X104642295Y-156715602D02*
X104642295Y-156258459D01*
X105442295Y-156487031D02*
X104642295Y-156487031D01*
X107563247Y-141670839D02*
X107563247Y-141404173D01*
X107982295Y-141289887D02*
X107982295Y-141670839D01*
X107982295Y-141670839D02*
X107182295Y-141670839D01*
X107182295Y-141670839D02*
X107182295Y-141289887D01*
X107144200Y-159039411D02*
X108172771Y-159725125D01*
X107982295Y-158315601D02*
X107601342Y-158582268D01*
X107982295Y-158772744D02*
X107182295Y-158772744D01*
X107182295Y-158772744D02*
X107182295Y-158467982D01*
X107182295Y-158467982D02*
X107220390Y-158391792D01*
X107220390Y-158391792D02*
X107258485Y-158353697D01*
X107258485Y-158353697D02*
X107334676Y-158315601D01*
X107334676Y-158315601D02*
X107448961Y-158315601D01*
X107448961Y-158315601D02*
X107525152Y-158353697D01*
X107525152Y-158353697D02*
X107563247Y-158391792D01*
X107563247Y-158391792D02*
X107601342Y-158467982D01*
X107601342Y-158467982D02*
X107601342Y-158772744D01*
X107563247Y-157972744D02*
X107563247Y-157706078D01*
X107982295Y-157591792D02*
X107982295Y-157972744D01*
X107982295Y-157972744D02*
X107182295Y-157972744D01*
X107182295Y-157972744D02*
X107182295Y-157591792D01*
X107944200Y-157287030D02*
X107982295Y-157172744D01*
X107982295Y-157172744D02*
X107982295Y-156982268D01*
X107982295Y-156982268D02*
X107944200Y-156906077D01*
X107944200Y-156906077D02*
X107906104Y-156867982D01*
X107906104Y-156867982D02*
X107829914Y-156829887D01*
X107829914Y-156829887D02*
X107753723Y-156829887D01*
X107753723Y-156829887D02*
X107677533Y-156867982D01*
X107677533Y-156867982D02*
X107639438Y-156906077D01*
X107639438Y-156906077D02*
X107601342Y-156982268D01*
X107601342Y-156982268D02*
X107563247Y-157134649D01*
X107563247Y-157134649D02*
X107525152Y-157210839D01*
X107525152Y-157210839D02*
X107487057Y-157248934D01*
X107487057Y-157248934D02*
X107410866Y-157287030D01*
X107410866Y-157287030D02*
X107334676Y-157287030D01*
X107334676Y-157287030D02*
X107258485Y-157248934D01*
X107258485Y-157248934D02*
X107220390Y-157210839D01*
X107220390Y-157210839D02*
X107182295Y-157134649D01*
X107182295Y-157134649D02*
X107182295Y-156944172D01*
X107182295Y-156944172D02*
X107220390Y-156829887D01*
X107563247Y-156487029D02*
X107563247Y-156220363D01*
X107982295Y-156106077D02*
X107982295Y-156487029D01*
X107982295Y-156487029D02*
X107182295Y-156487029D01*
X107182295Y-156487029D02*
X107182295Y-156106077D01*
X107182295Y-155877505D02*
X107182295Y-155420362D01*
X107982295Y-155648934D02*
X107182295Y-155648934D01*
X109684200Y-141099411D02*
X110712771Y-141785125D01*
X110446104Y-140375601D02*
X110484200Y-140413697D01*
X110484200Y-140413697D02*
X110522295Y-140527982D01*
X110522295Y-140527982D02*
X110522295Y-140604173D01*
X110522295Y-140604173D02*
X110484200Y-140718459D01*
X110484200Y-140718459D02*
X110408009Y-140794649D01*
X110408009Y-140794649D02*
X110331819Y-140832744D01*
X110331819Y-140832744D02*
X110179438Y-140870840D01*
X110179438Y-140870840D02*
X110065152Y-140870840D01*
X110065152Y-140870840D02*
X109912771Y-140832744D01*
X109912771Y-140832744D02*
X109836580Y-140794649D01*
X109836580Y-140794649D02*
X109760390Y-140718459D01*
X109760390Y-140718459D02*
X109722295Y-140604173D01*
X109722295Y-140604173D02*
X109722295Y-140527982D01*
X109722295Y-140527982D02*
X109760390Y-140413697D01*
X109760390Y-140413697D02*
X109798485Y-140375601D01*
X110293723Y-140070840D02*
X110293723Y-139689887D01*
X110522295Y-140147030D02*
X109722295Y-139880363D01*
X109722295Y-139880363D02*
X110522295Y-139613697D01*
X110522295Y-138889887D02*
X110141342Y-139156554D01*
X110522295Y-139347030D02*
X109722295Y-139347030D01*
X109722295Y-139347030D02*
X109722295Y-139042268D01*
X109722295Y-139042268D02*
X109760390Y-138966078D01*
X109760390Y-138966078D02*
X109798485Y-138927983D01*
X109798485Y-138927983D02*
X109874676Y-138889887D01*
X109874676Y-138889887D02*
X109988961Y-138889887D01*
X109988961Y-138889887D02*
X110065152Y-138927983D01*
X110065152Y-138927983D02*
X110103247Y-138966078D01*
X110103247Y-138966078D02*
X110141342Y-139042268D01*
X110141342Y-139042268D02*
X110141342Y-139347030D01*
X109722295Y-138661316D02*
X109722295Y-138204173D01*
X110522295Y-138432745D02*
X109722295Y-138432745D01*
X110598485Y-159077506D02*
X110560390Y-159153696D01*
X110560390Y-159153696D02*
X110484200Y-159229887D01*
X110484200Y-159229887D02*
X110369914Y-159344173D01*
X110369914Y-159344173D02*
X110331819Y-159420363D01*
X110331819Y-159420363D02*
X110331819Y-159496554D01*
X110522295Y-159458458D02*
X110484200Y-159534649D01*
X110484200Y-159534649D02*
X110408009Y-159610839D01*
X110408009Y-159610839D02*
X110255628Y-159648935D01*
X110255628Y-159648935D02*
X109988961Y-159648935D01*
X109988961Y-159648935D02*
X109836580Y-159610839D01*
X109836580Y-159610839D02*
X109760390Y-159534649D01*
X109760390Y-159534649D02*
X109722295Y-159458458D01*
X109722295Y-159458458D02*
X109722295Y-159306077D01*
X109722295Y-159306077D02*
X109760390Y-159229887D01*
X109760390Y-159229887D02*
X109836580Y-159153696D01*
X109836580Y-159153696D02*
X109988961Y-159115601D01*
X109988961Y-159115601D02*
X110255628Y-159115601D01*
X110255628Y-159115601D02*
X110408009Y-159153696D01*
X110408009Y-159153696D02*
X110484200Y-159229887D01*
X110484200Y-159229887D02*
X110522295Y-159306077D01*
X110522295Y-159306077D02*
X110522295Y-159458458D01*
X113062295Y-141670839D02*
X112262295Y-141670839D01*
X112262295Y-141670839D02*
X112262295Y-141480363D01*
X112262295Y-141480363D02*
X112300390Y-141366077D01*
X112300390Y-141366077D02*
X112376580Y-141289887D01*
X112376580Y-141289887D02*
X112452771Y-141251792D01*
X112452771Y-141251792D02*
X112605152Y-141213696D01*
X112605152Y-141213696D02*
X112719438Y-141213696D01*
X112719438Y-141213696D02*
X112871819Y-141251792D01*
X112871819Y-141251792D02*
X112948009Y-141289887D01*
X112948009Y-141289887D02*
X113024200Y-141366077D01*
X113024200Y-141366077D02*
X113062295Y-141480363D01*
X113062295Y-141480363D02*
X113062295Y-141670839D01*
X112262295Y-140718458D02*
X112262295Y-140642268D01*
X112262295Y-140642268D02*
X112300390Y-140566077D01*
X112300390Y-140566077D02*
X112338485Y-140527982D01*
X112338485Y-140527982D02*
X112414676Y-140489887D01*
X112414676Y-140489887D02*
X112567057Y-140451792D01*
X112567057Y-140451792D02*
X112757533Y-140451792D01*
X112757533Y-140451792D02*
X112909914Y-140489887D01*
X112909914Y-140489887D02*
X112986104Y-140527982D01*
X112986104Y-140527982D02*
X113024200Y-140566077D01*
X113024200Y-140566077D02*
X113062295Y-140642268D01*
X113062295Y-140642268D02*
X113062295Y-140718458D01*
X113062295Y-140718458D02*
X113024200Y-140794649D01*
X113024200Y-140794649D02*
X112986104Y-140832744D01*
X112986104Y-140832744D02*
X112909914Y-140870839D01*
X112909914Y-140870839D02*
X112757533Y-140908935D01*
X112757533Y-140908935D02*
X112567057Y-140908935D01*
X112567057Y-140908935D02*
X112414676Y-140870839D01*
X112414676Y-140870839D02*
X112338485Y-140832744D01*
X112338485Y-140832744D02*
X112300390Y-140794649D01*
X112300390Y-140794649D02*
X112262295Y-140718458D01*
X112757533Y-159610839D02*
X112757533Y-159001316D01*
X113062295Y-159306077D02*
X112452771Y-159306077D01*
X112262295Y-158239411D02*
X112262295Y-158620363D01*
X112262295Y-158620363D02*
X112643247Y-158658459D01*
X112643247Y-158658459D02*
X112605152Y-158620363D01*
X112605152Y-158620363D02*
X112567057Y-158544173D01*
X112567057Y-158544173D02*
X112567057Y-158353697D01*
X112567057Y-158353697D02*
X112605152Y-158277506D01*
X112605152Y-158277506D02*
X112643247Y-158239411D01*
X112643247Y-158239411D02*
X112719438Y-158201316D01*
X112719438Y-158201316D02*
X112909914Y-158201316D01*
X112909914Y-158201316D02*
X112986104Y-158239411D01*
X112986104Y-158239411D02*
X113024200Y-158277506D01*
X113024200Y-158277506D02*
X113062295Y-158353697D01*
X113062295Y-158353697D02*
X113062295Y-158544173D01*
X113062295Y-158544173D02*
X113024200Y-158620363D01*
X113024200Y-158620363D02*
X112986104Y-158658459D01*
X112262295Y-157972744D02*
X113062295Y-157706077D01*
X113062295Y-157706077D02*
X112262295Y-157439411D01*
X115602295Y-141670839D02*
X114802295Y-141670839D01*
X114802295Y-141670839D02*
X114802295Y-141480363D01*
X114802295Y-141480363D02*
X114840390Y-141366077D01*
X114840390Y-141366077D02*
X114916580Y-141289887D01*
X114916580Y-141289887D02*
X114992771Y-141251792D01*
X114992771Y-141251792D02*
X115145152Y-141213696D01*
X115145152Y-141213696D02*
X115259438Y-141213696D01*
X115259438Y-141213696D02*
X115411819Y-141251792D01*
X115411819Y-141251792D02*
X115488009Y-141289887D01*
X115488009Y-141289887D02*
X115564200Y-141366077D01*
X115564200Y-141366077D02*
X115602295Y-141480363D01*
X115602295Y-141480363D02*
X115602295Y-141670839D01*
X114878485Y-140908935D02*
X114840390Y-140870839D01*
X114840390Y-140870839D02*
X114802295Y-140794649D01*
X114802295Y-140794649D02*
X114802295Y-140604173D01*
X114802295Y-140604173D02*
X114840390Y-140527982D01*
X114840390Y-140527982D02*
X114878485Y-140489887D01*
X114878485Y-140489887D02*
X114954676Y-140451792D01*
X114954676Y-140451792D02*
X115030866Y-140451792D01*
X115030866Y-140451792D02*
X115145152Y-140489887D01*
X115145152Y-140489887D02*
X115602295Y-140947030D01*
X115602295Y-140947030D02*
X115602295Y-140451792D01*
X115602295Y-159610839D02*
X114802295Y-159610839D01*
X114802295Y-159610839D02*
X114802295Y-159420363D01*
X114802295Y-159420363D02*
X114840390Y-159306077D01*
X114840390Y-159306077D02*
X114916580Y-159229887D01*
X114916580Y-159229887D02*
X114992771Y-159191792D01*
X114992771Y-159191792D02*
X115145152Y-159153696D01*
X115145152Y-159153696D02*
X115259438Y-159153696D01*
X115259438Y-159153696D02*
X115411819Y-159191792D01*
X115411819Y-159191792D02*
X115488009Y-159229887D01*
X115488009Y-159229887D02*
X115564200Y-159306077D01*
X115564200Y-159306077D02*
X115602295Y-159420363D01*
X115602295Y-159420363D02*
X115602295Y-159610839D01*
X115602295Y-158391792D02*
X115602295Y-158848935D01*
X115602295Y-158620363D02*
X114802295Y-158620363D01*
X114802295Y-158620363D02*
X114916580Y-158696554D01*
X114916580Y-158696554D02*
X114992771Y-158772744D01*
X114992771Y-158772744D02*
X115030866Y-158848935D01*
X118142295Y-141670839D02*
X117342295Y-141670839D01*
X117342295Y-141670839D02*
X117342295Y-141480363D01*
X117342295Y-141480363D02*
X117380390Y-141366077D01*
X117380390Y-141366077D02*
X117456580Y-141289887D01*
X117456580Y-141289887D02*
X117532771Y-141251792D01*
X117532771Y-141251792D02*
X117685152Y-141213696D01*
X117685152Y-141213696D02*
X117799438Y-141213696D01*
X117799438Y-141213696D02*
X117951819Y-141251792D01*
X117951819Y-141251792D02*
X118028009Y-141289887D01*
X118028009Y-141289887D02*
X118104200Y-141366077D01*
X118104200Y-141366077D02*
X118142295Y-141480363D01*
X118142295Y-141480363D02*
X118142295Y-141670839D01*
X117608961Y-140527982D02*
X118142295Y-140527982D01*
X117304200Y-140718458D02*
X117875628Y-140908935D01*
X117875628Y-140908935D02*
X117875628Y-140413696D01*
X118142295Y-159610839D02*
X117342295Y-159610839D01*
X117342295Y-159610839D02*
X117342295Y-159420363D01*
X117342295Y-159420363D02*
X117380390Y-159306077D01*
X117380390Y-159306077D02*
X117456580Y-159229887D01*
X117456580Y-159229887D02*
X117532771Y-159191792D01*
X117532771Y-159191792D02*
X117685152Y-159153696D01*
X117685152Y-159153696D02*
X117799438Y-159153696D01*
X117799438Y-159153696D02*
X117951819Y-159191792D01*
X117951819Y-159191792D02*
X118028009Y-159229887D01*
X118028009Y-159229887D02*
X118104200Y-159306077D01*
X118104200Y-159306077D02*
X118142295Y-159420363D01*
X118142295Y-159420363D02*
X118142295Y-159610839D01*
X117342295Y-158887030D02*
X117342295Y-158391792D01*
X117342295Y-158391792D02*
X117647057Y-158658458D01*
X117647057Y-158658458D02*
X117647057Y-158544173D01*
X117647057Y-158544173D02*
X117685152Y-158467982D01*
X117685152Y-158467982D02*
X117723247Y-158429887D01*
X117723247Y-158429887D02*
X117799438Y-158391792D01*
X117799438Y-158391792D02*
X117989914Y-158391792D01*
X117989914Y-158391792D02*
X118066104Y-158429887D01*
X118066104Y-158429887D02*
X118104200Y-158467982D01*
X118104200Y-158467982D02*
X118142295Y-158544173D01*
X118142295Y-158544173D02*
X118142295Y-158772744D01*
X118142295Y-158772744D02*
X118104200Y-158848935D01*
X118104200Y-158848935D02*
X118066104Y-158887030D01*
X120682295Y-141670839D02*
X119882295Y-141670839D01*
X119882295Y-141670839D02*
X119882295Y-141480363D01*
X119882295Y-141480363D02*
X119920390Y-141366077D01*
X119920390Y-141366077D02*
X119996580Y-141289887D01*
X119996580Y-141289887D02*
X120072771Y-141251792D01*
X120072771Y-141251792D02*
X120225152Y-141213696D01*
X120225152Y-141213696D02*
X120339438Y-141213696D01*
X120339438Y-141213696D02*
X120491819Y-141251792D01*
X120491819Y-141251792D02*
X120568009Y-141289887D01*
X120568009Y-141289887D02*
X120644200Y-141366077D01*
X120644200Y-141366077D02*
X120682295Y-141480363D01*
X120682295Y-141480363D02*
X120682295Y-141670839D01*
X119882295Y-140527982D02*
X119882295Y-140680363D01*
X119882295Y-140680363D02*
X119920390Y-140756554D01*
X119920390Y-140756554D02*
X119958485Y-140794649D01*
X119958485Y-140794649D02*
X120072771Y-140870839D01*
X120072771Y-140870839D02*
X120225152Y-140908935D01*
X120225152Y-140908935D02*
X120529914Y-140908935D01*
X120529914Y-140908935D02*
X120606104Y-140870839D01*
X120606104Y-140870839D02*
X120644200Y-140832744D01*
X120644200Y-140832744D02*
X120682295Y-140756554D01*
X120682295Y-140756554D02*
X120682295Y-140604173D01*
X120682295Y-140604173D02*
X120644200Y-140527982D01*
X120644200Y-140527982D02*
X120606104Y-140489887D01*
X120606104Y-140489887D02*
X120529914Y-140451792D01*
X120529914Y-140451792D02*
X120339438Y-140451792D01*
X120339438Y-140451792D02*
X120263247Y-140489887D01*
X120263247Y-140489887D02*
X120225152Y-140527982D01*
X120225152Y-140527982D02*
X120187057Y-140604173D01*
X120187057Y-140604173D02*
X120187057Y-140756554D01*
X120187057Y-140756554D02*
X120225152Y-140832744D01*
X120225152Y-140832744D02*
X120263247Y-140870839D01*
X120263247Y-140870839D02*
X120339438Y-140908935D01*
X120682295Y-159610839D02*
X119882295Y-159610839D01*
X119882295Y-159610839D02*
X119882295Y-159420363D01*
X119882295Y-159420363D02*
X119920390Y-159306077D01*
X119920390Y-159306077D02*
X119996580Y-159229887D01*
X119996580Y-159229887D02*
X120072771Y-159191792D01*
X120072771Y-159191792D02*
X120225152Y-159153696D01*
X120225152Y-159153696D02*
X120339438Y-159153696D01*
X120339438Y-159153696D02*
X120491819Y-159191792D01*
X120491819Y-159191792D02*
X120568009Y-159229887D01*
X120568009Y-159229887D02*
X120644200Y-159306077D01*
X120644200Y-159306077D02*
X120682295Y-159420363D01*
X120682295Y-159420363D02*
X120682295Y-159610839D01*
X119882295Y-158429887D02*
X119882295Y-158810839D01*
X119882295Y-158810839D02*
X120263247Y-158848935D01*
X120263247Y-158848935D02*
X120225152Y-158810839D01*
X120225152Y-158810839D02*
X120187057Y-158734649D01*
X120187057Y-158734649D02*
X120187057Y-158544173D01*
X120187057Y-158544173D02*
X120225152Y-158467982D01*
X120225152Y-158467982D02*
X120263247Y-158429887D01*
X120263247Y-158429887D02*
X120339438Y-158391792D01*
X120339438Y-158391792D02*
X120529914Y-158391792D01*
X120529914Y-158391792D02*
X120606104Y-158429887D01*
X120606104Y-158429887D02*
X120644200Y-158467982D01*
X120644200Y-158467982D02*
X120682295Y-158544173D01*
X120682295Y-158544173D02*
X120682295Y-158734649D01*
X120682295Y-158734649D02*
X120644200Y-158810839D01*
X120644200Y-158810839D02*
X120606104Y-158848935D01*
X123222295Y-141213696D02*
X122841342Y-141480363D01*
X123222295Y-141670839D02*
X122422295Y-141670839D01*
X122422295Y-141670839D02*
X122422295Y-141366077D01*
X122422295Y-141366077D02*
X122460390Y-141289887D01*
X122460390Y-141289887D02*
X122498485Y-141251792D01*
X122498485Y-141251792D02*
X122574676Y-141213696D01*
X122574676Y-141213696D02*
X122688961Y-141213696D01*
X122688961Y-141213696D02*
X122765152Y-141251792D01*
X122765152Y-141251792D02*
X122803247Y-141289887D01*
X122803247Y-141289887D02*
X122841342Y-141366077D01*
X122841342Y-141366077D02*
X122841342Y-141670839D01*
X122384200Y-140299411D02*
X123412771Y-140985125D01*
X122422295Y-140108935D02*
X123222295Y-139918459D01*
X123222295Y-139918459D02*
X122650866Y-139766078D01*
X122650866Y-139766078D02*
X123222295Y-139613697D01*
X123222295Y-139613697D02*
X122422295Y-139423221D01*
X123222295Y-159610839D02*
X122422295Y-159610839D01*
X122422295Y-159610839D02*
X122422295Y-159420363D01*
X122422295Y-159420363D02*
X122460390Y-159306077D01*
X122460390Y-159306077D02*
X122536580Y-159229887D01*
X122536580Y-159229887D02*
X122612771Y-159191792D01*
X122612771Y-159191792D02*
X122765152Y-159153696D01*
X122765152Y-159153696D02*
X122879438Y-159153696D01*
X122879438Y-159153696D02*
X123031819Y-159191792D01*
X123031819Y-159191792D02*
X123108009Y-159229887D01*
X123108009Y-159229887D02*
X123184200Y-159306077D01*
X123184200Y-159306077D02*
X123222295Y-159420363D01*
X123222295Y-159420363D02*
X123222295Y-159610839D01*
X122422295Y-158887030D02*
X122422295Y-158353696D01*
X122422295Y-158353696D02*
X123222295Y-158696554D01*
X125533723Y-141708935D02*
X125533723Y-141327982D01*
X125762295Y-141785125D02*
X124962295Y-141518458D01*
X124962295Y-141518458D02*
X125762295Y-141251792D01*
X125762295Y-140566078D02*
X125762295Y-141023221D01*
X125762295Y-140794649D02*
X124962295Y-140794649D01*
X124962295Y-140794649D02*
X125076580Y-140870840D01*
X125076580Y-140870840D02*
X125152771Y-140947030D01*
X125152771Y-140947030D02*
X125190866Y-141023221D01*
X125533723Y-159648935D02*
X125533723Y-159267982D01*
X125762295Y-159725125D02*
X124962295Y-159458458D01*
X124962295Y-159458458D02*
X125762295Y-159191792D01*
X124962295Y-158772744D02*
X124962295Y-158696554D01*
X124962295Y-158696554D02*
X125000390Y-158620363D01*
X125000390Y-158620363D02*
X125038485Y-158582268D01*
X125038485Y-158582268D02*
X125114676Y-158544173D01*
X125114676Y-158544173D02*
X125267057Y-158506078D01*
X125267057Y-158506078D02*
X125457533Y-158506078D01*
X125457533Y-158506078D02*
X125609914Y-158544173D01*
X125609914Y-158544173D02*
X125686104Y-158582268D01*
X125686104Y-158582268D02*
X125724200Y-158620363D01*
X125724200Y-158620363D02*
X125762295Y-158696554D01*
X125762295Y-158696554D02*
X125762295Y-158772744D01*
X125762295Y-158772744D02*
X125724200Y-158848935D01*
X125724200Y-158848935D02*
X125686104Y-158887030D01*
X125686104Y-158887030D02*
X125609914Y-158925125D01*
X125609914Y-158925125D02*
X125457533Y-158963221D01*
X125457533Y-158963221D02*
X125267057Y-158963221D01*
X125267057Y-158963221D02*
X125114676Y-158925125D01*
X125114676Y-158925125D02*
X125038485Y-158887030D01*
X125038485Y-158887030D02*
X125000390Y-158848935D01*
X125000390Y-158848935D02*
X124962295Y-158772744D01*
X128073723Y-141708935D02*
X128073723Y-141327982D01*
X128302295Y-141785125D02*
X127502295Y-141518458D01*
X127502295Y-141518458D02*
X128302295Y-141251792D01*
X127502295Y-141061316D02*
X127502295Y-140566078D01*
X127502295Y-140566078D02*
X127807057Y-140832744D01*
X127807057Y-140832744D02*
X127807057Y-140718459D01*
X127807057Y-140718459D02*
X127845152Y-140642268D01*
X127845152Y-140642268D02*
X127883247Y-140604173D01*
X127883247Y-140604173D02*
X127959438Y-140566078D01*
X127959438Y-140566078D02*
X128149914Y-140566078D01*
X128149914Y-140566078D02*
X128226104Y-140604173D01*
X128226104Y-140604173D02*
X128264200Y-140642268D01*
X128264200Y-140642268D02*
X128302295Y-140718459D01*
X128302295Y-140718459D02*
X128302295Y-140947030D01*
X128302295Y-140947030D02*
X128264200Y-141023221D01*
X128264200Y-141023221D02*
X128226104Y-141061316D01*
X128073723Y-159648935D02*
X128073723Y-159267982D01*
X128302295Y-159725125D02*
X127502295Y-159458458D01*
X127502295Y-159458458D02*
X128302295Y-159191792D01*
X127578485Y-158963221D02*
X127540390Y-158925125D01*
X127540390Y-158925125D02*
X127502295Y-158848935D01*
X127502295Y-158848935D02*
X127502295Y-158658459D01*
X127502295Y-158658459D02*
X127540390Y-158582268D01*
X127540390Y-158582268D02*
X127578485Y-158544173D01*
X127578485Y-158544173D02*
X127654676Y-158506078D01*
X127654676Y-158506078D02*
X127730866Y-158506078D01*
X127730866Y-158506078D02*
X127845152Y-158544173D01*
X127845152Y-158544173D02*
X128302295Y-159001316D01*
X128302295Y-159001316D02*
X128302295Y-158506078D01*
X130613722Y-141708935D02*
X130613722Y-141327982D01*
X130842294Y-141785125D02*
X130042294Y-141518458D01*
X130042294Y-141518458D02*
X130842294Y-141251792D01*
X130042294Y-140604173D02*
X130042294Y-140985125D01*
X130042294Y-140985125D02*
X130423246Y-141023221D01*
X130423246Y-141023221D02*
X130385151Y-140985125D01*
X130385151Y-140985125D02*
X130347056Y-140908935D01*
X130347056Y-140908935D02*
X130347056Y-140718459D01*
X130347056Y-140718459D02*
X130385151Y-140642268D01*
X130385151Y-140642268D02*
X130423246Y-140604173D01*
X130423246Y-140604173D02*
X130499437Y-140566078D01*
X130499437Y-140566078D02*
X130689913Y-140566078D01*
X130689913Y-140566078D02*
X130766103Y-140604173D01*
X130766103Y-140604173D02*
X130804199Y-140642268D01*
X130804199Y-140642268D02*
X130842294Y-140718459D01*
X130842294Y-140718459D02*
X130842294Y-140908935D01*
X130842294Y-140908935D02*
X130804199Y-140985125D01*
X130804199Y-140985125D02*
X130766103Y-141023221D01*
X130613722Y-159648935D02*
X130613722Y-159267982D01*
X130842294Y-159725125D02*
X130042294Y-159458458D01*
X130042294Y-159458458D02*
X130842294Y-159191792D01*
X130308960Y-158582268D02*
X130842294Y-158582268D01*
X130004199Y-158772744D02*
X130575627Y-158963221D01*
X130575627Y-158963221D02*
X130575627Y-158467982D01*
X133153723Y-141708935D02*
X133153723Y-141327982D01*
X133382295Y-141785125D02*
X132582295Y-141518458D01*
X132582295Y-141518458D02*
X133382295Y-141251792D01*
X132582295Y-141061316D02*
X132582295Y-140527982D01*
X132582295Y-140527982D02*
X133382295Y-140870840D01*
X133153723Y-159648935D02*
X133153723Y-159267982D01*
X133382295Y-159725125D02*
X132582295Y-159458458D01*
X132582295Y-159458458D02*
X133382295Y-159191792D01*
X132582295Y-158582268D02*
X132582295Y-158734649D01*
X132582295Y-158734649D02*
X132620390Y-158810840D01*
X132620390Y-158810840D02*
X132658485Y-158848935D01*
X132658485Y-158848935D02*
X132772771Y-158925125D01*
X132772771Y-158925125D02*
X132925152Y-158963221D01*
X132925152Y-158963221D02*
X133229914Y-158963221D01*
X133229914Y-158963221D02*
X133306104Y-158925125D01*
X133306104Y-158925125D02*
X133344200Y-158887030D01*
X133344200Y-158887030D02*
X133382295Y-158810840D01*
X133382295Y-158810840D02*
X133382295Y-158658459D01*
X133382295Y-158658459D02*
X133344200Y-158582268D01*
X133344200Y-158582268D02*
X133306104Y-158544173D01*
X133306104Y-158544173D02*
X133229914Y-158506078D01*
X133229914Y-158506078D02*
X133039438Y-158506078D01*
X133039438Y-158506078D02*
X132963247Y-158544173D01*
X132963247Y-158544173D02*
X132925152Y-158582268D01*
X132925152Y-158582268D02*
X132887057Y-158658459D01*
X132887057Y-158658459D02*
X132887057Y-158810840D01*
X132887057Y-158810840D02*
X132925152Y-158887030D01*
X132925152Y-158887030D02*
X132963247Y-158925125D01*
X132963247Y-158925125D02*
X133039438Y-158963221D01*
X135693723Y-141708935D02*
X135693723Y-141327982D01*
X135922295Y-141785125D02*
X135122295Y-141518458D01*
X135122295Y-141518458D02*
X135922295Y-141251792D01*
X135922295Y-140947030D02*
X135922295Y-140794649D01*
X135922295Y-140794649D02*
X135884200Y-140718459D01*
X135884200Y-140718459D02*
X135846104Y-140680363D01*
X135846104Y-140680363D02*
X135731819Y-140604173D01*
X135731819Y-140604173D02*
X135579438Y-140566078D01*
X135579438Y-140566078D02*
X135274676Y-140566078D01*
X135274676Y-140566078D02*
X135198485Y-140604173D01*
X135198485Y-140604173D02*
X135160390Y-140642268D01*
X135160390Y-140642268D02*
X135122295Y-140718459D01*
X135122295Y-140718459D02*
X135122295Y-140870840D01*
X135122295Y-140870840D02*
X135160390Y-140947030D01*
X135160390Y-140947030D02*
X135198485Y-140985125D01*
X135198485Y-140985125D02*
X135274676Y-141023221D01*
X135274676Y-141023221D02*
X135465152Y-141023221D01*
X135465152Y-141023221D02*
X135541342Y-140985125D01*
X135541342Y-140985125D02*
X135579438Y-140947030D01*
X135579438Y-140947030D02*
X135617533Y-140870840D01*
X135617533Y-140870840D02*
X135617533Y-140718459D01*
X135617533Y-140718459D02*
X135579438Y-140642268D01*
X135579438Y-140642268D02*
X135541342Y-140604173D01*
X135541342Y-140604173D02*
X135465152Y-140566078D01*
X135693723Y-159648935D02*
X135693723Y-159267982D01*
X135922295Y-159725125D02*
X135122295Y-159458458D01*
X135122295Y-159458458D02*
X135922295Y-159191792D01*
X135465152Y-158810840D02*
X135427057Y-158887030D01*
X135427057Y-158887030D02*
X135388961Y-158925125D01*
X135388961Y-158925125D02*
X135312771Y-158963221D01*
X135312771Y-158963221D02*
X135274676Y-158963221D01*
X135274676Y-158963221D02*
X135198485Y-158925125D01*
X135198485Y-158925125D02*
X135160390Y-158887030D01*
X135160390Y-158887030D02*
X135122295Y-158810840D01*
X135122295Y-158810840D02*
X135122295Y-158658459D01*
X135122295Y-158658459D02*
X135160390Y-158582268D01*
X135160390Y-158582268D02*
X135198485Y-158544173D01*
X135198485Y-158544173D02*
X135274676Y-158506078D01*
X135274676Y-158506078D02*
X135312771Y-158506078D01*
X135312771Y-158506078D02*
X135388961Y-158544173D01*
X135388961Y-158544173D02*
X135427057Y-158582268D01*
X135427057Y-158582268D02*
X135465152Y-158658459D01*
X135465152Y-158658459D02*
X135465152Y-158810840D01*
X135465152Y-158810840D02*
X135503247Y-158887030D01*
X135503247Y-158887030D02*
X135541342Y-158925125D01*
X135541342Y-158925125D02*
X135617533Y-158963221D01*
X135617533Y-158963221D02*
X135769914Y-158963221D01*
X135769914Y-158963221D02*
X135846104Y-158925125D01*
X135846104Y-158925125D02*
X135884200Y-158887030D01*
X135884200Y-158887030D02*
X135922295Y-158810840D01*
X135922295Y-158810840D02*
X135922295Y-158658459D01*
X135922295Y-158658459D02*
X135884200Y-158582268D01*
X135884200Y-158582268D02*
X135846104Y-158544173D01*
X135846104Y-158544173D02*
X135769914Y-158506078D01*
X135769914Y-158506078D02*
X135617533Y-158506078D01*
X135617533Y-158506078D02*
X135541342Y-158544173D01*
X135541342Y-158544173D02*
X135503247Y-158582268D01*
X135503247Y-158582268D02*
X135465152Y-158658459D01*
X138233723Y-141708935D02*
X138233723Y-141327982D01*
X138462295Y-141785125D02*
X137662295Y-141518458D01*
X137662295Y-141518458D02*
X138462295Y-141251792D01*
X138462295Y-140566078D02*
X138462295Y-141023221D01*
X138462295Y-140794649D02*
X137662295Y-140794649D01*
X137662295Y-140794649D02*
X137776580Y-140870840D01*
X137776580Y-140870840D02*
X137852771Y-140947030D01*
X137852771Y-140947030D02*
X137890866Y-141023221D01*
X138462295Y-139804173D02*
X138462295Y-140261316D01*
X138462295Y-140032744D02*
X137662295Y-140032744D01*
X137662295Y-140032744D02*
X137776580Y-140108935D01*
X137776580Y-140108935D02*
X137852771Y-140185125D01*
X137852771Y-140185125D02*
X137890866Y-140261316D01*
X138233723Y-159648935D02*
X138233723Y-159267982D01*
X138462295Y-159725125D02*
X137662295Y-159458458D01*
X137662295Y-159458458D02*
X138462295Y-159191792D01*
X138462295Y-158506078D02*
X138462295Y-158963221D01*
X138462295Y-158734649D02*
X137662295Y-158734649D01*
X137662295Y-158734649D02*
X137776580Y-158810840D01*
X137776580Y-158810840D02*
X137852771Y-158887030D01*
X137852771Y-158887030D02*
X137890866Y-158963221D01*
X137662295Y-158010839D02*
X137662295Y-157934649D01*
X137662295Y-157934649D02*
X137700390Y-157858458D01*
X137700390Y-157858458D02*
X137738485Y-157820363D01*
X137738485Y-157820363D02*
X137814676Y-157782268D01*
X137814676Y-157782268D02*
X137967057Y-157744173D01*
X137967057Y-157744173D02*
X138157533Y-157744173D01*
X138157533Y-157744173D02*
X138309914Y-157782268D01*
X138309914Y-157782268D02*
X138386104Y-157820363D01*
X138386104Y-157820363D02*
X138424200Y-157858458D01*
X138424200Y-157858458D02*
X138462295Y-157934649D01*
X138462295Y-157934649D02*
X138462295Y-158010839D01*
X138462295Y-158010839D02*
X138424200Y-158087030D01*
X138424200Y-158087030D02*
X138386104Y-158125125D01*
X138386104Y-158125125D02*
X138309914Y-158163220D01*
X138309914Y-158163220D02*
X138157533Y-158201316D01*
X138157533Y-158201316D02*
X137967057Y-158201316D01*
X137967057Y-158201316D02*
X137814676Y-158163220D01*
X137814676Y-158163220D02*
X137738485Y-158125125D01*
X137738485Y-158125125D02*
X137700390Y-158087030D01*
X137700390Y-158087030D02*
X137662295Y-158010839D01*
X140164200Y-141099411D02*
X141192771Y-141785125D01*
X140926104Y-140375601D02*
X140964200Y-140413697D01*
X140964200Y-140413697D02*
X141002295Y-140527982D01*
X141002295Y-140527982D02*
X141002295Y-140604173D01*
X141002295Y-140604173D02*
X140964200Y-140718459D01*
X140964200Y-140718459D02*
X140888009Y-140794649D01*
X140888009Y-140794649D02*
X140811819Y-140832744D01*
X140811819Y-140832744D02*
X140659438Y-140870840D01*
X140659438Y-140870840D02*
X140545152Y-140870840D01*
X140545152Y-140870840D02*
X140392771Y-140832744D01*
X140392771Y-140832744D02*
X140316580Y-140794649D01*
X140316580Y-140794649D02*
X140240390Y-140718459D01*
X140240390Y-140718459D02*
X140202295Y-140604173D01*
X140202295Y-140604173D02*
X140202295Y-140527982D01*
X140202295Y-140527982D02*
X140240390Y-140413697D01*
X140240390Y-140413697D02*
X140278485Y-140375601D01*
X140202295Y-140147030D02*
X140202295Y-139689887D01*
X141002295Y-139918459D02*
X140202295Y-139918459D01*
X140964200Y-139461316D02*
X141002295Y-139347030D01*
X141002295Y-139347030D02*
X141002295Y-139156554D01*
X141002295Y-139156554D02*
X140964200Y-139080363D01*
X140964200Y-139080363D02*
X140926104Y-139042268D01*
X140926104Y-139042268D02*
X140849914Y-139004173D01*
X140849914Y-139004173D02*
X140773723Y-139004173D01*
X140773723Y-139004173D02*
X140697533Y-139042268D01*
X140697533Y-139042268D02*
X140659438Y-139080363D01*
X140659438Y-139080363D02*
X140621342Y-139156554D01*
X140621342Y-139156554D02*
X140583247Y-139308935D01*
X140583247Y-139308935D02*
X140545152Y-139385125D01*
X140545152Y-139385125D02*
X140507057Y-139423220D01*
X140507057Y-139423220D02*
X140430866Y-139461316D01*
X140430866Y-139461316D02*
X140354676Y-139461316D01*
X140354676Y-139461316D02*
X140278485Y-139423220D01*
X140278485Y-139423220D02*
X140240390Y-139385125D01*
X140240390Y-139385125D02*
X140202295Y-139308935D01*
X140202295Y-139308935D02*
X140202295Y-139118458D01*
X140202295Y-139118458D02*
X140240390Y-139004173D01*
X140773723Y-159648935D02*
X140773723Y-159267982D01*
X141002295Y-159725125D02*
X140202295Y-159458458D01*
X140202295Y-159458458D02*
X141002295Y-159191792D01*
X141002295Y-158506078D02*
X141002295Y-158963221D01*
X141002295Y-158734649D02*
X140202295Y-158734649D01*
X140202295Y-158734649D02*
X140316580Y-158810840D01*
X140316580Y-158810840D02*
X140392771Y-158887030D01*
X140392771Y-158887030D02*
X140430866Y-158963221D01*
X140278485Y-158201316D02*
X140240390Y-158163220D01*
X140240390Y-158163220D02*
X140202295Y-158087030D01*
X140202295Y-158087030D02*
X140202295Y-157896554D01*
X140202295Y-157896554D02*
X140240390Y-157820363D01*
X140240390Y-157820363D02*
X140278485Y-157782268D01*
X140278485Y-157782268D02*
X140354676Y-157744173D01*
X140354676Y-157744173D02*
X140430866Y-157744173D01*
X140430866Y-157744173D02*
X140545152Y-157782268D01*
X140545152Y-157782268D02*
X141002295Y-158239411D01*
X141002295Y-158239411D02*
X141002295Y-157744173D01*
X142780390Y-141251792D02*
X142742295Y-141327982D01*
X142742295Y-141327982D02*
X142742295Y-141442268D01*
X142742295Y-141442268D02*
X142780390Y-141556554D01*
X142780390Y-141556554D02*
X142856580Y-141632744D01*
X142856580Y-141632744D02*
X142932771Y-141670839D01*
X142932771Y-141670839D02*
X143085152Y-141708935D01*
X143085152Y-141708935D02*
X143199438Y-141708935D01*
X143199438Y-141708935D02*
X143351819Y-141670839D01*
X143351819Y-141670839D02*
X143428009Y-141632744D01*
X143428009Y-141632744D02*
X143504200Y-141556554D01*
X143504200Y-141556554D02*
X143542295Y-141442268D01*
X143542295Y-141442268D02*
X143542295Y-141366077D01*
X143542295Y-141366077D02*
X143504200Y-141251792D01*
X143504200Y-141251792D02*
X143466104Y-141213696D01*
X143466104Y-141213696D02*
X143199438Y-141213696D01*
X143199438Y-141213696D02*
X143199438Y-141366077D01*
X143542295Y-140870839D02*
X142742295Y-140870839D01*
X142742295Y-140870839D02*
X143542295Y-140413696D01*
X143542295Y-140413696D02*
X142742295Y-140413696D01*
X143542295Y-140032744D02*
X142742295Y-140032744D01*
X142742295Y-140032744D02*
X142742295Y-139842268D01*
X142742295Y-139842268D02*
X142780390Y-139727982D01*
X142780390Y-139727982D02*
X142856580Y-139651792D01*
X142856580Y-139651792D02*
X142932771Y-139613697D01*
X142932771Y-139613697D02*
X143085152Y-139575601D01*
X143085152Y-139575601D02*
X143199438Y-139575601D01*
X143199438Y-139575601D02*
X143351819Y-139613697D01*
X143351819Y-139613697D02*
X143428009Y-139651792D01*
X143428009Y-139651792D02*
X143504200Y-139727982D01*
X143504200Y-139727982D02*
X143542295Y-139842268D01*
X143542295Y-139842268D02*
X143542295Y-140032744D01*
X142780390Y-159191792D02*
X142742295Y-159267982D01*
X142742295Y-159267982D02*
X142742295Y-159382268D01*
X142742295Y-159382268D02*
X142780390Y-159496554D01*
X142780390Y-159496554D02*
X142856580Y-159572744D01*
X142856580Y-159572744D02*
X142932771Y-159610839D01*
X142932771Y-159610839D02*
X143085152Y-159648935D01*
X143085152Y-159648935D02*
X143199438Y-159648935D01*
X143199438Y-159648935D02*
X143351819Y-159610839D01*
X143351819Y-159610839D02*
X143428009Y-159572744D01*
X143428009Y-159572744D02*
X143504200Y-159496554D01*
X143504200Y-159496554D02*
X143542295Y-159382268D01*
X143542295Y-159382268D02*
X143542295Y-159306077D01*
X143542295Y-159306077D02*
X143504200Y-159191792D01*
X143504200Y-159191792D02*
X143466104Y-159153696D01*
X143466104Y-159153696D02*
X143199438Y-159153696D01*
X143199438Y-159153696D02*
X143199438Y-159306077D01*
X143542295Y-158810839D02*
X142742295Y-158810839D01*
X142742295Y-158810839D02*
X143542295Y-158353696D01*
X143542295Y-158353696D02*
X142742295Y-158353696D01*
X143542295Y-157972744D02*
X142742295Y-157972744D01*
X142742295Y-157972744D02*
X142742295Y-157782268D01*
X142742295Y-157782268D02*
X142780390Y-157667982D01*
X142780390Y-157667982D02*
X142856580Y-157591792D01*
X142856580Y-157591792D02*
X142932771Y-157553697D01*
X142932771Y-157553697D02*
X143085152Y-157515601D01*
X143085152Y-157515601D02*
X143199438Y-157515601D01*
X143199438Y-157515601D02*
X143351819Y-157553697D01*
X143351819Y-157553697D02*
X143428009Y-157591792D01*
X143428009Y-157591792D02*
X143504200Y-157667982D01*
X143504200Y-157667982D02*
X143542295Y-157782268D01*
X143542295Y-157782268D02*
X143542295Y-157972744D01*
X145244200Y-141099411D02*
X146272771Y-141785125D01*
X146044200Y-140870840D02*
X146082295Y-140756554D01*
X146082295Y-140756554D02*
X146082295Y-140566078D01*
X146082295Y-140566078D02*
X146044200Y-140489887D01*
X146044200Y-140489887D02*
X146006104Y-140451792D01*
X146006104Y-140451792D02*
X145929914Y-140413697D01*
X145929914Y-140413697D02*
X145853723Y-140413697D01*
X145853723Y-140413697D02*
X145777533Y-140451792D01*
X145777533Y-140451792D02*
X145739438Y-140489887D01*
X145739438Y-140489887D02*
X145701342Y-140566078D01*
X145701342Y-140566078D02*
X145663247Y-140718459D01*
X145663247Y-140718459D02*
X145625152Y-140794649D01*
X145625152Y-140794649D02*
X145587057Y-140832744D01*
X145587057Y-140832744D02*
X145510866Y-140870840D01*
X145510866Y-140870840D02*
X145434676Y-140870840D01*
X145434676Y-140870840D02*
X145358485Y-140832744D01*
X145358485Y-140832744D02*
X145320390Y-140794649D01*
X145320390Y-140794649D02*
X145282295Y-140718459D01*
X145282295Y-140718459D02*
X145282295Y-140527982D01*
X145282295Y-140527982D02*
X145320390Y-140413697D01*
X146006104Y-139613696D02*
X146044200Y-139651792D01*
X146044200Y-139651792D02*
X146082295Y-139766077D01*
X146082295Y-139766077D02*
X146082295Y-139842268D01*
X146082295Y-139842268D02*
X146044200Y-139956554D01*
X146044200Y-139956554D02*
X145968009Y-140032744D01*
X145968009Y-140032744D02*
X145891819Y-140070839D01*
X145891819Y-140070839D02*
X145739438Y-140108935D01*
X145739438Y-140108935D02*
X145625152Y-140108935D01*
X145625152Y-140108935D02*
X145472771Y-140070839D01*
X145472771Y-140070839D02*
X145396580Y-140032744D01*
X145396580Y-140032744D02*
X145320390Y-139956554D01*
X145320390Y-139956554D02*
X145282295Y-139842268D01*
X145282295Y-139842268D02*
X145282295Y-139766077D01*
X145282295Y-139766077D02*
X145320390Y-139651792D01*
X145320390Y-139651792D02*
X145358485Y-139613696D01*
X146044200Y-139308935D02*
X146082295Y-139194649D01*
X146082295Y-139194649D02*
X146082295Y-139004173D01*
X146082295Y-139004173D02*
X146044200Y-138927982D01*
X146044200Y-138927982D02*
X146006104Y-138889887D01*
X146006104Y-138889887D02*
X145929914Y-138851792D01*
X145929914Y-138851792D02*
X145853723Y-138851792D01*
X145853723Y-138851792D02*
X145777533Y-138889887D01*
X145777533Y-138889887D02*
X145739438Y-138927982D01*
X145739438Y-138927982D02*
X145701342Y-139004173D01*
X145701342Y-139004173D02*
X145663247Y-139156554D01*
X145663247Y-139156554D02*
X145625152Y-139232744D01*
X145625152Y-139232744D02*
X145587057Y-139270839D01*
X145587057Y-139270839D02*
X145510866Y-139308935D01*
X145510866Y-139308935D02*
X145434676Y-139308935D01*
X145434676Y-139308935D02*
X145358485Y-139270839D01*
X145358485Y-139270839D02*
X145320390Y-139232744D01*
X145320390Y-139232744D02*
X145282295Y-139156554D01*
X145282295Y-139156554D02*
X145282295Y-138966077D01*
X145282295Y-138966077D02*
X145320390Y-138851792D01*
X146044200Y-159648935D02*
X146082295Y-159534649D01*
X146082295Y-159534649D02*
X146082295Y-159344173D01*
X146082295Y-159344173D02*
X146044200Y-159267982D01*
X146044200Y-159267982D02*
X146006104Y-159229887D01*
X146006104Y-159229887D02*
X145929914Y-159191792D01*
X145929914Y-159191792D02*
X145853723Y-159191792D01*
X145853723Y-159191792D02*
X145777533Y-159229887D01*
X145777533Y-159229887D02*
X145739438Y-159267982D01*
X145739438Y-159267982D02*
X145701342Y-159344173D01*
X145701342Y-159344173D02*
X145663247Y-159496554D01*
X145663247Y-159496554D02*
X145625152Y-159572744D01*
X145625152Y-159572744D02*
X145587057Y-159610839D01*
X145587057Y-159610839D02*
X145510866Y-159648935D01*
X145510866Y-159648935D02*
X145434676Y-159648935D01*
X145434676Y-159648935D02*
X145358485Y-159610839D01*
X145358485Y-159610839D02*
X145320390Y-159572744D01*
X145320390Y-159572744D02*
X145282295Y-159496554D01*
X145282295Y-159496554D02*
X145282295Y-159306077D01*
X145282295Y-159306077D02*
X145320390Y-159191792D01*
X146082295Y-158848934D02*
X145282295Y-158848934D01*
X145282295Y-158848934D02*
X146082295Y-158391791D01*
X146082295Y-158391791D02*
X145282295Y-158391791D01*
X146082295Y-158010839D02*
X145282295Y-158010839D01*
X145282295Y-158010839D02*
X145282295Y-157820363D01*
X145282295Y-157820363D02*
X145320390Y-157706077D01*
X145320390Y-157706077D02*
X145396580Y-157629887D01*
X145396580Y-157629887D02*
X145472771Y-157591792D01*
X145472771Y-157591792D02*
X145625152Y-157553696D01*
X145625152Y-157553696D02*
X145739438Y-157553696D01*
X145739438Y-157553696D02*
X145891819Y-157591792D01*
X145891819Y-157591792D02*
X145968009Y-157629887D01*
X145968009Y-157629887D02*
X146044200Y-157706077D01*
X146044200Y-157706077D02*
X146082295Y-157820363D01*
X146082295Y-157820363D02*
X146082295Y-158010839D01*
X148393723Y-141708935D02*
X148393723Y-141327982D01*
X148622295Y-141785125D02*
X147822295Y-141518458D01*
X147822295Y-141518458D02*
X148622295Y-141251792D01*
X148622295Y-140566078D02*
X148622295Y-141023221D01*
X148622295Y-140794649D02*
X147822295Y-140794649D01*
X147822295Y-140794649D02*
X147936580Y-140870840D01*
X147936580Y-140870840D02*
X148012771Y-140947030D01*
X148012771Y-140947030D02*
X148050866Y-141023221D01*
X148088961Y-139880363D02*
X148622295Y-139880363D01*
X147784200Y-140070839D02*
X148355628Y-140261316D01*
X148355628Y-140261316D02*
X148355628Y-139766077D01*
X148393723Y-159648935D02*
X148393723Y-159267982D01*
X148622295Y-159725125D02*
X147822295Y-159458458D01*
X147822295Y-159458458D02*
X148622295Y-159191792D01*
X148622295Y-158506078D02*
X148622295Y-158963221D01*
X148622295Y-158734649D02*
X147822295Y-158734649D01*
X147822295Y-158734649D02*
X147936580Y-158810840D01*
X147936580Y-158810840D02*
X148012771Y-158887030D01*
X148012771Y-158887030D02*
X148050866Y-158963221D01*
X147822295Y-158239411D02*
X147822295Y-157744173D01*
X147822295Y-157744173D02*
X148127057Y-158010839D01*
X148127057Y-158010839D02*
X148127057Y-157896554D01*
X148127057Y-157896554D02*
X148165152Y-157820363D01*
X148165152Y-157820363D02*
X148203247Y-157782268D01*
X148203247Y-157782268D02*
X148279438Y-157744173D01*
X148279438Y-157744173D02*
X148469914Y-157744173D01*
X148469914Y-157744173D02*
X148546104Y-157782268D01*
X148546104Y-157782268D02*
X148584200Y-157820363D01*
X148584200Y-157820363D02*
X148622295Y-157896554D01*
X148622295Y-157896554D02*
X148622295Y-158125125D01*
X148622295Y-158125125D02*
X148584200Y-158201316D01*
X148584200Y-158201316D02*
X148546104Y-158239411D01*
X150324200Y-141099411D02*
X151352771Y-141785125D01*
X151124200Y-140870840D02*
X151162295Y-140756554D01*
X151162295Y-140756554D02*
X151162295Y-140566078D01*
X151162295Y-140566078D02*
X151124200Y-140489887D01*
X151124200Y-140489887D02*
X151086104Y-140451792D01*
X151086104Y-140451792D02*
X151009914Y-140413697D01*
X151009914Y-140413697D02*
X150933723Y-140413697D01*
X150933723Y-140413697D02*
X150857533Y-140451792D01*
X150857533Y-140451792D02*
X150819438Y-140489887D01*
X150819438Y-140489887D02*
X150781342Y-140566078D01*
X150781342Y-140566078D02*
X150743247Y-140718459D01*
X150743247Y-140718459D02*
X150705152Y-140794649D01*
X150705152Y-140794649D02*
X150667057Y-140832744D01*
X150667057Y-140832744D02*
X150590866Y-140870840D01*
X150590866Y-140870840D02*
X150514676Y-140870840D01*
X150514676Y-140870840D02*
X150438485Y-140832744D01*
X150438485Y-140832744D02*
X150400390Y-140794649D01*
X150400390Y-140794649D02*
X150362295Y-140718459D01*
X150362295Y-140718459D02*
X150362295Y-140527982D01*
X150362295Y-140527982D02*
X150400390Y-140413697D01*
X151162295Y-139689887D02*
X151162295Y-140070839D01*
X151162295Y-140070839D02*
X150362295Y-140070839D01*
X150743247Y-139423220D02*
X150743247Y-139156554D01*
X151162295Y-139042268D02*
X151162295Y-139423220D01*
X151162295Y-139423220D02*
X150362295Y-139423220D01*
X150362295Y-139423220D02*
X150362295Y-139042268D01*
X151162295Y-138699410D02*
X150362295Y-138699410D01*
X150362295Y-138699410D02*
X151162295Y-138242267D01*
X151162295Y-138242267D02*
X150362295Y-138242267D01*
X150743247Y-137594649D02*
X150781342Y-137480363D01*
X150781342Y-137480363D02*
X150819438Y-137442268D01*
X150819438Y-137442268D02*
X150895628Y-137404172D01*
X150895628Y-137404172D02*
X151009914Y-137404172D01*
X151009914Y-137404172D02*
X151086104Y-137442268D01*
X151086104Y-137442268D02*
X151124200Y-137480363D01*
X151124200Y-137480363D02*
X151162295Y-137556553D01*
X151162295Y-137556553D02*
X151162295Y-137861315D01*
X151162295Y-137861315D02*
X150362295Y-137861315D01*
X150362295Y-137861315D02*
X150362295Y-137594649D01*
X150362295Y-137594649D02*
X150400390Y-137518458D01*
X150400390Y-137518458D02*
X150438485Y-137480363D01*
X150438485Y-137480363D02*
X150514676Y-137442268D01*
X150514676Y-137442268D02*
X150590866Y-137442268D01*
X150590866Y-137442268D02*
X150667057Y-137480363D01*
X150667057Y-137480363D02*
X150705152Y-137518458D01*
X150705152Y-137518458D02*
X150743247Y-137594649D01*
X150743247Y-137594649D02*
X150743247Y-137861315D01*
X150933723Y-159648935D02*
X150933723Y-159267982D01*
X151162295Y-159725125D02*
X150362295Y-159458458D01*
X150362295Y-159458458D02*
X151162295Y-159191792D01*
X151162295Y-158506078D02*
X151162295Y-158963221D01*
X151162295Y-158734649D02*
X150362295Y-158734649D01*
X150362295Y-158734649D02*
X150476580Y-158810840D01*
X150476580Y-158810840D02*
X150552771Y-158887030D01*
X150552771Y-158887030D02*
X150590866Y-158963221D01*
X150362295Y-157782268D02*
X150362295Y-158163220D01*
X150362295Y-158163220D02*
X150743247Y-158201316D01*
X150743247Y-158201316D02*
X150705152Y-158163220D01*
X150705152Y-158163220D02*
X150667057Y-158087030D01*
X150667057Y-158087030D02*
X150667057Y-157896554D01*
X150667057Y-157896554D02*
X150705152Y-157820363D01*
X150705152Y-157820363D02*
X150743247Y-157782268D01*
X150743247Y-157782268D02*
X150819438Y-157744173D01*
X150819438Y-157744173D02*
X151009914Y-157744173D01*
X151009914Y-157744173D02*
X151086104Y-157782268D01*
X151086104Y-157782268D02*
X151124200Y-157820363D01*
X151124200Y-157820363D02*
X151162295Y-157896554D01*
X151162295Y-157896554D02*
X151162295Y-158087030D01*
X151162295Y-158087030D02*
X151124200Y-158163220D01*
X151124200Y-158163220D02*
X151086104Y-158201316D01*
D11*
X96985714Y-153192219D02*
X96414286Y-153192219D01*
X96700000Y-153192219D02*
X96700000Y-152192219D01*
X96700000Y-152192219D02*
X96604762Y-152335076D01*
X96604762Y-152335076D02*
X96509524Y-152430314D01*
X96509524Y-152430314D02*
X96414286Y-152477933D01*
%LPC*%
D12*
G04 #@! TO.C,J1*
X102540000Y-150000000D03*
D13*
X102540000Y-147460000D03*
X105080000Y-150000000D03*
X105080000Y-147460000D03*
X107620000Y-150000000D03*
X107620000Y-147460000D03*
X110160000Y-150000000D03*
X110160000Y-147460000D03*
X112700000Y-150000000D03*
X112700000Y-147460000D03*
X115240000Y-150000000D03*
X115240000Y-147460000D03*
X117780000Y-150000000D03*
X117780000Y-147460000D03*
X120320000Y-150000000D03*
X120320000Y-147460000D03*
X122860000Y-150000000D03*
X122860000Y-147460000D03*
X125400000Y-150000000D03*
X125400000Y-147460000D03*
X127940000Y-150000000D03*
X127940000Y-147460000D03*
X130480000Y-150000000D03*
X130480000Y-147460000D03*
X133020000Y-150000000D03*
X133020000Y-147460000D03*
X135560000Y-150000000D03*
X135560000Y-147460000D03*
X138100000Y-150000000D03*
X138100000Y-147460000D03*
X140640000Y-150000000D03*
X140640000Y-147460000D03*
X143180000Y-150000000D03*
X143180000Y-147460000D03*
X145720000Y-150000000D03*
X145720000Y-147460000D03*
X148260000Y-150000000D03*
X148260000Y-147460000D03*
X150800000Y-150000000D03*
X150800000Y-147460000D03*
G04 #@! TD*
D14*
G04 #@! TO.C,J2*
X102540000Y-152540000D03*
D13*
X105080000Y-152540000D03*
X107620000Y-152540000D03*
X110160000Y-152540000D03*
X112700000Y-152540000D03*
X115240000Y-152540000D03*
X117780000Y-152540000D03*
X120320000Y-152540000D03*
X122860000Y-152540000D03*
X125400000Y-152540000D03*
X127940000Y-152540000D03*
X130480000Y-152540000D03*
X133020000Y-152540000D03*
X135560000Y-152540000D03*
X138100000Y-152540000D03*
X140640000Y-152540000D03*
X143180000Y-152540000D03*
X145720000Y-152540000D03*
X148260000Y-152540000D03*
X150800000Y-152540000D03*
G04 #@! TD*
D14*
G04 #@! TO.C,J3*
X102540000Y-144920000D03*
D13*
X105080000Y-144920000D03*
X107620000Y-144920000D03*
X110160000Y-144920000D03*
X112700000Y-144920000D03*
X115240000Y-144920000D03*
X117780000Y-144920000D03*
X120320000Y-144920000D03*
X122860000Y-144920000D03*
X125400000Y-144920000D03*
X127940000Y-144920000D03*
X130480000Y-144920000D03*
X133020000Y-144920000D03*
X135560000Y-144920000D03*
X138100000Y-144920000D03*
X140640000Y-144920000D03*
X143180000Y-144920000D03*
X145720000Y-144920000D03*
X148260000Y-144920000D03*
X150800000Y-144920000D03*
G04 #@! TD*
%LPD*%
M02*
